<svg xmlns="http://www.w3.org/2000/svg" width="1080" height="700" viewBox="0 0 1080 700" font-family="system-ui,Segoe UI,sans-serif">
  <rect width="1080" height="700" fill="#f8fafc"/>
  <text x="30" y="32" font-size="19" font-weight="700" fill="#0f172a">Three-view design chart - AI-Eve-Tug2</text>
  <text x="805" y="56" font-size="15" font-weight="700" fill="#16a34a">LOOKS LIKE A ROCKET</text>
  <text x="118" y="58" font-size="12" font-weight="700" fill="#334155">SIDE</text>
  <text x="355" y="58" font-size="12" font-weight="700" fill="#334155">FRONT</text>
  <text x="594" y="220" font-size="12" font-weight="700" fill="#334155">TOP</text>
  <line x1="150.0" y1="60" x2="150.0" y2="650" stroke="#e2e8f0" stroke-dasharray="4 4"/>
  <line x1="390.0" y1="60" x2="390.0" y2="650" stroke="#e2e8f0" stroke-dasharray="4 4"/>
  <circle cx="625.0" cy="380.0" r="28.2" fill="none" stroke="#94a3b8" stroke-dasharray="4 4"/>
  <rect x="135.9" y="76.0" width="28.2" height="6.4" rx="3" fill="#e2e8f0" stroke="#475569"/><rect x="135.9" y="82.4" width="28.2" height="23.7" rx="3" fill="#e2e8f0" stroke="#475569"/><rect x="135.9" y="106.1" width="28.2" height="4.3" rx="3" fill="#cbd5e1" stroke="#475569"/><rect x="135.9" y="110.4" width="28.2" height="2.3" rx="3" fill="#cbd5e1" stroke="#475569"/><rect x="135.9" y="112.7" width="28.2" height="8.4" rx="3" fill="#cbd5e1" stroke="#475569"/><rect x="135.9" y="121.1" width="28.2" height="33.8" rx="3" fill="#cbd5e1" stroke="#475569"/><rect x="135.9" y="154.9" width="28.2" height="13.5" rx="3" fill="#cbd5e1" stroke="#475569"/><rect x="135.9" y="168.5" width="28.2" height="13.5" rx="3" fill="#cbd5e1" stroke="#475569"/><rect x="135.9" y="182.0" width="28.2" height="13.5" rx="3" fill="#cbd5e1" stroke="#475569"/><rect x="135.9" y="195.5" width="28.2" height="9.0" rx="3" fill="#cbd5e1" stroke="#475569"/><rect x="135.9" y="204.5" width="28.2" height="9.0" rx="3" fill="#cbd5e1" stroke="#475569"/><rect x="135.9" y="213.5" width="28.2" height="9.0" rx="3" fill="#cbd5e1" stroke="#475569"/><rect x="135.9" y="222.5" width="28.2" height="2.3" rx="3" fill="#cbd5e1" stroke="#475569"/><rect x="121.8" y="224.7" width="56.4" height="83.9" rx="3" fill="#cbd5e1" stroke="#475569"/><polygon points="143.1,308.6 156.9,308.6 160.2,328.9 139.8,328.9" fill="#f87171" stroke="#991b1b"/><rect x="135.9" y="328.9" width="28.2" height="2.3" rx="3" fill="#cbd5e1" stroke="#475569"/><rect x="121.8" y="331.2" width="56.4" height="41.5" rx="3" fill="#cbd5e1" stroke="#475569"/><rect x="121.8" y="372.7" width="56.4" height="41.5" rx="3" fill="#cbd5e1" stroke="#475569"/><rect x="121.8" y="414.2" width="56.4" height="41.5" rx="3" fill="#cbd5e1" stroke="#475569"/><rect x="121.8" y="455.7" width="56.4" height="41.5" rx="3" fill="#cbd5e1" stroke="#475569"/><rect x="121.8" y="497.2" width="56.4" height="41.5" rx="3" fill="#cbd5e1" stroke="#475569"/><polygon points="143.1,538.7 156.9,538.7 160.2,574.8 139.8,574.8" fill="#f87171" stroke="#991b1b"/><rect x="159.4" y="94.1" width="14.1" height="1.0" rx="3" fill="#cbd5e1" stroke="#475569"/><rect x="151.8" y="92.4" width="28.2" height="4.5" rx="3" fill="#cbd5e1" stroke="#475569"/><rect x="120.0" y="92.4" width="28.2" height="4.5" rx="3" fill="#cbd5e1" stroke="#475569"/><rect x="135.9" y="92.4" width="28.2" height="4.5" rx="3" fill="#cbd5e1" stroke="#475569"/><rect x="135.9" y="92.4" width="28.2" height="4.5" rx="3" fill="#cbd5e1" stroke="#475569"/><rect x="162.8" y="93.3" width="14.1" height="4.1" rx="3" fill="#cbd5e1" stroke="#475569"/><rect x="116.1" y="92.9" width="28.2" height="5.0" rx="3" fill="#cbd5e1" stroke="#475569"/><rect x="135.9" y="84.1" width="28.2" height="22.6" rx="3" fill="#cbd5e1" stroke="#475569"/><rect x="135.9" y="84.1" width="28.2" height="22.6" rx="3" fill="#cbd5e1" stroke="#475569"/><rect x="156.8" y="92.0" width="14.1" height="14.7" rx="3" fill="#cbd5e1" stroke="#475569"/><rect x="135.9" y="92.0" width="28.2" height="22.6" rx="3" fill="#cbd5e1" stroke="#475569"/><rect x="188.3" y="199.2" width="28.2" height="84.9" rx="3" fill="#cbd5e1" stroke="#475569"/><rect x="173.0" y="199.2" width="28.2" height="84.9" rx="3" fill="#cbd5e1" stroke="#475569"/><rect x="135.9" y="199.2" width="28.2" height="84.9" rx="3" fill="#cbd5e1" stroke="#475569"/><rect x="98.8" y="199.2" width="28.2" height="84.9" rx="3" fill="#cbd5e1" stroke="#475569"/><rect x="83.5" y="199.2" width="28.2" height="84.9" rx="3" fill="#cbd5e1" stroke="#475569"/><rect x="98.8" y="199.2" width="28.2" height="84.9" rx="3" fill="#cbd5e1" stroke="#475569"/><rect x="135.9" y="199.2" width="28.2" height="84.9" rx="3" fill="#cbd5e1" stroke="#475569"/><rect x="173.0" y="199.2" width="28.2" height="84.9" rx="3" fill="#cbd5e1" stroke="#475569"/><rect x="188.3" y="284.1" width="28.2" height="84.9" rx="3" fill="#cbd5e1" stroke="#475569"/><rect x="173.0" y="284.1" width="28.2" height="84.9" rx="3" fill="#cbd5e1" stroke="#475569"/><rect x="135.9" y="284.1" width="28.2" height="84.9" rx="3" fill="#cbd5e1" stroke="#475569"/><rect x="98.8" y="284.1" width="28.2" height="84.9" rx="3" fill="#cbd5e1" stroke="#475569"/><rect x="83.5" y="284.1" width="28.2" height="84.9" rx="3" fill="#cbd5e1" stroke="#475569"/><rect x="98.8" y="284.1" width="28.2" height="84.9" rx="3" fill="#cbd5e1" stroke="#475569"/><rect x="135.9" y="284.1" width="28.2" height="84.9" rx="3" fill="#cbd5e1" stroke="#475569"/><rect x="173.0" y="284.1" width="28.2" height="84.9" rx="3" fill="#cbd5e1" stroke="#475569"/><line x1="221.0" y1="322.2" x2="221.0" y2="360.5" stroke="#64748b" stroke-width="3" stroke-linecap="round"/><line x1="185.5" y1="322.2" x2="185.5" y2="360.5" stroke="#64748b" stroke-width="3" stroke-linecap="round"/><line x1="114.5" y1="322.2" x2="114.5" y2="360.5" stroke="#64748b" stroke-width="3" stroke-linecap="round"/><line x1="79.0" y1="322.2" x2="79.0" y2="360.5" stroke="#64748b" stroke-width="3" stroke-linecap="round"/><line x1="114.5" y1="322.2" x2="114.5" y2="360.5" stroke="#64748b" stroke-width="3" stroke-linecap="round"/><line x1="185.5" y1="322.2" x2="185.5" y2="360.5" stroke="#64748b" stroke-width="3" stroke-linecap="round"/><rect x="178.2" y="371.2" width="13.5" height="13.5" rx="3" fill="#cbd5e1" stroke="#475569"/><rect x="168.0" y="371.2" width="13.5" height="13.5" rx="3" fill="#cbd5e1" stroke="#475569"/><rect x="143.2" y="371.2" width="13.5" height="13.5" rx="3" fill="#cbd5e1" stroke="#475569"/><rect x="118.5" y="371.2" width="13.5" height="13.5" rx="3" fill="#cbd5e1" stroke="#475569"/><rect x="108.3" y="371.2" width="13.5" height="13.5" rx="3" fill="#cbd5e1" stroke="#475569"/><rect x="118.5" y="371.2" width="13.5" height="13.5" rx="3" fill="#cbd5e1" stroke="#475569"/><rect x="143.2" y="371.2" width="13.5" height="13.5" rx="3" fill="#cbd5e1" stroke="#475569"/><rect x="168.0" y="371.2" width="13.5" height="13.5" rx="3" fill="#cbd5e1" stroke="#475569"/><rect x="188.3" y="369.0" width="28.2" height="84.9" rx="3" fill="#cbd5e1" stroke="#475569"/><rect x="173.0" y="369.0" width="28.2" height="84.9" rx="3" fill="#cbd5e1" stroke="#475569"/><rect x="135.9" y="369.0" width="28.2" height="84.9" rx="3" fill="#cbd5e1" stroke="#475569"/><rect x="98.8" y="369.0" width="28.2" height="84.9" rx="3" fill="#cbd5e1" stroke="#475569"/><rect x="83.5" y="369.0" width="28.2" height="84.9" rx="3" fill="#cbd5e1" stroke="#475569"/><rect x="98.8" y="369.0" width="28.2" height="84.9" rx="3" fill="#cbd5e1" stroke="#475569"/><rect x="135.9" y="369.0" width="28.2" height="84.9" rx="3" fill="#cbd5e1" stroke="#475569"/><rect x="173.0" y="369.0" width="28.2" height="84.9" rx="3" fill="#cbd5e1" stroke="#475569"/><rect x="188.3" y="453.8" width="28.2" height="84.9" rx="3" fill="#cbd5e1" stroke="#475569"/><rect x="173.0" y="453.8" width="28.2" height="84.9" rx="3" fill="#cbd5e1" stroke="#475569"/><rect x="135.9" y="453.8" width="28.2" height="84.9" rx="3" fill="#cbd5e1" stroke="#475569"/><rect x="98.8" y="453.8" width="28.2" height="84.9" rx="3" fill="#cbd5e1" stroke="#475569"/><rect x="83.5" y="453.8" width="28.2" height="84.9" rx="3" fill="#cbd5e1" stroke="#475569"/><rect x="98.8" y="453.8" width="28.2" height="84.9" rx="3" fill="#cbd5e1" stroke="#475569"/><rect x="135.9" y="453.8" width="28.2" height="84.9" rx="3" fill="#cbd5e1" stroke="#475569"/><rect x="173.0" y="453.8" width="28.2" height="84.9" rx="3" fill="#cbd5e1" stroke="#475569"/><polygon points="187.2,517.0 179.2,557.6 195.2,557.6" fill="#94a3b8" stroke="#475569" opacity="0.88"/><polygon points="176.3,517.0 168.3,557.6 184.3,557.6" fill="#94a3b8" stroke="#475569" opacity="0.88"/><polygon points="150.0,517.0 142.0,557.6 158.0,557.6" fill="#94a3b8" stroke="#475569" opacity="0.88"/><polygon points="123.7,517.0 115.7,557.6 131.7,557.6" fill="#94a3b8" stroke="#475569" opacity="0.88"/><polygon points="112.8,517.0 104.8,557.6 120.8,557.6" fill="#94a3b8" stroke="#475569" opacity="0.88"/><polygon points="123.7,517.0 115.7,557.6 131.7,557.6" fill="#94a3b8" stroke="#475569" opacity="0.88"/><polygon points="150.0,517.0 142.0,557.6 158.0,557.6" fill="#94a3b8" stroke="#475569" opacity="0.88"/><polygon points="176.3,517.0 168.3,557.6 184.3,557.6" fill="#94a3b8" stroke="#475569" opacity="0.88"/><polygon points="195.5,538.7 209.3,538.7 212.6,574.8 192.3,574.8" fill="#f87171" stroke="#991b1b"/><polygon points="180.2,538.7 194.0,538.7 197.2,574.8 176.9,574.8" fill="#f87171" stroke="#991b1b"/><polygon points="143.1,538.7 156.9,538.7 160.2,574.8 139.8,574.8" fill="#f87171" stroke="#991b1b"/><polygon points="106.0,538.7 119.8,538.7 123.1,574.8 102.8,574.8" fill="#f87171" stroke="#991b1b"/><polygon points="90.7,538.7 104.5,538.7 107.7,574.8 87.4,574.8" fill="#f87171" stroke="#991b1b"/><polygon points="106.0,538.7 119.8,538.7 123.1,574.8 102.8,574.8" fill="#f87171" stroke="#991b1b"/><polygon points="143.1,538.7 156.9,538.7 160.2,574.8 139.8,574.8" fill="#f87171" stroke="#991b1b"/><polygon points="180.2,538.7 194.0,538.7 197.2,574.8 176.9,574.8" fill="#f87171" stroke="#991b1b"/>
  <rect x="375.9" y="76.0" width="28.2" height="6.4" rx="3" fill="#e2e8f0" stroke="#475569"/><rect x="375.9" y="82.4" width="28.2" height="23.7" rx="3" fill="#e2e8f0" stroke="#475569"/><rect x="375.9" y="106.1" width="28.2" height="4.3" rx="3" fill="#cbd5e1" stroke="#475569"/><rect x="375.9" y="110.4" width="28.2" height="2.3" rx="3" fill="#cbd5e1" stroke="#475569"/><rect x="375.9" y="112.7" width="28.2" height="8.4" rx="3" fill="#cbd5e1" stroke="#475569"/><rect x="375.9" y="121.1" width="28.2" height="33.8" rx="3" fill="#cbd5e1" stroke="#475569"/><rect x="375.9" y="154.9" width="28.2" height="13.5" rx="3" fill="#cbd5e1" stroke="#475569"/><rect x="375.9" y="168.5" width="28.2" height="13.5" rx="3" fill="#cbd5e1" stroke="#475569"/><rect x="375.9" y="182.0" width="28.2" height="13.5" rx="3" fill="#cbd5e1" stroke="#475569"/><rect x="375.9" y="195.5" width="28.2" height="9.0" rx="3" fill="#cbd5e1" stroke="#475569"/><rect x="375.9" y="204.5" width="28.2" height="9.0" rx="3" fill="#cbd5e1" stroke="#475569"/><rect x="375.9" y="213.5" width="28.2" height="9.0" rx="3" fill="#cbd5e1" stroke="#475569"/><rect x="375.9" y="222.5" width="28.2" height="2.3" rx="3" fill="#cbd5e1" stroke="#475569"/><rect x="361.8" y="224.7" width="56.4" height="83.9" rx="3" fill="#cbd5e1" stroke="#475569"/><polygon points="383.1,308.6 396.9,308.6 400.2,328.9 379.8,328.9" fill="#f87171" stroke="#991b1b"/><rect x="375.9" y="328.9" width="28.2" height="2.3" rx="3" fill="#cbd5e1" stroke="#475569"/><rect x="361.8" y="331.2" width="56.4" height="41.5" rx="3" fill="#cbd5e1" stroke="#475569"/><rect x="361.8" y="372.7" width="56.4" height="41.5" rx="3" fill="#cbd5e1" stroke="#475569"/><rect x="361.8" y="414.2" width="56.4" height="41.5" rx="3" fill="#cbd5e1" stroke="#475569"/><rect x="361.8" y="455.7" width="56.4" height="41.5" rx="3" fill="#cbd5e1" stroke="#475569"/><rect x="361.8" y="497.2" width="56.4" height="41.5" rx="3" fill="#cbd5e1" stroke="#475569"/><polygon points="383.1,538.7 396.9,538.7 400.2,574.8 379.8,574.8" fill="#f87171" stroke="#991b1b"/><rect x="383.0" y="94.1" width="14.1" height="1.0" rx="3" fill="#cbd5e1" stroke="#475569"/><rect x="375.9" y="92.4" width="28.2" height="4.5" rx="3" fill="#cbd5e1" stroke="#475569"/><rect x="375.9" y="92.4" width="28.2" height="4.5" rx="3" fill="#cbd5e1" stroke="#475569"/><rect x="391.8" y="92.4" width="28.2" height="4.5" rx="3" fill="#cbd5e1" stroke="#475569"/><rect x="360.0" y="92.4" width="28.2" height="4.5" rx="3" fill="#cbd5e1" stroke="#475569"/><rect x="383.0" y="93.3" width="14.1" height="4.1" rx="3" fill="#cbd5e1" stroke="#475569"/><rect x="375.9" y="92.9" width="28.2" height="5.0" rx="3" fill="#cbd5e1" stroke="#475569"/><rect x="395.8" y="84.1" width="28.2" height="22.6" rx="3" fill="#cbd5e1" stroke="#475569"/><rect x="356.1" y="84.1" width="28.2" height="22.6" rx="3" fill="#cbd5e1" stroke="#475569"/><rect x="396.8" y="92.0" width="14.1" height="14.7" rx="3" fill="#cbd5e1" stroke="#475569"/><rect x="391.8" y="92.0" width="28.2" height="22.6" rx="3" fill="#cbd5e1" stroke="#475569"/><rect x="375.9" y="199.2" width="28.2" height="84.9" rx="3" fill="#cbd5e1" stroke="#475569"/><rect x="413.0" y="199.2" width="28.2" height="84.9" rx="3" fill="#cbd5e1" stroke="#475569"/><rect x="428.3" y="199.2" width="28.2" height="84.9" rx="3" fill="#cbd5e1" stroke="#475569"/><rect x="413.0" y="199.2" width="28.2" height="84.9" rx="3" fill="#cbd5e1" stroke="#475569"/><rect x="375.9" y="199.2" width="28.2" height="84.9" rx="3" fill="#cbd5e1" stroke="#475569"/><rect x="338.8" y="199.2" width="28.2" height="84.9" rx="3" fill="#cbd5e1" stroke="#475569"/><rect x="323.5" y="199.2" width="28.2" height="84.9" rx="3" fill="#cbd5e1" stroke="#475569"/><rect x="338.8" y="199.2" width="28.2" height="84.9" rx="3" fill="#cbd5e1" stroke="#475569"/><rect x="375.9" y="284.1" width="28.2" height="84.9" rx="3" fill="#cbd5e1" stroke="#475569"/><rect x="413.0" y="284.1" width="28.2" height="84.9" rx="3" fill="#cbd5e1" stroke="#475569"/><rect x="428.3" y="284.1" width="28.2" height="84.9" rx="3" fill="#cbd5e1" stroke="#475569"/><rect x="413.0" y="284.1" width="28.2" height="84.9" rx="3" fill="#cbd5e1" stroke="#475569"/><rect x="375.9" y="284.1" width="28.2" height="84.9" rx="3" fill="#cbd5e1" stroke="#475569"/><rect x="338.8" y="284.1" width="28.2" height="84.9" rx="3" fill="#cbd5e1" stroke="#475569"/><rect x="323.5" y="284.1" width="28.2" height="84.9" rx="3" fill="#cbd5e1" stroke="#475569"/><rect x="338.8" y="284.1" width="28.2" height="84.9" rx="3" fill="#cbd5e1" stroke="#475569"/><line x1="390.0" y1="322.2" x2="390.0" y2="360.5" stroke="#64748b" stroke-width="3" stroke-linecap="round"/><line x1="451.5" y1="322.2" x2="451.5" y2="360.5" stroke="#64748b" stroke-width="3" stroke-linecap="round"/><line x1="451.5" y1="322.2" x2="451.5" y2="360.5" stroke="#64748b" stroke-width="3" stroke-linecap="round"/><line x1="390.0" y1="322.2" x2="390.0" y2="360.5" stroke="#64748b" stroke-width="3" stroke-linecap="round"/><line x1="328.5" y1="322.2" x2="328.5" y2="360.5" stroke="#64748b" stroke-width="3" stroke-linecap="round"/><line x1="328.5" y1="322.2" x2="328.5" y2="360.5" stroke="#64748b" stroke-width="3" stroke-linecap="round"/><rect x="383.2" y="371.2" width="13.5" height="13.5" rx="3" fill="#cbd5e1" stroke="#475569"/><rect x="408.0" y="371.2" width="13.5" height="13.5" rx="3" fill="#cbd5e1" stroke="#475569"/><rect x="418.2" y="371.2" width="13.5" height="13.5" rx="3" fill="#cbd5e1" stroke="#475569"/><rect x="408.0" y="371.2" width="13.5" height="13.5" rx="3" fill="#cbd5e1" stroke="#475569"/><rect x="383.2" y="371.2" width="13.5" height="13.5" rx="3" fill="#cbd5e1" stroke="#475569"/><rect x="358.5" y="371.2" width="13.5" height="13.5" rx="3" fill="#cbd5e1" stroke="#475569"/><rect x="348.3" y="371.2" width="13.5" height="13.5" rx="3" fill="#cbd5e1" stroke="#475569"/><rect x="358.5" y="371.2" width="13.5" height="13.5" rx="3" fill="#cbd5e1" stroke="#475569"/><rect x="375.9" y="369.0" width="28.2" height="84.9" rx="3" fill="#cbd5e1" stroke="#475569"/><rect x="413.0" y="369.0" width="28.2" height="84.9" rx="3" fill="#cbd5e1" stroke="#475569"/><rect x="428.3" y="369.0" width="28.2" height="84.9" rx="3" fill="#cbd5e1" stroke="#475569"/><rect x="413.0" y="369.0" width="28.2" height="84.9" rx="3" fill="#cbd5e1" stroke="#475569"/><rect x="375.9" y="369.0" width="28.2" height="84.9" rx="3" fill="#cbd5e1" stroke="#475569"/><rect x="338.8" y="369.0" width="28.2" height="84.9" rx="3" fill="#cbd5e1" stroke="#475569"/><rect x="323.5" y="369.0" width="28.2" height="84.9" rx="3" fill="#cbd5e1" stroke="#475569"/><rect x="338.8" y="369.0" width="28.2" height="84.9" rx="3" fill="#cbd5e1" stroke="#475569"/><rect x="375.9" y="453.8" width="28.2" height="84.9" rx="3" fill="#cbd5e1" stroke="#475569"/><rect x="413.0" y="453.8" width="28.2" height="84.9" rx="3" fill="#cbd5e1" stroke="#475569"/><rect x="428.3" y="453.8" width="28.2" height="84.9" rx="3" fill="#cbd5e1" stroke="#475569"/><rect x="413.0" y="453.8" width="28.2" height="84.9" rx="3" fill="#cbd5e1" stroke="#475569"/><rect x="375.9" y="453.8" width="28.2" height="84.9" rx="3" fill="#cbd5e1" stroke="#475569"/><rect x="338.8" y="453.8" width="28.2" height="84.9" rx="3" fill="#cbd5e1" stroke="#475569"/><rect x="323.5" y="453.8" width="28.2" height="84.9" rx="3" fill="#cbd5e1" stroke="#475569"/><rect x="338.8" y="453.8" width="28.2" height="84.9" rx="3" fill="#cbd5e1" stroke="#475569"/><polygon points="390.0,517.0 382.0,557.6 398.0,557.6" fill="#94a3b8" stroke="#475569" opacity="0.88"/><polygon points="416.3,517.0 408.3,557.6 424.3,557.6" fill="#94a3b8" stroke="#475569" opacity="0.88"/><polygon points="427.2,517.0 419.2,557.6 435.2,557.6" fill="#94a3b8" stroke="#475569" opacity="0.88"/><polygon points="416.3,517.0 408.3,557.6 424.3,557.6" fill="#94a3b8" stroke="#475569" opacity="0.88"/><polygon points="390.0,517.0 382.0,557.6 398.0,557.6" fill="#94a3b8" stroke="#475569" opacity="0.88"/><polygon points="363.7,517.0 355.7,557.6 371.7,557.6" fill="#94a3b8" stroke="#475569" opacity="0.88"/><polygon points="352.8,517.0 344.8,557.6 360.8,557.6" fill="#94a3b8" stroke="#475569" opacity="0.88"/><polygon points="363.7,517.0 355.7,557.6 371.7,557.6" fill="#94a3b8" stroke="#475569" opacity="0.88"/><polygon points="383.1,538.7 396.9,538.7 400.2,574.8 379.8,574.8" fill="#f87171" stroke="#991b1b"/><polygon points="420.2,538.7 434.0,538.7 437.2,574.8 416.9,574.8" fill="#f87171" stroke="#991b1b"/><polygon points="435.5,538.7 449.3,538.7 452.6,574.8 432.3,574.8" fill="#f87171" stroke="#991b1b"/><polygon points="420.2,538.7 434.0,538.7 437.2,574.8 416.9,574.8" fill="#f87171" stroke="#991b1b"/><polygon points="383.1,538.7 396.9,538.7 400.2,574.8 379.8,574.8" fill="#f87171" stroke="#991b1b"/><polygon points="346.0,538.7 359.8,538.7 363.1,574.8 342.8,574.8" fill="#f87171" stroke="#991b1b"/><polygon points="330.7,538.7 344.5,538.7 347.7,574.8 327.4,574.8" fill="#f87171" stroke="#991b1b"/><polygon points="346.0,538.7 359.8,538.7 363.1,574.8 342.8,574.8" fill="#f87171" stroke="#991b1b"/>
  <circle cx="625.0" cy="380.0" r="28.2" fill="#cbd5e1" stroke="#475569" opacity="0.30"/><circle cx="625.0" cy="380.0" r="28.2" fill="#cbd5e1" stroke="#475569" opacity="0.30"/><circle cx="625.0" cy="380.0" r="28.2" fill="#cbd5e1" stroke="#475569" opacity="0.30"/><circle cx="625.0" cy="380.0" r="28.2" fill="#cbd5e1" stroke="#475569" opacity="0.30"/><circle cx="625.0" cy="380.0" r="28.2" fill="#cbd5e1" stroke="#475569" opacity="0.30"/><circle cx="625.0" cy="380.0" r="28.2" fill="#cbd5e1" stroke="#475569" opacity="0.30"/><circle cx="625.0" cy="380.0" r="14.1" fill="#e2e8f0" stroke="#475569" opacity="0.30"/><circle cx="625.0" cy="380.0" r="14.1" fill="#cbd5e1" stroke="#475569" opacity="0.30"/><circle cx="641.4" cy="380.0" r="7.0" fill="#cbd5e1" stroke="#334155" opacity="0.80"/><circle cx="677.4" cy="380.0" r="10.2" fill="#f87171" stroke="#334155" opacity="0.80"/><circle cx="677.4" cy="380.0" r="14.1" fill="#cbd5e1" stroke="#334155" opacity="0.80"/><circle cx="677.4" cy="380.0" r="14.1" fill="#cbd5e1" stroke="#334155" opacity="0.80"/><circle cx="677.4" cy="380.0" r="14.1" fill="#cbd5e1" stroke="#334155" opacity="0.80"/><circle cx="677.4" cy="380.0" r="14.1" fill="#cbd5e1" stroke="#334155" opacity="0.80"/><circle cx="660.0" cy="380.0" r="6.8" fill="#cbd5e1" stroke="#334155" opacity="0.80"/><circle cx="662.1" cy="417.1" r="10.2" fill="#f87171" stroke="#334155" opacity="0.80"/><circle cx="662.1" cy="417.1" r="14.1" fill="#cbd5e1" stroke="#334155" opacity="0.80"/><circle cx="662.1" cy="417.1" r="14.1" fill="#cbd5e1" stroke="#334155" opacity="0.80"/><circle cx="662.1" cy="417.1" r="14.1" fill="#cbd5e1" stroke="#334155" opacity="0.80"/><circle cx="662.1" cy="417.1" r="14.1" fill="#cbd5e1" stroke="#334155" opacity="0.80"/><circle cx="649.7" cy="404.7" r="6.8" fill="#cbd5e1" stroke="#334155" opacity="0.80"/><circle cx="625.0" cy="432.4" r="10.2" fill="#f87171" stroke="#334155" opacity="0.80"/><circle cx="625.0" cy="432.4" r="14.1" fill="#cbd5e1" stroke="#334155" opacity="0.80"/><circle cx="625.0" cy="432.4" r="14.1" fill="#cbd5e1" stroke="#334155" opacity="0.80"/><circle cx="625.0" cy="432.4" r="14.1" fill="#cbd5e1" stroke="#334155" opacity="0.80"/><circle cx="625.0" cy="432.4" r="14.1" fill="#cbd5e1" stroke="#334155" opacity="0.80"/><circle cx="625.0" cy="415.0" r="6.8" fill="#cbd5e1" stroke="#334155" opacity="0.80"/><circle cx="587.9" cy="417.1" r="10.2" fill="#f87171" stroke="#334155" opacity="0.80"/><circle cx="587.9" cy="417.1" r="14.1" fill="#cbd5e1" stroke="#334155" opacity="0.80"/><circle cx="587.9" cy="417.1" r="14.1" fill="#cbd5e1" stroke="#334155" opacity="0.80"/><circle cx="587.9" cy="417.1" r="14.1" fill="#cbd5e1" stroke="#334155" opacity="0.80"/><circle cx="587.9" cy="417.1" r="14.1" fill="#cbd5e1" stroke="#334155" opacity="0.80"/><circle cx="600.3" cy="404.7" r="6.8" fill="#cbd5e1" stroke="#334155" opacity="0.80"/><circle cx="572.6" cy="380.0" r="10.2" fill="#f87171" stroke="#334155" opacity="0.80"/><circle cx="572.6" cy="380.0" r="14.1" fill="#cbd5e1" stroke="#334155" opacity="0.80"/><circle cx="572.6" cy="380.0" r="14.1" fill="#cbd5e1" stroke="#334155" opacity="0.80"/><circle cx="572.6" cy="380.0" r="14.1" fill="#cbd5e1" stroke="#334155" opacity="0.80"/><circle cx="572.6" cy="380.0" r="14.1" fill="#cbd5e1" stroke="#334155" opacity="0.80"/><circle cx="590.0" cy="380.0" r="6.8" fill="#cbd5e1" stroke="#334155" opacity="0.80"/><circle cx="587.9" cy="342.9" r="10.2" fill="#f87171" stroke="#334155" opacity="0.80"/><circle cx="587.9" cy="342.9" r="14.1" fill="#cbd5e1" stroke="#334155" opacity="0.80"/><circle cx="587.9" cy="342.9" r="14.1" fill="#cbd5e1" stroke="#334155" opacity="0.80"/><circle cx="587.9" cy="342.9" r="14.1" fill="#cbd5e1" stroke="#334155" opacity="0.80"/><circle cx="587.9" cy="342.9" r="14.1" fill="#cbd5e1" stroke="#334155" opacity="0.80"/><circle cx="600.3" cy="355.3" r="6.8" fill="#cbd5e1" stroke="#334155" opacity="0.80"/><circle cx="625.0" cy="327.6" r="10.2" fill="#f87171" stroke="#334155" opacity="0.80"/><circle cx="625.0" cy="327.6" r="14.1" fill="#cbd5e1" stroke="#334155" opacity="0.80"/><circle cx="625.0" cy="327.6" r="14.1" fill="#cbd5e1" stroke="#334155" opacity="0.80"/><circle cx="625.0" cy="327.6" r="14.1" fill="#cbd5e1" stroke="#334155" opacity="0.80"/><circle cx="625.0" cy="327.6" r="14.1" fill="#cbd5e1" stroke="#334155" opacity="0.80"/><circle cx="625.0" cy="345.0" r="6.8" fill="#cbd5e1" stroke="#334155" opacity="0.80"/><circle cx="662.1" cy="342.9" r="10.2" fill="#f87171" stroke="#334155" opacity="0.80"/><circle cx="662.1" cy="342.9" r="14.1" fill="#cbd5e1" stroke="#334155" opacity="0.80"/><circle cx="662.1" cy="342.9" r="14.1" fill="#cbd5e1" stroke="#334155" opacity="0.80"/><circle cx="662.1" cy="342.9" r="14.1" fill="#cbd5e1" stroke="#334155" opacity="0.80"/><circle cx="662.1" cy="342.9" r="14.1" fill="#cbd5e1" stroke="#334155" opacity="0.80"/><circle cx="649.7" cy="355.3" r="6.8" fill="#cbd5e1" stroke="#334155" opacity="0.80"/><circle cx="644.8" cy="380.0" r="7.0" fill="#cbd5e1" stroke="#334155" opacity="0.80"/><circle cx="605.2" cy="380.0" r="14.1" fill="#cbd5e1" stroke="#334155" opacity="0.80"/><circle cx="625.0" cy="399.8" r="14.1" fill="#cbd5e1" stroke="#334155" opacity="0.80"/><circle cx="625.0" cy="360.2" r="14.1" fill="#cbd5e1" stroke="#334155" opacity="0.80"/><circle cx="638.9" cy="393.9" r="7.0" fill="#cbd5e1" stroke="#334155" opacity="0.80"/><circle cx="640.9" cy="380.0" r="14.1" fill="#cbd5e1" stroke="#334155" opacity="0.80"/><circle cx="609.1" cy="380.0" r="14.1" fill="#cbd5e1" stroke="#334155" opacity="0.80"/><circle cx="625.0" cy="395.9" r="14.1" fill="#cbd5e1" stroke="#334155" opacity="0.80"/><circle cx="625.0" cy="364.1" r="14.1" fill="#cbd5e1" stroke="#334155" opacity="0.80"/><circle cx="625.0" cy="395.9" r="14.1" fill="#cbd5e1" stroke="#334155" opacity="0.80"/><circle cx="662.2" cy="380.0" r="3.9" fill="#94a3b8" stroke="#334155" opacity="0.80"/><circle cx="651.3" cy="406.3" r="3.9" fill="#94a3b8" stroke="#334155" opacity="0.80"/><circle cx="625.0" cy="417.2" r="3.9" fill="#94a3b8" stroke="#334155" opacity="0.80"/><circle cx="598.7" cy="406.3" r="3.9" fill="#94a3b8" stroke="#334155" opacity="0.80"/><circle cx="587.8" cy="380.0" r="3.9" fill="#94a3b8" stroke="#334155" opacity="0.80"/><circle cx="598.7" cy="353.7" r="3.9" fill="#94a3b8" stroke="#334155" opacity="0.80"/><circle cx="625.0" cy="342.8" r="3.9" fill="#94a3b8" stroke="#334155" opacity="0.80"/><circle cx="651.3" cy="353.7" r="3.9" fill="#94a3b8" stroke="#334155" opacity="0.80"/><circle cx="696.0" cy="380.0" r="3.9" fill="#64748b" stroke="#334155" opacity="0.80"/><circle cx="660.5" cy="441.5" r="3.9" fill="#64748b" stroke="#334155" opacity="0.80"/><circle cx="589.5" cy="441.5" r="3.9" fill="#64748b" stroke="#334155" opacity="0.80"/><circle cx="554.0" cy="380.0" r="3.9" fill="#64748b" stroke="#334155" opacity="0.80"/><circle cx="589.5" cy="318.5" r="3.9" fill="#64748b" stroke="#334155" opacity="0.80"/><circle cx="660.5" cy="318.5" r="3.9" fill="#64748b" stroke="#334155" opacity="0.80"/>
  <text x="805" y="94" font-size="12" fill="#16a34a">PASS - slender body (4 &lt;= L/D &lt;= 19)</text><text x="805" y="116" font-size="12" fill="#16a34a">PASS - monotonic taper (widest toward base)</text><text x="805" y="138" font-size="12" fill="#16a34a">PASS - payload housed (fairing or capsule top)</text><text x="805" y="160" font-size="12" fill="#16a34a">PASS - engine at the base</text><text x="805" y="182" font-size="12" fill="#16a34a">PASS - controlled ascent margin</text><text x="805" y="204" font-size="12" fill="#16a34a">PASS - radial protrusions within ascent envelope</text><text x="805" y="226" font-size="12" fill="#16a34a">PASS - landing gear tip-over stable</text><text x="805" y="248" font-size="12" fill="#16a34a">PASS - symmetric strap-on boosters</text>
  <text x="805" y="280" font-size="12" fill="#0f172a">L/D 8.8:1</text><text x="805" y="298" font-size="12" fill="#0f172a">length 22.11 m</text><text x="805" y="316" font-size="12" fill="#0f172a">body dia 2.5 m</text><text x="805" y="334" font-size="12" fill="#0f172a">core span 3.65 m</text><text x="805" y="352" font-size="12" fill="#0f172a">8x radial boosters (span 5.9 m)</text><text x="805" y="370" font-size="12" fill="#0f172a">full span 6.65 m</text><text x="805" y="388" font-size="12" fill="#0f172a">static 0.25 cal</text><text x="805" y="406" font-size="12" fill="#0f172a">Cd 0.232</text><text x="805" y="424" font-size="12" fill="#0f172a">drag loss 63.0 m/s</text><text x="805" y="442" font-size="12" fill="#0f172a">max-Q 88.4 kPa</text>
</svg>