<svg xmlns="http://www.w3.org/2000/svg" width="1080" height="700" viewBox="0 0 1080 700" font-family="system-ui,Segoe UI,sans-serif">
  <rect width="1080" height="700" fill="#f8fafc"/>
  <text x="30" y="32" font-size="19" font-weight="700" fill="#0f172a">Three-view design chart - AI-Eve-Ferry2</text>
  <text x="805" y="56" font-size="15" font-weight="700" fill="#16a34a">LOOKS LIKE A ROCKET</text>
  <text x="118" y="58" font-size="12" font-weight="700" fill="#334155">SIDE</text>
  <text x="355" y="58" font-size="12" font-weight="700" fill="#334155">FRONT</text>
  <text x="594" y="220" font-size="12" font-weight="700" fill="#334155">TOP</text>
  <line x1="150.0" y1="60" x2="150.0" y2="650" stroke="#e2e8f0" stroke-dasharray="4 4"/>
  <line x1="390.0" y1="60" x2="390.0" y2="650" stroke="#e2e8f0" stroke-dasharray="4 4"/>
  <circle cx="625.0" cy="380.0" r="31.8" fill="none" stroke="#94a3b8" stroke-dasharray="4 4"/>
  <rect x="134.1" y="76.0" width="31.8" height="7.2" rx="3" fill="#e2e8f0" stroke="#475569"/><rect x="134.1" y="83.2" width="31.8" height="26.7" rx="3" fill="#e2e8f0" stroke="#475569"/><rect x="134.1" y="109.9" width="31.8" height="4.9" rx="3" fill="#cbd5e1" stroke="#475569"/><rect x="134.1" y="114.8" width="31.8" height="2.5" rx="3" fill="#cbd5e1" stroke="#475569"/><rect x="134.1" y="117.3" width="31.8" height="9.5" rx="3" fill="#cbd5e1" stroke="#475569"/><rect x="134.1" y="126.8" width="31.8" height="38.1" rx="3" fill="#cbd5e1" stroke="#475569"/><rect x="134.1" y="165.0" width="31.8" height="15.3" rx="3" fill="#cbd5e1" stroke="#475569"/><rect x="134.1" y="180.2" width="31.8" height="15.3" rx="3" fill="#cbd5e1" stroke="#475569"/><rect x="134.1" y="195.5" width="31.8" height="15.3" rx="3" fill="#cbd5e1" stroke="#475569"/><rect x="134.1" y="210.7" width="31.8" height="10.1" rx="3" fill="#cbd5e1" stroke="#475569"/><rect x="134.1" y="220.8" width="31.8" height="10.1" rx="3" fill="#cbd5e1" stroke="#475569"/><rect x="134.1" y="231.0" width="31.8" height="10.1" rx="3" fill="#cbd5e1" stroke="#475569"/><rect x="134.1" y="241.1" width="31.8" height="2.5" rx="3" fill="#cbd5e1" stroke="#475569"/><rect x="118.2" y="243.6" width="63.6" height="23.1" rx="3" fill="#cbd5e1" stroke="#475569"/><rect x="118.2" y="266.8" width="63.6" height="23.1" rx="3" fill="#cbd5e1" stroke="#475569"/><rect x="118.2" y="289.9" width="63.6" height="23.1" rx="3" fill="#cbd5e1" stroke="#475569"/><polygon points="142.2,313.0 157.8,313.0 161.4,335.9 138.6,335.9" fill="#f87171" stroke="#991b1b"/><rect x="134.1" y="335.9" width="31.8" height="2.5" rx="3" fill="#cbd5e1" stroke="#475569"/><rect x="118.2" y="338.5" width="63.6" height="189.7" rx="3" fill="#cbd5e1" stroke="#475569"/><polygon points="142.2,528.1 157.8,528.1 161.4,568.8 138.6,568.8" fill="#f87171" stroke="#991b1b"/><rect x="193.2" y="-45.8" width="31.8" height="95.7" rx="3" fill="#cbd5e1" stroke="#475569"/><rect x="134.1" y="-45.8" width="31.8" height="95.7" rx="3" fill="#cbd5e1" stroke="#475569"/><rect x="75.0" y="-45.8" width="31.8" height="95.7" rx="3" fill="#cbd5e1" stroke="#475569"/><rect x="134.1" y="-45.8" width="31.8" height="95.7" rx="3" fill="#cbd5e1" stroke="#475569"/><rect x="152.0" y="94.5" width="31.8" height="5.1" rx="3" fill="#cbd5e1" stroke="#475569"/><rect x="116.2" y="94.5" width="31.8" height="5.1" rx="3" fill="#cbd5e1" stroke="#475569"/><rect x="134.1" y="94.5" width="31.8" height="5.1" rx="3" fill="#cbd5e1" stroke="#475569"/><rect x="134.1" y="94.5" width="31.8" height="5.1" rx="3" fill="#cbd5e1" stroke="#475569"/><rect x="193.2" y="49.8" width="31.8" height="95.7" rx="3" fill="#cbd5e1" stroke="#475569"/><rect x="134.1" y="49.8" width="31.8" height="95.7" rx="3" fill="#cbd5e1" stroke="#475569"/><rect x="75.0" y="49.8" width="31.8" height="95.7" rx="3" fill="#cbd5e1" stroke="#475569"/><rect x="134.1" y="49.8" width="31.8" height="95.7" rx="3" fill="#cbd5e1" stroke="#475569"/><rect x="164.4" y="95.5" width="15.9" height="4.6" rx="3" fill="#cbd5e1" stroke="#475569"/><rect x="111.7" y="95.0" width="31.8" height="5.6" rx="3" fill="#cbd5e1" stroke="#475569"/><rect x="134.1" y="85.1" width="31.8" height="25.4" rx="3" fill="#cbd5e1" stroke="#475569"/><rect x="134.1" y="85.1" width="31.8" height="25.4" rx="3" fill="#cbd5e1" stroke="#475569"/><rect x="157.7" y="94.1" width="15.9" height="16.6" rx="3" fill="#cbd5e1" stroke="#475569"/><rect x="134.1" y="94.0" width="31.8" height="25.4" rx="3" fill="#cbd5e1" stroke="#475569"/><rect x="193.2" y="145.5" width="31.8" height="95.7" rx="3" fill="#cbd5e1" stroke="#475569"/><rect x="134.1" y="145.5" width="31.8" height="95.7" rx="3" fill="#cbd5e1" stroke="#475569"/><rect x="75.0" y="145.5" width="31.8" height="95.7" rx="3" fill="#cbd5e1" stroke="#475569"/><rect x="134.1" y="145.5" width="31.8" height="95.7" rx="3" fill="#cbd5e1" stroke="#475569"/><rect x="181.8" y="243.7" width="15.3" height="15.3" rx="3" fill="#cbd5e1" stroke="#475569"/><rect x="142.4" y="243.7" width="15.3" height="15.3" rx="3" fill="#cbd5e1" stroke="#475569"/><rect x="103.0" y="243.7" width="15.3" height="15.3" rx="3" fill="#cbd5e1" stroke="#475569"/><rect x="142.4" y="243.7" width="15.3" height="15.3" rx="3" fill="#cbd5e1" stroke="#475569"/><rect x="193.2" y="241.1" width="31.8" height="95.7" rx="3" fill="#cbd5e1" stroke="#475569"/><rect x="134.1" y="241.1" width="31.8" height="95.7" rx="3" fill="#cbd5e1" stroke="#475569"/><rect x="75.0" y="241.1" width="31.8" height="95.7" rx="3" fill="#cbd5e1" stroke="#475569"/><rect x="134.1" y="241.1" width="31.8" height="95.7" rx="3" fill="#cbd5e1" stroke="#475569"/><rect x="193.2" y="336.8" width="31.8" height="95.7" rx="3" fill="#cbd5e1" stroke="#475569"/><rect x="134.1" y="336.8" width="31.8" height="95.7" rx="3" fill="#cbd5e1" stroke="#475569"/><rect x="75.0" y="336.8" width="31.8" height="95.7" rx="3" fill="#cbd5e1" stroke="#475569"/><rect x="134.1" y="336.8" width="31.8" height="95.7" rx="3" fill="#cbd5e1" stroke="#475569"/><rect x="193.2" y="432.5" width="31.8" height="95.7" rx="3" fill="#cbd5e1" stroke="#475569"/><rect x="134.1" y="432.5" width="31.8" height="95.7" rx="3" fill="#cbd5e1" stroke="#475569"/><rect x="75.0" y="432.5" width="31.8" height="95.7" rx="3" fill="#cbd5e1" stroke="#475569"/><rect x="134.1" y="432.5" width="31.8" height="95.7" rx="3" fill="#cbd5e1" stroke="#475569"/><polygon points="191.9,468.0 183.9,511.4 199.9,511.4" fill="#94a3b8" stroke="#475569" opacity="0.88"/><polygon points="179.7,468.0 171.7,511.4 187.7,511.4" fill="#94a3b8" stroke="#475569" opacity="0.88"/><polygon points="150.0,468.0 142.0,511.4 158.0,511.4" fill="#94a3b8" stroke="#475569" opacity="0.88"/><polygon points="120.3,468.0 112.3,511.4 128.3,511.4" fill="#94a3b8" stroke="#475569" opacity="0.88"/><polygon points="108.1,468.0 100.1,511.4 116.1,511.4" fill="#94a3b8" stroke="#475569" opacity="0.88"/><polygon points="120.3,468.0 112.3,511.4 128.3,511.4" fill="#94a3b8" stroke="#475569" opacity="0.88"/><polygon points="150.0,468.0 142.0,511.4 158.0,511.4" fill="#94a3b8" stroke="#475569" opacity="0.88"/><polygon points="179.7,468.0 171.7,511.4 187.7,511.4" fill="#94a3b8" stroke="#475569" opacity="0.88"/><polygon points="201.3,528.1 216.9,528.1 220.6,568.8 197.7,568.8" fill="#f87171" stroke="#991b1b"/><polygon points="142.2,528.1 157.8,528.1 161.4,568.8 138.6,568.8" fill="#f87171" stroke="#991b1b"/><polygon points="83.1,528.1 98.7,528.1 102.3,568.8 79.4,568.8" fill="#f87171" stroke="#991b1b"/><polygon points="142.2,528.1 157.8,528.1 161.4,568.8 138.6,568.8" fill="#f87171" stroke="#991b1b"/>
  <rect x="374.1" y="76.0" width="31.8" height="7.2" rx="3" fill="#e2e8f0" stroke="#475569"/><rect x="374.1" y="83.2" width="31.8" height="26.7" rx="3" fill="#e2e8f0" stroke="#475569"/><rect x="374.1" y="109.9" width="31.8" height="4.9" rx="3" fill="#cbd5e1" stroke="#475569"/><rect x="374.1" y="114.8" width="31.8" height="2.5" rx="3" fill="#cbd5e1" stroke="#475569"/><rect x="374.1" y="117.3" width="31.8" height="9.5" rx="3" fill="#cbd5e1" stroke="#475569"/><rect x="374.1" y="126.8" width="31.8" height="38.1" rx="3" fill="#cbd5e1" stroke="#475569"/><rect x="374.1" y="165.0" width="31.8" height="15.3" rx="3" fill="#cbd5e1" stroke="#475569"/><rect x="374.1" y="180.2" width="31.8" height="15.3" rx="3" fill="#cbd5e1" stroke="#475569"/><rect x="374.1" y="195.5" width="31.8" height="15.3" rx="3" fill="#cbd5e1" stroke="#475569"/><rect x="374.1" y="210.7" width="31.8" height="10.1" rx="3" fill="#cbd5e1" stroke="#475569"/><rect x="374.1" y="220.8" width="31.8" height="10.1" rx="3" fill="#cbd5e1" stroke="#475569"/><rect x="374.1" y="231.0" width="31.8" height="10.1" rx="3" fill="#cbd5e1" stroke="#475569"/><rect x="374.1" y="241.1" width="31.8" height="2.5" rx="3" fill="#cbd5e1" stroke="#475569"/><rect x="358.2" y="243.6" width="63.6" height="23.1" rx="3" fill="#cbd5e1" stroke="#475569"/><rect x="358.2" y="266.8" width="63.6" height="23.1" rx="3" fill="#cbd5e1" stroke="#475569"/><rect x="358.2" y="289.9" width="63.6" height="23.1" rx="3" fill="#cbd5e1" stroke="#475569"/><polygon points="382.2,313.0 397.8,313.0 401.4,335.9 378.6,335.9" fill="#f87171" stroke="#991b1b"/><rect x="374.1" y="335.9" width="31.8" height="2.5" rx="3" fill="#cbd5e1" stroke="#475569"/><rect x="358.2" y="338.5" width="63.6" height="189.7" rx="3" fill="#cbd5e1" stroke="#475569"/><polygon points="382.2,528.1 397.8,528.1 401.4,568.8 378.6,568.8" fill="#f87171" stroke="#991b1b"/><rect x="374.1" y="-45.8" width="31.8" height="95.7" rx="3" fill="#cbd5e1" stroke="#475569"/><rect x="433.2" y="-45.8" width="31.8" height="95.7" rx="3" fill="#cbd5e1" stroke="#475569"/><rect x="374.1" y="-45.8" width="31.8" height="95.7" rx="3" fill="#cbd5e1" stroke="#475569"/><rect x="315.0" y="-45.8" width="31.8" height="95.7" rx="3" fill="#cbd5e1" stroke="#475569"/><rect x="374.1" y="94.5" width="31.8" height="5.1" rx="3" fill="#cbd5e1" stroke="#475569"/><rect x="374.1" y="94.5" width="31.8" height="5.1" rx="3" fill="#cbd5e1" stroke="#475569"/><rect x="392.0" y="94.5" width="31.8" height="5.1" rx="3" fill="#cbd5e1" stroke="#475569"/><rect x="356.2" y="94.5" width="31.8" height="5.1" rx="3" fill="#cbd5e1" stroke="#475569"/><rect x="374.1" y="49.8" width="31.8" height="95.7" rx="3" fill="#cbd5e1" stroke="#475569"/><rect x="433.2" y="49.8" width="31.8" height="95.7" rx="3" fill="#cbd5e1" stroke="#475569"/><rect x="374.1" y="49.8" width="31.8" height="95.7" rx="3" fill="#cbd5e1" stroke="#475569"/><rect x="315.0" y="49.8" width="31.8" height="95.7" rx="3" fill="#cbd5e1" stroke="#475569"/><rect x="382.1" y="95.5" width="15.9" height="4.6" rx="3" fill="#cbd5e1" stroke="#475569"/><rect x="374.1" y="95.0" width="31.8" height="5.6" rx="3" fill="#cbd5e1" stroke="#475569"/><rect x="396.5" y="85.1" width="31.8" height="25.4" rx="3" fill="#cbd5e1" stroke="#475569"/><rect x="351.7" y="85.1" width="31.8" height="25.4" rx="3" fill="#cbd5e1" stroke="#475569"/><rect x="397.7" y="94.1" width="15.9" height="16.6" rx="3" fill="#cbd5e1" stroke="#475569"/><rect x="392.0" y="94.0" width="31.8" height="25.4" rx="3" fill="#cbd5e1" stroke="#475569"/><rect x="374.1" y="145.5" width="31.8" height="95.7" rx="3" fill="#cbd5e1" stroke="#475569"/><rect x="433.2" y="145.5" width="31.8" height="95.7" rx="3" fill="#cbd5e1" stroke="#475569"/><rect x="374.1" y="145.5" width="31.8" height="95.7" rx="3" fill="#cbd5e1" stroke="#475569"/><rect x="315.0" y="145.5" width="31.8" height="95.7" rx="3" fill="#cbd5e1" stroke="#475569"/><rect x="382.4" y="243.7" width="15.3" height="15.3" rx="3" fill="#cbd5e1" stroke="#475569"/><rect x="421.8" y="243.7" width="15.3" height="15.3" rx="3" fill="#cbd5e1" stroke="#475569"/><rect x="382.4" y="243.7" width="15.3" height="15.3" rx="3" fill="#cbd5e1" stroke="#475569"/><rect x="343.0" y="243.7" width="15.3" height="15.3" rx="3" fill="#cbd5e1" stroke="#475569"/><rect x="374.1" y="241.1" width="31.8" height="95.7" rx="3" fill="#cbd5e1" stroke="#475569"/><rect x="433.2" y="241.1" width="31.8" height="95.7" rx="3" fill="#cbd5e1" stroke="#475569"/><rect x="374.1" y="241.1" width="31.8" height="95.7" rx="3" fill="#cbd5e1" stroke="#475569"/><rect x="315.0" y="241.1" width="31.8" height="95.7" rx="3" fill="#cbd5e1" stroke="#475569"/><rect x="374.1" y="336.8" width="31.8" height="95.7" rx="3" fill="#cbd5e1" stroke="#475569"/><rect x="433.2" y="336.8" width="31.8" height="95.7" rx="3" fill="#cbd5e1" stroke="#475569"/><rect x="374.1" y="336.8" width="31.8" height="95.7" rx="3" fill="#cbd5e1" stroke="#475569"/><rect x="315.0" y="336.8" width="31.8" height="95.7" rx="3" fill="#cbd5e1" stroke="#475569"/><rect x="374.1" y="432.5" width="31.8" height="95.7" rx="3" fill="#cbd5e1" stroke="#475569"/><rect x="433.2" y="432.5" width="31.8" height="95.7" rx="3" fill="#cbd5e1" stroke="#475569"/><rect x="374.1" y="432.5" width="31.8" height="95.7" rx="3" fill="#cbd5e1" stroke="#475569"/><rect x="315.0" y="432.5" width="31.8" height="95.7" rx="3" fill="#cbd5e1" stroke="#475569"/><polygon points="390.0,468.0 382.0,511.4 398.0,511.4" fill="#94a3b8" stroke="#475569" opacity="0.88"/><polygon points="419.7,468.0 411.7,511.4 427.7,511.4" fill="#94a3b8" stroke="#475569" opacity="0.88"/><polygon points="431.9,468.0 423.9,511.4 439.9,511.4" fill="#94a3b8" stroke="#475569" opacity="0.88"/><polygon points="419.7,468.0 411.7,511.4 427.7,511.4" fill="#94a3b8" stroke="#475569" opacity="0.88"/><polygon points="390.0,468.0 382.0,511.4 398.0,511.4" fill="#94a3b8" stroke="#475569" opacity="0.88"/><polygon points="360.3,468.0 352.3,511.4 368.3,511.4" fill="#94a3b8" stroke="#475569" opacity="0.88"/><polygon points="348.1,468.0 340.1,511.4 356.1,511.4" fill="#94a3b8" stroke="#475569" opacity="0.88"/><polygon points="360.3,468.0 352.3,511.4 368.3,511.4" fill="#94a3b8" stroke="#475569" opacity="0.88"/><polygon points="382.2,528.1 397.8,528.1 401.4,568.8 378.6,568.8" fill="#f87171" stroke="#991b1b"/><polygon points="441.3,528.1 456.9,528.1 460.6,568.8 437.7,568.8" fill="#f87171" stroke="#991b1b"/><polygon points="382.2,528.1 397.8,528.1 401.4,568.8 378.6,568.8" fill="#f87171" stroke="#991b1b"/><polygon points="323.1,528.1 338.7,528.1 342.3,568.8 319.4,568.8" fill="#f87171" stroke="#991b1b"/>
  <circle cx="625.0" cy="380.0" r="31.8" fill="#cbd5e1" stroke="#475569" opacity="0.30"/><circle cx="625.0" cy="380.0" r="31.8" fill="#cbd5e1" stroke="#475569" opacity="0.30"/><circle cx="625.0" cy="380.0" r="31.8" fill="#cbd5e1" stroke="#475569" opacity="0.30"/><circle cx="625.0" cy="380.0" r="31.8" fill="#cbd5e1" stroke="#475569" opacity="0.30"/><circle cx="625.0" cy="380.0" r="15.9" fill="#e2e8f0" stroke="#475569" opacity="0.30"/><circle cx="625.0" cy="380.0" r="15.9" fill="#cbd5e1" stroke="#475569" opacity="0.30"/><circle cx="625.0" cy="380.0" r="15.9" fill="#cbd5e1" stroke="#475569" opacity="0.30"/><circle cx="625.0" cy="380.0" r="15.9" fill="#cbd5e1" stroke="#475569" opacity="0.30"/><circle cx="684.1" cy="380.0" r="11.4" fill="#f87171" stroke="#334155" opacity="0.80"/><circle cx="684.1" cy="380.0" r="15.9" fill="#cbd5e1" stroke="#334155" opacity="0.80"/><circle cx="684.1" cy="380.0" r="15.9" fill="#cbd5e1" stroke="#334155" opacity="0.80"/><circle cx="684.1" cy="380.0" r="15.9" fill="#cbd5e1" stroke="#334155" opacity="0.80"/><circle cx="684.1" cy="380.0" r="15.9" fill="#cbd5e1" stroke="#334155" opacity="0.80"/><circle cx="684.1" cy="380.0" r="15.9" fill="#cbd5e1" stroke="#334155" opacity="0.80"/><circle cx="684.1" cy="380.0" r="15.9" fill="#cbd5e1" stroke="#334155" opacity="0.80"/><circle cx="664.4" cy="380.0" r="7.6" fill="#cbd5e1" stroke="#334155" opacity="0.80"/><circle cx="625.0" cy="439.1" r="11.4" fill="#f87171" stroke="#334155" opacity="0.80"/><circle cx="625.0" cy="439.1" r="15.9" fill="#cbd5e1" stroke="#334155" opacity="0.80"/><circle cx="625.0" cy="439.1" r="15.9" fill="#cbd5e1" stroke="#334155" opacity="0.80"/><circle cx="625.0" cy="439.1" r="15.9" fill="#cbd5e1" stroke="#334155" opacity="0.80"/><circle cx="625.0" cy="439.1" r="15.9" fill="#cbd5e1" stroke="#334155" opacity="0.80"/><circle cx="625.0" cy="439.1" r="15.9" fill="#cbd5e1" stroke="#334155" opacity="0.80"/><circle cx="625.0" cy="439.1" r="15.9" fill="#cbd5e1" stroke="#334155" opacity="0.80"/><circle cx="625.0" cy="419.4" r="7.6" fill="#cbd5e1" stroke="#334155" opacity="0.80"/><circle cx="565.9" cy="380.0" r="11.4" fill="#f87171" stroke="#334155" opacity="0.80"/><circle cx="565.9" cy="380.0" r="15.9" fill="#cbd5e1" stroke="#334155" opacity="0.80"/><circle cx="565.9" cy="380.0" r="15.9" fill="#cbd5e1" stroke="#334155" opacity="0.80"/><circle cx="565.9" cy="380.0" r="15.9" fill="#cbd5e1" stroke="#334155" opacity="0.80"/><circle cx="565.9" cy="380.0" r="15.9" fill="#cbd5e1" stroke="#334155" opacity="0.80"/><circle cx="565.9" cy="380.0" r="15.9" fill="#cbd5e1" stroke="#334155" opacity="0.80"/><circle cx="565.9" cy="380.0" r="15.9" fill="#cbd5e1" stroke="#334155" opacity="0.80"/><circle cx="585.6" cy="380.0" r="7.6" fill="#cbd5e1" stroke="#334155" opacity="0.80"/><circle cx="625.0" cy="320.9" r="11.4" fill="#f87171" stroke="#334155" opacity="0.80"/><circle cx="625.0" cy="320.9" r="15.9" fill="#cbd5e1" stroke="#334155" opacity="0.80"/><circle cx="625.0" cy="320.9" r="15.9" fill="#cbd5e1" stroke="#334155" opacity="0.80"/><circle cx="625.0" cy="320.9" r="15.9" fill="#cbd5e1" stroke="#334155" opacity="0.80"/><circle cx="625.0" cy="320.9" r="15.9" fill="#cbd5e1" stroke="#334155" opacity="0.80"/><circle cx="625.0" cy="320.9" r="15.9" fill="#cbd5e1" stroke="#334155" opacity="0.80"/><circle cx="625.0" cy="320.9" r="15.9" fill="#cbd5e1" stroke="#334155" opacity="0.80"/><circle cx="625.0" cy="340.6" r="7.6" fill="#cbd5e1" stroke="#334155" opacity="0.80"/><circle cx="647.4" cy="380.0" r="7.9" fill="#cbd5e1" stroke="#334155" opacity="0.80"/><circle cx="602.6" cy="380.0" r="15.9" fill="#cbd5e1" stroke="#334155" opacity="0.80"/><circle cx="625.0" cy="402.4" r="15.9" fill="#cbd5e1" stroke="#334155" opacity="0.80"/><circle cx="625.0" cy="357.6" r="15.9" fill="#cbd5e1" stroke="#334155" opacity="0.80"/><circle cx="640.7" cy="395.7" r="7.9" fill="#cbd5e1" stroke="#334155" opacity="0.80"/><circle cx="642.9" cy="380.0" r="15.9" fill="#cbd5e1" stroke="#334155" opacity="0.80"/><circle cx="607.1" cy="380.0" r="15.9" fill="#cbd5e1" stroke="#334155" opacity="0.80"/><circle cx="625.0" cy="397.9" r="15.9" fill="#cbd5e1" stroke="#334155" opacity="0.80"/><circle cx="625.0" cy="362.1" r="15.9" fill="#cbd5e1" stroke="#334155" opacity="0.80"/><circle cx="625.0" cy="397.9" r="15.9" fill="#cbd5e1" stroke="#334155" opacity="0.80"/><circle cx="666.9" cy="380.0" r="4.4" fill="#94a3b8" stroke="#334155" opacity="0.80"/><circle cx="654.7" cy="409.7" r="4.4" fill="#94a3b8" stroke="#334155" opacity="0.80"/><circle cx="625.0" cy="421.9" r="4.4" fill="#94a3b8" stroke="#334155" opacity="0.80"/><circle cx="595.3" cy="409.7" r="4.4" fill="#94a3b8" stroke="#334155" opacity="0.80"/><circle cx="583.1" cy="380.0" r="4.4" fill="#94a3b8" stroke="#334155" opacity="0.80"/><circle cx="595.3" cy="350.3" r="4.4" fill="#94a3b8" stroke="#334155" opacity="0.80"/><circle cx="625.0" cy="338.1" r="4.4" fill="#94a3b8" stroke="#334155" opacity="0.80"/><circle cx="654.7" cy="350.3" r="4.4" fill="#94a3b8" stroke="#334155" opacity="0.80"/>
  <text x="805" y="94" font-size="12" fill="#16a34a">PASS - slender body (4 &lt;= L/D &lt;= 19)</text><text x="805" y="116" font-size="12" fill="#16a34a">PASS - monotonic taper (widest toward base)</text><text x="805" y="138" font-size="12" fill="#16a34a">PASS - payload housed (fairing or capsule top)</text><text x="805" y="160" font-size="12" fill="#16a34a">PASS - engine at the base</text><text x="805" y="182" font-size="12" fill="#16a34a">PASS - controlled ascent margin</text><text x="805" y="204" font-size="12" fill="#16a34a">PASS - radial protrusions within ascent envelope</text><text x="805" y="226" font-size="12" fill="#16a34a">PASS - landing gear tip-over stable</text><text x="805" y="248" font-size="12" fill="#16a34a">PASS - symmetric strap-on boosters</text>
  <text x="805" y="280" font-size="12" fill="#0f172a">L/D 7.8:1</text><text x="805" y="298" font-size="12" fill="#0f172a">length 19.38 m</text><text x="805" y="316" font-size="12" fill="#0f172a">body dia 2.5 m</text><text x="805" y="334" font-size="12" fill="#0f172a">core span 3.65 m</text><text x="805" y="352" font-size="12" fill="#0f172a">4x radial boosters (span 5.9 m)</text><text x="805" y="370" font-size="12" fill="#0f172a">full span 5.9 m</text><text x="805" y="388" font-size="12" fill="#0f172a">static 0.04 cal</text><text x="805" y="406" font-size="12" fill="#0f172a">Cd 0.232</text><text x="805" y="424" font-size="12" fill="#0f172a">drag loss 87.0 m/s</text><text x="805" y="442" font-size="12" fill="#0f172a">max-Q 88.4 kPa</text>
</svg>