<svg xmlns="http://www.w3.org/2000/svg" width="1080" height="700" viewBox="0 0 1080 700" font-family="system-ui,Segoe UI,sans-serif">
  <rect width="1080" height="700" fill="#f8fafc"/>
  <text x="30" y="32" font-size="19" font-weight="700" fill="#0f172a">Three-view design chart - AI-Eve-Ferry2</text>
  <text x="805" y="56" font-size="15" font-weight="700" fill="#16a34a">LOOKS LIKE A ROCKET</text>
  <text x="118" y="58" font-size="12" font-weight="700" fill="#334155">SIDE</text>
  <text x="355" y="58" font-size="12" font-weight="700" fill="#334155">FRONT</text>
  <text x="594" y="220" font-size="12" font-weight="700" fill="#334155">TOP</text>
  <line x1="150.0" y1="60" x2="150.0" y2="650" stroke="#e2e8f0" stroke-dasharray="4 4"/>
  <line x1="390.0" y1="60" x2="390.0" y2="650" stroke="#e2e8f0" stroke-dasharray="4 4"/>
  <circle cx="625.0" cy="380.0" r="35.6" fill="none" stroke="#94a3b8" stroke-dasharray="4 4"/>
  <rect x="138.1" y="76.0" width="23.7" height="5.4" rx="3" fill="#e2e8f0" stroke="#475569"/><rect x="138.1" y="81.4" width="23.7" height="19.9" rx="3" fill="#e2e8f0" stroke="#475569"/><rect x="138.1" y="101.3" width="23.7" height="3.6" rx="3" fill="#cbd5e1" stroke="#475569"/><rect x="138.1" y="105.0" width="23.7" height="1.9" rx="3" fill="#cbd5e1" stroke="#475569"/><rect x="138.1" y="106.9" width="23.7" height="7.1" rx="3" fill="#cbd5e1" stroke="#475569"/><rect x="138.1" y="114.0" width="23.7" height="28.5" rx="3" fill="#cbd5e1" stroke="#475569"/><rect x="138.1" y="142.5" width="23.7" height="11.4" rx="3" fill="#cbd5e1" stroke="#475569"/><rect x="138.1" y="153.9" width="23.7" height="11.4" rx="3" fill="#cbd5e1" stroke="#475569"/><rect x="138.1" y="165.3" width="23.7" height="11.4" rx="3" fill="#cbd5e1" stroke="#475569"/><rect x="138.1" y="176.7" width="23.7" height="7.6" rx="3" fill="#cbd5e1" stroke="#475569"/><rect x="138.1" y="184.2" width="23.7" height="7.6" rx="3" fill="#cbd5e1" stroke="#475569"/><rect x="138.1" y="191.8" width="23.7" height="7.6" rx="3" fill="#cbd5e1" stroke="#475569"/><path d="M 119.5 207.3 L 119.5 76.0 Q 119.5 50.4 150.0 36.4 Q 180.5 50.4 180.5 76.0 L 180.5 207.3 Z" fill="#fde68a" stroke="#d97706" stroke-width="1.4" opacity="0.55"/><rect x="138.1" y="207.3" width="23.7" height="1.9" rx="3" fill="#cbd5e1" stroke="#475569"/><rect x="126.3" y="209.2" width="47.5" height="17.3" rx="3" fill="#cbd5e1" stroke="#475569"/><rect x="126.3" y="226.5" width="47.5" height="17.3" rx="3" fill="#cbd5e1" stroke="#475569"/><rect x="126.3" y="243.8" width="47.5" height="17.3" rx="3" fill="#cbd5e1" stroke="#475569"/><rect x="114.4" y="261.1" width="71.2" height="17.1" rx="2" fill="#cbd5e1" stroke="#64748b" stroke-dasharray="3 2" opacity="0.45"/><polygon points="144.2,261.1 155.8,261.1 158.5,278.2 141.5,278.2" fill="#f87171" stroke="#991b1b"/><rect x="138.1" y="278.2" width="23.7" height="1.9" rx="3" fill="#cbd5e1" stroke="#475569"/><polygon points="126.3,280.1 173.7,280.1 185.6,322.8 114.4,322.8" fill="#dbeafe" stroke="#2563eb"/><rect x="114.4" y="322.8" width="71.2" height="142.1" rx="3" fill="#cbd5e1" stroke="#475569"/><rect x="114.4" y="464.9" width="71.2" height="142.1" rx="3" fill="#cbd5e1" stroke="#475569"/><polygon points="132.6,607.0 167.4,607.0 175.6,636.0 124.4,636.0" fill="#f87171" stroke="#991b1b"/><rect x="151.5" y="89.8" width="23.7" height="3.8" rx="3" fill="#cbd5e1" stroke="#475569"/><rect x="124.7" y="89.8" width="23.7" height="3.8" rx="3" fill="#cbd5e1" stroke="#475569"/><rect x="138.1" y="89.8" width="23.7" height="3.8" rx="3" fill="#cbd5e1" stroke="#475569"/><rect x="138.1" y="89.8" width="23.7" height="3.8" rx="3" fill="#cbd5e1" stroke="#475569"/><rect x="160.8" y="90.6" width="11.9" height="3.4" rx="3" fill="#cbd5e1" stroke="#475569"/><rect x="121.4" y="90.2" width="23.7" height="4.2" rx="3" fill="#cbd5e1" stroke="#475569"/><rect x="138.1" y="82.8" width="23.7" height="19.0" rx="3" fill="#cbd5e1" stroke="#475569"/><rect x="138.1" y="82.8" width="23.7" height="19.0" rx="3" fill="#cbd5e1" stroke="#475569"/><rect x="155.8" y="89.5" width="11.9" height="12.4" rx="3" fill="#cbd5e1" stroke="#475569"/><rect x="138.1" y="89.4" width="23.7" height="19.0" rx="3" fill="#cbd5e1" stroke="#475569"/><rect x="194.2" y="391.6" width="23.7" height="71.5" rx="3" fill="#cbd5e1" stroke="#475569"/><rect x="138.1" y="391.6" width="23.7" height="71.5" rx="3" fill="#cbd5e1" stroke="#475569"/><rect x="82.1" y="391.6" width="23.7" height="71.5" rx="3" fill="#cbd5e1" stroke="#475569"/><rect x="138.1" y="391.6" width="23.7" height="71.5" rx="3" fill="#cbd5e1" stroke="#475569"/><rect x="194.2" y="463.1" width="23.7" height="71.5" rx="3" fill="#cbd5e1" stroke="#475569"/><rect x="138.1" y="463.1" width="23.7" height="71.5" rx="3" fill="#cbd5e1" stroke="#475569"/><rect x="82.1" y="463.1" width="23.7" height="71.5" rx="3" fill="#cbd5e1" stroke="#475569"/><rect x="138.1" y="463.1" width="23.7" height="71.5" rx="3" fill="#cbd5e1" stroke="#475569"/><rect x="185.6" y="500.8" width="11.4" height="11.4" rx="3" fill="#cbd5e1" stroke="#475569"/><rect x="144.3" y="500.8" width="11.4" height="11.4" rx="3" fill="#cbd5e1" stroke="#475569"/><rect x="103.0" y="500.8" width="11.4" height="11.4" rx="3" fill="#cbd5e1" stroke="#475569"/><rect x="144.3" y="500.8" width="11.4" height="11.4" rx="3" fill="#cbd5e1" stroke="#475569"/><rect x="194.2" y="534.5" width="23.7" height="71.5" rx="3" fill="#cbd5e1" stroke="#475569"/><rect x="138.1" y="534.5" width="23.7" height="71.5" rx="3" fill="#cbd5e1" stroke="#475569"/><rect x="82.1" y="534.5" width="23.7" height="71.5" rx="3" fill="#cbd5e1" stroke="#475569"/><rect x="138.1" y="534.5" width="23.7" height="71.5" rx="3" fill="#cbd5e1" stroke="#475569"/><polygon points="193.2,562.0 185.2,599.0 201.2,599.0" fill="#94a3b8" stroke="#475569" opacity="0.88"/><polygon points="180.6,562.0 172.6,599.0 188.6,599.0" fill="#94a3b8" stroke="#475569" opacity="0.88"/><polygon points="150.0,562.0 142.0,599.0 158.0,599.0" fill="#94a3b8" stroke="#475569" opacity="0.88"/><polygon points="119.4,562.0 111.4,599.0 127.4,599.0" fill="#94a3b8" stroke="#475569" opacity="0.88"/><polygon points="106.8,562.0 98.8,599.0 114.8,599.0" fill="#94a3b8" stroke="#475569" opacity="0.88"/><polygon points="119.4,562.0 111.4,599.0 127.4,599.0" fill="#94a3b8" stroke="#475569" opacity="0.88"/><polygon points="150.0,562.0 142.0,599.0 158.0,599.0" fill="#94a3b8" stroke="#475569" opacity="0.88"/><polygon points="180.6,562.0 172.6,599.0 188.6,599.0" fill="#94a3b8" stroke="#475569" opacity="0.88"/><polygon points="200.2,606.0 211.8,606.0 214.6,637.0 197.5,637.0" fill="#f87171" stroke="#991b1b"/><polygon points="144.2,606.0 155.8,606.0 158.5,637.0 141.5,637.0" fill="#f87171" stroke="#991b1b"/><polygon points="88.2,606.0 99.8,606.0 102.5,637.0 85.4,637.0" fill="#f87171" stroke="#991b1b"/><polygon points="144.2,606.0 155.8,606.0 158.5,637.0 141.5,637.0" fill="#f87171" stroke="#991b1b"/>
  <rect x="378.1" y="76.0" width="23.7" height="5.4" rx="3" fill="#e2e8f0" stroke="#475569"/><rect x="378.1" y="81.4" width="23.7" height="19.9" rx="3" fill="#e2e8f0" stroke="#475569"/><rect x="378.1" y="101.3" width="23.7" height="3.6" rx="3" fill="#cbd5e1" stroke="#475569"/><rect x="378.1" y="105.0" width="23.7" height="1.9" rx="3" fill="#cbd5e1" stroke="#475569"/><rect x="378.1" y="106.9" width="23.7" height="7.1" rx="3" fill="#cbd5e1" stroke="#475569"/><rect x="378.1" y="114.0" width="23.7" height="28.5" rx="3" fill="#cbd5e1" stroke="#475569"/><rect x="378.1" y="142.5" width="23.7" height="11.4" rx="3" fill="#cbd5e1" stroke="#475569"/><rect x="378.1" y="153.9" width="23.7" height="11.4" rx="3" fill="#cbd5e1" stroke="#475569"/><rect x="378.1" y="165.3" width="23.7" height="11.4" rx="3" fill="#cbd5e1" stroke="#475569"/><rect x="378.1" y="176.7" width="23.7" height="7.6" rx="3" fill="#cbd5e1" stroke="#475569"/><rect x="378.1" y="184.2" width="23.7" height="7.6" rx="3" fill="#cbd5e1" stroke="#475569"/><rect x="378.1" y="191.8" width="23.7" height="7.6" rx="3" fill="#cbd5e1" stroke="#475569"/><path d="M 359.5 207.3 L 359.5 76.0 Q 359.5 50.4 390.0 36.4 Q 420.5 50.4 420.5 76.0 L 420.5 207.3 Z" fill="#fde68a" stroke="#d97706" stroke-width="1.4" opacity="0.55"/><rect x="378.1" y="207.3" width="23.7" height="1.9" rx="3" fill="#cbd5e1" stroke="#475569"/><rect x="366.3" y="209.2" width="47.5" height="17.3" rx="3" fill="#cbd5e1" stroke="#475569"/><rect x="366.3" y="226.5" width="47.5" height="17.3" rx="3" fill="#cbd5e1" stroke="#475569"/><rect x="366.3" y="243.8" width="47.5" height="17.3" rx="3" fill="#cbd5e1" stroke="#475569"/><rect x="354.4" y="261.1" width="71.2" height="17.1" rx="2" fill="#cbd5e1" stroke="#64748b" stroke-dasharray="3 2" opacity="0.45"/><polygon points="384.2,261.1 395.8,261.1 398.5,278.2 381.5,278.2" fill="#f87171" stroke="#991b1b"/><rect x="378.1" y="278.2" width="23.7" height="1.9" rx="3" fill="#cbd5e1" stroke="#475569"/><polygon points="366.3,280.1 413.7,280.1 425.6,322.8 354.4,322.8" fill="#dbeafe" stroke="#2563eb"/><rect x="354.4" y="322.8" width="71.2" height="142.1" rx="3" fill="#cbd5e1" stroke="#475569"/><rect x="354.4" y="464.9" width="71.2" height="142.1" rx="3" fill="#cbd5e1" stroke="#475569"/><polygon points="372.6,607.0 407.4,607.0 415.6,636.0 364.4,636.0" fill="#f87171" stroke="#991b1b"/><rect x="378.1" y="89.8" width="23.7" height="3.8" rx="3" fill="#cbd5e1" stroke="#475569"/><rect x="378.1" y="89.8" width="23.7" height="3.8" rx="3" fill="#cbd5e1" stroke="#475569"/><rect x="391.5" y="89.8" width="23.7" height="3.8" rx="3" fill="#cbd5e1" stroke="#475569"/><rect x="364.7" y="89.8" width="23.7" height="3.8" rx="3" fill="#cbd5e1" stroke="#475569"/><rect x="384.1" y="90.6" width="11.9" height="3.4" rx="3" fill="#cbd5e1" stroke="#475569"/><rect x="378.1" y="90.2" width="23.7" height="4.2" rx="3" fill="#cbd5e1" stroke="#475569"/><rect x="394.8" y="82.8" width="23.7" height="19.0" rx="3" fill="#cbd5e1" stroke="#475569"/><rect x="361.4" y="82.8" width="23.7" height="19.0" rx="3" fill="#cbd5e1" stroke="#475569"/><rect x="395.8" y="89.5" width="11.9" height="12.4" rx="3" fill="#cbd5e1" stroke="#475569"/><rect x="391.5" y="89.4" width="23.7" height="19.0" rx="3" fill="#cbd5e1" stroke="#475569"/><rect x="378.1" y="391.6" width="23.7" height="71.5" rx="3" fill="#cbd5e1" stroke="#475569"/><rect x="434.2" y="391.6" width="23.7" height="71.5" rx="3" fill="#cbd5e1" stroke="#475569"/><rect x="378.1" y="391.6" width="23.7" height="71.5" rx="3" fill="#cbd5e1" stroke="#475569"/><rect x="322.1" y="391.6" width="23.7" height="71.5" rx="3" fill="#cbd5e1" stroke="#475569"/><rect x="378.1" y="463.1" width="23.7" height="71.5" rx="3" fill="#cbd5e1" stroke="#475569"/><rect x="434.2" y="463.1" width="23.7" height="71.5" rx="3" fill="#cbd5e1" stroke="#475569"/><rect x="378.1" y="463.1" width="23.7" height="71.5" rx="3" fill="#cbd5e1" stroke="#475569"/><rect x="322.1" y="463.1" width="23.7" height="71.5" rx="3" fill="#cbd5e1" stroke="#475569"/><rect x="384.3" y="500.8" width="11.4" height="11.4" rx="3" fill="#cbd5e1" stroke="#475569"/><rect x="425.6" y="500.8" width="11.4" height="11.4" rx="3" fill="#cbd5e1" stroke="#475569"/><rect x="384.3" y="500.8" width="11.4" height="11.4" rx="3" fill="#cbd5e1" stroke="#475569"/><rect x="343.0" y="500.8" width="11.4" height="11.4" rx="3" fill="#cbd5e1" stroke="#475569"/><rect x="378.1" y="534.5" width="23.7" height="71.5" rx="3" fill="#cbd5e1" stroke="#475569"/><rect x="434.2" y="534.5" width="23.7" height="71.5" rx="3" fill="#cbd5e1" stroke="#475569"/><rect x="378.1" y="534.5" width="23.7" height="71.5" rx="3" fill="#cbd5e1" stroke="#475569"/><rect x="322.1" y="534.5" width="23.7" height="71.5" rx="3" fill="#cbd5e1" stroke="#475569"/><polygon points="390.0,562.0 382.0,599.0 398.0,599.0" fill="#94a3b8" stroke="#475569" opacity="0.88"/><polygon points="420.6,562.0 412.6,599.0 428.6,599.0" fill="#94a3b8" stroke="#475569" opacity="0.88"/><polygon points="433.2,562.0 425.2,599.0 441.2,599.0" fill="#94a3b8" stroke="#475569" opacity="0.88"/><polygon points="420.6,562.0 412.6,599.0 428.6,599.0" fill="#94a3b8" stroke="#475569" opacity="0.88"/><polygon points="390.0,562.0 382.0,599.0 398.0,599.0" fill="#94a3b8" stroke="#475569" opacity="0.88"/><polygon points="359.4,562.0 351.4,599.0 367.4,599.0" fill="#94a3b8" stroke="#475569" opacity="0.88"/><polygon points="346.8,562.0 338.8,599.0 354.8,599.0" fill="#94a3b8" stroke="#475569" opacity="0.88"/><polygon points="359.4,562.0 351.4,599.0 367.4,599.0" fill="#94a3b8" stroke="#475569" opacity="0.88"/><polygon points="384.2,606.0 395.8,606.0 398.5,637.0 381.5,637.0" fill="#f87171" stroke="#991b1b"/><polygon points="440.2,606.0 451.8,606.0 454.6,637.0 437.5,637.0" fill="#f87171" stroke="#991b1b"/><polygon points="384.2,606.0 395.8,606.0 398.5,637.0 381.5,637.0" fill="#f87171" stroke="#991b1b"/><polygon points="328.2,606.0 339.8,606.0 342.5,637.0 325.4,637.0" fill="#f87171" stroke="#991b1b"/>
  <circle cx="625.0" cy="380.0" r="35.6" fill="#cbd5e1" stroke="#475569" opacity="0.30"/><circle cx="625.0" cy="380.0" r="35.6" fill="#cbd5e1" stroke="#475569" opacity="0.30"/><circle cx="625.0" cy="380.0" r="35.6" fill="#f87171" stroke="#475569" opacity="0.30"/><circle cx="625.0" cy="380.0" r="23.7" fill="#cbd5e1" stroke="#475569" opacity="0.30"/><circle cx="625.0" cy="380.0" r="23.7" fill="#cbd5e1" stroke="#475569" opacity="0.30"/><circle cx="625.0" cy="380.0" r="23.7" fill="#cbd5e1" stroke="#475569" opacity="0.30"/><circle cx="625.0" cy="380.0" r="23.7" fill="#dbeafe" stroke="#475569" opacity="0.30"/><circle cx="625.0" cy="380.0" r="11.9" fill="#e2e8f0" stroke="#475569" opacity="0.30"/><circle cx="625.0" cy="380.0" r="35.6" fill="#fde68a" stroke="#334155" opacity="0.80"/><circle cx="681.0" cy="380.0" r="8.5" fill="#f87171" stroke="#334155" opacity="0.80"/><circle cx="681.0" cy="380.0" r="11.9" fill="#cbd5e1" stroke="#334155" opacity="0.80"/><circle cx="681.0" cy="380.0" r="11.9" fill="#cbd5e1" stroke="#334155" opacity="0.80"/><circle cx="681.0" cy="380.0" r="11.9" fill="#cbd5e1" stroke="#334155" opacity="0.80"/><circle cx="666.3" cy="380.0" r="5.7" fill="#cbd5e1" stroke="#334155" opacity="0.80"/><circle cx="625.0" cy="436.0" r="8.5" fill="#f87171" stroke="#334155" opacity="0.80"/><circle cx="625.0" cy="436.0" r="11.9" fill="#cbd5e1" stroke="#334155" opacity="0.80"/><circle cx="625.0" cy="436.0" r="11.9" fill="#cbd5e1" stroke="#334155" opacity="0.80"/><circle cx="625.0" cy="436.0" r="11.9" fill="#cbd5e1" stroke="#334155" opacity="0.80"/><circle cx="625.0" cy="421.3" r="5.7" fill="#cbd5e1" stroke="#334155" opacity="0.80"/><circle cx="569.0" cy="380.0" r="8.5" fill="#f87171" stroke="#334155" opacity="0.80"/><circle cx="569.0" cy="380.0" r="11.9" fill="#cbd5e1" stroke="#334155" opacity="0.80"/><circle cx="569.0" cy="380.0" r="11.9" fill="#cbd5e1" stroke="#334155" opacity="0.80"/><circle cx="569.0" cy="380.0" r="11.9" fill="#cbd5e1" stroke="#334155" opacity="0.80"/><circle cx="583.7" cy="380.0" r="5.7" fill="#cbd5e1" stroke="#334155" opacity="0.80"/><circle cx="625.0" cy="324.0" r="8.5" fill="#f87171" stroke="#334155" opacity="0.80"/><circle cx="625.0" cy="324.0" r="11.9" fill="#cbd5e1" stroke="#334155" opacity="0.80"/><circle cx="625.0" cy="324.0" r="11.9" fill="#cbd5e1" stroke="#334155" opacity="0.80"/><circle cx="625.0" cy="324.0" r="11.9" fill="#cbd5e1" stroke="#334155" opacity="0.80"/><circle cx="625.0" cy="338.7" r="5.7" fill="#cbd5e1" stroke="#334155" opacity="0.80"/><circle cx="641.7" cy="380.0" r="5.9" fill="#cbd5e1" stroke="#334155" opacity="0.80"/><circle cx="608.3" cy="380.0" r="11.9" fill="#cbd5e1" stroke="#334155" opacity="0.80"/><circle cx="625.0" cy="396.7" r="11.9" fill="#cbd5e1" stroke="#334155" opacity="0.80"/><circle cx="625.0" cy="363.3" r="11.9" fill="#cbd5e1" stroke="#334155" opacity="0.80"/><circle cx="636.7" cy="391.7" r="5.9" fill="#cbd5e1" stroke="#334155" opacity="0.80"/><circle cx="638.4" cy="380.0" r="11.9" fill="#cbd5e1" stroke="#334155" opacity="0.80"/><circle cx="611.6" cy="380.0" r="11.9" fill="#cbd5e1" stroke="#334155" opacity="0.80"/><circle cx="625.0" cy="393.4" r="11.9" fill="#cbd5e1" stroke="#334155" opacity="0.80"/><circle cx="625.0" cy="366.6" r="11.9" fill="#cbd5e1" stroke="#334155" opacity="0.80"/><circle cx="625.0" cy="393.4" r="11.9" fill="#cbd5e1" stroke="#334155" opacity="0.80"/><circle cx="668.2" cy="380.0" r="3.3" fill="#94a3b8" stroke="#334155" opacity="0.80"/><circle cx="655.6" cy="410.6" r="3.3" fill="#94a3b8" stroke="#334155" opacity="0.80"/><circle cx="625.0" cy="423.2" r="3.3" fill="#94a3b8" stroke="#334155" opacity="0.80"/><circle cx="594.4" cy="410.6" r="3.3" fill="#94a3b8" stroke="#334155" opacity="0.80"/><circle cx="581.8" cy="380.0" r="3.3" fill="#94a3b8" stroke="#334155" opacity="0.80"/><circle cx="594.4" cy="349.4" r="3.3" fill="#94a3b8" stroke="#334155" opacity="0.80"/><circle cx="625.0" cy="336.8" r="3.3" fill="#94a3b8" stroke="#334155" opacity="0.80"/><circle cx="655.6" cy="349.4" r="3.3" fill="#94a3b8" stroke="#334155" opacity="0.80"/>
  <text x="805" y="94" font-size="12" fill="#16a34a">PASS - slender body (4 &lt;= L/D &lt;= 19)</text><text x="805" y="116" font-size="12" fill="#16a34a">PASS - monotonic taper (widest toward base)</text><text x="805" y="138" font-size="12" fill="#16a34a">PASS - payload housed (fairing or capsule top)</text><text x="805" y="160" font-size="12" fill="#16a34a">PASS - payload fully enclosed (nothing protrudes the fairing)</text><text x="805" y="182" font-size="12" fill="#16a34a">PASS - engine at the base</text><text x="805" y="204" font-size="12" fill="#16a34a">PASS - upper-stage engine has interstage shroud</text><text x="805" y="226" font-size="12" fill="#16a34a">PASS - controlled ascent margin</text><text x="805" y="248" font-size="12" fill="#16a34a">PASS - radial protrusions within ascent envelope</text><text x="805" y="270" font-size="12" fill="#16a34a">PASS - landing gear tip-over stable</text><text x="805" y="292" font-size="12" fill="#16a34a">PASS - symmetric strap-on boosters</text><text x="805" y="314" font-size="12" fill="#16a34a">PASS - boosters no taller than host stage</text>
  <text x="805" y="346" font-size="12" fill="#0f172a">L/D 7.9:1</text><text x="805" y="364" font-size="12" fill="#0f172a">length 29.48 m</text><text x="805" y="382" font-size="12" fill="#0f172a">body dia 3.75 m</text><text x="805" y="400" font-size="12" fill="#0f172a">core span 4.9 m</text><text x="805" y="418" font-size="12" fill="#0f172a">4x radial boosters (span 7.15 m)</text><text x="805" y="436" font-size="12" fill="#0f172a">full span 7.15 m</text><text x="805" y="454" font-size="12" fill="#0f172a">static -0.07 cal</text><text x="805" y="472" font-size="12" fill="#0f172a">Cd 0.232</text><text x="805" y="490" font-size="12" fill="#0f172a">drag loss 139.0 m/s</text><text x="805" y="508" font-size="12" fill="#0f172a">max-Q 88.4 kPa</text>
</svg>