<svg xmlns="http://www.w3.org/2000/svg" width="1080" height="700" viewBox="0 0 1080 700" font-family="system-ui,Segoe UI,sans-serif">
  <rect width="1080" height="700" fill="#f8fafc"/>
  <text x="30" y="32" font-size="19" font-weight="700" fill="#0f172a">Three-view design chart - AI-Eve-Ferry2</text>
  <text x="805" y="56" font-size="15" font-weight="700" fill="#16a34a">LOOKS LIKE A ROCKET</text>
  <text x="118" y="58" font-size="12" font-weight="700" fill="#334155">SIDE</text>
  <text x="355" y="58" font-size="12" font-weight="700" fill="#334155">FRONT</text>
  <text x="594" y="220" font-size="12" font-weight="700" fill="#334155">TOP</text>
  <line x1="150.0" y1="60" x2="150.0" y2="650" stroke="#e2e8f0" stroke-dasharray="4 4"/>
  <line x1="390.0" y1="60" x2="390.0" y2="650" stroke="#e2e8f0" stroke-dasharray="4 4"/>
  <circle cx="625.0" cy="380.0" r="36.1" fill="none" stroke="#94a3b8" stroke-dasharray="4 4"/>
  <rect x="138.0" y="76.0" width="24.1" height="5.5" rx="3" fill="#e2e8f0" stroke="#475569"/><rect x="138.0" y="81.5" width="24.1" height="20.2" rx="3" fill="#e2e8f0" stroke="#475569"/><rect x="138.0" y="101.7" width="24.1" height="3.7" rx="3" fill="#cbd5e1" stroke="#475569"/><rect x="138.0" y="105.4" width="24.1" height="1.9" rx="3" fill="#cbd5e1" stroke="#475569"/><rect x="138.0" y="107.3" width="24.1" height="7.2" rx="3" fill="#cbd5e1" stroke="#475569"/><rect x="138.0" y="114.5" width="24.1" height="28.9" rx="3" fill="#cbd5e1" stroke="#475569"/><rect x="138.0" y="143.4" width="24.1" height="11.6" rx="3" fill="#cbd5e1" stroke="#475569"/><rect x="138.0" y="155.0" width="24.1" height="11.6" rx="3" fill="#cbd5e1" stroke="#475569"/><rect x="138.0" y="166.5" width="24.1" height="11.6" rx="3" fill="#cbd5e1" stroke="#475569"/><rect x="138.0" y="178.1" width="24.1" height="7.7" rx="3" fill="#cbd5e1" stroke="#475569"/><rect x="138.0" y="185.8" width="24.1" height="7.7" rx="3" fill="#cbd5e1" stroke="#475569"/><rect x="138.0" y="193.5" width="24.1" height="7.7" rx="3" fill="#cbd5e1" stroke="#475569"/><rect x="138.0" y="201.1" width="24.1" height="1.9" rx="3" fill="#cbd5e1" stroke="#475569"/><rect x="125.9" y="203.1" width="48.2" height="17.5" rx="3" fill="#cbd5e1" stroke="#475569"/><rect x="125.9" y="220.6" width="48.2" height="17.5" rx="3" fill="#cbd5e1" stroke="#475569"/><rect x="125.9" y="238.1" width="48.2" height="17.5" rx="3" fill="#cbd5e1" stroke="#475569"/><rect x="113.9" y="255.7" width="72.3" height="17.3" rx="2" fill="#cbd5e1" stroke="#64748b" stroke-dasharray="3 2" opacity="0.45"/><polygon points="144.1,255.7 155.9,255.7 158.7,273.0 141.3,273.0" fill="#f87171" stroke="#991b1b"/><rect x="138.0" y="273.0" width="24.1" height="1.9" rx="3" fill="#cbd5e1" stroke="#475569"/><polygon points="125.9,274.9 174.1,274.9 186.1,318.3 113.9,318.3" fill="#dbeafe" stroke="#2563eb"/><rect x="113.9" y="318.3" width="72.3" height="144.1" rx="3" fill="#cbd5e1" stroke="#475569"/><rect x="113.9" y="462.4" width="72.3" height="144.1" rx="3" fill="#cbd5e1" stroke="#475569"/><polygon points="132.3,606.6 167.7,606.6 176.0,636.0 124.0,636.0" fill="#f87171" stroke="#991b1b"/><rect x="151.5" y="90.0" width="24.1" height="3.9" rx="3" fill="#cbd5e1" stroke="#475569"/><rect x="124.4" y="90.0" width="24.1" height="3.9" rx="3" fill="#cbd5e1" stroke="#475569"/><rect x="138.0" y="90.0" width="24.1" height="3.9" rx="3" fill="#cbd5e1" stroke="#475569"/><rect x="138.0" y="90.0" width="24.1" height="3.9" rx="3" fill="#cbd5e1" stroke="#475569"/><rect x="160.9" y="90.8" width="12.0" height="3.5" rx="3" fill="#cbd5e1" stroke="#475569"/><rect x="121.0" y="90.4" width="24.1" height="4.3" rx="3" fill="#cbd5e1" stroke="#475569"/><rect x="138.0" y="82.9" width="24.1" height="19.3" rx="3" fill="#cbd5e1" stroke="#475569"/><rect x="138.0" y="82.9" width="24.1" height="19.3" rx="3" fill="#cbd5e1" stroke="#475569"/><rect x="155.8" y="89.7" width="12.0" height="12.6" rx="3" fill="#cbd5e1" stroke="#475569"/><rect x="138.0" y="89.6" width="24.1" height="19.3" rx="3" fill="#cbd5e1" stroke="#475569"/><rect x="194.8" y="388.1" width="24.1" height="72.5" rx="3" fill="#cbd5e1" stroke="#475569"/><rect x="138.0" y="388.1" width="24.1" height="72.5" rx="3" fill="#cbd5e1" stroke="#475569"/><rect x="81.1" y="388.1" width="24.1" height="72.5" rx="3" fill="#cbd5e1" stroke="#475569"/><rect x="138.0" y="388.1" width="24.1" height="72.5" rx="3" fill="#cbd5e1" stroke="#475569"/><rect x="194.8" y="460.6" width="24.1" height="72.5" rx="3" fill="#cbd5e1" stroke="#475569"/><rect x="138.0" y="460.6" width="24.1" height="72.5" rx="3" fill="#cbd5e1" stroke="#475569"/><rect x="81.1" y="460.6" width="24.1" height="72.5" rx="3" fill="#cbd5e1" stroke="#475569"/><rect x="138.0" y="460.6" width="24.1" height="72.5" rx="3" fill="#cbd5e1" stroke="#475569"/><rect x="186.1" y="498.9" width="11.6" height="11.6" rx="3" fill="#cbd5e1" stroke="#475569"/><rect x="144.2" y="498.9" width="11.6" height="11.6" rx="3" fill="#cbd5e1" stroke="#475569"/><rect x="102.3" y="498.9" width="11.6" height="11.6" rx="3" fill="#cbd5e1" stroke="#475569"/><rect x="144.2" y="498.9" width="11.6" height="11.6" rx="3" fill="#cbd5e1" stroke="#475569"/><rect x="194.8" y="533.1" width="24.1" height="72.5" rx="3" fill="#cbd5e1" stroke="#475569"/><rect x="138.0" y="533.1" width="24.1" height="72.5" rx="3" fill="#cbd5e1" stroke="#475569"/><rect x="81.1" y="533.1" width="24.1" height="72.5" rx="3" fill="#cbd5e1" stroke="#475569"/><rect x="138.0" y="533.1" width="24.1" height="72.5" rx="3" fill="#cbd5e1" stroke="#475569"/><polygon points="193.8,560.9 185.8,598.2 201.8,598.2" fill="#94a3b8" stroke="#475569" opacity="0.88"/><polygon points="181.0,560.9 173.0,598.2 189.0,598.2" fill="#94a3b8" stroke="#475569" opacity="0.88"/><polygon points="150.0,560.9 142.0,598.2 158.0,598.2" fill="#94a3b8" stroke="#475569" opacity="0.88"/><polygon points="119.0,560.9 111.0,598.2 127.0,598.2" fill="#94a3b8" stroke="#475569" opacity="0.88"/><polygon points="106.2,560.9 98.2,598.2 114.2,598.2" fill="#94a3b8" stroke="#475569" opacity="0.88"/><polygon points="119.0,560.9 111.0,598.2 127.0,598.2" fill="#94a3b8" stroke="#475569" opacity="0.88"/><polygon points="150.0,560.9 142.0,598.2 158.0,598.2" fill="#94a3b8" stroke="#475569" opacity="0.88"/><polygon points="181.0,560.9 173.0,598.2 189.0,598.2" fill="#94a3b8" stroke="#475569" opacity="0.88"/><polygon points="201.0,605.6 212.7,605.6 215.5,637.0 198.2,637.0" fill="#f87171" stroke="#991b1b"/><polygon points="144.1,605.6 155.9,605.6 158.7,637.0 141.3,637.0" fill="#f87171" stroke="#991b1b"/><polygon points="87.3,605.6 99.0,605.6 101.8,637.0 84.5,637.0" fill="#f87171" stroke="#991b1b"/><polygon points="144.1,605.6 155.9,605.6 158.7,637.0 141.3,637.0" fill="#f87171" stroke="#991b1b"/>
  <rect x="378.0" y="76.0" width="24.1" height="5.5" rx="3" fill="#e2e8f0" stroke="#475569"/><rect x="378.0" y="81.5" width="24.1" height="20.2" rx="3" fill="#e2e8f0" stroke="#475569"/><rect x="378.0" y="101.7" width="24.1" height="3.7" rx="3" fill="#cbd5e1" stroke="#475569"/><rect x="378.0" y="105.4" width="24.1" height="1.9" rx="3" fill="#cbd5e1" stroke="#475569"/><rect x="378.0" y="107.3" width="24.1" height="7.2" rx="3" fill="#cbd5e1" stroke="#475569"/><rect x="378.0" y="114.5" width="24.1" height="28.9" rx="3" fill="#cbd5e1" stroke="#475569"/><rect x="378.0" y="143.4" width="24.1" height="11.6" rx="3" fill="#cbd5e1" stroke="#475569"/><rect x="378.0" y="155.0" width="24.1" height="11.6" rx="3" fill="#cbd5e1" stroke="#475569"/><rect x="378.0" y="166.5" width="24.1" height="11.6" rx="3" fill="#cbd5e1" stroke="#475569"/><rect x="378.0" y="178.1" width="24.1" height="7.7" rx="3" fill="#cbd5e1" stroke="#475569"/><rect x="378.0" y="185.8" width="24.1" height="7.7" rx="3" fill="#cbd5e1" stroke="#475569"/><rect x="378.0" y="193.5" width="24.1" height="7.7" rx="3" fill="#cbd5e1" stroke="#475569"/><rect x="378.0" y="201.1" width="24.1" height="1.9" rx="3" fill="#cbd5e1" stroke="#475569"/><rect x="365.9" y="203.1" width="48.2" height="17.5" rx="3" fill="#cbd5e1" stroke="#475569"/><rect x="365.9" y="220.6" width="48.2" height="17.5" rx="3" fill="#cbd5e1" stroke="#475569"/><rect x="365.9" y="238.1" width="48.2" height="17.5" rx="3" fill="#cbd5e1" stroke="#475569"/><rect x="353.9" y="255.7" width="72.3" height="17.3" rx="2" fill="#cbd5e1" stroke="#64748b" stroke-dasharray="3 2" opacity="0.45"/><polygon points="384.1,255.7 395.9,255.7 398.7,273.0 381.3,273.0" fill="#f87171" stroke="#991b1b"/><rect x="378.0" y="273.0" width="24.1" height="1.9" rx="3" fill="#cbd5e1" stroke="#475569"/><polygon points="365.9,274.9 414.1,274.9 426.1,318.3 353.9,318.3" fill="#dbeafe" stroke="#2563eb"/><rect x="353.9" y="318.3" width="72.3" height="144.1" rx="3" fill="#cbd5e1" stroke="#475569"/><rect x="353.9" y="462.4" width="72.3" height="144.1" rx="3" fill="#cbd5e1" stroke="#475569"/><polygon points="372.3,606.6 407.7,606.6 416.0,636.0 364.0,636.0" fill="#f87171" stroke="#991b1b"/><rect x="378.0" y="90.0" width="24.1" height="3.9" rx="3" fill="#cbd5e1" stroke="#475569"/><rect x="378.0" y="90.0" width="24.1" height="3.9" rx="3" fill="#cbd5e1" stroke="#475569"/><rect x="391.5" y="90.0" width="24.1" height="3.9" rx="3" fill="#cbd5e1" stroke="#475569"/><rect x="364.4" y="90.0" width="24.1" height="3.9" rx="3" fill="#cbd5e1" stroke="#475569"/><rect x="384.0" y="90.8" width="12.0" height="3.5" rx="3" fill="#cbd5e1" stroke="#475569"/><rect x="378.0" y="90.4" width="24.1" height="4.3" rx="3" fill="#cbd5e1" stroke="#475569"/><rect x="394.9" y="82.9" width="24.1" height="19.3" rx="3" fill="#cbd5e1" stroke="#475569"/><rect x="361.0" y="82.9" width="24.1" height="19.3" rx="3" fill="#cbd5e1" stroke="#475569"/><rect x="395.8" y="89.7" width="12.0" height="12.6" rx="3" fill="#cbd5e1" stroke="#475569"/><rect x="391.5" y="89.6" width="24.1" height="19.3" rx="3" fill="#cbd5e1" stroke="#475569"/><rect x="378.0" y="388.1" width="24.1" height="72.5" rx="3" fill="#cbd5e1" stroke="#475569"/><rect x="434.8" y="388.1" width="24.1" height="72.5" rx="3" fill="#cbd5e1" stroke="#475569"/><rect x="378.0" y="388.1" width="24.1" height="72.5" rx="3" fill="#cbd5e1" stroke="#475569"/><rect x="321.1" y="388.1" width="24.1" height="72.5" rx="3" fill="#cbd5e1" stroke="#475569"/><rect x="378.0" y="460.6" width="24.1" height="72.5" rx="3" fill="#cbd5e1" stroke="#475569"/><rect x="434.8" y="460.6" width="24.1" height="72.5" rx="3" fill="#cbd5e1" stroke="#475569"/><rect x="378.0" y="460.6" width="24.1" height="72.5" rx="3" fill="#cbd5e1" stroke="#475569"/><rect x="321.1" y="460.6" width="24.1" height="72.5" rx="3" fill="#cbd5e1" stroke="#475569"/><rect x="384.2" y="498.9" width="11.6" height="11.6" rx="3" fill="#cbd5e1" stroke="#475569"/><rect x="426.1" y="498.9" width="11.6" height="11.6" rx="3" fill="#cbd5e1" stroke="#475569"/><rect x="384.2" y="498.9" width="11.6" height="11.6" rx="3" fill="#cbd5e1" stroke="#475569"/><rect x="342.3" y="498.9" width="11.6" height="11.6" rx="3" fill="#cbd5e1" stroke="#475569"/><rect x="378.0" y="533.1" width="24.1" height="72.5" rx="3" fill="#cbd5e1" stroke="#475569"/><rect x="434.8" y="533.1" width="24.1" height="72.5" rx="3" fill="#cbd5e1" stroke="#475569"/><rect x="378.0" y="533.1" width="24.1" height="72.5" rx="3" fill="#cbd5e1" stroke="#475569"/><rect x="321.1" y="533.1" width="24.1" height="72.5" rx="3" fill="#cbd5e1" stroke="#475569"/><polygon points="390.0,560.9 382.0,598.2 398.0,598.2" fill="#94a3b8" stroke="#475569" opacity="0.88"/><polygon points="421.0,560.9 413.0,598.2 429.0,598.2" fill="#94a3b8" stroke="#475569" opacity="0.88"/><polygon points="433.8,560.9 425.8,598.2 441.8,598.2" fill="#94a3b8" stroke="#475569" opacity="0.88"/><polygon points="421.0,560.9 413.0,598.2 429.0,598.2" fill="#94a3b8" stroke="#475569" opacity="0.88"/><polygon points="390.0,560.9 382.0,598.2 398.0,598.2" fill="#94a3b8" stroke="#475569" opacity="0.88"/><polygon points="359.0,560.9 351.0,598.2 367.0,598.2" fill="#94a3b8" stroke="#475569" opacity="0.88"/><polygon points="346.2,560.9 338.2,598.2 354.2,598.2" fill="#94a3b8" stroke="#475569" opacity="0.88"/><polygon points="359.0,560.9 351.0,598.2 367.0,598.2" fill="#94a3b8" stroke="#475569" opacity="0.88"/><polygon points="384.1,605.6 395.9,605.6 398.7,637.0 381.3,637.0" fill="#f87171" stroke="#991b1b"/><polygon points="441.0,605.6 452.7,605.6 455.5,637.0 438.2,637.0" fill="#f87171" stroke="#991b1b"/><polygon points="384.1,605.6 395.9,605.6 398.7,637.0 381.3,637.0" fill="#f87171" stroke="#991b1b"/><polygon points="327.3,605.6 339.0,605.6 341.8,637.0 324.5,637.0" fill="#f87171" stroke="#991b1b"/>
  <circle cx="625.0" cy="380.0" r="36.1" fill="#cbd5e1" stroke="#475569" opacity="0.30"/><circle cx="625.0" cy="380.0" r="36.1" fill="#cbd5e1" stroke="#475569" opacity="0.30"/><circle cx="625.0" cy="380.0" r="36.1" fill="#f87171" stroke="#475569" opacity="0.30"/><circle cx="625.0" cy="380.0" r="24.1" fill="#cbd5e1" stroke="#475569" opacity="0.30"/><circle cx="625.0" cy="380.0" r="24.1" fill="#cbd5e1" stroke="#475569" opacity="0.30"/><circle cx="625.0" cy="380.0" r="24.1" fill="#cbd5e1" stroke="#475569" opacity="0.30"/><circle cx="625.0" cy="380.0" r="24.1" fill="#dbeafe" stroke="#475569" opacity="0.30"/><circle cx="625.0" cy="380.0" r="12.0" fill="#e2e8f0" stroke="#475569" opacity="0.30"/><circle cx="625.0" cy="380.0" r="36.1" fill="#fde68a" stroke="#334155" opacity="0.80"/><circle cx="681.8" cy="380.0" r="8.7" fill="#f87171" stroke="#334155" opacity="0.80"/><circle cx="681.8" cy="380.0" r="12.0" fill="#cbd5e1" stroke="#334155" opacity="0.80"/><circle cx="681.8" cy="380.0" r="12.0" fill="#cbd5e1" stroke="#334155" opacity="0.80"/><circle cx="681.8" cy="380.0" r="12.0" fill="#cbd5e1" stroke="#334155" opacity="0.80"/><circle cx="666.9" cy="380.0" r="5.8" fill="#cbd5e1" stroke="#334155" opacity="0.80"/><circle cx="625.0" cy="436.8" r="8.7" fill="#f87171" stroke="#334155" opacity="0.80"/><circle cx="625.0" cy="436.8" r="12.0" fill="#cbd5e1" stroke="#334155" opacity="0.80"/><circle cx="625.0" cy="436.8" r="12.0" fill="#cbd5e1" stroke="#334155" opacity="0.80"/><circle cx="625.0" cy="436.8" r="12.0" fill="#cbd5e1" stroke="#334155" opacity="0.80"/><circle cx="625.0" cy="421.9" r="5.8" fill="#cbd5e1" stroke="#334155" opacity="0.80"/><circle cx="568.2" cy="380.0" r="8.7" fill="#f87171" stroke="#334155" opacity="0.80"/><circle cx="568.2" cy="380.0" r="12.0" fill="#cbd5e1" stroke="#334155" opacity="0.80"/><circle cx="568.2" cy="380.0" r="12.0" fill="#cbd5e1" stroke="#334155" opacity="0.80"/><circle cx="568.2" cy="380.0" r="12.0" fill="#cbd5e1" stroke="#334155" opacity="0.80"/><circle cx="583.1" cy="380.0" r="5.8" fill="#cbd5e1" stroke="#334155" opacity="0.80"/><circle cx="625.0" cy="323.2" r="8.7" fill="#f87171" stroke="#334155" opacity="0.80"/><circle cx="625.0" cy="323.2" r="12.0" fill="#cbd5e1" stroke="#334155" opacity="0.80"/><circle cx="625.0" cy="323.2" r="12.0" fill="#cbd5e1" stroke="#334155" opacity="0.80"/><circle cx="625.0" cy="323.2" r="12.0" fill="#cbd5e1" stroke="#334155" opacity="0.80"/><circle cx="625.0" cy="338.1" r="5.8" fill="#cbd5e1" stroke="#334155" opacity="0.80"/><circle cx="642.0" cy="380.0" r="6.0" fill="#cbd5e1" stroke="#334155" opacity="0.80"/><circle cx="608.0" cy="380.0" r="12.0" fill="#cbd5e1" stroke="#334155" opacity="0.80"/><circle cx="625.0" cy="397.0" r="12.0" fill="#cbd5e1" stroke="#334155" opacity="0.80"/><circle cx="625.0" cy="363.0" r="12.0" fill="#cbd5e1" stroke="#334155" opacity="0.80"/><circle cx="636.9" cy="391.9" r="6.0" fill="#cbd5e1" stroke="#334155" opacity="0.80"/><circle cx="638.6" cy="380.0" r="12.0" fill="#cbd5e1" stroke="#334155" opacity="0.80"/><circle cx="611.4" cy="380.0" r="12.0" fill="#cbd5e1" stroke="#334155" opacity="0.80"/><circle cx="625.0" cy="393.6" r="12.0" fill="#cbd5e1" stroke="#334155" opacity="0.80"/><circle cx="625.0" cy="366.4" r="12.0" fill="#cbd5e1" stroke="#334155" opacity="0.80"/><circle cx="625.0" cy="393.6" r="12.0" fill="#cbd5e1" stroke="#334155" opacity="0.80"/><circle cx="668.8" cy="380.0" r="3.4" fill="#94a3b8" stroke="#334155" opacity="0.80"/><circle cx="656.0" cy="411.0" r="3.4" fill="#94a3b8" stroke="#334155" opacity="0.80"/><circle cx="625.0" cy="423.8" r="3.4" fill="#94a3b8" stroke="#334155" opacity="0.80"/><circle cx="594.0" cy="411.0" r="3.4" fill="#94a3b8" stroke="#334155" opacity="0.80"/><circle cx="581.2" cy="380.0" r="3.4" fill="#94a3b8" stroke="#334155" opacity="0.80"/><circle cx="594.0" cy="349.0" r="3.4" fill="#94a3b8" stroke="#334155" opacity="0.80"/><circle cx="625.0" cy="336.2" r="3.4" fill="#94a3b8" stroke="#334155" opacity="0.80"/><circle cx="656.0" cy="349.0" r="3.4" fill="#94a3b8" stroke="#334155" opacity="0.80"/>
  <text x="805" y="94" font-size="12" fill="#16a34a">PASS - slender body (4 &lt;= L/D &lt;= 19)</text><text x="805" y="116" font-size="12" fill="#16a34a">PASS - monotonic taper (widest toward base)</text><text x="805" y="138" font-size="12" fill="#16a34a">PASS - payload housed (fairing or capsule top)</text><text x="805" y="160" font-size="12" fill="#16a34a">PASS - payload fully enclosed (nothing protrudes the fairing)</text><text x="805" y="182" font-size="12" fill="#16a34a">PASS - engine at the base</text><text x="805" y="204" font-size="12" fill="#16a34a">PASS - upper-stage engine has interstage shroud</text><text x="805" y="226" font-size="12" fill="#16a34a">PASS - controlled ascent margin</text><text x="805" y="248" font-size="12" fill="#16a34a">PASS - radial protrusions within ascent envelope</text><text x="805" y="270" font-size="12" fill="#16a34a">PASS - landing gear tip-over stable</text><text x="805" y="292" font-size="12" fill="#16a34a">PASS - symmetric strap-on boosters</text><text x="805" y="314" font-size="12" fill="#16a34a">PASS - boosters no taller than host stage</text>
  <text x="805" y="346" font-size="12" fill="#0f172a">L/D 7.7:1</text><text x="805" y="364" font-size="12" fill="#0f172a">length 29.06 m</text><text x="805" y="382" font-size="12" fill="#0f172a">body dia 3.75 m</text><text x="805" y="400" font-size="12" fill="#0f172a">core span 4.9 m</text><text x="805" y="418" font-size="12" fill="#0f172a">4x radial boosters (span 7.15 m)</text><text x="805" y="436" font-size="12" fill="#0f172a">full span 7.15 m</text><text x="805" y="454" font-size="12" fill="#0f172a">static -0.05 cal</text><text x="805" y="472" font-size="12" fill="#0f172a">Cd 0.232</text><text x="805" y="490" font-size="12" fill="#0f172a">drag loss 139.0 m/s</text><text x="805" y="508" font-size="12" fill="#0f172a">max-Q 88.4 kPa</text>
</svg>