<svg xmlns="http://www.w3.org/2000/svg" width="1080" height="700" viewBox="0 0 1080 700" font-family="system-ui,Segoe UI,sans-serif">
  <rect width="1080" height="700" fill="#f8fafc"/>
  <text x="30" y="32" font-size="19" font-weight="700" fill="#0f172a">Three-view design chart - AI-Relay-Keo</text>
  <text x="805" y="56" font-size="15" font-weight="700" fill="#16a34a">LOOKS LIKE A ROCKET</text>
  <text x="118" y="58" font-size="12" font-weight="700" fill="#334155">SIDE</text>
  <text x="355" y="58" font-size="12" font-weight="700" fill="#334155">FRONT</text>
  <text x="594" y="220" font-size="12" font-weight="700" fill="#334155">TOP</text>
  <line x1="150.0" y1="60" x2="150.0" y2="650" stroke="#e2e8f0" stroke-dasharray="4 4"/>
  <line x1="390.0" y1="60" x2="390.0" y2="650" stroke="#e2e8f0" stroke-dasharray="4 4"/>
  <circle cx="625.0" cy="380.0" r="39.7" fill="none" stroke="#94a3b8" stroke-dasharray="4 4"/>
  <rect x="130.2" y="76.0" width="39.7" height="11.9" rx="3" fill="#cbd5e1" stroke="#475569"/><rect x="130.2" y="87.9" width="39.7" height="19.0" rx="3" fill="#cbd5e1" stroke="#475569"/><rect x="130.2" y="106.9" width="39.7" height="19.0" rx="3" fill="#cbd5e1" stroke="#475569"/><rect x="130.2" y="125.9" width="39.7" height="19.0" rx="3" fill="#cbd5e1" stroke="#475569"/><rect x="130.2" y="145.0" width="39.7" height="12.6" rx="3" fill="#cbd5e1" stroke="#475569"/><rect x="130.2" y="157.6" width="39.7" height="12.6" rx="3" fill="#cbd5e1" stroke="#475569"/><rect x="130.2" y="170.2" width="39.7" height="12.6" rx="3" fill="#cbd5e1" stroke="#475569"/><path d="M 112.0 196.2 L 112.0 67.7 Q 112.0 32.2 150.0 18.2 Q 188.0 32.2 188.0 67.7 L 188.0 196.2 Z" fill="#fde68a" stroke="#d97706" stroke-width="1.4" opacity="0.55"/><rect x="130.2" y="196.2" width="39.7" height="3.2" rx="3" fill="#cbd5e1" stroke="#475569"/><rect x="130.2" y="199.3" width="39.7" height="7.9" rx="3" fill="#cbd5e1" stroke="#475569"/><rect x="130.2" y="207.3" width="39.7" height="7.9" rx="3" fill="#cbd5e1" stroke="#475569"/><rect x="110.3" y="215.2" width="79.3" height="26.3" rx="2" fill="#cbd5e1" stroke="#64748b" stroke-dasharray="3 2" opacity="0.45"/><polygon points="140.3,215.2 159.7,215.2 164.3,241.5 135.7,241.5" fill="#f87171" stroke="#991b1b"/><rect x="130.2" y="241.5" width="39.7" height="3.2" rx="3" fill="#cbd5e1" stroke="#475569"/><polygon points="130.2,244.7 169.8,244.7 189.7,324.0 110.3,324.0" fill="#dbeafe" stroke="#2563eb"/><rect x="110.3" y="324.0" width="79.3" height="236.6" rx="3" fill="#cbd5e1" stroke="#475569"/><polygon points="130.6,560.7 169.4,560.7 178.5,636.0 121.5,636.0" fill="#f87171" stroke="#991b1b"/><rect x="155.1" y="80.7" width="19.8" height="5.7" rx="3" fill="#cbd5e1" stroke="#475569"/><rect x="115.1" y="80.0" width="39.7" height="7.0" rx="3" fill="#cbd5e1" stroke="#475569"/><rect x="130.2" y="67.7" width="39.7" height="31.7" rx="3" fill="#cbd5e1" stroke="#475569"/><rect x="130.2" y="67.7" width="39.7" height="31.7" rx="3" fill="#cbd5e1" stroke="#475569"/><rect x="150.6" y="78.9" width="19.8" height="20.7" rx="3" fill="#cbd5e1" stroke="#475569"/><polygon points="202.3,485.6 194.3,535.4 210.3,535.4" fill="#94a3b8" stroke="#475569" opacity="0.88"/><polygon points="187.0,485.6 179.0,535.4 195.0,535.4" fill="#94a3b8" stroke="#475569" opacity="0.88"/><polygon points="150.0,485.6 142.0,535.4 158.0,535.4" fill="#94a3b8" stroke="#475569" opacity="0.88"/><polygon points="113.0,485.6 105.0,535.4 121.0,535.4" fill="#94a3b8" stroke="#475569" opacity="0.88"/><polygon points="97.7,485.6 89.7,535.4 105.7,535.4" fill="#94a3b8" stroke="#475569" opacity="0.88"/><polygon points="113.0,485.6 105.0,535.4 121.0,535.4" fill="#94a3b8" stroke="#475569" opacity="0.88"/><polygon points="150.0,485.6 142.0,535.4 158.0,535.4" fill="#94a3b8" stroke="#475569" opacity="0.88"/><polygon points="187.0,485.6 179.0,535.4 195.0,535.4" fill="#94a3b8" stroke="#475569" opacity="0.88"/>
  <rect x="370.2" y="76.0" width="39.7" height="11.9" rx="3" fill="#cbd5e1" stroke="#475569"/><rect x="370.2" y="87.9" width="39.7" height="19.0" rx="3" fill="#cbd5e1" stroke="#475569"/><rect x="370.2" y="106.9" width="39.7" height="19.0" rx="3" fill="#cbd5e1" stroke="#475569"/><rect x="370.2" y="125.9" width="39.7" height="19.0" rx="3" fill="#cbd5e1" stroke="#475569"/><rect x="370.2" y="145.0" width="39.7" height="12.6" rx="3" fill="#cbd5e1" stroke="#475569"/><rect x="370.2" y="157.6" width="39.7" height="12.6" rx="3" fill="#cbd5e1" stroke="#475569"/><rect x="370.2" y="170.2" width="39.7" height="12.6" rx="3" fill="#cbd5e1" stroke="#475569"/><path d="M 352.0 196.2 L 352.0 67.7 Q 352.0 32.2 390.0 18.2 Q 428.0 32.2 428.0 67.7 L 428.0 196.2 Z" fill="#fde68a" stroke="#d97706" stroke-width="1.4" opacity="0.55"/><rect x="370.2" y="196.2" width="39.7" height="3.2" rx="3" fill="#cbd5e1" stroke="#475569"/><rect x="370.2" y="199.3" width="39.7" height="7.9" rx="3" fill="#cbd5e1" stroke="#475569"/><rect x="370.2" y="207.3" width="39.7" height="7.9" rx="3" fill="#cbd5e1" stroke="#475569"/><rect x="350.3" y="215.2" width="79.3" height="26.3" rx="2" fill="#cbd5e1" stroke="#64748b" stroke-dasharray="3 2" opacity="0.45"/><polygon points="380.3,215.2 399.7,215.2 404.3,241.5 375.7,241.5" fill="#f87171" stroke="#991b1b"/><rect x="370.2" y="241.5" width="39.7" height="3.2" rx="3" fill="#cbd5e1" stroke="#475569"/><polygon points="370.2,244.7 409.8,244.7 429.7,324.0 350.3,324.0" fill="#dbeafe" stroke="#2563eb"/><rect x="350.3" y="324.0" width="79.3" height="236.6" rx="3" fill="#cbd5e1" stroke="#475569"/><polygon points="370.6,560.7 409.4,560.7 418.5,636.0 361.5,636.0" fill="#f87171" stroke="#991b1b"/><rect x="380.1" y="80.7" width="19.8" height="5.7" rx="3" fill="#cbd5e1" stroke="#475569"/><rect x="370.2" y="80.0" width="39.7" height="7.0" rx="3" fill="#cbd5e1" stroke="#475569"/><rect x="385.2" y="67.7" width="39.7" height="31.7" rx="3" fill="#cbd5e1" stroke="#475569"/><rect x="355.1" y="67.7" width="39.7" height="31.7" rx="3" fill="#cbd5e1" stroke="#475569"/><rect x="390.6" y="78.9" width="19.8" height="20.7" rx="3" fill="#cbd5e1" stroke="#475569"/><polygon points="390.0,485.6 382.0,535.4 398.0,535.4" fill="#94a3b8" stroke="#475569" opacity="0.88"/><polygon points="427.0,485.6 419.0,535.4 435.0,535.4" fill="#94a3b8" stroke="#475569" opacity="0.88"/><polygon points="442.3,485.6 434.3,535.4 450.3,535.4" fill="#94a3b8" stroke="#475569" opacity="0.88"/><polygon points="427.0,485.6 419.0,535.4 435.0,535.4" fill="#94a3b8" stroke="#475569" opacity="0.88"/><polygon points="390.0,485.6 382.0,535.4 398.0,535.4" fill="#94a3b8" stroke="#475569" opacity="0.88"/><polygon points="353.0,485.6 345.0,535.4 361.0,535.4" fill="#94a3b8" stroke="#475569" opacity="0.88"/><polygon points="337.7,485.6 329.7,535.4 345.7,535.4" fill="#94a3b8" stroke="#475569" opacity="0.88"/><polygon points="353.0,485.6 345.0,535.4 361.0,535.4" fill="#94a3b8" stroke="#475569" opacity="0.88"/>
  <circle cx="625.0" cy="380.0" r="39.7" fill="#cbd5e1" stroke="#475569" opacity="0.30"/><circle cx="625.0" cy="380.0" r="39.7" fill="#f87171" stroke="#475569" opacity="0.30"/><circle cx="625.0" cy="380.0" r="19.8" fill="#cbd5e1" stroke="#475569" opacity="0.30"/><circle cx="625.0" cy="380.0" r="19.8" fill="#cbd5e1" stroke="#475569" opacity="0.30"/><circle cx="625.0" cy="380.0" r="19.8" fill="#cbd5e1" stroke="#475569" opacity="0.30"/><circle cx="625.0" cy="380.0" r="19.8" fill="#cbd5e1" stroke="#475569" opacity="0.30"/><circle cx="625.0" cy="380.0" r="19.8" fill="#cbd5e1" stroke="#475569" opacity="0.30"/><circle cx="625.0" cy="380.0" r="19.8" fill="#cbd5e1" stroke="#475569" opacity="0.30"/><circle cx="625.0" cy="380.0" r="39.7" fill="#fde68a" stroke="#334155" opacity="0.80"/><circle cx="640.0" cy="380.0" r="9.9" fill="#cbd5e1" stroke="#334155" opacity="0.80"/><circle cx="610.0" cy="380.0" r="19.8" fill="#cbd5e1" stroke="#334155" opacity="0.80"/><circle cx="625.0" cy="395.0" r="19.8" fill="#cbd5e1" stroke="#334155" opacity="0.80"/><circle cx="625.0" cy="365.0" r="19.8" fill="#cbd5e1" stroke="#334155" opacity="0.80"/><circle cx="635.5" cy="390.5" r="9.9" fill="#cbd5e1" stroke="#334155" opacity="0.80"/><circle cx="677.3" cy="380.0" r="5.6" fill="#94a3b8" stroke="#334155" opacity="0.80"/><circle cx="662.0" cy="417.0" r="5.6" fill="#94a3b8" stroke="#334155" opacity="0.80"/><circle cx="625.0" cy="432.3" r="5.6" fill="#94a3b8" stroke="#334155" opacity="0.80"/><circle cx="588.0" cy="417.0" r="5.6" fill="#94a3b8" stroke="#334155" opacity="0.80"/><circle cx="572.7" cy="380.0" r="5.6" fill="#94a3b8" stroke="#334155" opacity="0.80"/><circle cx="588.0" cy="343.0" r="5.6" fill="#94a3b8" stroke="#334155" opacity="0.80"/><circle cx="625.0" cy="327.7" r="5.6" fill="#94a3b8" stroke="#334155" opacity="0.80"/><circle cx="662.0" cy="343.0" r="5.6" fill="#94a3b8" stroke="#334155" opacity="0.80"/>
  <text x="805" y="94" font-size="12" fill="#16a34a">PASS - slender body (4 &lt;= L/D &lt;= 19)</text><text x="805" y="116" font-size="12" fill="#16a34a">PASS - monotonic taper (widest toward base)</text><text x="805" y="138" font-size="12" fill="#16a34a">PASS - payload housed (fairing or capsule top)</text><text x="805" y="160" font-size="12" fill="#16a34a">PASS - payload fully enclosed (nothing protrudes the fairing)</text><text x="805" y="182" font-size="12" fill="#16a34a">PASS - engine at the base</text><text x="805" y="204" font-size="12" fill="#16a34a">PASS - upper-stage engine has interstage shroud</text><text x="805" y="226" font-size="12" fill="#16a34a">PASS - controlled ascent margin</text><text x="805" y="248" font-size="12" fill="#16a34a">PASS - radial protrusions within ascent envelope</text><text x="805" y="270" font-size="12" fill="#16a34a">PASS - landing gear tip-over stable</text>
  <text x="805" y="302" font-size="12" fill="#0f172a">L/D 7.1:1</text><text x="805" y="320" font-size="12" fill="#0f172a">length 17.65 m</text><text x="805" y="338" font-size="12" fill="#0f172a">body dia 2.5 m</text><text x="805" y="356" font-size="12" fill="#0f172a">core span 3.65 m</text><text x="805" y="374" font-size="12" fill="#0f172a">full span 3.65 m</text><text x="805" y="392" font-size="12" fill="#0f172a">static 0.09 cal</text><text x="805" y="410" font-size="12" fill="#0f172a">Cd 0.232</text><text x="805" y="428" font-size="12" fill="#0f172a">drag loss 383.0 m/s</text><text x="805" y="446" font-size="12" fill="#0f172a">max-Q 88.4 kPa</text>
</svg>