<svg xmlns="http://www.w3.org/2000/svg" width="1080" height="700" viewBox="0 0 1080 700" font-family="system-ui,Segoe UI,sans-serif">
  <rect width="1080" height="700" fill="#f8fafc"/>
  <text x="30" y="32" font-size="19" font-weight="700" fill="#0f172a">Three-view design chart - AI-Relay</text>
  <text x="805" y="56" font-size="15" font-weight="700" fill="#16a34a">LOOKS LIKE A ROCKET</text>
  <text x="118" y="58" font-size="12" font-weight="700" fill="#334155">SIDE</text>
  <text x="355" y="58" font-size="12" font-weight="700" fill="#334155">FRONT</text>
  <text x="594" y="220" font-size="12" font-weight="700" fill="#334155">TOP</text>
  <line x1="150.0" y1="60" x2="150.0" y2="650" stroke="#e2e8f0" stroke-dasharray="4 4"/>
  <line x1="390.0" y1="60" x2="390.0" y2="650" stroke="#e2e8f0" stroke-dasharray="4 4"/>
  <circle cx="625.0" cy="380.0" r="40.6" fill="none" stroke="#94a3b8" stroke-dasharray="4 4"/>
  <rect x="129.7" y="76.0" width="40.6" height="12.2" rx="3" fill="#cbd5e1" stroke="#475569"/><rect x="129.7" y="88.2" width="40.6" height="19.5" rx="3" fill="#cbd5e1" stroke="#475569"/><rect x="129.7" y="107.7" width="40.6" height="19.5" rx="3" fill="#cbd5e1" stroke="#475569"/><rect x="129.7" y="127.2" width="40.6" height="19.5" rx="3" fill="#cbd5e1" stroke="#475569"/><rect x="129.7" y="146.7" width="40.6" height="12.9" rx="3" fill="#cbd5e1" stroke="#475569"/><rect x="129.7" y="159.6" width="40.6" height="12.9" rx="3" fill="#cbd5e1" stroke="#475569"/><rect x="129.7" y="172.5" width="40.6" height="12.9" rx="3" fill="#cbd5e1" stroke="#475569"/><path d="M 111.0 199.1 L 111.0 67.5 Q 111.0 30.8 150.0 16.8 Q 189.0 30.8 189.0 67.5 L 189.0 199.1 Z" fill="#fde68a" stroke="#d97706" stroke-width="1.4" opacity="0.55"/><rect x="129.7" y="199.1" width="40.6" height="3.3" rx="3" fill="#cbd5e1" stroke="#475569"/><rect x="129.7" y="202.4" width="40.6" height="8.1" rx="3" fill="#cbd5e1" stroke="#475569"/><rect x="129.7" y="210.5" width="40.6" height="8.1" rx="3" fill="#cbd5e1" stroke="#475569"/><rect x="129.7" y="218.6" width="40.6" height="8.1" rx="3" fill="#cbd5e1" stroke="#475569"/><rect x="109.4" y="226.8" width="81.3" height="29.3" rx="2" fill="#cbd5e1" stroke="#64748b" stroke-dasharray="3 2" opacity="0.45"/><polygon points="140.1,226.8 159.9,226.8 164.6,256.0 135.4,256.0" fill="#f87171" stroke="#991b1b"/><rect x="129.7" y="256.0" width="40.6" height="3.3" rx="3" fill="#cbd5e1" stroke="#475569"/><polygon points="129.7,259.3 170.3,259.3 190.6,340.5 109.4,340.5" fill="#dbeafe" stroke="#2563eb"/><rect x="109.4" y="340.5" width="81.3" height="29.6" rx="3" fill="#cbd5e1" stroke="#475569"/><rect x="109.4" y="370.1" width="81.3" height="29.6" rx="3" fill="#cbd5e1" stroke="#475569"/><rect x="109.4" y="399.7" width="81.3" height="29.6" rx="3" fill="#cbd5e1" stroke="#475569"/><rect x="109.4" y="429.3" width="81.3" height="29.6" rx="3" fill="#cbd5e1" stroke="#475569"/><rect x="109.4" y="458.8" width="81.3" height="29.6" rx="3" fill="#cbd5e1" stroke="#475569"/><rect x="109.4" y="488.4" width="81.3" height="29.6" rx="3" fill="#cbd5e1" stroke="#475569"/><rect x="109.4" y="518.0" width="81.3" height="29.6" rx="3" fill="#cbd5e1" stroke="#475569"/><rect x="109.4" y="547.6" width="81.3" height="29.6" rx="3" fill="#cbd5e1" stroke="#475569"/><rect x="109.4" y="577.2" width="81.3" height="29.6" rx="3" fill="#cbd5e1" stroke="#475569"/><polygon points="140.1,606.7 159.9,606.7 164.6,636.0 135.4,636.0" fill="#f87171" stroke="#991b1b"/><rect x="155.3" y="80.8" width="20.3" height="5.9" rx="3" fill="#cbd5e1" stroke="#475569"/><rect x="114.3" y="80.1" width="40.6" height="7.2" rx="3" fill="#cbd5e1" stroke="#475569"/><rect x="129.7" y="67.5" width="40.6" height="32.5" rx="3" fill="#cbd5e1" stroke="#475569"/><rect x="129.7" y="67.5" width="40.6" height="32.5" rx="3" fill="#cbd5e1" stroke="#475569"/><rect x="150.6" y="78.9" width="20.3" height="21.2" rx="3" fill="#cbd5e1" stroke="#475569"/><polygon points="203.6,583.1 195.6,633.6 211.6,633.6" fill="#94a3b8" stroke="#475569" opacity="0.88"/><polygon points="187.9,583.1 179.9,633.6 195.9,633.6" fill="#94a3b8" stroke="#475569" opacity="0.88"/><polygon points="150.0,583.1 142.0,633.6 158.0,633.6" fill="#94a3b8" stroke="#475569" opacity="0.88"/><polygon points="112.1,583.1 104.1,633.6 120.1,633.6" fill="#94a3b8" stroke="#475569" opacity="0.88"/><polygon points="96.4,583.1 88.4,633.6 104.4,633.6" fill="#94a3b8" stroke="#475569" opacity="0.88"/><polygon points="112.1,583.1 104.1,633.6 120.1,633.6" fill="#94a3b8" stroke="#475569" opacity="0.88"/><polygon points="150.0,583.1 142.0,633.6 158.0,633.6" fill="#94a3b8" stroke="#475569" opacity="0.88"/><polygon points="187.9,583.1 179.9,633.6 195.9,633.6" fill="#94a3b8" stroke="#475569" opacity="0.88"/><polygon points="169.3,606.7 189.2,606.7 193.9,636.0 164.6,636.0" fill="#f87171" stroke="#991b1b"/><polygon points="125.4,606.7 145.3,606.7 150.0,636.0 120.7,636.0" fill="#f87171" stroke="#991b1b"/><polygon points="125.4,606.7 145.3,606.7 150.0,636.0 120.7,636.0" fill="#f87171" stroke="#991b1b"/>
  <rect x="369.7" y="76.0" width="40.6" height="12.2" rx="3" fill="#cbd5e1" stroke="#475569"/><rect x="369.7" y="88.2" width="40.6" height="19.5" rx="3" fill="#cbd5e1" stroke="#475569"/><rect x="369.7" y="107.7" width="40.6" height="19.5" rx="3" fill="#cbd5e1" stroke="#475569"/><rect x="369.7" y="127.2" width="40.6" height="19.5" rx="3" fill="#cbd5e1" stroke="#475569"/><rect x="369.7" y="146.7" width="40.6" height="12.9" rx="3" fill="#cbd5e1" stroke="#475569"/><rect x="369.7" y="159.6" width="40.6" height="12.9" rx="3" fill="#cbd5e1" stroke="#475569"/><rect x="369.7" y="172.5" width="40.6" height="12.9" rx="3" fill="#cbd5e1" stroke="#475569"/><path d="M 351.0 199.1 L 351.0 67.5 Q 351.0 30.8 390.0 16.8 Q 429.0 30.8 429.0 67.5 L 429.0 199.1 Z" fill="#fde68a" stroke="#d97706" stroke-width="1.4" opacity="0.55"/><rect x="369.7" y="199.1" width="40.6" height="3.3" rx="3" fill="#cbd5e1" stroke="#475569"/><rect x="369.7" y="202.4" width="40.6" height="8.1" rx="3" fill="#cbd5e1" stroke="#475569"/><rect x="369.7" y="210.5" width="40.6" height="8.1" rx="3" fill="#cbd5e1" stroke="#475569"/><rect x="369.7" y="218.6" width="40.6" height="8.1" rx="3" fill="#cbd5e1" stroke="#475569"/><rect x="349.4" y="226.8" width="81.3" height="29.3" rx="2" fill="#cbd5e1" stroke="#64748b" stroke-dasharray="3 2" opacity="0.45"/><polygon points="380.1,226.8 399.9,226.8 404.6,256.0 375.4,256.0" fill="#f87171" stroke="#991b1b"/><rect x="369.7" y="256.0" width="40.6" height="3.3" rx="3" fill="#cbd5e1" stroke="#475569"/><polygon points="369.7,259.3 410.3,259.3 430.6,340.5 349.4,340.5" fill="#dbeafe" stroke="#2563eb"/><rect x="349.4" y="340.5" width="81.3" height="29.6" rx="3" fill="#cbd5e1" stroke="#475569"/><rect x="349.4" y="370.1" width="81.3" height="29.6" rx="3" fill="#cbd5e1" stroke="#475569"/><rect x="349.4" y="399.7" width="81.3" height="29.6" rx="3" fill="#cbd5e1" stroke="#475569"/><rect x="349.4" y="429.3" width="81.3" height="29.6" rx="3" fill="#cbd5e1" stroke="#475569"/><rect x="349.4" y="458.8" width="81.3" height="29.6" rx="3" fill="#cbd5e1" stroke="#475569"/><rect x="349.4" y="488.4" width="81.3" height="29.6" rx="3" fill="#cbd5e1" stroke="#475569"/><rect x="349.4" y="518.0" width="81.3" height="29.6" rx="3" fill="#cbd5e1" stroke="#475569"/><rect x="349.4" y="547.6" width="81.3" height="29.6" rx="3" fill="#cbd5e1" stroke="#475569"/><rect x="349.4" y="577.2" width="81.3" height="29.6" rx="3" fill="#cbd5e1" stroke="#475569"/><polygon points="380.1,606.7 399.9,606.7 404.6,636.0 375.4,636.0" fill="#f87171" stroke="#991b1b"/><rect x="379.8" y="80.8" width="20.3" height="5.9" rx="3" fill="#cbd5e1" stroke="#475569"/><rect x="369.7" y="80.1" width="40.6" height="7.2" rx="3" fill="#cbd5e1" stroke="#475569"/><rect x="385.1" y="67.5" width="40.6" height="32.5" rx="3" fill="#cbd5e1" stroke="#475569"/><rect x="354.3" y="67.5" width="40.6" height="32.5" rx="3" fill="#cbd5e1" stroke="#475569"/><rect x="390.6" y="78.9" width="20.3" height="21.2" rx="3" fill="#cbd5e1" stroke="#475569"/><polygon points="390.0,583.1 382.0,633.6 398.0,633.6" fill="#94a3b8" stroke="#475569" opacity="0.88"/><polygon points="427.9,583.1 419.9,633.6 435.9,633.6" fill="#94a3b8" stroke="#475569" opacity="0.88"/><polygon points="443.6,583.1 435.6,633.6 451.6,633.6" fill="#94a3b8" stroke="#475569" opacity="0.88"/><polygon points="427.9,583.1 419.9,633.6 435.9,633.6" fill="#94a3b8" stroke="#475569" opacity="0.88"/><polygon points="390.0,583.1 382.0,633.6 398.0,633.6" fill="#94a3b8" stroke="#475569" opacity="0.88"/><polygon points="352.1,583.1 344.1,633.6 360.1,633.6" fill="#94a3b8" stroke="#475569" opacity="0.88"/><polygon points="336.4,583.1 328.4,633.6 344.4,633.6" fill="#94a3b8" stroke="#475569" opacity="0.88"/><polygon points="352.1,583.1 344.1,633.6 360.1,633.6" fill="#94a3b8" stroke="#475569" opacity="0.88"/><polygon points="380.1,606.7 399.9,606.7 404.6,636.0 375.4,636.0" fill="#f87171" stroke="#991b1b"/><polygon points="405.4,606.7 425.3,606.7 430.0,636.0 400.7,636.0" fill="#f87171" stroke="#991b1b"/><polygon points="354.7,606.7 374.6,606.7 379.3,636.0 350.0,636.0" fill="#f87171" stroke="#991b1b"/>
  <circle cx="625.0" cy="380.0" r="40.6" fill="#cbd5e1" stroke="#475569" opacity="0.30"/><circle cx="625.0" cy="380.0" r="40.6" fill="#cbd5e1" stroke="#475569" opacity="0.30"/><circle cx="625.0" cy="380.0" r="40.6" fill="#cbd5e1" stroke="#475569" opacity="0.30"/><circle cx="625.0" cy="380.0" r="40.6" fill="#cbd5e1" stroke="#475569" opacity="0.30"/><circle cx="625.0" cy="380.0" r="40.6" fill="#cbd5e1" stroke="#475569" opacity="0.30"/><circle cx="625.0" cy="380.0" r="40.6" fill="#cbd5e1" stroke="#475569" opacity="0.30"/><circle cx="625.0" cy="380.0" r="40.6" fill="#cbd5e1" stroke="#475569" opacity="0.30"/><circle cx="625.0" cy="380.0" r="40.6" fill="#cbd5e1" stroke="#475569" opacity="0.30"/><circle cx="625.0" cy="380.0" r="40.6" fill="#fde68a" stroke="#334155" opacity="0.80"/><circle cx="654.3" cy="380.0" r="14.6" fill="#f87171" stroke="#334155" opacity="0.80"/><circle cx="610.4" cy="405.3" r="14.6" fill="#f87171" stroke="#334155" opacity="0.80"/><circle cx="610.4" cy="354.7" r="14.6" fill="#f87171" stroke="#334155" opacity="0.80"/><circle cx="640.4" cy="380.0" r="10.2" fill="#cbd5e1" stroke="#334155" opacity="0.80"/><circle cx="609.6" cy="380.0" r="20.3" fill="#cbd5e1" stroke="#334155" opacity="0.80"/><circle cx="625.0" cy="395.4" r="20.3" fill="#cbd5e1" stroke="#334155" opacity="0.80"/><circle cx="625.0" cy="364.6" r="20.3" fill="#cbd5e1" stroke="#334155" opacity="0.80"/><circle cx="635.8" cy="390.8" r="10.2" fill="#cbd5e1" stroke="#334155" opacity="0.80"/><circle cx="678.6" cy="380.0" r="5.7" fill="#94a3b8" stroke="#334155" opacity="0.80"/><circle cx="662.9" cy="417.9" r="5.7" fill="#94a3b8" stroke="#334155" opacity="0.80"/><circle cx="625.0" cy="433.6" r="5.7" fill="#94a3b8" stroke="#334155" opacity="0.80"/><circle cx="587.1" cy="417.9" r="5.7" fill="#94a3b8" stroke="#334155" opacity="0.80"/><circle cx="571.4" cy="380.0" r="5.7" fill="#94a3b8" stroke="#334155" opacity="0.80"/><circle cx="587.1" cy="342.1" r="5.7" fill="#94a3b8" stroke="#334155" opacity="0.80"/><circle cx="625.0" cy="326.4" r="5.7" fill="#94a3b8" stroke="#334155" opacity="0.80"/><circle cx="662.9" cy="342.1" r="5.7" fill="#94a3b8" stroke="#334155" opacity="0.80"/>
  <text x="805" y="94" font-size="12" fill="#16a34a">PASS - slender body (4 &lt;= L/D &lt;= 19)</text><text x="805" y="116" font-size="12" fill="#16a34a">PASS - monotonic taper (widest toward base)</text><text x="805" y="138" font-size="12" fill="#16a34a">PASS - payload housed (fairing or capsule top)</text><text x="805" y="160" font-size="12" fill="#16a34a">PASS - payload fully enclosed (nothing protrudes the fairing)</text><text x="805" y="182" font-size="12" fill="#16a34a">PASS - engine at the base</text><text x="805" y="204" font-size="12" fill="#16a34a">PASS - upper-stage engine has interstage shroud</text><text x="805" y="226" font-size="12" fill="#16a34a">PASS - controlled ascent margin</text><text x="805" y="248" font-size="12" fill="#16a34a">PASS - radial protrusions within ascent envelope</text><text x="805" y="270" font-size="12" fill="#16a34a">PASS - landing gear tip-over stable</text>
  <text x="805" y="302" font-size="12" fill="#0f172a">L/D 6.9:1</text><text x="805" y="320" font-size="12" fill="#0f172a">length 17.23 m</text><text x="805" y="338" font-size="12" fill="#0f172a">body dia 2.5 m</text><text x="805" y="356" font-size="12" fill="#0f172a">core span 3.65 m</text><text x="805" y="374" font-size="12" fill="#0f172a">full span 3.65 m</text><text x="805" y="392" font-size="12" fill="#0f172a">static 0.22 cal</text><text x="805" y="410" font-size="12" fill="#0f172a">Cd 0.232</text><text x="805" y="428" font-size="12" fill="#0f172a">drag loss 332.0 m/s</text><text x="805" y="446" font-size="12" fill="#0f172a">max-Q 88.4 kPa</text>
</svg>