<svg xmlns="http://www.w3.org/2000/svg" width="1080" height="700" viewBox="0 0 1080 700" font-family="system-ui,Segoe UI,sans-serif">
  <rect width="1080" height="700" fill="#f8fafc"/>
  <text x="30" y="32" font-size="19" font-weight="700" fill="#0f172a">Three-view design chart - AI-Eve-Tug2</text>
  <text x="805" y="56" font-size="15" font-weight="700" fill="#16a34a">LOOKS LIKE A ROCKET</text>
  <text x="118" y="58" font-size="12" font-weight="700" fill="#334155">SIDE</text>
  <text x="355" y="58" font-size="12" font-weight="700" fill="#334155">FRONT</text>
  <text x="594" y="220" font-size="12" font-weight="700" fill="#334155">TOP</text>
  <line x1="150.0" y1="60" x2="150.0" y2="650" stroke="#e2e8f0" stroke-dasharray="4 4"/>
  <line x1="390.0" y1="60" x2="390.0" y2="650" stroke="#e2e8f0" stroke-dasharray="4 4"/>
  <circle cx="625.0" cy="380.0" r="33.9" fill="none" stroke="#94a3b8" stroke-dasharray="4 4"/>
  <rect x="138.7" y="76.0" width="22.6" height="5.1" rx="3" fill="#e2e8f0" stroke="#475569"/><rect x="138.7" y="81.1" width="22.6" height="19.0" rx="3" fill="#e2e8f0" stroke="#475569"/><rect x="138.7" y="100.1" width="22.6" height="3.5" rx="3" fill="#cbd5e1" stroke="#475569"/><rect x="138.7" y="103.6" width="22.6" height="1.8" rx="3" fill="#cbd5e1" stroke="#475569"/><rect x="138.7" y="105.4" width="22.6" height="6.8" rx="3" fill="#cbd5e1" stroke="#475569"/><rect x="138.7" y="112.1" width="22.6" height="27.1" rx="3" fill="#cbd5e1" stroke="#475569"/><rect x="138.7" y="139.3" width="22.6" height="10.8" rx="3" fill="#cbd5e1" stroke="#475569"/><rect x="138.7" y="150.1" width="22.6" height="10.8" rx="3" fill="#cbd5e1" stroke="#475569"/><rect x="138.7" y="161.0" width="22.6" height="10.8" rx="3" fill="#cbd5e1" stroke="#475569"/><rect x="138.7" y="171.8" width="22.6" height="7.2" rx="3" fill="#cbd5e1" stroke="#475569"/><rect x="138.7" y="179.0" width="22.6" height="7.2" rx="3" fill="#cbd5e1" stroke="#475569"/><rect x="138.7" y="186.2" width="22.6" height="7.2" rx="3" fill="#cbd5e1" stroke="#475569"/><path d="M 121.0 201.0 L 121.0 76.0 Q 121.0 52.3 150.0 38.3 Q 179.0 52.3 179.0 76.0 L 179.0 201.0 Z" fill="#fde68a" stroke="#d97706" stroke-width="1.4" opacity="0.55"/><rect x="138.7" y="201.0" width="22.6" height="1.8" rx="3" fill="#cbd5e1" stroke="#475569"/><rect x="127.4" y="202.8" width="45.2" height="67.3" rx="3" fill="#cbd5e1" stroke="#475569"/><rect x="116.1" y="270.1" width="67.8" height="16.3" rx="2" fill="#cbd5e1" stroke="#64748b" stroke-dasharray="3 2" opacity="0.45"/><polygon points="144.5,270.1 155.5,270.1 158.1,286.3 141.9,286.3" fill="#f87171" stroke="#991b1b"/><rect x="138.7" y="286.3" width="22.6" height="1.8" rx="3" fill="#cbd5e1" stroke="#475569"/><polygon points="127.4,288.1 172.6,288.1 183.9,328.8 116.1,328.8" fill="#dbeafe" stroke="#2563eb"/><rect x="116.1" y="328.8" width="67.8" height="34.8" rx="3" fill="#cbd5e1" stroke="#475569"/><rect x="116.1" y="363.7" width="67.8" height="34.8" rx="3" fill="#cbd5e1" stroke="#475569"/><rect x="116.1" y="398.5" width="67.8" height="34.8" rx="3" fill="#cbd5e1" stroke="#475569"/><rect x="116.1" y="433.4" width="67.8" height="34.8" rx="3" fill="#cbd5e1" stroke="#475569"/><rect x="116.1" y="468.2" width="67.8" height="34.8" rx="3" fill="#cbd5e1" stroke="#475569"/><rect x="116.1" y="503.0" width="67.8" height="34.8" rx="3" fill="#cbd5e1" stroke="#475569"/><rect x="116.1" y="537.9" width="67.8" height="34.8" rx="3" fill="#cbd5e1" stroke="#475569"/><polygon points="144.5,572.7 155.5,572.7 158.1,636.0 141.9,636.0" fill="#f87171" stroke="#991b1b"/><rect x="157.5" y="90.5" width="11.3" height="1.0" rx="3" fill="#cbd5e1" stroke="#475569"/><rect x="151.4" y="89.2" width="22.6" height="3.6" rx="3" fill="#cbd5e1" stroke="#475569"/><rect x="126.0" y="89.2" width="22.6" height="3.6" rx="3" fill="#cbd5e1" stroke="#475569"/><rect x="138.7" y="89.2" width="22.6" height="3.6" rx="3" fill="#cbd5e1" stroke="#475569"/><rect x="138.7" y="89.2" width="22.6" height="3.6" rx="3" fill="#cbd5e1" stroke="#475569"/><rect x="160.3" y="89.9" width="11.3" height="3.3" rx="3" fill="#cbd5e1" stroke="#475569"/><rect x="122.8" y="89.5" width="22.6" height="4.0" rx="3" fill="#cbd5e1" stroke="#475569"/><rect x="138.7" y="82.5" width="22.6" height="18.1" rx="3" fill="#cbd5e1" stroke="#475569"/><rect x="138.7" y="82.5" width="22.6" height="18.1" rx="3" fill="#cbd5e1" stroke="#475569"/><rect x="155.5" y="88.9" width="11.3" height="11.8" rx="3" fill="#cbd5e1" stroke="#475569"/><rect x="138.7" y="88.8" width="22.6" height="18.1" rx="3" fill="#cbd5e1" stroke="#475569"/><line x1="208.0" y1="280.9" x2="208.0" y2="313.0" stroke="#64748b" stroke-width="3" stroke-linecap="round"/><line x1="179.0" y1="280.9" x2="179.0" y2="313.0" stroke="#64748b" stroke-width="3" stroke-linecap="round"/><line x1="121.0" y1="280.9" x2="121.0" y2="313.0" stroke="#64748b" stroke-width="3" stroke-linecap="round"/><line x1="92.0" y1="280.9" x2="92.0" y2="313.0" stroke="#64748b" stroke-width="3" stroke-linecap="round"/><line x1="121.0" y1="280.9" x2="121.0" y2="313.0" stroke="#64748b" stroke-width="3" stroke-linecap="round"/><line x1="179.0" y1="280.9" x2="179.0" y2="313.0" stroke="#64748b" stroke-width="3" stroke-linecap="round"/><rect x="192.0" y="368.6" width="22.6" height="68.0" rx="3" fill="#cbd5e1" stroke="#475569"/><rect x="176.4" y="368.6" width="22.6" height="68.0" rx="3" fill="#cbd5e1" stroke="#475569"/><rect x="138.7" y="368.6" width="22.6" height="68.0" rx="3" fill="#cbd5e1" stroke="#475569"/><rect x="101.0" y="368.6" width="22.6" height="68.0" rx="3" fill="#cbd5e1" stroke="#475569"/><rect x="85.4" y="368.6" width="22.6" height="68.0" rx="3" fill="#cbd5e1" stroke="#475569"/><rect x="101.0" y="368.6" width="22.6" height="68.0" rx="3" fill="#cbd5e1" stroke="#475569"/><rect x="138.7" y="368.6" width="22.6" height="68.0" rx="3" fill="#cbd5e1" stroke="#475569"/><rect x="176.4" y="368.6" width="22.6" height="68.0" rx="3" fill="#cbd5e1" stroke="#475569"/><rect x="192.0" y="436.7" width="22.6" height="68.0" rx="3" fill="#cbd5e1" stroke="#475569"/><rect x="176.4" y="436.7" width="22.6" height="68.0" rx="3" fill="#cbd5e1" stroke="#475569"/><rect x="138.7" y="436.7" width="22.6" height="68.0" rx="3" fill="#cbd5e1" stroke="#475569"/><rect x="101.0" y="436.7" width="22.6" height="68.0" rx="3" fill="#cbd5e1" stroke="#475569"/><rect x="85.4" y="436.7" width="22.6" height="68.0" rx="3" fill="#cbd5e1" stroke="#475569"/><rect x="101.0" y="436.7" width="22.6" height="68.0" rx="3" fill="#cbd5e1" stroke="#475569"/><rect x="138.7" y="436.7" width="22.6" height="68.0" rx="3" fill="#cbd5e1" stroke="#475569"/><rect x="176.4" y="436.7" width="22.6" height="68.0" rx="3" fill="#cbd5e1" stroke="#475569"/><rect x="183.9" y="481.1" width="10.8" height="10.8" rx="3" fill="#cbd5e1" stroke="#475569"/><rect x="172.4" y="481.1" width="10.8" height="10.8" rx="3" fill="#cbd5e1" stroke="#475569"/><rect x="144.6" y="481.1" width="10.8" height="10.8" rx="3" fill="#cbd5e1" stroke="#475569"/><rect x="116.8" y="481.1" width="10.8" height="10.8" rx="3" fill="#cbd5e1" stroke="#475569"/><rect x="105.3" y="481.1" width="10.8" height="10.8" rx="3" fill="#cbd5e1" stroke="#475569"/><rect x="116.8" y="481.1" width="10.8" height="10.8" rx="3" fill="#cbd5e1" stroke="#475569"/><rect x="144.6" y="481.1" width="10.8" height="10.8" rx="3" fill="#cbd5e1" stroke="#475569"/><rect x="172.4" y="481.1" width="10.8" height="10.8" rx="3" fill="#cbd5e1" stroke="#475569"/><rect x="192.0" y="504.7" width="22.6" height="68.0" rx="3" fill="#cbd5e1" stroke="#475569"/><rect x="176.4" y="504.7" width="22.6" height="68.0" rx="3" fill="#cbd5e1" stroke="#475569"/><rect x="138.7" y="504.7" width="22.6" height="68.0" rx="3" fill="#cbd5e1" stroke="#475569"/><rect x="101.0" y="504.7" width="22.6" height="68.0" rx="3" fill="#cbd5e1" stroke="#475569"/><rect x="85.4" y="504.7" width="22.6" height="68.0" rx="3" fill="#cbd5e1" stroke="#475569"/><rect x="101.0" y="504.7" width="22.6" height="68.0" rx="3" fill="#cbd5e1" stroke="#475569"/><rect x="138.7" y="504.7" width="22.6" height="68.0" rx="3" fill="#cbd5e1" stroke="#475569"/><rect x="176.4" y="504.7" width="22.6" height="68.0" rx="3" fill="#cbd5e1" stroke="#475569"/><polygon points="191.1,555.0 183.1,591.0 199.1,591.0" fill="#94a3b8" stroke="#475569" opacity="0.88"/><polygon points="179.1,555.0 171.1,591.0 187.1,591.0" fill="#94a3b8" stroke="#475569" opacity="0.88"/><polygon points="150.0,555.0 142.0,591.0 158.0,591.0" fill="#94a3b8" stroke="#475569" opacity="0.88"/><polygon points="120.9,555.0 112.9,591.0 128.9,591.0" fill="#94a3b8" stroke="#475569" opacity="0.88"/><polygon points="108.9,555.0 100.9,591.0 116.9,591.0" fill="#94a3b8" stroke="#475569" opacity="0.88"/><polygon points="120.9,555.0 112.9,591.0 128.9,591.0" fill="#94a3b8" stroke="#475569" opacity="0.88"/><polygon points="150.0,555.0 142.0,591.0 158.0,591.0" fill="#94a3b8" stroke="#475569" opacity="0.88"/><polygon points="179.1,555.0 171.1,591.0 187.1,591.0" fill="#94a3b8" stroke="#475569" opacity="0.88"/><polygon points="160.7,572.7 171.8,572.7 174.4,636.0 158.1,636.0" fill="#f87171" stroke="#991b1b"/><polygon points="197.8,572.7 208.9,572.7 211.5,636.0 195.2,636.0" fill="#f87171" stroke="#991b1b"/><polygon points="182.2,572.7 193.2,572.7 195.9,636.0 179.6,636.0" fill="#f87171" stroke="#991b1b"/><polygon points="144.5,572.7 155.5,572.7 158.1,636.0 141.9,636.0" fill="#f87171" stroke="#991b1b"/><polygon points="106.8,572.7 117.8,572.7 120.4,636.0 104.1,636.0" fill="#f87171" stroke="#991b1b"/><polygon points="91.1,572.7 102.2,572.7 104.8,636.0 88.5,636.0" fill="#f87171" stroke="#991b1b"/><polygon points="106.8,572.7 117.8,572.7 120.4,636.0 104.1,636.0" fill="#f87171" stroke="#991b1b"/><polygon points="144.5,572.7 155.5,572.7 158.1,636.0 141.9,636.0" fill="#f87171" stroke="#991b1b"/><polygon points="182.2,572.7 193.2,572.7 195.9,636.0 179.6,636.0" fill="#f87171" stroke="#991b1b"/>
  <rect x="378.7" y="76.0" width="22.6" height="5.1" rx="3" fill="#e2e8f0" stroke="#475569"/><rect x="378.7" y="81.1" width="22.6" height="19.0" rx="3" fill="#e2e8f0" stroke="#475569"/><rect x="378.7" y="100.1" width="22.6" height="3.5" rx="3" fill="#cbd5e1" stroke="#475569"/><rect x="378.7" y="103.6" width="22.6" height="1.8" rx="3" fill="#cbd5e1" stroke="#475569"/><rect x="378.7" y="105.4" width="22.6" height="6.8" rx="3" fill="#cbd5e1" stroke="#475569"/><rect x="378.7" y="112.1" width="22.6" height="27.1" rx="3" fill="#cbd5e1" stroke="#475569"/><rect x="378.7" y="139.3" width="22.6" height="10.8" rx="3" fill="#cbd5e1" stroke="#475569"/><rect x="378.7" y="150.1" width="22.6" height="10.8" rx="3" fill="#cbd5e1" stroke="#475569"/><rect x="378.7" y="161.0" width="22.6" height="10.8" rx="3" fill="#cbd5e1" stroke="#475569"/><rect x="378.7" y="171.8" width="22.6" height="7.2" rx="3" fill="#cbd5e1" stroke="#475569"/><rect x="378.7" y="179.0" width="22.6" height="7.2" rx="3" fill="#cbd5e1" stroke="#475569"/><rect x="378.7" y="186.2" width="22.6" height="7.2" rx="3" fill="#cbd5e1" stroke="#475569"/><path d="M 361.0 201.0 L 361.0 76.0 Q 361.0 52.3 390.0 38.3 Q 419.0 52.3 419.0 76.0 L 419.0 201.0 Z" fill="#fde68a" stroke="#d97706" stroke-width="1.4" opacity="0.55"/><rect x="378.7" y="201.0" width="22.6" height="1.8" rx="3" fill="#cbd5e1" stroke="#475569"/><rect x="367.4" y="202.8" width="45.2" height="67.3" rx="3" fill="#cbd5e1" stroke="#475569"/><rect x="356.1" y="270.1" width="67.8" height="16.3" rx="2" fill="#cbd5e1" stroke="#64748b" stroke-dasharray="3 2" opacity="0.45"/><polygon points="384.5,270.1 395.5,270.1 398.1,286.3 381.9,286.3" fill="#f87171" stroke="#991b1b"/><rect x="378.7" y="286.3" width="22.6" height="1.8" rx="3" fill="#cbd5e1" stroke="#475569"/><polygon points="367.4,288.1 412.6,288.1 423.9,328.8 356.1,328.8" fill="#dbeafe" stroke="#2563eb"/><rect x="356.1" y="328.8" width="67.8" height="34.8" rx="3" fill="#cbd5e1" stroke="#475569"/><rect x="356.1" y="363.7" width="67.8" height="34.8" rx="3" fill="#cbd5e1" stroke="#475569"/><rect x="356.1" y="398.5" width="67.8" height="34.8" rx="3" fill="#cbd5e1" stroke="#475569"/><rect x="356.1" y="433.4" width="67.8" height="34.8" rx="3" fill="#cbd5e1" stroke="#475569"/><rect x="356.1" y="468.2" width="67.8" height="34.8" rx="3" fill="#cbd5e1" stroke="#475569"/><rect x="356.1" y="503.0" width="67.8" height="34.8" rx="3" fill="#cbd5e1" stroke="#475569"/><rect x="356.1" y="537.9" width="67.8" height="34.8" rx="3" fill="#cbd5e1" stroke="#475569"/><polygon points="384.5,572.7 395.5,572.7 398.1,636.0 381.9,636.0" fill="#f87171" stroke="#991b1b"/><rect x="384.3" y="90.5" width="11.3" height="1.0" rx="3" fill="#cbd5e1" stroke="#475569"/><rect x="378.7" y="89.2" width="22.6" height="3.6" rx="3" fill="#cbd5e1" stroke="#475569"/><rect x="378.7" y="89.2" width="22.6" height="3.6" rx="3" fill="#cbd5e1" stroke="#475569"/><rect x="391.4" y="89.2" width="22.6" height="3.6" rx="3" fill="#cbd5e1" stroke="#475569"/><rect x="366.0" y="89.2" width="22.6" height="3.6" rx="3" fill="#cbd5e1" stroke="#475569"/><rect x="384.3" y="89.9" width="11.3" height="3.3" rx="3" fill="#cbd5e1" stroke="#475569"/><rect x="378.7" y="89.5" width="22.6" height="4.0" rx="3" fill="#cbd5e1" stroke="#475569"/><rect x="394.6" y="82.5" width="22.6" height="18.1" rx="3" fill="#cbd5e1" stroke="#475569"/><rect x="362.8" y="82.5" width="22.6" height="18.1" rx="3" fill="#cbd5e1" stroke="#475569"/><rect x="395.5" y="88.9" width="11.3" height="11.8" rx="3" fill="#cbd5e1" stroke="#475569"/><rect x="391.4" y="88.8" width="22.6" height="18.1" rx="3" fill="#cbd5e1" stroke="#475569"/><line x1="390.0" y1="280.9" x2="390.0" y2="313.0" stroke="#64748b" stroke-width="3" stroke-linecap="round"/><line x1="440.2" y1="280.9" x2="440.2" y2="313.0" stroke="#64748b" stroke-width="3" stroke-linecap="round"/><line x1="440.2" y1="280.9" x2="440.2" y2="313.0" stroke="#64748b" stroke-width="3" stroke-linecap="round"/><line x1="390.0" y1="280.9" x2="390.0" y2="313.0" stroke="#64748b" stroke-width="3" stroke-linecap="round"/><line x1="339.8" y1="280.9" x2="339.8" y2="313.0" stroke="#64748b" stroke-width="3" stroke-linecap="round"/><line x1="339.8" y1="280.9" x2="339.8" y2="313.0" stroke="#64748b" stroke-width="3" stroke-linecap="round"/><rect x="378.7" y="368.6" width="22.6" height="68.0" rx="3" fill="#cbd5e1" stroke="#475569"/><rect x="416.4" y="368.6" width="22.6" height="68.0" rx="3" fill="#cbd5e1" stroke="#475569"/><rect x="432.0" y="368.6" width="22.6" height="68.0" rx="3" fill="#cbd5e1" stroke="#475569"/><rect x="416.4" y="368.6" width="22.6" height="68.0" rx="3" fill="#cbd5e1" stroke="#475569"/><rect x="378.7" y="368.6" width="22.6" height="68.0" rx="3" fill="#cbd5e1" stroke="#475569"/><rect x="341.0" y="368.6" width="22.6" height="68.0" rx="3" fill="#cbd5e1" stroke="#475569"/><rect x="325.4" y="368.6" width="22.6" height="68.0" rx="3" fill="#cbd5e1" stroke="#475569"/><rect x="341.0" y="368.6" width="22.6" height="68.0" rx="3" fill="#cbd5e1" stroke="#475569"/><rect x="378.7" y="436.7" width="22.6" height="68.0" rx="3" fill="#cbd5e1" stroke="#475569"/><rect x="416.4" y="436.7" width="22.6" height="68.0" rx="3" fill="#cbd5e1" stroke="#475569"/><rect x="432.0" y="436.7" width="22.6" height="68.0" rx="3" fill="#cbd5e1" stroke="#475569"/><rect x="416.4" y="436.7" width="22.6" height="68.0" rx="3" fill="#cbd5e1" stroke="#475569"/><rect x="378.7" y="436.7" width="22.6" height="68.0" rx="3" fill="#cbd5e1" stroke="#475569"/><rect x="341.0" y="436.7" width="22.6" height="68.0" rx="3" fill="#cbd5e1" stroke="#475569"/><rect x="325.4" y="436.7" width="22.6" height="68.0" rx="3" fill="#cbd5e1" stroke="#475569"/><rect x="341.0" y="436.7" width="22.6" height="68.0" rx="3" fill="#cbd5e1" stroke="#475569"/><rect x="384.6" y="481.1" width="10.8" height="10.8" rx="3" fill="#cbd5e1" stroke="#475569"/><rect x="412.4" y="481.1" width="10.8" height="10.8" rx="3" fill="#cbd5e1" stroke="#475569"/><rect x="423.9" y="481.1" width="10.8" height="10.8" rx="3" fill="#cbd5e1" stroke="#475569"/><rect x="412.4" y="481.1" width="10.8" height="10.8" rx="3" fill="#cbd5e1" stroke="#475569"/><rect x="384.6" y="481.1" width="10.8" height="10.8" rx="3" fill="#cbd5e1" stroke="#475569"/><rect x="356.8" y="481.1" width="10.8" height="10.8" rx="3" fill="#cbd5e1" stroke="#475569"/><rect x="345.3" y="481.1" width="10.8" height="10.8" rx="3" fill="#cbd5e1" stroke="#475569"/><rect x="356.8" y="481.1" width="10.8" height="10.8" rx="3" fill="#cbd5e1" stroke="#475569"/><rect x="378.7" y="504.7" width="22.6" height="68.0" rx="3" fill="#cbd5e1" stroke="#475569"/><rect x="416.4" y="504.7" width="22.6" height="68.0" rx="3" fill="#cbd5e1" stroke="#475569"/><rect x="432.0" y="504.7" width="22.6" height="68.0" rx="3" fill="#cbd5e1" stroke="#475569"/><rect x="416.4" y="504.7" width="22.6" height="68.0" rx="3" fill="#cbd5e1" stroke="#475569"/><rect x="378.7" y="504.7" width="22.6" height="68.0" rx="3" fill="#cbd5e1" stroke="#475569"/><rect x="341.0" y="504.7" width="22.6" height="68.0" rx="3" fill="#cbd5e1" stroke="#475569"/><rect x="325.4" y="504.7" width="22.6" height="68.0" rx="3" fill="#cbd5e1" stroke="#475569"/><rect x="341.0" y="504.7" width="22.6" height="68.0" rx="3" fill="#cbd5e1" stroke="#475569"/><polygon points="390.0,555.0 382.0,591.0 398.0,591.0" fill="#94a3b8" stroke="#475569" opacity="0.88"/><polygon points="419.1,555.0 411.1,591.0 427.1,591.0" fill="#94a3b8" stroke="#475569" opacity="0.88"/><polygon points="431.1,555.0 423.1,591.0 439.1,591.0" fill="#94a3b8" stroke="#475569" opacity="0.88"/><polygon points="419.1,555.0 411.1,591.0 427.1,591.0" fill="#94a3b8" stroke="#475569" opacity="0.88"/><polygon points="390.0,555.0 382.0,591.0 398.0,591.0" fill="#94a3b8" stroke="#475569" opacity="0.88"/><polygon points="360.9,555.0 352.9,591.0 368.9,591.0" fill="#94a3b8" stroke="#475569" opacity="0.88"/><polygon points="348.9,555.0 340.9,591.0 356.9,591.0" fill="#94a3b8" stroke="#475569" opacity="0.88"/><polygon points="360.9,555.0 352.9,591.0 368.9,591.0" fill="#94a3b8" stroke="#475569" opacity="0.88"/><polygon points="384.5,572.7 395.5,572.7 398.1,636.0 381.9,636.0" fill="#f87171" stroke="#991b1b"/><polygon points="384.5,572.7 395.5,572.7 398.1,636.0 381.9,636.0" fill="#f87171" stroke="#991b1b"/><polygon points="422.2,572.7 433.2,572.7 435.9,636.0 419.6,636.0" fill="#f87171" stroke="#991b1b"/><polygon points="437.8,572.7 448.9,572.7 451.5,636.0 435.2,636.0" fill="#f87171" stroke="#991b1b"/><polygon points="422.2,572.7 433.2,572.7 435.9,636.0 419.6,636.0" fill="#f87171" stroke="#991b1b"/><polygon points="384.5,572.7 395.5,572.7 398.1,636.0 381.9,636.0" fill="#f87171" stroke="#991b1b"/><polygon points="346.8,572.7 357.8,572.7 360.4,636.0 344.1,636.0" fill="#f87171" stroke="#991b1b"/><polygon points="331.1,572.7 342.2,572.7 344.8,636.0 328.5,636.0" fill="#f87171" stroke="#991b1b"/><polygon points="346.8,572.7 357.8,572.7 360.4,636.0 344.1,636.0" fill="#f87171" stroke="#991b1b"/>
  <circle cx="625.0" cy="380.0" r="33.9" fill="#cbd5e1" stroke="#475569" opacity="0.30"/><circle cx="625.0" cy="380.0" r="33.9" fill="#cbd5e1" stroke="#475569" opacity="0.30"/><circle cx="625.0" cy="380.0" r="33.9" fill="#cbd5e1" stroke="#475569" opacity="0.30"/><circle cx="625.0" cy="380.0" r="33.9" fill="#cbd5e1" stroke="#475569" opacity="0.30"/><circle cx="625.0" cy="380.0" r="33.9" fill="#cbd5e1" stroke="#475569" opacity="0.30"/><circle cx="625.0" cy="380.0" r="33.9" fill="#cbd5e1" stroke="#475569" opacity="0.30"/><circle cx="625.0" cy="380.0" r="33.9" fill="#cbd5e1" stroke="#475569" opacity="0.30"/><circle cx="625.0" cy="380.0" r="22.6" fill="#cbd5e1" stroke="#475569" opacity="0.30"/><circle cx="638.2" cy="380.0" r="5.7" fill="#cbd5e1" stroke="#334155" opacity="0.80"/><circle cx="625.0" cy="380.0" r="33.9" fill="#fde68a" stroke="#334155" opacity="0.80"/><circle cx="641.3" cy="380.0" r="8.1" fill="#f87171" stroke="#334155" opacity="0.80"/><circle cx="678.3" cy="380.0" r="8.1" fill="#f87171" stroke="#334155" opacity="0.80"/><circle cx="678.3" cy="380.0" r="11.3" fill="#cbd5e1" stroke="#334155" opacity="0.80"/><circle cx="678.3" cy="380.0" r="11.3" fill="#cbd5e1" stroke="#334155" opacity="0.80"/><circle cx="678.3" cy="380.0" r="11.3" fill="#cbd5e1" stroke="#334155" opacity="0.80"/><circle cx="664.3" cy="380.0" r="5.4" fill="#cbd5e1" stroke="#334155" opacity="0.80"/><circle cx="662.7" cy="417.7" r="8.1" fill="#f87171" stroke="#334155" opacity="0.80"/><circle cx="662.7" cy="417.7" r="11.3" fill="#cbd5e1" stroke="#334155" opacity="0.80"/><circle cx="662.7" cy="417.7" r="11.3" fill="#cbd5e1" stroke="#334155" opacity="0.80"/><circle cx="662.7" cy="417.7" r="11.3" fill="#cbd5e1" stroke="#334155" opacity="0.80"/><circle cx="652.8" cy="407.8" r="5.4" fill="#cbd5e1" stroke="#334155" opacity="0.80"/><circle cx="625.0" cy="433.3" r="8.1" fill="#f87171" stroke="#334155" opacity="0.80"/><circle cx="625.0" cy="433.3" r="11.3" fill="#cbd5e1" stroke="#334155" opacity="0.80"/><circle cx="625.0" cy="433.3" r="11.3" fill="#cbd5e1" stroke="#334155" opacity="0.80"/><circle cx="625.0" cy="433.3" r="11.3" fill="#cbd5e1" stroke="#334155" opacity="0.80"/><circle cx="625.0" cy="419.3" r="5.4" fill="#cbd5e1" stroke="#334155" opacity="0.80"/><circle cx="587.3" cy="417.7" r="8.1" fill="#f87171" stroke="#334155" opacity="0.80"/><circle cx="587.3" cy="417.7" r="11.3" fill="#cbd5e1" stroke="#334155" opacity="0.80"/><circle cx="587.3" cy="417.7" r="11.3" fill="#cbd5e1" stroke="#334155" opacity="0.80"/><circle cx="587.3" cy="417.7" r="11.3" fill="#cbd5e1" stroke="#334155" opacity="0.80"/><circle cx="597.2" cy="407.8" r="5.4" fill="#cbd5e1" stroke="#334155" opacity="0.80"/><circle cx="571.7" cy="380.0" r="8.1" fill="#f87171" stroke="#334155" opacity="0.80"/><circle cx="571.7" cy="380.0" r="11.3" fill="#cbd5e1" stroke="#334155" opacity="0.80"/><circle cx="571.7" cy="380.0" r="11.3" fill="#cbd5e1" stroke="#334155" opacity="0.80"/><circle cx="571.7" cy="380.0" r="11.3" fill="#cbd5e1" stroke="#334155" opacity="0.80"/><circle cx="585.7" cy="380.0" r="5.4" fill="#cbd5e1" stroke="#334155" opacity="0.80"/><circle cx="587.3" cy="342.3" r="8.1" fill="#f87171" stroke="#334155" opacity="0.80"/><circle cx="587.3" cy="342.3" r="11.3" fill="#cbd5e1" stroke="#334155" opacity="0.80"/><circle cx="587.3" cy="342.3" r="11.3" fill="#cbd5e1" stroke="#334155" opacity="0.80"/><circle cx="587.3" cy="342.3" r="11.3" fill="#cbd5e1" stroke="#334155" opacity="0.80"/><circle cx="597.2" cy="352.2" r="5.4" fill="#cbd5e1" stroke="#334155" opacity="0.80"/><circle cx="625.0" cy="326.7" r="8.1" fill="#f87171" stroke="#334155" opacity="0.80"/><circle cx="625.0" cy="326.7" r="11.3" fill="#cbd5e1" stroke="#334155" opacity="0.80"/><circle cx="625.0" cy="326.7" r="11.3" fill="#cbd5e1" stroke="#334155" opacity="0.80"/><circle cx="625.0" cy="326.7" r="11.3" fill="#cbd5e1" stroke="#334155" opacity="0.80"/><circle cx="625.0" cy="340.7" r="5.4" fill="#cbd5e1" stroke="#334155" opacity="0.80"/><circle cx="662.7" cy="342.3" r="8.1" fill="#f87171" stroke="#334155" opacity="0.80"/><circle cx="662.7" cy="342.3" r="11.3" fill="#cbd5e1" stroke="#334155" opacity="0.80"/><circle cx="662.7" cy="342.3" r="11.3" fill="#cbd5e1" stroke="#334155" opacity="0.80"/><circle cx="662.7" cy="342.3" r="11.3" fill="#cbd5e1" stroke="#334155" opacity="0.80"/><circle cx="652.8" cy="352.2" r="5.4" fill="#cbd5e1" stroke="#334155" opacity="0.80"/><circle cx="640.9" cy="380.0" r="5.7" fill="#cbd5e1" stroke="#334155" opacity="0.80"/><circle cx="609.1" cy="380.0" r="11.3" fill="#cbd5e1" stroke="#334155" opacity="0.80"/><circle cx="625.0" cy="395.9" r="11.3" fill="#cbd5e1" stroke="#334155" opacity="0.80"/><circle cx="625.0" cy="364.1" r="11.3" fill="#cbd5e1" stroke="#334155" opacity="0.80"/><circle cx="636.1" cy="391.1" r="5.7" fill="#cbd5e1" stroke="#334155" opacity="0.80"/><circle cx="637.7" cy="380.0" r="11.3" fill="#cbd5e1" stroke="#334155" opacity="0.80"/><circle cx="612.3" cy="380.0" r="11.3" fill="#cbd5e1" stroke="#334155" opacity="0.80"/><circle cx="625.0" cy="392.7" r="11.3" fill="#cbd5e1" stroke="#334155" opacity="0.80"/><circle cx="625.0" cy="367.3" r="11.3" fill="#cbd5e1" stroke="#334155" opacity="0.80"/><circle cx="625.0" cy="392.7" r="11.3" fill="#cbd5e1" stroke="#334155" opacity="0.80"/><circle cx="666.1" cy="380.0" r="3.2" fill="#94a3b8" stroke="#334155" opacity="0.80"/><circle cx="654.1" cy="409.1" r="3.2" fill="#94a3b8" stroke="#334155" opacity="0.80"/><circle cx="625.0" cy="421.1" r="3.2" fill="#94a3b8" stroke="#334155" opacity="0.80"/><circle cx="595.9" cy="409.1" r="3.2" fill="#94a3b8" stroke="#334155" opacity="0.80"/><circle cx="583.9" cy="380.0" r="3.2" fill="#94a3b8" stroke="#334155" opacity="0.80"/><circle cx="595.9" cy="350.9" r="3.2" fill="#94a3b8" stroke="#334155" opacity="0.80"/><circle cx="625.0" cy="338.9" r="3.2" fill="#94a3b8" stroke="#334155" opacity="0.80"/><circle cx="654.1" cy="350.9" r="3.2" fill="#94a3b8" stroke="#334155" opacity="0.80"/><circle cx="683.0" cy="380.0" r="3.2" fill="#64748b" stroke="#334155" opacity="0.80"/><circle cx="654.0" cy="430.2" r="3.2" fill="#64748b" stroke="#334155" opacity="0.80"/><circle cx="596.0" cy="430.2" r="3.2" fill="#64748b" stroke="#334155" opacity="0.80"/><circle cx="567.0" cy="380.0" r="3.2" fill="#64748b" stroke="#334155" opacity="0.80"/><circle cx="596.0" cy="329.8" r="3.2" fill="#64748b" stroke="#334155" opacity="0.80"/><circle cx="654.0" cy="329.8" r="3.2" fill="#64748b" stroke="#334155" opacity="0.80"/>
  <text x="805" y="94" font-size="12" fill="#16a34a">PASS - slender body (4 &lt;= L/D &lt;= 19)</text><text x="805" y="116" font-size="12" fill="#16a34a">PASS - monotonic taper (widest toward base)</text><text x="805" y="138" font-size="12" fill="#16a34a">PASS - payload housed (fairing or capsule top)</text><text x="805" y="160" font-size="12" fill="#16a34a">PASS - payload fully enclosed (nothing protrudes the fairing)</text><text x="805" y="182" font-size="12" fill="#16a34a">PASS - engine at the base</text><text x="805" y="204" font-size="12" fill="#16a34a">PASS - upper-stage engine has interstage shroud</text><text x="805" y="226" font-size="12" fill="#16a34a">PASS - controlled ascent margin</text><text x="805" y="248" font-size="12" fill="#16a34a">PASS - radial protrusions within ascent envelope</text><text x="805" y="270" font-size="12" fill="#16a34a">PASS - landing gear tip-over stable</text><text x="805" y="292" font-size="12" fill="#16a34a">PASS - symmetric strap-on boosters</text><text x="805" y="314" font-size="12" fill="#16a34a">PASS - boosters no taller than host stage</text>
  <text x="805" y="346" font-size="12" fill="#0f172a">L/D 8.3:1</text><text x="805" y="364" font-size="12" fill="#0f172a">length 30.97 m</text><text x="805" y="382" font-size="12" fill="#0f172a">body dia 3.75 m</text><text x="805" y="400" font-size="12" fill="#0f172a">core span 4.9 m</text><text x="805" y="418" font-size="12" fill="#0f172a">8x radial boosters (span 7.15 m)</text><text x="805" y="436" font-size="12" fill="#0f172a">full span 7.15 m</text><text x="805" y="454" font-size="12" fill="#0f172a">static 0.05 cal</text><text x="805" y="472" font-size="12" fill="#0f172a">Cd 0.232</text><text x="805" y="490" font-size="12" fill="#0f172a">drag loss 110.0 m/s</text><text x="805" y="508" font-size="12" fill="#0f172a">max-Q 88.4 kPa</text>
</svg>