<svg xmlns="http://www.w3.org/2000/svg" width="1080" height="700" viewBox="0 0 1080 700" font-family="system-ui,Segoe UI,sans-serif">
  <rect width="1080" height="700" fill="#f8fafc"/>
  <text x="30" y="32" font-size="19" font-weight="700" fill="#0f172a">Three-view design chart - AI-Eve-Tug2</text>
  <text x="805" y="56" font-size="15" font-weight="700" fill="#16a34a">LOOKS LIKE A ROCKET</text>
  <text x="118" y="58" font-size="12" font-weight="700" fill="#334155">SIDE</text>
  <text x="355" y="58" font-size="12" font-weight="700" fill="#334155">FRONT</text>
  <text x="594" y="220" font-size="12" font-weight="700" fill="#334155">TOP</text>
  <line x1="150.0" y1="60" x2="150.0" y2="650" stroke="#e2e8f0" stroke-dasharray="4 4"/>
  <line x1="390.0" y1="60" x2="390.0" y2="650" stroke="#e2e8f0" stroke-dasharray="4 4"/>
  <circle cx="625.0" cy="380.0" r="34.4" fill="none" stroke="#94a3b8" stroke-dasharray="4 4"/>
  <rect x="138.5" y="76.0" width="22.9" height="5.2" rx="3" fill="#e2e8f0" stroke="#475569"/><rect x="138.5" y="81.2" width="22.9" height="19.2" rx="3" fill="#e2e8f0" stroke="#475569"/><rect x="138.5" y="100.4" width="22.9" height="3.5" rx="3" fill="#cbd5e1" stroke="#475569"/><rect x="138.5" y="104.0" width="22.9" height="1.8" rx="3" fill="#cbd5e1" stroke="#475569"/><rect x="138.5" y="105.8" width="22.9" height="6.9" rx="3" fill="#cbd5e1" stroke="#475569"/><rect x="138.5" y="112.6" width="22.9" height="27.5" rx="3" fill="#cbd5e1" stroke="#475569"/><rect x="138.5" y="140.1" width="22.9" height="11.0" rx="3" fill="#cbd5e1" stroke="#475569"/><rect x="138.5" y="151.1" width="22.9" height="11.0" rx="3" fill="#cbd5e1" stroke="#475569"/><rect x="138.5" y="162.1" width="22.9" height="11.0" rx="3" fill="#cbd5e1" stroke="#475569"/><rect x="138.5" y="173.1" width="22.9" height="7.3" rx="3" fill="#cbd5e1" stroke="#475569"/><rect x="138.5" y="180.4" width="22.9" height="7.3" rx="3" fill="#cbd5e1" stroke="#475569"/><rect x="138.5" y="187.7" width="22.9" height="7.3" rx="3" fill="#cbd5e1" stroke="#475569"/><rect x="138.5" y="195.0" width="22.9" height="1.8" rx="3" fill="#cbd5e1" stroke="#475569"/><rect x="127.1" y="196.8" width="45.8" height="68.2" rx="3" fill="#cbd5e1" stroke="#475569"/><rect x="115.6" y="265.0" width="68.7" height="16.5" rx="2" fill="#cbd5e1" stroke="#64748b" stroke-dasharray="3 2" opacity="0.45"/><polygon points="144.4,265.0 155.6,265.0 158.2,281.5 141.8,281.5" fill="#f87171" stroke="#991b1b"/><rect x="138.5" y="281.5" width="22.9" height="1.8" rx="3" fill="#cbd5e1" stroke="#475569"/><polygon points="127.1,283.4 172.9,283.4 184.4,324.6 115.6,324.6" fill="#dbeafe" stroke="#2563eb"/><rect x="115.6" y="324.6" width="68.7" height="35.3" rx="3" fill="#cbd5e1" stroke="#475569"/><rect x="115.6" y="359.9" width="68.7" height="35.3" rx="3" fill="#cbd5e1" stroke="#475569"/><rect x="115.6" y="395.2" width="68.7" height="35.3" rx="3" fill="#cbd5e1" stroke="#475569"/><rect x="115.6" y="430.6" width="68.7" height="35.3" rx="3" fill="#cbd5e1" stroke="#475569"/><rect x="115.6" y="465.9" width="68.7" height="35.3" rx="3" fill="#cbd5e1" stroke="#475569"/><rect x="115.6" y="501.2" width="68.7" height="35.3" rx="3" fill="#cbd5e1" stroke="#475569"/><rect x="115.6" y="536.5" width="68.7" height="35.3" rx="3" fill="#cbd5e1" stroke="#475569"/><polygon points="144.4,571.8 155.6,571.8 158.2,636.0 141.8,636.0" fill="#f87171" stroke="#991b1b"/><rect x="157.6" y="90.7" width="11.5" height="1.0" rx="3" fill="#cbd5e1" stroke="#475569"/><rect x="151.5" y="89.3" width="22.9" height="3.7" rx="3" fill="#cbd5e1" stroke="#475569"/><rect x="125.6" y="89.3" width="22.9" height="3.7" rx="3" fill="#cbd5e1" stroke="#475569"/><rect x="138.5" y="89.3" width="22.9" height="3.7" rx="3" fill="#cbd5e1" stroke="#475569"/><rect x="138.5" y="89.3" width="22.9" height="3.7" rx="3" fill="#cbd5e1" stroke="#475569"/><rect x="160.4" y="90.1" width="11.5" height="3.3" rx="3" fill="#cbd5e1" stroke="#475569"/><rect x="122.4" y="89.7" width="22.9" height="4.1" rx="3" fill="#cbd5e1" stroke="#475569"/><rect x="138.5" y="82.6" width="22.9" height="18.3" rx="3" fill="#cbd5e1" stroke="#475569"/><rect x="138.5" y="82.6" width="22.9" height="18.3" rx="3" fill="#cbd5e1" stroke="#475569"/><rect x="155.6" y="89.0" width="11.5" height="12.0" rx="3" fill="#cbd5e1" stroke="#475569"/><rect x="138.5" y="89.0" width="22.9" height="18.3" rx="3" fill="#cbd5e1" stroke="#475569"/><line x1="207.7" y1="276.0" x2="207.7" y2="308.4" stroke="#64748b" stroke-width="3" stroke-linecap="round"/><line x1="178.9" y1="276.0" x2="178.9" y2="308.4" stroke="#64748b" stroke-width="3" stroke-linecap="round"/><line x1="121.1" y1="276.0" x2="121.1" y2="308.4" stroke="#64748b" stroke-width="3" stroke-linecap="round"/><line x1="92.3" y1="276.0" x2="92.3" y2="308.4" stroke="#64748b" stroke-width="3" stroke-linecap="round"/><line x1="121.1" y1="276.0" x2="121.1" y2="308.4" stroke="#64748b" stroke-width="3" stroke-linecap="round"/><line x1="178.9" y1="276.0" x2="178.9" y2="308.4" stroke="#64748b" stroke-width="3" stroke-linecap="round"/><rect x="192.6" y="365.0" width="22.9" height="69.0" rx="3" fill="#cbd5e1" stroke="#475569"/><rect x="176.8" y="365.0" width="22.9" height="69.0" rx="3" fill="#cbd5e1" stroke="#475569"/><rect x="138.5" y="365.0" width="22.9" height="69.0" rx="3" fill="#cbd5e1" stroke="#475569"/><rect x="100.3" y="365.0" width="22.9" height="69.0" rx="3" fill="#cbd5e1" stroke="#475569"/><rect x="84.5" y="365.0" width="22.9" height="69.0" rx="3" fill="#cbd5e1" stroke="#475569"/><rect x="100.3" y="365.0" width="22.9" height="69.0" rx="3" fill="#cbd5e1" stroke="#475569"/><rect x="138.5" y="365.0" width="22.9" height="69.0" rx="3" fill="#cbd5e1" stroke="#475569"/><rect x="176.8" y="365.0" width="22.9" height="69.0" rx="3" fill="#cbd5e1" stroke="#475569"/><rect x="192.6" y="433.9" width="22.9" height="69.0" rx="3" fill="#cbd5e1" stroke="#475569"/><rect x="176.8" y="433.9" width="22.9" height="69.0" rx="3" fill="#cbd5e1" stroke="#475569"/><rect x="138.5" y="433.9" width="22.9" height="69.0" rx="3" fill="#cbd5e1" stroke="#475569"/><rect x="100.3" y="433.9" width="22.9" height="69.0" rx="3" fill="#cbd5e1" stroke="#475569"/><rect x="84.5" y="433.9" width="22.9" height="69.0" rx="3" fill="#cbd5e1" stroke="#475569"/><rect x="100.3" y="433.9" width="22.9" height="69.0" rx="3" fill="#cbd5e1" stroke="#475569"/><rect x="138.5" y="433.9" width="22.9" height="69.0" rx="3" fill="#cbd5e1" stroke="#475569"/><rect x="176.8" y="433.9" width="22.9" height="69.0" rx="3" fill="#cbd5e1" stroke="#475569"/><rect x="184.4" y="478.9" width="11.0" height="11.0" rx="3" fill="#cbd5e1" stroke="#475569"/><rect x="172.7" y="478.9" width="11.0" height="11.0" rx="3" fill="#cbd5e1" stroke="#475569"/><rect x="144.5" y="478.9" width="11.0" height="11.0" rx="3" fill="#cbd5e1" stroke="#475569"/><rect x="116.3" y="478.9" width="11.0" height="11.0" rx="3" fill="#cbd5e1" stroke="#475569"/><rect x="104.6" y="478.9" width="11.0" height="11.0" rx="3" fill="#cbd5e1" stroke="#475569"/><rect x="116.3" y="478.9" width="11.0" height="11.0" rx="3" fill="#cbd5e1" stroke="#475569"/><rect x="144.5" y="478.9" width="11.0" height="11.0" rx="3" fill="#cbd5e1" stroke="#475569"/><rect x="172.7" y="478.9" width="11.0" height="11.0" rx="3" fill="#cbd5e1" stroke="#475569"/><rect x="192.6" y="502.9" width="22.9" height="69.0" rx="3" fill="#cbd5e1" stroke="#475569"/><rect x="176.8" y="502.9" width="22.9" height="69.0" rx="3" fill="#cbd5e1" stroke="#475569"/><rect x="138.5" y="502.9" width="22.9" height="69.0" rx="3" fill="#cbd5e1" stroke="#475569"/><rect x="100.3" y="502.9" width="22.9" height="69.0" rx="3" fill="#cbd5e1" stroke="#475569"/><rect x="84.5" y="502.9" width="22.9" height="69.0" rx="3" fill="#cbd5e1" stroke="#475569"/><rect x="100.3" y="502.9" width="22.9" height="69.0" rx="3" fill="#cbd5e1" stroke="#475569"/><rect x="138.5" y="502.9" width="22.9" height="69.0" rx="3" fill="#cbd5e1" stroke="#475569"/><rect x="176.8" y="502.9" width="22.9" height="69.0" rx="3" fill="#cbd5e1" stroke="#475569"/><polygon points="191.7,553.9 183.7,590.2 199.7,590.2" fill="#94a3b8" stroke="#475569" opacity="0.88"/><polygon points="179.5,553.9 171.5,590.2 187.5,590.2" fill="#94a3b8" stroke="#475569" opacity="0.88"/><polygon points="150.0,553.9 142.0,590.2 158.0,590.2" fill="#94a3b8" stroke="#475569" opacity="0.88"/><polygon points="120.5,553.9 112.5,590.2 128.5,590.2" fill="#94a3b8" stroke="#475569" opacity="0.88"/><polygon points="108.3,553.9 100.3,590.2 116.3,590.2" fill="#94a3b8" stroke="#475569" opacity="0.88"/><polygon points="120.5,553.9 112.5,590.2 128.5,590.2" fill="#94a3b8" stroke="#475569" opacity="0.88"/><polygon points="150.0,553.9 142.0,590.2 158.0,590.2" fill="#94a3b8" stroke="#475569" opacity="0.88"/><polygon points="179.5,553.9 171.5,590.2 187.5,590.2" fill="#94a3b8" stroke="#475569" opacity="0.88"/><polygon points="160.9,571.8 172.1,571.8 174.7,636.0 158.2,636.0" fill="#f87171" stroke="#991b1b"/><polygon points="198.5,571.8 209.7,571.8 212.3,636.0 195.8,636.0" fill="#f87171" stroke="#991b1b"/><polygon points="182.6,571.8 193.8,571.8 196.5,636.0 180.0,636.0" fill="#f87171" stroke="#991b1b"/><polygon points="144.4,571.8 155.6,571.8 158.2,636.0 141.8,636.0" fill="#f87171" stroke="#991b1b"/><polygon points="106.2,571.8 117.4,571.8 120.0,636.0 103.5,636.0" fill="#f87171" stroke="#991b1b"/><polygon points="90.3,571.8 101.5,571.8 104.2,636.0 87.7,636.0" fill="#f87171" stroke="#991b1b"/><polygon points="106.2,571.8 117.4,571.8 120.0,636.0 103.5,636.0" fill="#f87171" stroke="#991b1b"/><polygon points="144.4,571.8 155.6,571.8 158.2,636.0 141.8,636.0" fill="#f87171" stroke="#991b1b"/><polygon points="182.6,571.8 193.8,571.8 196.5,636.0 180.0,636.0" fill="#f87171" stroke="#991b1b"/>
  <rect x="378.5" y="76.0" width="22.9" height="5.2" rx="3" fill="#e2e8f0" stroke="#475569"/><rect x="378.5" y="81.2" width="22.9" height="19.2" rx="3" fill="#e2e8f0" stroke="#475569"/><rect x="378.5" y="100.4" width="22.9" height="3.5" rx="3" fill="#cbd5e1" stroke="#475569"/><rect x="378.5" y="104.0" width="22.9" height="1.8" rx="3" fill="#cbd5e1" stroke="#475569"/><rect x="378.5" y="105.8" width="22.9" height="6.9" rx="3" fill="#cbd5e1" stroke="#475569"/><rect x="378.5" y="112.6" width="22.9" height="27.5" rx="3" fill="#cbd5e1" stroke="#475569"/><rect x="378.5" y="140.1" width="22.9" height="11.0" rx="3" fill="#cbd5e1" stroke="#475569"/><rect x="378.5" y="151.1" width="22.9" height="11.0" rx="3" fill="#cbd5e1" stroke="#475569"/><rect x="378.5" y="162.1" width="22.9" height="11.0" rx="3" fill="#cbd5e1" stroke="#475569"/><rect x="378.5" y="173.1" width="22.9" height="7.3" rx="3" fill="#cbd5e1" stroke="#475569"/><rect x="378.5" y="180.4" width="22.9" height="7.3" rx="3" fill="#cbd5e1" stroke="#475569"/><rect x="378.5" y="187.7" width="22.9" height="7.3" rx="3" fill="#cbd5e1" stroke="#475569"/><rect x="378.5" y="195.0" width="22.9" height="1.8" rx="3" fill="#cbd5e1" stroke="#475569"/><rect x="367.1" y="196.8" width="45.8" height="68.2" rx="3" fill="#cbd5e1" stroke="#475569"/><rect x="355.6" y="265.0" width="68.7" height="16.5" rx="2" fill="#cbd5e1" stroke="#64748b" stroke-dasharray="3 2" opacity="0.45"/><polygon points="384.4,265.0 395.6,265.0 398.2,281.5 381.8,281.5" fill="#f87171" stroke="#991b1b"/><rect x="378.5" y="281.5" width="22.9" height="1.8" rx="3" fill="#cbd5e1" stroke="#475569"/><polygon points="367.1,283.4 412.9,283.4 424.4,324.6 355.6,324.6" fill="#dbeafe" stroke="#2563eb"/><rect x="355.6" y="324.6" width="68.7" height="35.3" rx="3" fill="#cbd5e1" stroke="#475569"/><rect x="355.6" y="359.9" width="68.7" height="35.3" rx="3" fill="#cbd5e1" stroke="#475569"/><rect x="355.6" y="395.2" width="68.7" height="35.3" rx="3" fill="#cbd5e1" stroke="#475569"/><rect x="355.6" y="430.6" width="68.7" height="35.3" rx="3" fill="#cbd5e1" stroke="#475569"/><rect x="355.6" y="465.9" width="68.7" height="35.3" rx="3" fill="#cbd5e1" stroke="#475569"/><rect x="355.6" y="501.2" width="68.7" height="35.3" rx="3" fill="#cbd5e1" stroke="#475569"/><rect x="355.6" y="536.5" width="68.7" height="35.3" rx="3" fill="#cbd5e1" stroke="#475569"/><polygon points="384.4,571.8 395.6,571.8 398.2,636.0 381.8,636.0" fill="#f87171" stroke="#991b1b"/><rect x="384.3" y="90.7" width="11.5" height="1.0" rx="3" fill="#cbd5e1" stroke="#475569"/><rect x="378.5" y="89.3" width="22.9" height="3.7" rx="3" fill="#cbd5e1" stroke="#475569"/><rect x="378.5" y="89.3" width="22.9" height="3.7" rx="3" fill="#cbd5e1" stroke="#475569"/><rect x="391.5" y="89.3" width="22.9" height="3.7" rx="3" fill="#cbd5e1" stroke="#475569"/><rect x="365.6" y="89.3" width="22.9" height="3.7" rx="3" fill="#cbd5e1" stroke="#475569"/><rect x="384.3" y="90.1" width="11.5" height="3.3" rx="3" fill="#cbd5e1" stroke="#475569"/><rect x="378.5" y="89.7" width="22.9" height="4.1" rx="3" fill="#cbd5e1" stroke="#475569"/><rect x="394.7" y="82.6" width="22.9" height="18.3" rx="3" fill="#cbd5e1" stroke="#475569"/><rect x="362.4" y="82.6" width="22.9" height="18.3" rx="3" fill="#cbd5e1" stroke="#475569"/><rect x="395.6" y="89.0" width="11.5" height="12.0" rx="3" fill="#cbd5e1" stroke="#475569"/><rect x="391.5" y="89.0" width="22.9" height="18.3" rx="3" fill="#cbd5e1" stroke="#475569"/><line x1="390.0" y1="276.0" x2="390.0" y2="308.4" stroke="#64748b" stroke-width="3" stroke-linecap="round"/><line x1="440.0" y1="276.0" x2="440.0" y2="308.4" stroke="#64748b" stroke-width="3" stroke-linecap="round"/><line x1="440.0" y1="276.0" x2="440.0" y2="308.4" stroke="#64748b" stroke-width="3" stroke-linecap="round"/><line x1="390.0" y1="276.0" x2="390.0" y2="308.4" stroke="#64748b" stroke-width="3" stroke-linecap="round"/><line x1="340.0" y1="276.0" x2="340.0" y2="308.4" stroke="#64748b" stroke-width="3" stroke-linecap="round"/><line x1="340.0" y1="276.0" x2="340.0" y2="308.4" stroke="#64748b" stroke-width="3" stroke-linecap="round"/><rect x="378.5" y="365.0" width="22.9" height="69.0" rx="3" fill="#cbd5e1" stroke="#475569"/><rect x="416.8" y="365.0" width="22.9" height="69.0" rx="3" fill="#cbd5e1" stroke="#475569"/><rect x="432.6" y="365.0" width="22.9" height="69.0" rx="3" fill="#cbd5e1" stroke="#475569"/><rect x="416.8" y="365.0" width="22.9" height="69.0" rx="3" fill="#cbd5e1" stroke="#475569"/><rect x="378.5" y="365.0" width="22.9" height="69.0" rx="3" fill="#cbd5e1" stroke="#475569"/><rect x="340.3" y="365.0" width="22.9" height="69.0" rx="3" fill="#cbd5e1" stroke="#475569"/><rect x="324.5" y="365.0" width="22.9" height="69.0" rx="3" fill="#cbd5e1" stroke="#475569"/><rect x="340.3" y="365.0" width="22.9" height="69.0" rx="3" fill="#cbd5e1" stroke="#475569"/><rect x="378.5" y="433.9" width="22.9" height="69.0" rx="3" fill="#cbd5e1" stroke="#475569"/><rect x="416.8" y="433.9" width="22.9" height="69.0" rx="3" fill="#cbd5e1" stroke="#475569"/><rect x="432.6" y="433.9" width="22.9" height="69.0" rx="3" fill="#cbd5e1" stroke="#475569"/><rect x="416.8" y="433.9" width="22.9" height="69.0" rx="3" fill="#cbd5e1" stroke="#475569"/><rect x="378.5" y="433.9" width="22.9" height="69.0" rx="3" fill="#cbd5e1" stroke="#475569"/><rect x="340.3" y="433.9" width="22.9" height="69.0" rx="3" fill="#cbd5e1" stroke="#475569"/><rect x="324.5" y="433.9" width="22.9" height="69.0" rx="3" fill="#cbd5e1" stroke="#475569"/><rect x="340.3" y="433.9" width="22.9" height="69.0" rx="3" fill="#cbd5e1" stroke="#475569"/><rect x="384.5" y="478.9" width="11.0" height="11.0" rx="3" fill="#cbd5e1" stroke="#475569"/><rect x="412.7" y="478.9" width="11.0" height="11.0" rx="3" fill="#cbd5e1" stroke="#475569"/><rect x="424.4" y="478.9" width="11.0" height="11.0" rx="3" fill="#cbd5e1" stroke="#475569"/><rect x="412.7" y="478.9" width="11.0" height="11.0" rx="3" fill="#cbd5e1" stroke="#475569"/><rect x="384.5" y="478.9" width="11.0" height="11.0" rx="3" fill="#cbd5e1" stroke="#475569"/><rect x="356.3" y="478.9" width="11.0" height="11.0" rx="3" fill="#cbd5e1" stroke="#475569"/><rect x="344.6" y="478.9" width="11.0" height="11.0" rx="3" fill="#cbd5e1" stroke="#475569"/><rect x="356.3" y="478.9" width="11.0" height="11.0" rx="3" fill="#cbd5e1" stroke="#475569"/><rect x="378.5" y="502.9" width="22.9" height="69.0" rx="3" fill="#cbd5e1" stroke="#475569"/><rect x="416.8" y="502.9" width="22.9" height="69.0" rx="3" fill="#cbd5e1" stroke="#475569"/><rect x="432.6" y="502.9" width="22.9" height="69.0" rx="3" fill="#cbd5e1" stroke="#475569"/><rect x="416.8" y="502.9" width="22.9" height="69.0" rx="3" fill="#cbd5e1" stroke="#475569"/><rect x="378.5" y="502.9" width="22.9" height="69.0" rx="3" fill="#cbd5e1" stroke="#475569"/><rect x="340.3" y="502.9" width="22.9" height="69.0" rx="3" fill="#cbd5e1" stroke="#475569"/><rect x="324.5" y="502.9" width="22.9" height="69.0" rx="3" fill="#cbd5e1" stroke="#475569"/><rect x="340.3" y="502.9" width="22.9" height="69.0" rx="3" fill="#cbd5e1" stroke="#475569"/><polygon points="390.0,553.9 382.0,590.2 398.0,590.2" fill="#94a3b8" stroke="#475569" opacity="0.88"/><polygon points="419.5,553.9 411.5,590.2 427.5,590.2" fill="#94a3b8" stroke="#475569" opacity="0.88"/><polygon points="431.7,553.9 423.7,590.2 439.7,590.2" fill="#94a3b8" stroke="#475569" opacity="0.88"/><polygon points="419.5,553.9 411.5,590.2 427.5,590.2" fill="#94a3b8" stroke="#475569" opacity="0.88"/><polygon points="390.0,553.9 382.0,590.2 398.0,590.2" fill="#94a3b8" stroke="#475569" opacity="0.88"/><polygon points="360.5,553.9 352.5,590.2 368.5,590.2" fill="#94a3b8" stroke="#475569" opacity="0.88"/><polygon points="348.3,553.9 340.3,590.2 356.3,590.2" fill="#94a3b8" stroke="#475569" opacity="0.88"/><polygon points="360.5,553.9 352.5,590.2 368.5,590.2" fill="#94a3b8" stroke="#475569" opacity="0.88"/><polygon points="384.4,571.8 395.6,571.8 398.2,636.0 381.8,636.0" fill="#f87171" stroke="#991b1b"/><polygon points="384.4,571.8 395.6,571.8 398.2,636.0 381.8,636.0" fill="#f87171" stroke="#991b1b"/><polygon points="422.6,571.8 433.8,571.8 436.5,636.0 420.0,636.0" fill="#f87171" stroke="#991b1b"/><polygon points="438.5,571.8 449.7,571.8 452.3,636.0 435.8,636.0" fill="#f87171" stroke="#991b1b"/><polygon points="422.6,571.8 433.8,571.8 436.5,636.0 420.0,636.0" fill="#f87171" stroke="#991b1b"/><polygon points="384.4,571.8 395.6,571.8 398.2,636.0 381.8,636.0" fill="#f87171" stroke="#991b1b"/><polygon points="346.2,571.8 357.4,571.8 360.0,636.0 343.5,636.0" fill="#f87171" stroke="#991b1b"/><polygon points="330.3,571.8 341.5,571.8 344.2,636.0 327.7,636.0" fill="#f87171" stroke="#991b1b"/><polygon points="346.2,571.8 357.4,571.8 360.0,636.0 343.5,636.0" fill="#f87171" stroke="#991b1b"/>
  <circle cx="625.0" cy="380.0" r="34.4" fill="#cbd5e1" stroke="#475569" opacity="0.30"/><circle cx="625.0" cy="380.0" r="34.4" fill="#cbd5e1" stroke="#475569" opacity="0.30"/><circle cx="625.0" cy="380.0" r="34.4" fill="#cbd5e1" stroke="#475569" opacity="0.30"/><circle cx="625.0" cy="380.0" r="34.4" fill="#cbd5e1" stroke="#475569" opacity="0.30"/><circle cx="625.0" cy="380.0" r="34.4" fill="#cbd5e1" stroke="#475569" opacity="0.30"/><circle cx="625.0" cy="380.0" r="34.4" fill="#cbd5e1" stroke="#475569" opacity="0.30"/><circle cx="625.0" cy="380.0" r="34.4" fill="#cbd5e1" stroke="#475569" opacity="0.30"/><circle cx="625.0" cy="380.0" r="22.9" fill="#cbd5e1" stroke="#475569" opacity="0.30"/><circle cx="638.3" cy="380.0" r="5.7" fill="#cbd5e1" stroke="#334155" opacity="0.80"/><circle cx="625.0" cy="380.0" r="34.4" fill="#fde68a" stroke="#334155" opacity="0.80"/><circle cx="641.5" cy="380.0" r="8.2" fill="#f87171" stroke="#334155" opacity="0.80"/><circle cx="679.1" cy="380.0" r="8.2" fill="#f87171" stroke="#334155" opacity="0.80"/><circle cx="679.1" cy="380.0" r="11.5" fill="#cbd5e1" stroke="#334155" opacity="0.80"/><circle cx="679.1" cy="380.0" r="11.5" fill="#cbd5e1" stroke="#334155" opacity="0.80"/><circle cx="679.1" cy="380.0" r="11.5" fill="#cbd5e1" stroke="#334155" opacity="0.80"/><circle cx="664.9" cy="380.0" r="5.5" fill="#cbd5e1" stroke="#334155" opacity="0.80"/><circle cx="663.2" cy="418.2" r="8.2" fill="#f87171" stroke="#334155" opacity="0.80"/><circle cx="663.2" cy="418.2" r="11.5" fill="#cbd5e1" stroke="#334155" opacity="0.80"/><circle cx="663.2" cy="418.2" r="11.5" fill="#cbd5e1" stroke="#334155" opacity="0.80"/><circle cx="663.2" cy="418.2" r="11.5" fill="#cbd5e1" stroke="#334155" opacity="0.80"/><circle cx="653.2" cy="408.2" r="5.5" fill="#cbd5e1" stroke="#334155" opacity="0.80"/><circle cx="625.0" cy="434.1" r="8.2" fill="#f87171" stroke="#334155" opacity="0.80"/><circle cx="625.0" cy="434.1" r="11.5" fill="#cbd5e1" stroke="#334155" opacity="0.80"/><circle cx="625.0" cy="434.1" r="11.5" fill="#cbd5e1" stroke="#334155" opacity="0.80"/><circle cx="625.0" cy="434.1" r="11.5" fill="#cbd5e1" stroke="#334155" opacity="0.80"/><circle cx="625.0" cy="419.9" r="5.5" fill="#cbd5e1" stroke="#334155" opacity="0.80"/><circle cx="586.8" cy="418.2" r="8.2" fill="#f87171" stroke="#334155" opacity="0.80"/><circle cx="586.8" cy="418.2" r="11.5" fill="#cbd5e1" stroke="#334155" opacity="0.80"/><circle cx="586.8" cy="418.2" r="11.5" fill="#cbd5e1" stroke="#334155" opacity="0.80"/><circle cx="586.8" cy="418.2" r="11.5" fill="#cbd5e1" stroke="#334155" opacity="0.80"/><circle cx="596.8" cy="408.2" r="5.5" fill="#cbd5e1" stroke="#334155" opacity="0.80"/><circle cx="570.9" cy="380.0" r="8.2" fill="#f87171" stroke="#334155" opacity="0.80"/><circle cx="570.9" cy="380.0" r="11.5" fill="#cbd5e1" stroke="#334155" opacity="0.80"/><circle cx="570.9" cy="380.0" r="11.5" fill="#cbd5e1" stroke="#334155" opacity="0.80"/><circle cx="570.9" cy="380.0" r="11.5" fill="#cbd5e1" stroke="#334155" opacity="0.80"/><circle cx="585.1" cy="380.0" r="5.5" fill="#cbd5e1" stroke="#334155" opacity="0.80"/><circle cx="586.8" cy="341.8" r="8.2" fill="#f87171" stroke="#334155" opacity="0.80"/><circle cx="586.8" cy="341.8" r="11.5" fill="#cbd5e1" stroke="#334155" opacity="0.80"/><circle cx="586.8" cy="341.8" r="11.5" fill="#cbd5e1" stroke="#334155" opacity="0.80"/><circle cx="586.8" cy="341.8" r="11.5" fill="#cbd5e1" stroke="#334155" opacity="0.80"/><circle cx="596.8" cy="351.8" r="5.5" fill="#cbd5e1" stroke="#334155" opacity="0.80"/><circle cx="625.0" cy="325.9" r="8.2" fill="#f87171" stroke="#334155" opacity="0.80"/><circle cx="625.0" cy="325.9" r="11.5" fill="#cbd5e1" stroke="#334155" opacity="0.80"/><circle cx="625.0" cy="325.9" r="11.5" fill="#cbd5e1" stroke="#334155" opacity="0.80"/><circle cx="625.0" cy="325.9" r="11.5" fill="#cbd5e1" stroke="#334155" opacity="0.80"/><circle cx="625.0" cy="340.1" r="5.5" fill="#cbd5e1" stroke="#334155" opacity="0.80"/><circle cx="663.2" cy="341.8" r="8.2" fill="#f87171" stroke="#334155" opacity="0.80"/><circle cx="663.2" cy="341.8" r="11.5" fill="#cbd5e1" stroke="#334155" opacity="0.80"/><circle cx="663.2" cy="341.8" r="11.5" fill="#cbd5e1" stroke="#334155" opacity="0.80"/><circle cx="663.2" cy="341.8" r="11.5" fill="#cbd5e1" stroke="#334155" opacity="0.80"/><circle cx="653.2" cy="351.8" r="5.5" fill="#cbd5e1" stroke="#334155" opacity="0.80"/><circle cx="641.1" cy="380.0" r="5.7" fill="#cbd5e1" stroke="#334155" opacity="0.80"/><circle cx="608.9" cy="380.0" r="11.5" fill="#cbd5e1" stroke="#334155" opacity="0.80"/><circle cx="625.0" cy="396.1" r="11.5" fill="#cbd5e1" stroke="#334155" opacity="0.80"/><circle cx="625.0" cy="363.9" r="11.5" fill="#cbd5e1" stroke="#334155" opacity="0.80"/><circle cx="636.3" cy="391.3" r="5.7" fill="#cbd5e1" stroke="#334155" opacity="0.80"/><circle cx="637.9" cy="380.0" r="11.5" fill="#cbd5e1" stroke="#334155" opacity="0.80"/><circle cx="612.1" cy="380.0" r="11.5" fill="#cbd5e1" stroke="#334155" opacity="0.80"/><circle cx="625.0" cy="392.9" r="11.5" fill="#cbd5e1" stroke="#334155" opacity="0.80"/><circle cx="625.0" cy="367.1" r="11.5" fill="#cbd5e1" stroke="#334155" opacity="0.80"/><circle cx="625.0" cy="392.9" r="11.5" fill="#cbd5e1" stroke="#334155" opacity="0.80"/><circle cx="666.7" cy="380.0" r="3.2" fill="#94a3b8" stroke="#334155" opacity="0.80"/><circle cx="654.5" cy="409.5" r="3.2" fill="#94a3b8" stroke="#334155" opacity="0.80"/><circle cx="625.0" cy="421.7" r="3.2" fill="#94a3b8" stroke="#334155" opacity="0.80"/><circle cx="595.5" cy="409.5" r="3.2" fill="#94a3b8" stroke="#334155" opacity="0.80"/><circle cx="583.3" cy="380.0" r="3.2" fill="#94a3b8" stroke="#334155" opacity="0.80"/><circle cx="595.5" cy="350.5" r="3.2" fill="#94a3b8" stroke="#334155" opacity="0.80"/><circle cx="625.0" cy="338.3" r="3.2" fill="#94a3b8" stroke="#334155" opacity="0.80"/><circle cx="654.5" cy="350.5" r="3.2" fill="#94a3b8" stroke="#334155" opacity="0.80"/><circle cx="682.7" cy="380.0" r="3.2" fill="#64748b" stroke="#334155" opacity="0.80"/><circle cx="653.9" cy="430.0" r="3.2" fill="#64748b" stroke="#334155" opacity="0.80"/><circle cx="596.1" cy="430.0" r="3.2" fill="#64748b" stroke="#334155" opacity="0.80"/><circle cx="567.3" cy="380.0" r="3.2" fill="#64748b" stroke="#334155" opacity="0.80"/><circle cx="596.1" cy="330.0" r="3.2" fill="#64748b" stroke="#334155" opacity="0.80"/><circle cx="653.9" cy="330.0" r="3.2" fill="#64748b" stroke="#334155" opacity="0.80"/>
  <text x="805" y="94" font-size="12" fill="#16a34a">PASS - slender body (4 &lt;= L/D &lt;= 19)</text><text x="805" y="116" font-size="12" fill="#16a34a">PASS - monotonic taper (widest toward base)</text><text x="805" y="138" font-size="12" fill="#16a34a">PASS - payload housed (fairing or capsule top)</text><text x="805" y="160" font-size="12" fill="#16a34a">PASS - payload fully enclosed (nothing protrudes the fairing)</text><text x="805" y="182" font-size="12" fill="#16a34a">PASS - engine at the base</text><text x="805" y="204" font-size="12" fill="#16a34a">PASS - upper-stage engine has interstage shroud</text><text x="805" y="226" font-size="12" fill="#16a34a">PASS - controlled ascent margin</text><text x="805" y="248" font-size="12" fill="#16a34a">PASS - radial protrusions within ascent envelope</text><text x="805" y="270" font-size="12" fill="#16a34a">PASS - landing gear tip-over stable</text><text x="805" y="292" font-size="12" fill="#16a34a">PASS - symmetric strap-on boosters</text><text x="805" y="314" font-size="12" fill="#16a34a">PASS - boosters no taller than host stage</text>
  <text x="805" y="346" font-size="12" fill="#0f172a">L/D 8.1:1</text><text x="805" y="364" font-size="12" fill="#0f172a">length 30.55 m</text><text x="805" y="382" font-size="12" fill="#0f172a">body dia 3.75 m</text><text x="805" y="400" font-size="12" fill="#0f172a">core span 4.9 m</text><text x="805" y="418" font-size="12" fill="#0f172a">8x radial boosters (span 7.15 m)</text><text x="805" y="436" font-size="12" fill="#0f172a">full span 7.15 m</text><text x="805" y="454" font-size="12" fill="#0f172a">static 0.08 cal</text><text x="805" y="472" font-size="12" fill="#0f172a">Cd 0.232</text><text x="805" y="490" font-size="12" fill="#0f172a">drag loss 110.0 m/s</text><text x="805" y="508" font-size="12" fill="#0f172a">max-Q 88.4 kPa</text>
</svg>