<svg xmlns="http://www.w3.org/2000/svg" width="1080" height="700" viewBox="0 0 1080 700" font-family="system-ui,Segoe UI,sans-serif">
  <rect width="1080" height="700" fill="#f8fafc"/>
  <text x="30" y="32" font-size="19" font-weight="700" fill="#0f172a">Three-view design chart - AI-Eve-Launcher</text>
  <text x="805" y="56" font-size="15" font-weight="700" fill="#dc2626">REJECTED - geometry gate failed</text>
  <text x="118" y="58" font-size="12" font-weight="700" fill="#334155">SIDE</text>
  <text x="355" y="58" font-size="12" font-weight="700" fill="#334155">FRONT</text>
  <text x="594" y="220" font-size="12" font-weight="700" fill="#334155">TOP</text>
  <line x1="150.0" y1="60" x2="150.0" y2="650" stroke="#e2e8f0" stroke-dasharray="4 4"/>
  <line x1="390.0" y1="60" x2="390.0" y2="650" stroke="#e2e8f0" stroke-dasharray="4 4"/>
  <circle cx="625.0" cy="380.0" r="5.8" fill="none" stroke="#94a3b8" stroke-dasharray="4 4"/>
  <rect x="148.1" y="76.0" width="3.9" height="1.2" rx="3" fill="#cbd5e1" stroke="#475569"/><rect x="148.1" y="77.2" width="3.9" height="1.8" rx="3" fill="#cbd5e1" stroke="#475569"/><rect x="148.1" y="79.0" width="3.9" height="1.8" rx="3" fill="#cbd5e1" stroke="#475569"/><rect x="148.1" y="80.8" width="3.9" height="1.8" rx="3" fill="#cbd5e1" stroke="#475569"/><rect x="148.1" y="82.7" width="3.9" height="1.8" rx="3" fill="#cbd5e1" stroke="#475569"/><rect x="148.1" y="84.5" width="3.9" height="1.8" rx="3" fill="#cbd5e1" stroke="#475569"/><rect x="148.1" y="86.4" width="3.9" height="1.8" rx="3" fill="#cbd5e1" stroke="#475569"/><rect x="148.1" y="88.2" width="3.9" height="1.8" rx="3" fill="#cbd5e1" stroke="#475569"/><rect x="148.1" y="90.1" width="3.9" height="1.8" rx="3" fill="#cbd5e1" stroke="#475569"/><rect x="148.1" y="91.9" width="3.9" height="1.0" rx="3" fill="#cbd5e1" stroke="#475569"/><rect x="148.1" y="92.9" width="3.9" height="1.0" rx="3" fill="#cbd5e1" stroke="#475569"/><rect x="148.1" y="93.8" width="3.9" height="1.0" rx="3" fill="#cbd5e1" stroke="#475569"/><path d="M 148.1 96.0 L 148.1 76.0 Q 148.1 72.0 150.0 58.0 Q 151.9 72.0 151.9 76.0 L 151.9 96.0 Z" fill="#fde68a" stroke="#d97706" stroke-width="1.4" opacity="0.55"/><rect x="148.1" y="96.0" width="3.9" height="1.0" rx="3" fill="#cbd5e1" stroke="#475569"/><rect x="144.2" y="96.3" width="11.6" height="5.9" rx="3" fill="#cbd5e1" stroke="#475569"/><rect x="144.2" y="102.3" width="11.6" height="5.9" rx="3" fill="#cbd5e1" stroke="#475569"/><rect x="144.2" y="108.2" width="11.6" height="5.9" rx="3" fill="#cbd5e1" stroke="#475569"/><rect x="144.2" y="114.1" width="11.6" height="5.9" rx="3" fill="#cbd5e1" stroke="#475569"/><rect x="144.2" y="120.1" width="11.6" height="5.9" rx="3" fill="#cbd5e1" stroke="#475569"/><rect x="144.2" y="126.0" width="11.6" height="5.9" rx="3" fill="#cbd5e1" stroke="#475569"/><rect x="144.2" y="131.9" width="11.6" height="5.9" rx="3" fill="#cbd5e1" stroke="#475569"/><rect x="144.2" y="137.9" width="11.6" height="5.9" rx="3" fill="#cbd5e1" stroke="#475569"/><rect x="144.2" y="143.8" width="11.6" height="5.9" rx="3" fill="#cbd5e1" stroke="#475569"/><rect x="144.2" y="149.8" width="11.6" height="5.9" rx="3" fill="#cbd5e1" stroke="#475569"/><rect x="144.2" y="155.7" width="11.6" height="5.9" rx="3" fill="#cbd5e1" stroke="#475569"/><rect x="144.2" y="161.6" width="11.6" height="5.9" rx="3" fill="#cbd5e1" stroke="#475569"/><rect x="144.2" y="167.6" width="11.6" height="5.9" rx="3" fill="#cbd5e1" stroke="#475569"/><rect x="144.2" y="173.5" width="11.6" height="5.9" rx="3" fill="#cbd5e1" stroke="#475569"/><rect x="144.2" y="179.4" width="11.6" height="5.9" rx="3" fill="#cbd5e1" stroke="#475569"/><rect x="144.2" y="185.4" width="11.6" height="5.9" rx="3" fill="#cbd5e1" stroke="#475569"/><rect x="144.2" y="191.3" width="11.6" height="5.9" rx="3" fill="#cbd5e1" stroke="#475569"/><rect x="144.2" y="197.3" width="11.6" height="5.9" rx="3" fill="#cbd5e1" stroke="#475569"/><rect x="144.2" y="203.2" width="11.6" height="5.9" rx="3" fill="#cbd5e1" stroke="#475569"/><polygon points="149.1,209.1 150.9,209.1 151.4,211.7 148.6,211.7" fill="#f87171" stroke="#991b1b"/><rect x="148.1" y="211.7" width="3.9" height="1.0" rx="3" fill="#cbd5e1" stroke="#475569"/><rect x="144.2" y="212.0" width="11.6" height="23.0" rx="3" fill="#cbd5e1" stroke="#475569"/><rect x="144.2" y="235.0" width="11.6" height="23.0" rx="3" fill="#cbd5e1" stroke="#475569"/><rect x="144.2" y="258.1" width="11.6" height="23.0" rx="3" fill="#cbd5e1" stroke="#475569"/><rect x="144.2" y="281.1" width="11.6" height="23.0" rx="3" fill="#cbd5e1" stroke="#475569"/><rect x="144.2" y="304.2" width="11.6" height="23.0" rx="3" fill="#cbd5e1" stroke="#475569"/><rect x="144.2" y="327.2" width="11.6" height="23.0" rx="3" fill="#cbd5e1" stroke="#475569"/><rect x="144.2" y="350.3" width="11.6" height="23.0" rx="3" fill="#cbd5e1" stroke="#475569"/><rect x="144.2" y="373.3" width="11.6" height="23.0" rx="3" fill="#cbd5e1" stroke="#475569"/><rect x="144.2" y="396.4" width="11.6" height="23.0" rx="3" fill="#cbd5e1" stroke="#475569"/><rect x="144.2" y="419.4" width="11.6" height="23.0" rx="3" fill="#cbd5e1" stroke="#475569"/><rect x="144.2" y="442.5" width="11.6" height="23.0" rx="3" fill="#cbd5e1" stroke="#475569"/><rect x="144.2" y="465.5" width="11.6" height="23.0" rx="3" fill="#cbd5e1" stroke="#475569"/><rect x="144.2" y="488.6" width="11.6" height="23.0" rx="3" fill="#cbd5e1" stroke="#475569"/><rect x="144.2" y="511.6" width="11.6" height="23.0" rx="3" fill="#cbd5e1" stroke="#475569"/><rect x="144.2" y="534.7" width="11.6" height="23.0" rx="3" fill="#cbd5e1" stroke="#475569"/><rect x="144.2" y="557.7" width="11.6" height="23.0" rx="3" fill="#cbd5e1" stroke="#475569"/><rect x="144.2" y="580.8" width="11.6" height="23.0" rx="3" fill="#cbd5e1" stroke="#475569"/><rect x="144.2" y="603.8" width="11.6" height="23.0" rx="3" fill="#cbd5e1" stroke="#475569"/><polygon points="148.1,626.8 151.9,626.8 152.8,636.0 147.2,636.0" fill="#f87171" stroke="#991b1b"/><rect x="149.5" y="75.8" width="3.9" height="1.8" rx="3" fill="#cbd5e1" stroke="#475569"/><rect x="146.6" y="76.1" width="3.9" height="1.2" rx="3" fill="#cbd5e1" stroke="#475569"/><rect x="148.1" y="76.3" width="3.9" height="1.0" rx="3" fill="#cbd5e1" stroke="#475569"/><rect x="148.1" y="76.3" width="3.9" height="1.0" rx="3" fill="#cbd5e1" stroke="#475569"/><rect x="149.1" y="76.5" width="3.9" height="1.5" rx="3" fill="#cbd5e1" stroke="#475569"/><polygon points="157.0,620.3 149.0,639.9 165.0,639.9" fill="#94a3b8" stroke="#475569" opacity="0.88"/><polygon points="155.0,620.3 147.0,639.9 163.0,639.9" fill="#94a3b8" stroke="#475569" opacity="0.88"/><polygon points="150.0,620.3 142.0,639.9 158.0,639.9" fill="#94a3b8" stroke="#475569" opacity="0.88"/><polygon points="145.0,620.3 137.0,639.9 153.0,639.9" fill="#94a3b8" stroke="#475569" opacity="0.88"/><polygon points="143.0,620.3 135.0,639.9 151.0,639.9" fill="#94a3b8" stroke="#475569" opacity="0.88"/><polygon points="145.0,620.3 137.0,639.9 153.0,639.9" fill="#94a3b8" stroke="#475569" opacity="0.88"/><polygon points="150.0,620.3 142.0,639.9 158.0,639.9" fill="#94a3b8" stroke="#475569" opacity="0.88"/><polygon points="155.0,620.3 147.0,639.9 163.0,639.9" fill="#94a3b8" stroke="#475569" opacity="0.88"/><polygon points="153.7,626.8 157.4,626.8 158.3,636.0 152.8,636.0" fill="#f87171" stroke="#991b1b"/><polygon points="150.9,626.8 154.7,626.8 155.5,636.0 150.0,636.0" fill="#f87171" stroke="#991b1b"/><polygon points="145.3,626.8 149.1,626.8 150.0,636.0 144.5,636.0" fill="#f87171" stroke="#991b1b"/><polygon points="142.6,626.8 146.3,626.8 147.2,636.0 141.7,636.0" fill="#f87171" stroke="#991b1b"/><polygon points="145.3,626.8 149.1,626.8 150.0,636.0 144.5,636.0" fill="#f87171" stroke="#991b1b"/><polygon points="150.9,626.8 154.7,626.8 155.5,636.0 150.0,636.0" fill="#f87171" stroke="#991b1b"/>
  <rect x="388.1" y="76.0" width="3.9" height="1.2" rx="3" fill="#cbd5e1" stroke="#475569"/><rect x="388.1" y="77.2" width="3.9" height="1.8" rx="3" fill="#cbd5e1" stroke="#475569"/><rect x="388.1" y="79.0" width="3.9" height="1.8" rx="3" fill="#cbd5e1" stroke="#475569"/><rect x="388.1" y="80.8" width="3.9" height="1.8" rx="3" fill="#cbd5e1" stroke="#475569"/><rect x="388.1" y="82.7" width="3.9" height="1.8" rx="3" fill="#cbd5e1" stroke="#475569"/><rect x="388.1" y="84.5" width="3.9" height="1.8" rx="3" fill="#cbd5e1" stroke="#475569"/><rect x="388.1" y="86.4" width="3.9" height="1.8" rx="3" fill="#cbd5e1" stroke="#475569"/><rect x="388.1" y="88.2" width="3.9" height="1.8" rx="3" fill="#cbd5e1" stroke="#475569"/><rect x="388.1" y="90.1" width="3.9" height="1.8" rx="3" fill="#cbd5e1" stroke="#475569"/><rect x="388.1" y="91.9" width="3.9" height="1.0" rx="3" fill="#cbd5e1" stroke="#475569"/><rect x="388.1" y="92.9" width="3.9" height="1.0" rx="3" fill="#cbd5e1" stroke="#475569"/><rect x="388.1" y="93.8" width="3.9" height="1.0" rx="3" fill="#cbd5e1" stroke="#475569"/><path d="M 388.1 96.0 L 388.1 76.0 Q 388.1 72.0 390.0 58.0 Q 391.9 72.0 391.9 76.0 L 391.9 96.0 Z" fill="#fde68a" stroke="#d97706" stroke-width="1.4" opacity="0.55"/><rect x="388.1" y="96.0" width="3.9" height="1.0" rx="3" fill="#cbd5e1" stroke="#475569"/><rect x="384.2" y="96.3" width="11.6" height="5.9" rx="3" fill="#cbd5e1" stroke="#475569"/><rect x="384.2" y="102.3" width="11.6" height="5.9" rx="3" fill="#cbd5e1" stroke="#475569"/><rect x="384.2" y="108.2" width="11.6" height="5.9" rx="3" fill="#cbd5e1" stroke="#475569"/><rect x="384.2" y="114.1" width="11.6" height="5.9" rx="3" fill="#cbd5e1" stroke="#475569"/><rect x="384.2" y="120.1" width="11.6" height="5.9" rx="3" fill="#cbd5e1" stroke="#475569"/><rect x="384.2" y="126.0" width="11.6" height="5.9" rx="3" fill="#cbd5e1" stroke="#475569"/><rect x="384.2" y="131.9" width="11.6" height="5.9" rx="3" fill="#cbd5e1" stroke="#475569"/><rect x="384.2" y="137.9" width="11.6" height="5.9" rx="3" fill="#cbd5e1" stroke="#475569"/><rect x="384.2" y="143.8" width="11.6" height="5.9" rx="3" fill="#cbd5e1" stroke="#475569"/><rect x="384.2" y="149.8" width="11.6" height="5.9" rx="3" fill="#cbd5e1" stroke="#475569"/><rect x="384.2" y="155.7" width="11.6" height="5.9" rx="3" fill="#cbd5e1" stroke="#475569"/><rect x="384.2" y="161.6" width="11.6" height="5.9" rx="3" fill="#cbd5e1" stroke="#475569"/><rect x="384.2" y="167.6" width="11.6" height="5.9" rx="3" fill="#cbd5e1" stroke="#475569"/><rect x="384.2" y="173.5" width="11.6" height="5.9" rx="3" fill="#cbd5e1" stroke="#475569"/><rect x="384.2" y="179.4" width="11.6" height="5.9" rx="3" fill="#cbd5e1" stroke="#475569"/><rect x="384.2" y="185.4" width="11.6" height="5.9" rx="3" fill="#cbd5e1" stroke="#475569"/><rect x="384.2" y="191.3" width="11.6" height="5.9" rx="3" fill="#cbd5e1" stroke="#475569"/><rect x="384.2" y="197.3" width="11.6" height="5.9" rx="3" fill="#cbd5e1" stroke="#475569"/><rect x="384.2" y="203.2" width="11.6" height="5.9" rx="3" fill="#cbd5e1" stroke="#475569"/><polygon points="389.1,209.1 390.9,209.1 391.4,211.7 388.6,211.7" fill="#f87171" stroke="#991b1b"/><rect x="388.1" y="211.7" width="3.9" height="1.0" rx="3" fill="#cbd5e1" stroke="#475569"/><rect x="384.2" y="212.0" width="11.6" height="23.0" rx="3" fill="#cbd5e1" stroke="#475569"/><rect x="384.2" y="235.0" width="11.6" height="23.0" rx="3" fill="#cbd5e1" stroke="#475569"/><rect x="384.2" y="258.1" width="11.6" height="23.0" rx="3" fill="#cbd5e1" stroke="#475569"/><rect x="384.2" y="281.1" width="11.6" height="23.0" rx="3" fill="#cbd5e1" stroke="#475569"/><rect x="384.2" y="304.2" width="11.6" height="23.0" rx="3" fill="#cbd5e1" stroke="#475569"/><rect x="384.2" y="327.2" width="11.6" height="23.0" rx="3" fill="#cbd5e1" stroke="#475569"/><rect x="384.2" y="350.3" width="11.6" height="23.0" rx="3" fill="#cbd5e1" stroke="#475569"/><rect x="384.2" y="373.3" width="11.6" height="23.0" rx="3" fill="#cbd5e1" stroke="#475569"/><rect x="384.2" y="396.4" width="11.6" height="23.0" rx="3" fill="#cbd5e1" stroke="#475569"/><rect x="384.2" y="419.4" width="11.6" height="23.0" rx="3" fill="#cbd5e1" stroke="#475569"/><rect x="384.2" y="442.5" width="11.6" height="23.0" rx="3" fill="#cbd5e1" stroke="#475569"/><rect x="384.2" y="465.5" width="11.6" height="23.0" rx="3" fill="#cbd5e1" stroke="#475569"/><rect x="384.2" y="488.6" width="11.6" height="23.0" rx="3" fill="#cbd5e1" stroke="#475569"/><rect x="384.2" y="511.6" width="11.6" height="23.0" rx="3" fill="#cbd5e1" stroke="#475569"/><rect x="384.2" y="534.7" width="11.6" height="23.0" rx="3" fill="#cbd5e1" stroke="#475569"/><rect x="384.2" y="557.7" width="11.6" height="23.0" rx="3" fill="#cbd5e1" stroke="#475569"/><rect x="384.2" y="580.8" width="11.6" height="23.0" rx="3" fill="#cbd5e1" stroke="#475569"/><rect x="384.2" y="603.8" width="11.6" height="23.0" rx="3" fill="#cbd5e1" stroke="#475569"/><polygon points="388.1,626.8 391.9,626.8 392.8,636.0 387.2,636.0" fill="#f87171" stroke="#991b1b"/><rect x="388.1" y="75.8" width="3.9" height="1.8" rx="3" fill="#cbd5e1" stroke="#475569"/><rect x="388.1" y="76.1" width="3.9" height="1.2" rx="3" fill="#cbd5e1" stroke="#475569"/><rect x="389.5" y="76.3" width="3.9" height="1.0" rx="3" fill="#cbd5e1" stroke="#475569"/><rect x="386.6" y="76.3" width="3.9" height="1.0" rx="3" fill="#cbd5e1" stroke="#475569"/><rect x="389.1" y="76.5" width="3.9" height="1.5" rx="3" fill="#cbd5e1" stroke="#475569"/><polygon points="390.0,620.3 382.0,639.9 398.0,639.9" fill="#94a3b8" stroke="#475569" opacity="0.88"/><polygon points="395.0,620.3 387.0,639.9 403.0,639.9" fill="#94a3b8" stroke="#475569" opacity="0.88"/><polygon points="397.0,620.3 389.0,639.9 405.0,639.9" fill="#94a3b8" stroke="#475569" opacity="0.88"/><polygon points="395.0,620.3 387.0,639.9 403.0,639.9" fill="#94a3b8" stroke="#475569" opacity="0.88"/><polygon points="390.0,620.3 382.0,639.9 398.0,639.9" fill="#94a3b8" stroke="#475569" opacity="0.88"/><polygon points="385.0,620.3 377.0,639.9 393.0,639.9" fill="#94a3b8" stroke="#475569" opacity="0.88"/><polygon points="383.0,620.3 375.0,639.9 391.0,639.9" fill="#94a3b8" stroke="#475569" opacity="0.88"/><polygon points="385.0,620.3 377.0,639.9 393.0,639.9" fill="#94a3b8" stroke="#475569" opacity="0.88"/><polygon points="388.1,626.8 391.9,626.8 392.8,636.0 387.2,636.0" fill="#f87171" stroke="#991b1b"/><polygon points="392.9,626.8 396.7,626.8 397.6,636.0 392.0,636.0" fill="#f87171" stroke="#991b1b"/><polygon points="392.9,626.8 396.7,626.8 397.6,636.0 392.0,636.0" fill="#f87171" stroke="#991b1b"/><polygon points="388.1,626.8 391.9,626.8 392.8,636.0 387.2,636.0" fill="#f87171" stroke="#991b1b"/><polygon points="383.3,626.8 387.1,626.8 388.0,636.0 382.4,636.0" fill="#f87171" stroke="#991b1b"/><polygon points="383.3,626.8 387.1,626.8 388.0,636.0 382.4,636.0" fill="#f87171" stroke="#991b1b"/>
  <circle cx="625.0" cy="380.0" r="5.8" fill="#cbd5e1" stroke="#475569" opacity="0.30"/><circle cx="625.0" cy="380.0" r="5.8" fill="#cbd5e1" stroke="#475569" opacity="0.30"/><circle cx="625.0" cy="380.0" r="5.8" fill="#cbd5e1" stroke="#475569" opacity="0.30"/><circle cx="625.0" cy="380.0" r="5.8" fill="#cbd5e1" stroke="#475569" opacity="0.30"/><circle cx="625.0" cy="380.0" r="5.8" fill="#cbd5e1" stroke="#475569" opacity="0.30"/><circle cx="625.0" cy="380.0" r="5.8" fill="#cbd5e1" stroke="#475569" opacity="0.30"/><circle cx="625.0" cy="380.0" r="5.8" fill="#cbd5e1" stroke="#475569" opacity="0.30"/><circle cx="625.0" cy="380.0" r="5.8" fill="#cbd5e1" stroke="#475569" opacity="0.30"/><circle cx="630.5" cy="380.0" r="2.8" fill="#f87171" stroke="#334155" opacity="0.80"/><circle cx="627.8" cy="384.8" r="2.8" fill="#f87171" stroke="#334155" opacity="0.80"/><circle cx="622.2" cy="384.8" r="2.8" fill="#f87171" stroke="#334155" opacity="0.80"/><circle cx="619.5" cy="380.0" r="2.8" fill="#f87171" stroke="#334155" opacity="0.80"/><circle cx="622.2" cy="375.2" r="2.8" fill="#f87171" stroke="#334155" opacity="0.80"/><circle cx="627.8" cy="375.2" r="2.8" fill="#f87171" stroke="#334155" opacity="0.80"/><circle cx="626.5" cy="380.0" r="2.5" fill="#cbd5e1" stroke="#334155" opacity="0.80"/><circle cx="623.5" cy="380.0" r="2.5" fill="#cbd5e1" stroke="#334155" opacity="0.80"/><circle cx="625.0" cy="381.5" r="2.5" fill="#cbd5e1" stroke="#334155" opacity="0.80"/><circle cx="625.0" cy="378.5" r="2.5" fill="#cbd5e1" stroke="#334155" opacity="0.80"/><circle cx="626.0" cy="381.0" r="2.5" fill="#cbd5e1" stroke="#334155" opacity="0.80"/><circle cx="632.0" cy="380.0" r="2.5" fill="#94a3b8" stroke="#334155" opacity="0.80"/><circle cx="630.0" cy="385.0" r="2.5" fill="#94a3b8" stroke="#334155" opacity="0.80"/><circle cx="625.0" cy="387.0" r="2.5" fill="#94a3b8" stroke="#334155" opacity="0.80"/><circle cx="620.0" cy="385.0" r="2.5" fill="#94a3b8" stroke="#334155" opacity="0.80"/><circle cx="618.0" cy="380.0" r="2.5" fill="#94a3b8" stroke="#334155" opacity="0.80"/><circle cx="620.0" cy="375.0" r="2.5" fill="#94a3b8" stroke="#334155" opacity="0.80"/><circle cx="625.0" cy="373.0" r="2.5" fill="#94a3b8" stroke="#334155" opacity="0.80"/><circle cx="630.0" cy="375.0" r="2.5" fill="#94a3b8" stroke="#334155" opacity="0.80"/>
  <text x="805" y="94" font-size="12" fill="#dc2626">FAIL - slender body (4 &lt;= L/D &lt;= 19)</text><text x="805" y="116" font-size="12" fill="#16a34a">PASS - monotonic taper (widest toward base)</text><text x="805" y="138" font-size="12" fill="#16a34a">PASS - payload housed (fairing or capsule top)</text><text x="805" y="160" font-size="12" fill="#16a34a">PASS - engine at the base</text><text x="805" y="182" font-size="12" fill="#16a34a">PASS - controlled ascent margin</text><text x="805" y="204" font-size="12" fill="#16a34a">PASS - radial protrusions within ascent envelope</text><text x="805" y="226" font-size="12" fill="#16a34a">PASS - landing gear tip-over stable</text>
  <text x="805" y="258" font-size="12" fill="#0f172a">L/D 48.5:1</text><text x="805" y="276" font-size="12" fill="#0f172a">length 181.75 m</text><text x="805" y="294" font-size="12" fill="#0f172a">body dia 3.75 m</text><text x="805" y="312" font-size="12" fill="#0f172a">core span 5.4 m</text><text x="805" y="330" font-size="12" fill="#0f172a">full span 5.4 m</text><text x="805" y="348" font-size="12" fill="#0f172a">static 0.3 cal</text><text x="805" y="366" font-size="12" fill="#0f172a">Cd 0.232</text><text x="805" y="384" font-size="12" fill="#0f172a">drag loss 13.0 m/s</text><text x="805" y="402" font-size="12" fill="#0f172a">max-Q 88.4 kPa</text>
</svg>