<svg xmlns="http://www.w3.org/2000/svg" width="1080" height="700" viewBox="0 0 1080 700" font-family="system-ui,Segoe UI,sans-serif">
  <rect width="1080" height="700" fill="#f8fafc"/>
  <text x="30" y="32" font-size="19" font-weight="700" fill="#0f172a">Three-view design chart - AI-Eve-Relay-2a</text>
  <text x="805" y="56" font-size="15" font-weight="700" fill="#16a34a">LOOKS LIKE A ROCKET</text>
  <text x="118" y="58" font-size="12" font-weight="700" fill="#334155">SIDE</text>
  <text x="355" y="58" font-size="12" font-weight="700" fill="#334155">FRONT</text>
  <text x="594" y="220" font-size="12" font-weight="700" fill="#334155">TOP</text>
  <line x1="150.0" y1="60" x2="150.0" y2="650" stroke="#e2e8f0" stroke-dasharray="4 4"/>
  <line x1="390.0" y1="60" x2="390.0" y2="650" stroke="#e2e8f0" stroke-dasharray="4 4"/>
  <circle cx="625.0" cy="380.0" r="57.4" fill="none" stroke="#94a3b8" stroke-dasharray="4 4"/>
  <rect x="130.9" y="76.0" width="38.3" height="11.4" rx="3" fill="#cbd5e1" stroke="#475569"/><rect x="130.9" y="87.4" width="38.3" height="9.2" rx="3" fill="#cbd5e1" stroke="#475569"/><rect x="130.9" y="96.6" width="38.3" height="9.2" rx="3" fill="#cbd5e1" stroke="#475569"/><rect x="130.9" y="105.8" width="38.3" height="9.2" rx="3" fill="#cbd5e1" stroke="#475569"/><path d="M 130.9 127.9 L 130.9 76.0 Q 130.9 65.1 150.0 51.1 Q 169.1 65.1 169.1 76.0 L 169.1 127.9 Z" fill="#fde68a" stroke="#d97706" stroke-width="1.4" opacity="0.55"/><rect x="130.9" y="127.9" width="38.3" height="3.1" rx="3" fill="#cbd5e1" stroke="#475569"/><rect x="130.9" y="130.9" width="38.3" height="58.0" rx="3" fill="#cbd5e1" stroke="#475569"/><polygon points="140.6,188.9 159.4,188.9 163.8,214.3 136.2,214.3" fill="#f87171" stroke="#991b1b"/><rect x="130.9" y="214.3" width="38.3" height="3.1" rx="3" fill="#cbd5e1" stroke="#475569"/><rect x="92.6" y="217.4" width="114.8" height="229.0" rx="3" fill="#cbd5e1" stroke="#475569"/><polygon points="131.3,446.3 168.7,446.3 177.6,537.3 122.4,537.3" fill="#f87171" stroke="#991b1b"/><rect x="145.4" y="74.1" width="38.3" height="18.4" rx="3" fill="#cbd5e1" stroke="#475569"/><rect x="116.3" y="77.1" width="38.3" height="12.2" rx="3" fill="#cbd5e1" stroke="#475569"/><rect x="130.9" y="78.7" width="38.3" height="9.2" rx="3" fill="#cbd5e1" stroke="#475569"/><rect x="130.9" y="78.7" width="38.3" height="9.2" rx="3" fill="#cbd5e1" stroke="#475569"/><rect x="141.0" y="81.1" width="38.3" height="15.3" rx="3" fill="#cbd5e1" stroke="#475569"/><polygon points="219.6,381.4 211.6,414.8 227.6,414.8" fill="#94a3b8" stroke="#475569" opacity="0.88"/><polygon points="199.2,381.4 191.2,414.8 207.2,414.8" fill="#94a3b8" stroke="#475569" opacity="0.88"/><polygon points="150.0,381.4 142.0,414.8 158.0,414.8" fill="#94a3b8" stroke="#475569" opacity="0.88"/><polygon points="100.8,381.4 92.8,414.8 108.8,414.8" fill="#94a3b8" stroke="#475569" opacity="0.88"/><polygon points="80.4,381.4 72.4,414.8 88.4,414.8" fill="#94a3b8" stroke="#475569" opacity="0.88"/><polygon points="100.8,381.4 92.8,414.8 108.8,414.8" fill="#94a3b8" stroke="#475569" opacity="0.88"/><polygon points="150.0,381.4 142.0,414.8 158.0,414.8" fill="#94a3b8" stroke="#475569" opacity="0.88"/><polygon points="199.2,381.4 191.2,414.8 207.2,414.8" fill="#94a3b8" stroke="#475569" opacity="0.88"/>
  <rect x="370.9" y="76.0" width="38.3" height="11.4" rx="3" fill="#cbd5e1" stroke="#475569"/><rect x="370.9" y="87.4" width="38.3" height="9.2" rx="3" fill="#cbd5e1" stroke="#475569"/><rect x="370.9" y="96.6" width="38.3" height="9.2" rx="3" fill="#cbd5e1" stroke="#475569"/><rect x="370.9" y="105.8" width="38.3" height="9.2" rx="3" fill="#cbd5e1" stroke="#475569"/><path d="M 370.9 127.9 L 370.9 76.0 Q 370.9 65.1 390.0 51.1 Q 409.1 65.1 409.1 76.0 L 409.1 127.9 Z" fill="#fde68a" stroke="#d97706" stroke-width="1.4" opacity="0.55"/><rect x="370.9" y="127.9" width="38.3" height="3.1" rx="3" fill="#cbd5e1" stroke="#475569"/><rect x="370.9" y="130.9" width="38.3" height="58.0" rx="3" fill="#cbd5e1" stroke="#475569"/><polygon points="380.6,188.9 399.4,188.9 403.8,214.3 376.2,214.3" fill="#f87171" stroke="#991b1b"/><rect x="370.9" y="214.3" width="38.3" height="3.1" rx="3" fill="#cbd5e1" stroke="#475569"/><rect x="332.6" y="217.4" width="114.8" height="229.0" rx="3" fill="#cbd5e1" stroke="#475569"/><polygon points="371.3,446.3 408.7,446.3 417.6,537.3 362.4,537.3" fill="#f87171" stroke="#991b1b"/><rect x="370.9" y="74.1" width="38.3" height="18.4" rx="3" fill="#cbd5e1" stroke="#475569"/><rect x="370.9" y="77.1" width="38.3" height="12.2" rx="3" fill="#cbd5e1" stroke="#475569"/><rect x="385.4" y="78.7" width="38.3" height="9.2" rx="3" fill="#cbd5e1" stroke="#475569"/><rect x="356.3" y="78.7" width="38.3" height="9.2" rx="3" fill="#cbd5e1" stroke="#475569"/><rect x="381.0" y="81.1" width="38.3" height="15.3" rx="3" fill="#cbd5e1" stroke="#475569"/><polygon points="390.0,381.4 382.0,414.8 398.0,414.8" fill="#94a3b8" stroke="#475569" opacity="0.88"/><polygon points="439.2,381.4 431.2,414.8 447.2,414.8" fill="#94a3b8" stroke="#475569" opacity="0.88"/><polygon points="459.6,381.4 451.6,414.8 467.6,414.8" fill="#94a3b8" stroke="#475569" opacity="0.88"/><polygon points="439.2,381.4 431.2,414.8 447.2,414.8" fill="#94a3b8" stroke="#475569" opacity="0.88"/><polygon points="390.0,381.4 382.0,414.8 398.0,414.8" fill="#94a3b8" stroke="#475569" opacity="0.88"/><polygon points="340.8,381.4 332.8,414.8 348.8,414.8" fill="#94a3b8" stroke="#475569" opacity="0.88"/><polygon points="320.4,381.4 312.4,414.8 328.4,414.8" fill="#94a3b8" stroke="#475569" opacity="0.88"/><polygon points="340.8,381.4 332.8,414.8 348.8,414.8" fill="#94a3b8" stroke="#475569" opacity="0.88"/>
  <circle cx="625.0" cy="380.0" r="57.4" fill="#cbd5e1" stroke="#475569" opacity="0.30"/><circle cx="625.0" cy="380.0" r="38.3" fill="#f87171" stroke="#475569" opacity="0.30"/><circle cx="625.0" cy="380.0" r="19.1" fill="#cbd5e1" stroke="#475569" opacity="0.30"/><circle cx="625.0" cy="380.0" r="19.1" fill="#cbd5e1" stroke="#475569" opacity="0.30"/><circle cx="625.0" cy="380.0" r="19.1" fill="#cbd5e1" stroke="#475569" opacity="0.30"/><circle cx="625.0" cy="380.0" r="19.1" fill="#cbd5e1" stroke="#475569" opacity="0.30"/><circle cx="625.0" cy="380.0" r="19.1" fill="#fde68a" stroke="#475569" opacity="0.30"/><circle cx="625.0" cy="380.0" r="19.1" fill="#cbd5e1" stroke="#475569" opacity="0.30"/><circle cx="639.5" cy="380.0" r="19.1" fill="#cbd5e1" stroke="#334155" opacity="0.80"/><circle cx="610.5" cy="380.0" r="19.1" fill="#cbd5e1" stroke="#334155" opacity="0.80"/><circle cx="625.0" cy="394.5" r="19.1" fill="#cbd5e1" stroke="#334155" opacity="0.80"/><circle cx="625.0" cy="365.5" r="19.1" fill="#cbd5e1" stroke="#334155" opacity="0.80"/><circle cx="635.2" cy="390.2" r="19.1" fill="#cbd5e1" stroke="#334155" opacity="0.80"/><circle cx="694.6" cy="380.0" r="5.4" fill="#94a3b8" stroke="#334155" opacity="0.80"/><circle cx="674.2" cy="429.2" r="5.4" fill="#94a3b8" stroke="#334155" opacity="0.80"/><circle cx="625.0" cy="449.6" r="5.4" fill="#94a3b8" stroke="#334155" opacity="0.80"/><circle cx="575.8" cy="429.2" r="5.4" fill="#94a3b8" stroke="#334155" opacity="0.80"/><circle cx="555.4" cy="380.0" r="5.4" fill="#94a3b8" stroke="#334155" opacity="0.80"/><circle cx="575.8" cy="330.8" r="5.4" fill="#94a3b8" stroke="#334155" opacity="0.80"/><circle cx="625.0" cy="310.4" r="5.4" fill="#94a3b8" stroke="#334155" opacity="0.80"/><circle cx="674.2" cy="330.8" r="5.4" fill="#94a3b8" stroke="#334155" opacity="0.80"/>
  <text x="805" y="94" font-size="12" fill="#16a34a">PASS - slender body (4 &lt;= L/D &lt;= 19)</text><text x="805" y="116" font-size="12" fill="#16a34a">PASS - monotonic taper (widest toward base)</text><text x="805" y="138" font-size="12" fill="#16a34a">PASS - payload housed (fairing or capsule top)</text><text x="805" y="160" font-size="12" fill="#16a34a">PASS - engine at the base</text><text x="805" y="182" font-size="12" fill="#16a34a">PASS - controlled ascent margin</text><text x="805" y="204" font-size="12" fill="#16a34a">PASS - radial protrusions within ascent envelope</text><text x="805" y="226" font-size="12" fill="#16a34a">PASS - landing gear tip-over stable</text>
  <text x="805" y="258" font-size="12" fill="#0f172a">L/D 4.0:1</text><text x="805" y="276" font-size="12" fill="#0f172a">length 15.07 m</text><text x="805" y="294" font-size="12" fill="#0f172a">body dia 3.75 m</text><text x="805" y="312" font-size="12" fill="#0f172a">ascent span 4.9 m</text><text x="805" y="330" font-size="12" fill="#0f172a">full span 4.9 m</text><text x="805" y="348" font-size="12" fill="#0f172a">static 0.12 cal</text><text x="805" y="366" font-size="12" fill="#0f172a">Cd 0.232</text><text x="805" y="384" font-size="12" fill="#0f172a">drag loss 389.0 m/s</text><text x="805" y="402" font-size="12" fill="#0f172a">max-Q 88.4 kPa</text>
</svg>