<svg xmlns="http://www.w3.org/2000/svg" width="1080" height="700" viewBox="0 0 1080 700" font-family="system-ui,Segoe UI,sans-serif">
  <rect width="1080" height="700" fill="#f8fafc"/>
  <text x="30" y="32" font-size="19" font-weight="700" fill="#0f172a">Three-view design chart - AI-Duna-1</text>
  <text x="805" y="56" font-size="15" font-weight="700" fill="#16a34a">LOOKS LIKE A ROCKET</text>
  <text x="118" y="58" font-size="12" font-weight="700" fill="#334155">SIDE</text>
  <text x="355" y="58" font-size="12" font-weight="700" fill="#334155">FRONT</text>
  <text x="594" y="220" font-size="12" font-weight="700" fill="#334155">TOP</text>
  <line x1="150.0" y1="60" x2="150.0" y2="650" stroke="#e2e8f0" stroke-dasharray="4 4"/>
  <line x1="390.0" y1="60" x2="390.0" y2="650" stroke="#e2e8f0" stroke-dasharray="4 4"/>
  <circle cx="625.0" cy="380.0" r="22.2" fill="none" stroke="#94a3b8" stroke-dasharray="4 4"/>
  <rect x="142.6" y="76.0" width="14.8" height="12.4" rx="3" fill="#e2e8f0" stroke="#475569"/><rect x="142.6" y="88.4" width="14.8" height="2.3" rx="3" fill="#cbd5e1" stroke="#475569"/><rect x="142.6" y="90.7" width="14.8" height="1.2" rx="3" fill="#cbd5e1" stroke="#475569"/><rect x="142.6" y="91.9" width="14.8" height="2.4" rx="3" fill="#cbd5e1" stroke="#475569"/><rect x="142.6" y="94.2" width="14.8" height="4.7" rx="3" fill="#cbd5e1" stroke="#475569"/><rect x="142.6" y="99.0" width="14.8" height="4.7" rx="3" fill="#cbd5e1" stroke="#475569"/><rect x="142.6" y="103.7" width="14.8" height="4.7" rx="3" fill="#cbd5e1" stroke="#475569"/><path d="M 131.0 113.4 L 131.0 76.0 Q 131.0 65.3 150.0 51.3 Q 169.0 65.3 169.0 76.0 L 169.0 113.4 Z" fill="#fde68a" stroke="#d97706" stroke-width="1.4" opacity="0.55"/><rect x="142.6" y="113.4" width="14.8" height="1.2" rx="3" fill="#cbd5e1" stroke="#475569"/><rect x="135.2" y="114.6" width="29.6" height="10.8" rx="3" fill="#cbd5e1" stroke="#475569"/><rect x="135.2" y="125.3" width="29.6" height="10.8" rx="3" fill="#cbd5e1" stroke="#475569"/><rect x="135.2" y="136.1" width="29.6" height="10.8" rx="3" fill="#cbd5e1" stroke="#475569"/><polygon points="146.4,146.9 153.6,146.9 155.3,156.7 144.7,156.7" fill="#f87171" stroke="#991b1b"/><rect x="142.6" y="156.7" width="14.8" height="1.2" rx="3" fill="#cbd5e1" stroke="#475569"/><rect x="135.2" y="157.9" width="29.6" height="10.8" rx="3" fill="#cbd5e1" stroke="#475569"/><rect x="127.8" y="168.7" width="44.4" height="9.8" rx="2" fill="#cbd5e1" stroke="#64748b" stroke-dasharray="3 2" opacity="0.45"/><polygon points="146.4,168.7 153.6,168.7 155.3,178.5 144.7,178.5" fill="#f87171" stroke="#991b1b"/><rect x="142.6" y="178.5" width="14.8" height="1.2" rx="3" fill="#cbd5e1" stroke="#475569"/><rect x="127.8" y="179.7" width="44.4" height="26.7" rx="3" fill="#cbd5e1" stroke="#475569"/><rect x="127.8" y="206.4" width="44.4" height="22.8" rx="3" fill="#cbd5e1" stroke="#475569"/><rect x="127.8" y="229.2" width="44.4" height="22.8" rx="3" fill="#cbd5e1" stroke="#475569"/><rect x="127.8" y="252.0" width="44.4" height="22.8" rx="3" fill="#cbd5e1" stroke="#475569"/><rect x="127.8" y="274.9" width="44.4" height="22.8" rx="3" fill="#cbd5e1" stroke="#475569"/><rect x="127.8" y="297.7" width="44.4" height="22.8" rx="3" fill="#cbd5e1" stroke="#475569"/><rect x="127.8" y="320.5" width="44.4" height="22.8" rx="3" fill="#cbd5e1" stroke="#475569"/><rect x="127.8" y="343.4" width="44.4" height="22.8" rx="3" fill="#cbd5e1" stroke="#475569"/><rect x="127.8" y="366.2" width="44.4" height="22.8" rx="3" fill="#cbd5e1" stroke="#475569"/><rect x="127.8" y="389.0" width="44.4" height="22.8" rx="3" fill="#cbd5e1" stroke="#475569"/><rect x="127.8" y="411.9" width="44.4" height="22.8" rx="3" fill="#cbd5e1" stroke="#475569"/><rect x="127.8" y="434.7" width="44.4" height="22.8" rx="3" fill="#cbd5e1" stroke="#475569"/><rect x="127.8" y="457.5" width="44.4" height="22.8" rx="3" fill="#cbd5e1" stroke="#475569"/><rect x="127.8" y="480.4" width="44.4" height="22.8" rx="3" fill="#cbd5e1" stroke="#475569"/><rect x="127.8" y="503.2" width="44.4" height="22.8" rx="3" fill="#cbd5e1" stroke="#475569"/><rect x="127.8" y="526.0" width="44.4" height="22.8" rx="3" fill="#cbd5e1" stroke="#475569"/><rect x="127.8" y="548.9" width="44.4" height="22.8" rx="3" fill="#cbd5e1" stroke="#475569"/><rect x="127.8" y="571.7" width="44.4" height="22.8" rx="3" fill="#cbd5e1" stroke="#475569"/><polygon points="142.7,594.5 157.3,594.5 160.7,636.0 139.3,636.0" fill="#f87171" stroke="#991b1b"/><rect x="137.7" y="82.1" width="7.4" height="1.0" rx="3" fill="#cbd5e1" stroke="#475569"/><rect x="142.0" y="82.1" width="7.4" height="1.0" rx="3" fill="#cbd5e1" stroke="#475569"/><rect x="150.6" y="82.1" width="7.4" height="1.0" rx="3" fill="#cbd5e1" stroke="#475569"/><rect x="154.9" y="82.1" width="7.4" height="1.0" rx="3" fill="#cbd5e1" stroke="#475569"/><rect x="156.7" y="81.7" width="7.4" height="2.1" rx="3" fill="#cbd5e1" stroke="#475569"/><rect x="132.2" y="81.5" width="14.8" height="2.6" rx="3" fill="#cbd5e1" stroke="#475569"/><rect x="135.2" y="76.9" width="14.8" height="11.8" rx="3" fill="#cbd5e1" stroke="#475569"/><rect x="150.0" y="76.9" width="14.8" height="11.8" rx="3" fill="#cbd5e1" stroke="#475569"/><rect x="146.3" y="81.1" width="7.4" height="7.7" rx="3" fill="#cbd5e1" stroke="#475569"/><line x1="176.6" y1="153.2" x2="176.6" y2="179.0" stroke="#64748b" stroke-width="3" stroke-linecap="round"/><line x1="163.3" y1="153.2" x2="163.3" y2="179.0" stroke="#64748b" stroke-width="3" stroke-linecap="round"/><line x1="136.7" y1="153.2" x2="136.7" y2="179.0" stroke="#64748b" stroke-width="3" stroke-linecap="round"/><line x1="123.4" y1="153.2" x2="123.4" y2="179.0" stroke="#64748b" stroke-width="3" stroke-linecap="round"/><line x1="136.7" y1="153.2" x2="136.7" y2="179.0" stroke="#64748b" stroke-width="3" stroke-linecap="round"/><line x1="163.3" y1="153.2" x2="163.3" y2="179.0" stroke="#64748b" stroke-width="3" stroke-linecap="round"/><polygon points="177.0,582.9 169.0,612.7 185.0,612.7" fill="#94a3b8" stroke="#475569" opacity="0.88"/><polygon points="169.1,582.9 161.1,612.7 177.1,612.7" fill="#94a3b8" stroke="#475569" opacity="0.88"/><polygon points="150.0,582.9 142.0,612.7 158.0,612.7" fill="#94a3b8" stroke="#475569" opacity="0.88"/><polygon points="130.9,582.9 122.9,612.7 138.9,612.7" fill="#94a3b8" stroke="#475569" opacity="0.88"/><polygon points="123.0,582.9 115.0,612.7 131.0,612.7" fill="#94a3b8" stroke="#475569" opacity="0.88"/><polygon points="130.9,582.9 122.9,612.7 138.9,612.7" fill="#94a3b8" stroke="#475569" opacity="0.88"/><polygon points="150.0,582.9 142.0,612.7 158.0,612.7" fill="#94a3b8" stroke="#475569" opacity="0.88"/><polygon points="169.1,582.9 161.1,612.7 177.1,612.7" fill="#94a3b8" stroke="#475569" opacity="0.88"/><polygon points="164.1,594.5 178.6,594.5 182.0,636.0 160.7,636.0" fill="#f87171" stroke="#991b1b"/><polygon points="132.1,594.5 146.6,594.5 150.0,636.0 128.7,636.0" fill="#f87171" stroke="#991b1b"/><polygon points="132.1,594.5 146.6,594.5 150.0,636.0 128.7,636.0" fill="#f87171" stroke="#991b1b"/>
  <rect x="382.6" y="76.0" width="14.8" height="12.4" rx="3" fill="#e2e8f0" stroke="#475569"/><rect x="382.6" y="88.4" width="14.8" height="2.3" rx="3" fill="#cbd5e1" stroke="#475569"/><rect x="382.6" y="90.7" width="14.8" height="1.2" rx="3" fill="#cbd5e1" stroke="#475569"/><rect x="382.6" y="91.9" width="14.8" height="2.4" rx="3" fill="#cbd5e1" stroke="#475569"/><rect x="382.6" y="94.2" width="14.8" height="4.7" rx="3" fill="#cbd5e1" stroke="#475569"/><rect x="382.6" y="99.0" width="14.8" height="4.7" rx="3" fill="#cbd5e1" stroke="#475569"/><rect x="382.6" y="103.7" width="14.8" height="4.7" rx="3" fill="#cbd5e1" stroke="#475569"/><path d="M 371.0 113.4 L 371.0 76.0 Q 371.0 65.3 390.0 51.3 Q 409.0 65.3 409.0 76.0 L 409.0 113.4 Z" fill="#fde68a" stroke="#d97706" stroke-width="1.4" opacity="0.55"/><rect x="382.6" y="113.4" width="14.8" height="1.2" rx="3" fill="#cbd5e1" stroke="#475569"/><rect x="375.2" y="114.6" width="29.6" height="10.8" rx="3" fill="#cbd5e1" stroke="#475569"/><rect x="375.2" y="125.3" width="29.6" height="10.8" rx="3" fill="#cbd5e1" stroke="#475569"/><rect x="375.2" y="136.1" width="29.6" height="10.8" rx="3" fill="#cbd5e1" stroke="#475569"/><polygon points="386.4,146.9 393.6,146.9 395.3,156.7 384.7,156.7" fill="#f87171" stroke="#991b1b"/><rect x="382.6" y="156.7" width="14.8" height="1.2" rx="3" fill="#cbd5e1" stroke="#475569"/><rect x="375.2" y="157.9" width="29.6" height="10.8" rx="3" fill="#cbd5e1" stroke="#475569"/><rect x="367.8" y="168.7" width="44.4" height="9.8" rx="2" fill="#cbd5e1" stroke="#64748b" stroke-dasharray="3 2" opacity="0.45"/><polygon points="386.4,168.7 393.6,168.7 395.3,178.5 384.7,178.5" fill="#f87171" stroke="#991b1b"/><rect x="382.6" y="178.5" width="14.8" height="1.2" rx="3" fill="#cbd5e1" stroke="#475569"/><rect x="367.8" y="179.7" width="44.4" height="26.7" rx="3" fill="#cbd5e1" stroke="#475569"/><rect x="367.8" y="206.4" width="44.4" height="22.8" rx="3" fill="#cbd5e1" stroke="#475569"/><rect x="367.8" y="229.2" width="44.4" height="22.8" rx="3" fill="#cbd5e1" stroke="#475569"/><rect x="367.8" y="252.0" width="44.4" height="22.8" rx="3" fill="#cbd5e1" stroke="#475569"/><rect x="367.8" y="274.9" width="44.4" height="22.8" rx="3" fill="#cbd5e1" stroke="#475569"/><rect x="367.8" y="297.7" width="44.4" height="22.8" rx="3" fill="#cbd5e1" stroke="#475569"/><rect x="367.8" y="320.5" width="44.4" height="22.8" rx="3" fill="#cbd5e1" stroke="#475569"/><rect x="367.8" y="343.4" width="44.4" height="22.8" rx="3" fill="#cbd5e1" stroke="#475569"/><rect x="367.8" y="366.2" width="44.4" height="22.8" rx="3" fill="#cbd5e1" stroke="#475569"/><rect x="367.8" y="389.0" width="44.4" height="22.8" rx="3" fill="#cbd5e1" stroke="#475569"/><rect x="367.8" y="411.9" width="44.4" height="22.8" rx="3" fill="#cbd5e1" stroke="#475569"/><rect x="367.8" y="434.7" width="44.4" height="22.8" rx="3" fill="#cbd5e1" stroke="#475569"/><rect x="367.8" y="457.5" width="44.4" height="22.8" rx="3" fill="#cbd5e1" stroke="#475569"/><rect x="367.8" y="480.4" width="44.4" height="22.8" rx="3" fill="#cbd5e1" stroke="#475569"/><rect x="367.8" y="503.2" width="44.4" height="22.8" rx="3" fill="#cbd5e1" stroke="#475569"/><rect x="367.8" y="526.0" width="44.4" height="22.8" rx="3" fill="#cbd5e1" stroke="#475569"/><rect x="367.8" y="548.9" width="44.4" height="22.8" rx="3" fill="#cbd5e1" stroke="#475569"/><rect x="367.8" y="571.7" width="44.4" height="22.8" rx="3" fill="#cbd5e1" stroke="#475569"/><polygon points="382.7,594.5 397.3,594.5 400.7,636.0 379.3,636.0" fill="#f87171" stroke="#991b1b"/><rect x="386.3" y="82.1" width="7.4" height="1.0" rx="3" fill="#cbd5e1" stroke="#475569"/><rect x="378.8" y="82.1" width="7.4" height="1.0" rx="3" fill="#cbd5e1" stroke="#475569"/><rect x="378.8" y="82.1" width="7.4" height="1.0" rx="3" fill="#cbd5e1" stroke="#475569"/><rect x="386.3" y="82.1" width="7.4" height="1.0" rx="3" fill="#cbd5e1" stroke="#475569"/><rect x="386.3" y="81.7" width="7.4" height="2.1" rx="3" fill="#cbd5e1" stroke="#475569"/><rect x="382.6" y="81.5" width="14.8" height="2.6" rx="3" fill="#cbd5e1" stroke="#475569"/><rect x="375.2" y="76.9" width="14.8" height="11.8" rx="3" fill="#cbd5e1" stroke="#475569"/><rect x="375.2" y="76.9" width="14.8" height="11.8" rx="3" fill="#cbd5e1" stroke="#475569"/><rect x="375.9" y="81.1" width="7.4" height="7.7" rx="3" fill="#cbd5e1" stroke="#475569"/><line x1="390.0" y1="153.2" x2="390.0" y2="179.0" stroke="#64748b" stroke-width="3" stroke-linecap="round"/><line x1="413.0" y1="153.2" x2="413.0" y2="179.0" stroke="#64748b" stroke-width="3" stroke-linecap="round"/><line x1="413.0" y1="153.2" x2="413.0" y2="179.0" stroke="#64748b" stroke-width="3" stroke-linecap="round"/><line x1="390.0" y1="153.2" x2="390.0" y2="179.0" stroke="#64748b" stroke-width="3" stroke-linecap="round"/><line x1="367.0" y1="153.2" x2="367.0" y2="179.0" stroke="#64748b" stroke-width="3" stroke-linecap="round"/><line x1="367.0" y1="153.2" x2="367.0" y2="179.0" stroke="#64748b" stroke-width="3" stroke-linecap="round"/><polygon points="390.0,582.9 382.0,612.7 398.0,612.7" fill="#94a3b8" stroke="#475569" opacity="0.88"/><polygon points="409.1,582.9 401.1,612.7 417.1,612.7" fill="#94a3b8" stroke="#475569" opacity="0.88"/><polygon points="417.0,582.9 409.0,612.7 425.0,612.7" fill="#94a3b8" stroke="#475569" opacity="0.88"/><polygon points="409.1,582.9 401.1,612.7 417.1,612.7" fill="#94a3b8" stroke="#475569" opacity="0.88"/><polygon points="390.0,582.9 382.0,612.7 398.0,612.7" fill="#94a3b8" stroke="#475569" opacity="0.88"/><polygon points="370.9,582.9 362.9,612.7 378.9,612.7" fill="#94a3b8" stroke="#475569" opacity="0.88"/><polygon points="363.0,582.9 355.0,612.7 371.0,612.7" fill="#94a3b8" stroke="#475569" opacity="0.88"/><polygon points="370.9,582.9 362.9,612.7 378.9,612.7" fill="#94a3b8" stroke="#475569" opacity="0.88"/><polygon points="382.7,594.5 397.3,594.5 400.7,636.0 379.3,636.0" fill="#f87171" stroke="#991b1b"/><polygon points="401.2,594.5 415.7,594.5 419.1,636.0 397.8,636.0" fill="#f87171" stroke="#991b1b"/><polygon points="364.3,594.5 378.8,594.5 382.2,636.0 360.9,636.0" fill="#f87171" stroke="#991b1b"/>
  <circle cx="625.0" cy="380.0" r="22.2" fill="#cbd5e1" stroke="#475569" opacity="0.30"/><circle cx="625.0" cy="380.0" r="22.2" fill="#cbd5e1" stroke="#475569" opacity="0.30"/><circle cx="625.0" cy="380.0" r="22.2" fill="#cbd5e1" stroke="#475569" opacity="0.30"/><circle cx="625.0" cy="380.0" r="22.2" fill="#cbd5e1" stroke="#475569" opacity="0.30"/><circle cx="625.0" cy="380.0" r="22.2" fill="#cbd5e1" stroke="#475569" opacity="0.30"/><circle cx="625.0" cy="380.0" r="22.2" fill="#cbd5e1" stroke="#475569" opacity="0.30"/><circle cx="625.0" cy="380.0" r="22.2" fill="#cbd5e1" stroke="#475569" opacity="0.30"/><circle cx="625.0" cy="380.0" r="22.2" fill="#cbd5e1" stroke="#475569" opacity="0.30"/><circle cx="616.4" cy="380.0" r="3.7" fill="#cbd5e1" stroke="#334155" opacity="0.80"/><circle cx="620.7" cy="372.5" r="3.7" fill="#cbd5e1" stroke="#334155" opacity="0.80"/><circle cx="629.3" cy="372.5" r="3.7" fill="#cbd5e1" stroke="#334155" opacity="0.80"/><circle cx="633.6" cy="380.0" r="3.7" fill="#cbd5e1" stroke="#334155" opacity="0.80"/><circle cx="646.3" cy="380.0" r="10.7" fill="#f87171" stroke="#334155" opacity="0.80"/><circle cx="614.3" cy="398.5" r="10.7" fill="#f87171" stroke="#334155" opacity="0.80"/><circle cx="614.3" cy="361.5" r="10.7" fill="#f87171" stroke="#334155" opacity="0.80"/><circle cx="635.4" cy="380.0" r="3.7" fill="#cbd5e1" stroke="#334155" opacity="0.80"/><circle cx="614.6" cy="380.0" r="7.4" fill="#cbd5e1" stroke="#334155" opacity="0.80"/><circle cx="617.6" cy="372.6" r="7.4" fill="#cbd5e1" stroke="#334155" opacity="0.80"/><circle cx="632.4" cy="372.6" r="7.4" fill="#cbd5e1" stroke="#334155" opacity="0.80"/><circle cx="625.0" cy="369.6" r="3.7" fill="#cbd5e1" stroke="#334155" opacity="0.80"/><circle cx="652.0" cy="380.0" r="2.5" fill="#94a3b8" stroke="#334155" opacity="0.80"/><circle cx="644.1" cy="399.1" r="2.5" fill="#94a3b8" stroke="#334155" opacity="0.80"/><circle cx="625.0" cy="407.0" r="2.5" fill="#94a3b8" stroke="#334155" opacity="0.80"/><circle cx="605.9" cy="399.1" r="2.5" fill="#94a3b8" stroke="#334155" opacity="0.80"/><circle cx="598.0" cy="380.0" r="2.5" fill="#94a3b8" stroke="#334155" opacity="0.80"/><circle cx="605.9" cy="360.9" r="2.5" fill="#94a3b8" stroke="#334155" opacity="0.80"/><circle cx="625.0" cy="353.0" r="2.5" fill="#94a3b8" stroke="#334155" opacity="0.80"/><circle cx="644.1" cy="360.9" r="2.5" fill="#94a3b8" stroke="#334155" opacity="0.80"/><circle cx="651.6" cy="380.0" r="2.5" fill="#64748b" stroke="#334155" opacity="0.80"/><circle cx="638.3" cy="403.0" r="2.5" fill="#64748b" stroke="#334155" opacity="0.80"/><circle cx="611.7" cy="403.0" r="2.5" fill="#64748b" stroke="#334155" opacity="0.80"/><circle cx="598.4" cy="380.0" r="2.5" fill="#64748b" stroke="#334155" opacity="0.80"/><circle cx="611.7" cy="357.0" r="2.5" fill="#64748b" stroke="#334155" opacity="0.80"/><circle cx="638.3" cy="357.0" r="2.5" fill="#64748b" stroke="#334155" opacity="0.80"/>
  <text x="805" y="94" font-size="12" fill="#16a34a">PASS - slender body (4 &lt;= L/D &lt;= 19)</text><text x="805" y="116" font-size="12" fill="#16a34a">PASS - monotonic taper (widest toward base)</text><text x="805" y="138" font-size="12" fill="#16a34a">PASS - payload housed (fairing or capsule top)</text><text x="805" y="160" font-size="12" fill="#16a34a">PASS - payload fully enclosed (nothing protrudes the fairing)</text><text x="805" y="182" font-size="12" fill="#16a34a">PASS - engine at the base</text><text x="805" y="204" font-size="12" fill="#16a34a">PASS - upper-stage engine has interstage shroud</text><text x="805" y="226" font-size="12" fill="#16a34a">PASS - controlled ascent margin</text><text x="805" y="248" font-size="12" fill="#16a34a">PASS - radial protrusions within ascent envelope</text><text x="805" y="270" font-size="12" fill="#16a34a">PASS - landing gear tip-over stable</text>
  <text x="805" y="302" font-size="12" fill="#0f172a">L/D 12.6:1</text><text x="805" y="320" font-size="12" fill="#0f172a">length 47.26 m</text><text x="805" y="338" font-size="12" fill="#0f172a">body dia 3.75 m</text><text x="805" y="356" font-size="12" fill="#0f172a">core span 5.4 m</text><text x="805" y="374" font-size="12" fill="#0f172a">full span 5.4 m</text><text x="805" y="392" font-size="12" fill="#0f172a">static 0.32 cal</text><text x="805" y="410" font-size="12" fill="#0f172a">Cd 0.232</text><text x="805" y="428" font-size="12" fill="#0f172a">drag loss 91.0 m/s</text><text x="805" y="446" font-size="12" fill="#0f172a">max-Q 88.4 kPa</text>
</svg>