<svg xmlns="http://www.w3.org/2000/svg" width="1080" height="700" viewBox="0 0 1080 700" font-family="system-ui,Segoe UI,sans-serif">
  <rect width="1080" height="700" fill="#f8fafc"/>
  <text x="30" y="32" font-size="19" font-weight="700" fill="#0f172a">Three-view design chart - AI-Gilly-Lander</text>
  <text x="805" y="56" font-size="15" font-weight="700" fill="#dc2626">REJECTED - geometry gate failed</text>
  <text x="118" y="58" font-size="12" font-weight="700" fill="#334155">SIDE</text>
  <text x="355" y="58" font-size="12" font-weight="700" fill="#334155">FRONT</text>
  <text x="594" y="220" font-size="12" font-weight="700" fill="#334155">TOP</text>
  <line x1="150.0" y1="60" x2="150.0" y2="650" stroke="#e2e8f0" stroke-dasharray="4 4"/>
  <line x1="390.0" y1="60" x2="390.0" y2="650" stroke="#e2e8f0" stroke-dasharray="4 4"/>
  <circle cx="625.0" cy="380.0" r="11.7" fill="none" stroke="#94a3b8" stroke-dasharray="4 4"/>
  <rect x="138.3" y="76.0" width="23.3" height="5.2" rx="3" fill="#e2e8f0" stroke="#475569"/><rect x="138.3" y="81.2" width="23.3" height="19.6" rx="3" fill="#e2e8f0" stroke="#475569"/><rect x="138.3" y="100.8" width="23.3" height="3.7" rx="3" fill="#cbd5e1" stroke="#475569"/><rect x="138.3" y="104.6" width="23.3" height="1.9" rx="3" fill="#cbd5e1" stroke="#475569"/><rect x="138.3" y="106.4" width="23.3" height="7.0" rx="3" fill="#cbd5e1" stroke="#475569"/><rect x="138.3" y="113.4" width="23.3" height="35.0" rx="3" fill="#cbd5e1" stroke="#475569"/><rect x="138.3" y="148.5" width="23.3" height="11.2" rx="3" fill="#cbd5e1" stroke="#475569"/><rect x="138.3" y="159.7" width="23.3" height="5.6" rx="3" fill="#cbd5e1" stroke="#475569"/><rect x="138.3" y="165.3" width="23.3" height="5.6" rx="3" fill="#cbd5e1" stroke="#475569"/><rect x="138.3" y="170.9" width="23.3" height="5.6" rx="3" fill="#cbd5e1" stroke="#475569"/><rect x="138.3" y="176.5" width="23.3" height="1.9" rx="3" fill="#cbd5e1" stroke="#475569"/><rect x="138.3" y="178.3" width="23.3" height="70.3" rx="3" fill="#cbd5e1" stroke="#475569"/><polygon points="144.3,248.6 155.7,248.6 158.4,264.1 141.6,264.1" fill="#f87171" stroke="#991b1b"/><rect x="151.5" y="89.5" width="23.3" height="3.7" rx="3" fill="#cbd5e1" stroke="#475569"/><rect x="125.2" y="89.5" width="23.3" height="3.7" rx="3" fill="#cbd5e1" stroke="#475569"/><rect x="138.3" y="89.5" width="23.3" height="3.7" rx="3" fill="#cbd5e1" stroke="#475569"/><rect x="138.3" y="89.5" width="23.3" height="3.7" rx="3" fill="#cbd5e1" stroke="#475569"/><rect x="154.8" y="86.4" width="23.3" height="11.2" rx="3" fill="#cbd5e1" stroke="#475569"/><rect x="121.9" y="88.2" width="23.3" height="7.5" rx="3" fill="#cbd5e1" stroke="#475569"/><rect x="138.3" y="89.2" width="23.3" height="5.6" rx="3" fill="#cbd5e1" stroke="#475569"/><rect x="138.3" y="89.2" width="23.3" height="5.6" rx="3" fill="#cbd5e1" stroke="#475569"/><rect x="149.8" y="90.7" width="23.3" height="9.3" rx="3" fill="#cbd5e1" stroke="#475569"/><rect x="138.3" y="90.1" width="23.3" height="16.8" rx="3" fill="#cbd5e1" stroke="#475569"/><polygon points="169.1,226.4 161.1,253.7 177.1,253.7" fill="#94a3b8" stroke="#475569" opacity="0.88"/><polygon points="163.5,226.4 155.5,253.7 171.5,253.7" fill="#94a3b8" stroke="#475569" opacity="0.88"/><polygon points="150.0,226.4 142.0,253.7 158.0,253.7" fill="#94a3b8" stroke="#475569" opacity="0.88"/><polygon points="136.5,226.4 128.5,253.7 144.5,253.7" fill="#94a3b8" stroke="#475569" opacity="0.88"/><polygon points="130.9,226.4 122.9,253.7 138.9,253.7" fill="#94a3b8" stroke="#475569" opacity="0.88"/><polygon points="136.5,226.4 128.5,253.7 144.5,253.7" fill="#94a3b8" stroke="#475569" opacity="0.88"/><polygon points="150.0,226.4 142.0,253.7 158.0,253.7" fill="#94a3b8" stroke="#475569" opacity="0.88"/><polygon points="163.5,226.4 155.5,253.7 171.5,253.7" fill="#94a3b8" stroke="#475569" opacity="0.88"/><line x1="221.7" y1="263.2" x2="221.7" y2="286.5" stroke="#64748b" stroke-width="3" stroke-linecap="round"/><line x1="150.0" y1="263.2" x2="150.0" y2="286.5" stroke="#64748b" stroke-width="3" stroke-linecap="round"/><line x1="78.3" y1="263.2" x2="78.3" y2="286.5" stroke="#64748b" stroke-width="3" stroke-linecap="round"/><line x1="150.0" y1="263.2" x2="150.0" y2="286.5" stroke="#64748b" stroke-width="3" stroke-linecap="round"/>
  <rect x="378.3" y="76.0" width="23.3" height="5.2" rx="3" fill="#e2e8f0" stroke="#475569"/><rect x="378.3" y="81.2" width="23.3" height="19.6" rx="3" fill="#e2e8f0" stroke="#475569"/><rect x="378.3" y="100.8" width="23.3" height="3.7" rx="3" fill="#cbd5e1" stroke="#475569"/><rect x="378.3" y="104.6" width="23.3" height="1.9" rx="3" fill="#cbd5e1" stroke="#475569"/><rect x="378.3" y="106.4" width="23.3" height="7.0" rx="3" fill="#cbd5e1" stroke="#475569"/><rect x="378.3" y="113.4" width="23.3" height="35.0" rx="3" fill="#cbd5e1" stroke="#475569"/><rect x="378.3" y="148.5" width="23.3" height="11.2" rx="3" fill="#cbd5e1" stroke="#475569"/><rect x="378.3" y="159.7" width="23.3" height="5.6" rx="3" fill="#cbd5e1" stroke="#475569"/><rect x="378.3" y="165.3" width="23.3" height="5.6" rx="3" fill="#cbd5e1" stroke="#475569"/><rect x="378.3" y="170.9" width="23.3" height="5.6" rx="3" fill="#cbd5e1" stroke="#475569"/><rect x="378.3" y="176.5" width="23.3" height="1.9" rx="3" fill="#cbd5e1" stroke="#475569"/><rect x="378.3" y="178.3" width="23.3" height="70.3" rx="3" fill="#cbd5e1" stroke="#475569"/><polygon points="384.3,248.6 395.7,248.6 398.4,264.1 381.6,264.1" fill="#f87171" stroke="#991b1b"/><rect x="378.3" y="89.5" width="23.3" height="3.7" rx="3" fill="#cbd5e1" stroke="#475569"/><rect x="378.3" y="89.5" width="23.3" height="3.7" rx="3" fill="#cbd5e1" stroke="#475569"/><rect x="391.5" y="89.5" width="23.3" height="3.7" rx="3" fill="#cbd5e1" stroke="#475569"/><rect x="365.2" y="89.5" width="23.3" height="3.7" rx="3" fill="#cbd5e1" stroke="#475569"/><rect x="378.3" y="86.4" width="23.3" height="11.2" rx="3" fill="#cbd5e1" stroke="#475569"/><rect x="378.3" y="88.2" width="23.3" height="7.5" rx="3" fill="#cbd5e1" stroke="#475569"/><rect x="394.8" y="89.2" width="23.3" height="5.6" rx="3" fill="#cbd5e1" stroke="#475569"/><rect x="361.9" y="89.2" width="23.3" height="5.6" rx="3" fill="#cbd5e1" stroke="#475569"/><rect x="389.8" y="90.7" width="23.3" height="9.3" rx="3" fill="#cbd5e1" stroke="#475569"/><rect x="391.5" y="90.1" width="23.3" height="16.8" rx="3" fill="#cbd5e1" stroke="#475569"/><polygon points="390.0,226.4 382.0,253.7 398.0,253.7" fill="#94a3b8" stroke="#475569" opacity="0.88"/><polygon points="403.5,226.4 395.5,253.7 411.5,253.7" fill="#94a3b8" stroke="#475569" opacity="0.88"/><polygon points="409.1,226.4 401.1,253.7 417.1,253.7" fill="#94a3b8" stroke="#475569" opacity="0.88"/><polygon points="403.5,226.4 395.5,253.7 411.5,253.7" fill="#94a3b8" stroke="#475569" opacity="0.88"/><polygon points="390.0,226.4 382.0,253.7 398.0,253.7" fill="#94a3b8" stroke="#475569" opacity="0.88"/><polygon points="376.5,226.4 368.5,253.7 384.5,253.7" fill="#94a3b8" stroke="#475569" opacity="0.88"/><polygon points="370.9,226.4 362.9,253.7 378.9,253.7" fill="#94a3b8" stroke="#475569" opacity="0.88"/><polygon points="376.5,226.4 368.5,253.7 384.5,253.7" fill="#94a3b8" stroke="#475569" opacity="0.88"/><line x1="390.0" y1="263.2" x2="390.0" y2="286.5" stroke="#64748b" stroke-width="3" stroke-linecap="round"/><line x1="461.7" y1="263.2" x2="461.7" y2="286.5" stroke="#64748b" stroke-width="3" stroke-linecap="round"/><line x1="390.0" y1="263.2" x2="390.0" y2="286.5" stroke="#64748b" stroke-width="3" stroke-linecap="round"/><line x1="318.3" y1="263.2" x2="318.3" y2="286.5" stroke="#64748b" stroke-width="3" stroke-linecap="round"/>
  <circle cx="625.0" cy="380.0" r="11.7" fill="#e2e8f0" stroke="#475569" opacity="0.30"/><circle cx="625.0" cy="380.0" r="11.7" fill="#cbd5e1" stroke="#475569" opacity="0.30"/><circle cx="625.0" cy="380.0" r="11.7" fill="#cbd5e1" stroke="#475569" opacity="0.30"/><circle cx="625.0" cy="380.0" r="11.7" fill="#cbd5e1" stroke="#475569" opacity="0.30"/><circle cx="625.0" cy="380.0" r="11.7" fill="#cbd5e1" stroke="#475569" opacity="0.30"/><circle cx="625.0" cy="380.0" r="11.7" fill="#cbd5e1" stroke="#475569" opacity="0.30"/><circle cx="625.0" cy="380.0" r="11.7" fill="#cbd5e1" stroke="#475569" opacity="0.30"/><circle cx="625.0" cy="380.0" r="11.7" fill="#cbd5e1" stroke="#475569" opacity="0.30"/><circle cx="641.4" cy="380.0" r="11.7" fill="#cbd5e1" stroke="#334155" opacity="0.80"/><circle cx="608.6" cy="380.0" r="11.7" fill="#cbd5e1" stroke="#334155" opacity="0.80"/><circle cx="625.0" cy="396.4" r="11.7" fill="#cbd5e1" stroke="#334155" opacity="0.80"/><circle cx="625.0" cy="363.6" r="11.7" fill="#cbd5e1" stroke="#334155" opacity="0.80"/><circle cx="636.5" cy="391.5" r="11.7" fill="#cbd5e1" stroke="#334155" opacity="0.80"/><circle cx="638.2" cy="380.0" r="11.7" fill="#cbd5e1" stroke="#334155" opacity="0.80"/><circle cx="611.8" cy="380.0" r="11.7" fill="#cbd5e1" stroke="#334155" opacity="0.80"/><circle cx="625.0" cy="393.2" r="11.7" fill="#cbd5e1" stroke="#334155" opacity="0.80"/><circle cx="625.0" cy="366.8" r="11.7" fill="#cbd5e1" stroke="#334155" opacity="0.80"/><circle cx="625.0" cy="393.2" r="11.7" fill="#cbd5e1" stroke="#334155" opacity="0.80"/><circle cx="644.1" cy="380.0" r="3.3" fill="#94a3b8" stroke="#334155" opacity="0.80"/><circle cx="638.5" cy="393.5" r="3.3" fill="#94a3b8" stroke="#334155" opacity="0.80"/><circle cx="625.0" cy="399.1" r="3.3" fill="#94a3b8" stroke="#334155" opacity="0.80"/><circle cx="611.5" cy="393.5" r="3.3" fill="#94a3b8" stroke="#334155" opacity="0.80"/><circle cx="605.9" cy="380.0" r="3.3" fill="#94a3b8" stroke="#334155" opacity="0.80"/><circle cx="611.5" cy="366.5" r="3.3" fill="#94a3b8" stroke="#334155" opacity="0.80"/><circle cx="625.0" cy="360.9" r="3.3" fill="#94a3b8" stroke="#334155" opacity="0.80"/><circle cx="638.5" cy="366.5" r="3.3" fill="#94a3b8" stroke="#334155" opacity="0.80"/><circle cx="696.7" cy="380.0" r="3.3" fill="#64748b" stroke="#334155" opacity="0.80"/><circle cx="625.0" cy="451.7" r="3.3" fill="#64748b" stroke="#334155" opacity="0.80"/><circle cx="553.3" cy="380.0" r="3.3" fill="#64748b" stroke="#334155" opacity="0.80"/><circle cx="625.0" cy="308.3" r="3.3" fill="#64748b" stroke="#334155" opacity="0.80"/>
  <text x="805" y="94" font-size="12" fill="#16a34a">PASS - slender body (4 &lt;= L/D &lt;= 19)</text><text x="805" y="116" font-size="12" fill="#16a34a">PASS - monotonic taper (widest toward base)</text><text x="805" y="138" font-size="12" fill="#16a34a">PASS - payload housed (fairing or capsule top)</text><text x="805" y="160" font-size="12" fill="#16a34a">PASS - engine at the base</text><text x="805" y="182" font-size="12" fill="#16a34a">PASS - controlled ascent margin</text><text x="805" y="204" font-size="12" fill="#dc2626">FAIL - radial protrusions within ascent envelope</text><text x="805" y="226" font-size="12" fill="#16a34a">PASS - landing gear tip-over stable</text>
  <text x="805" y="258" font-size="12" fill="#0f172a">L/D 8.1:1</text><text x="805" y="276" font-size="12" fill="#0f172a">length 10.07 m</text><text x="805" y="294" font-size="12" fill="#0f172a">body dia 1.25 m</text><text x="805" y="312" font-size="12" fill="#0f172a">core span 3.01 m</text><text x="805" y="330" font-size="12" fill="#0f172a">full span 8.03 m</text><text x="805" y="348" font-size="12" fill="#0f172a">static 0.53 cal</text><text x="805" y="366" font-size="12" fill="#0f172a">Cd 0.232</text><text x="805" y="384" font-size="12" fill="#0f172a">drag loss 558.0 m/s</text><text x="805" y="402" font-size="12" fill="#0f172a">max-Q 88.4 kPa</text>
</svg>