<svg xmlns="http://www.w3.org/2000/svg" width="1080" height="700" viewBox="0 0 1080 700" font-family="system-ui,Segoe UI,sans-serif">
  <rect width="1080" height="700" fill="#f8fafc"/>
  <text x="30" y="32" font-size="19" font-weight="700" fill="#0f172a">Three-view design chart - AI-Eve-Crew5</text>
  <text x="805" y="56" font-size="15" font-weight="700" fill="#16a34a">LOOKS LIKE A ROCKET</text>
  <text x="118" y="58" font-size="12" font-weight="700" fill="#334155">SIDE</text>
  <text x="355" y="58" font-size="12" font-weight="700" fill="#334155">FRONT</text>
  <text x="594" y="220" font-size="12" font-weight="700" fill="#334155">TOP</text>
  <line x1="150.0" y1="60" x2="150.0" y2="650" stroke="#e2e8f0" stroke-dasharray="4 4"/>
  <line x1="390.0" y1="60" x2="390.0" y2="650" stroke="#e2e8f0" stroke-dasharray="4 4"/>
  <circle cx="625.0" cy="380.0" r="22.3" fill="none" stroke="#94a3b8" stroke-dasharray="4 4"/>
  <polygon points="150.0,76.0 138.8,88.5 161.2,88.5" fill="#e2e8f0" stroke="#475569"/><rect x="138.8" y="88.5" width="22.3" height="18.8" rx="3" fill="#e2e8f0" stroke="#475569"/><rect x="138.8" y="107.2" width="22.3" height="3.6" rx="3" fill="#cbd5e1" stroke="#475569"/><rect x="138.8" y="110.8" width="22.3" height="1.8" rx="3" fill="#cbd5e1" stroke="#475569"/><rect x="138.8" y="112.6" width="22.3" height="6.7" rx="3" fill="#cbd5e1" stroke="#475569"/><rect x="138.8" y="119.3" width="22.3" height="33.5" rx="3" fill="#cbd5e1" stroke="#475569"/><rect x="138.8" y="152.8" width="22.3" height="5.4" rx="3" fill="#cbd5e1" stroke="#475569"/><rect x="138.8" y="158.1" width="22.3" height="5.4" rx="3" fill="#cbd5e1" stroke="#475569"/><rect x="138.8" y="163.5" width="22.3" height="5.4" rx="3" fill="#cbd5e1" stroke="#475569"/><rect x="138.8" y="168.8" width="22.3" height="1.8" rx="3" fill="#cbd5e1" stroke="#475569"/><rect x="127.7" y="170.6" width="44.6" height="66.4" rx="3" fill="#cbd5e1" stroke="#475569"/><polygon points="139.1,237.1 160.9,237.1 166.1,279.5 133.9,279.5" fill="#f87171" stroke="#991b1b"/><rect x="138.8" y="279.5" width="22.3" height="1.8" rx="3" fill="#cbd5e1" stroke="#475569"/><rect x="127.7" y="281.2" width="44.6" height="66.4" rx="3" fill="#cbd5e1" stroke="#475569"/><rect x="127.7" y="347.7" width="44.6" height="66.4" rx="3" fill="#cbd5e1" stroke="#475569"/><rect x="127.7" y="414.1" width="44.6" height="66.4" rx="3" fill="#cbd5e1" stroke="#475569"/><polygon points="139.1,480.5 160.9,480.5 166.1,533.6 133.9,533.6" fill="#f87171" stroke="#991b1b"/><rect x="151.8" y="94.8" width="22.3" height="6.2" rx="3" fill="#cbd5e1" stroke="#475569"/><rect x="125.8" y="94.8" width="22.3" height="6.2" rx="3" fill="#cbd5e1" stroke="#475569"/><rect x="154.6" y="93.4" width="22.3" height="10.7" rx="3" fill="#cbd5e1" stroke="#475569"/><rect x="123.1" y="95.2" width="22.3" height="7.1" rx="3" fill="#cbd5e1" stroke="#475569"/><rect x="138.8" y="96.1" width="22.3" height="5.4" rx="3" fill="#cbd5e1" stroke="#475569"/><rect x="138.8" y="96.1" width="22.3" height="5.4" rx="3" fill="#cbd5e1" stroke="#475569"/><rect x="149.8" y="97.5" width="22.3" height="8.9" rx="3" fill="#cbd5e1" stroke="#475569"/><line x1="218.8" y1="278.6" x2="218.8" y2="301.5" stroke="#64748b" stroke-width="3" stroke-linecap="round"/><line x1="184.4" y1="278.6" x2="184.4" y2="301.5" stroke="#64748b" stroke-width="3" stroke-linecap="round"/><line x1="115.6" y1="278.6" x2="115.6" y2="301.5" stroke="#64748b" stroke-width="3" stroke-linecap="round"/><line x1="81.2" y1="278.6" x2="81.2" y2="301.5" stroke="#64748b" stroke-width="3" stroke-linecap="round"/><line x1="115.6" y1="278.6" x2="115.6" y2="301.5" stroke="#64748b" stroke-width="3" stroke-linecap="round"/><line x1="184.4" y1="278.6" x2="184.4" y2="301.5" stroke="#64748b" stroke-width="3" stroke-linecap="round"/><rect x="180.4" y="281.3" width="44.6" height="66.4" rx="3" fill="#cbd5e1" stroke="#475569"/><rect x="127.7" y="281.3" width="44.6" height="66.4" rx="3" fill="#cbd5e1" stroke="#475569"/><rect x="75.0" y="281.3" width="44.6" height="66.4" rx="3" fill="#cbd5e1" stroke="#475569"/><rect x="127.7" y="281.3" width="44.6" height="66.4" rx="3" fill="#cbd5e1" stroke="#475569"/><rect x="180.4" y="347.7" width="44.6" height="66.4" rx="3" fill="#cbd5e1" stroke="#475569"/><rect x="127.7" y="347.7" width="44.6" height="66.4" rx="3" fill="#cbd5e1" stroke="#475569"/><rect x="75.0" y="347.7" width="44.6" height="66.4" rx="3" fill="#cbd5e1" stroke="#475569"/><rect x="127.7" y="347.7" width="44.6" height="66.4" rx="3" fill="#cbd5e1" stroke="#475569"/><rect x="172.3" y="388.8" width="10.7" height="10.7" rx="3" fill="#cbd5e1" stroke="#475569"/><rect x="144.6" y="388.8" width="10.7" height="10.7" rx="3" fill="#cbd5e1" stroke="#475569"/><rect x="117.0" y="388.8" width="10.7" height="10.7" rx="3" fill="#cbd5e1" stroke="#475569"/><rect x="144.6" y="388.8" width="10.7" height="10.7" rx="3" fill="#cbd5e1" stroke="#475569"/><rect x="180.4" y="414.1" width="44.6" height="66.4" rx="3" fill="#cbd5e1" stroke="#475569"/><rect x="127.7" y="414.1" width="44.6" height="66.4" rx="3" fill="#cbd5e1" stroke="#475569"/><rect x="75.0" y="414.1" width="44.6" height="66.4" rx="3" fill="#cbd5e1" stroke="#475569"/><rect x="127.7" y="414.1" width="44.6" height="66.4" rx="3" fill="#cbd5e1" stroke="#475569"/><polygon points="179.5,459.5 171.5,486.4 187.5,486.4" fill="#94a3b8" stroke="#475569" opacity="0.88"/><polygon points="170.8,459.5 162.8,486.4 178.8,486.4" fill="#94a3b8" stroke="#475569" opacity="0.88"/><polygon points="150.0,459.5 142.0,486.4 158.0,486.4" fill="#94a3b8" stroke="#475569" opacity="0.88"/><polygon points="129.2,459.5 121.2,486.4 137.2,486.4" fill="#94a3b8" stroke="#475569" opacity="0.88"/><polygon points="120.5,459.5 112.5,486.4 128.5,486.4" fill="#94a3b8" stroke="#475569" opacity="0.88"/><polygon points="129.2,459.5 121.2,486.4 137.2,486.4" fill="#94a3b8" stroke="#475569" opacity="0.88"/><polygon points="150.0,459.5 142.0,486.4 158.0,486.4" fill="#94a3b8" stroke="#475569" opacity="0.88"/><polygon points="170.8,459.5 162.8,486.4 178.8,486.4" fill="#94a3b8" stroke="#475569" opacity="0.88"/><polygon points="191.8,480.5 213.6,480.5 218.8,533.6 186.6,533.6" fill="#f87171" stroke="#991b1b"/><polygon points="139.1,480.5 160.9,480.5 166.1,533.6 133.9,533.6" fill="#f87171" stroke="#991b1b"/><polygon points="86.4,480.5 108.3,480.5 113.4,533.6 81.3,533.6" fill="#f87171" stroke="#991b1b"/><polygon points="139.1,480.5 160.9,480.5 166.1,533.6 133.9,533.6" fill="#f87171" stroke="#991b1b"/>
  <polygon points="390.0,76.0 378.8,88.5 401.2,88.5" fill="#e2e8f0" stroke="#475569"/><rect x="378.8" y="88.5" width="22.3" height="18.8" rx="3" fill="#e2e8f0" stroke="#475569"/><rect x="378.8" y="107.2" width="22.3" height="3.6" rx="3" fill="#cbd5e1" stroke="#475569"/><rect x="378.8" y="110.8" width="22.3" height="1.8" rx="3" fill="#cbd5e1" stroke="#475569"/><rect x="378.8" y="112.6" width="22.3" height="6.7" rx="3" fill="#cbd5e1" stroke="#475569"/><rect x="378.8" y="119.3" width="22.3" height="33.5" rx="3" fill="#cbd5e1" stroke="#475569"/><rect x="378.8" y="152.8" width="22.3" height="5.4" rx="3" fill="#cbd5e1" stroke="#475569"/><rect x="378.8" y="158.1" width="22.3" height="5.4" rx="3" fill="#cbd5e1" stroke="#475569"/><rect x="378.8" y="163.5" width="22.3" height="5.4" rx="3" fill="#cbd5e1" stroke="#475569"/><rect x="378.8" y="168.8" width="22.3" height="1.8" rx="3" fill="#cbd5e1" stroke="#475569"/><rect x="367.7" y="170.6" width="44.6" height="66.4" rx="3" fill="#cbd5e1" stroke="#475569"/><polygon points="379.1,237.1 400.9,237.1 406.1,279.5 373.9,279.5" fill="#f87171" stroke="#991b1b"/><rect x="378.8" y="279.5" width="22.3" height="1.8" rx="3" fill="#cbd5e1" stroke="#475569"/><rect x="367.7" y="281.2" width="44.6" height="66.4" rx="3" fill="#cbd5e1" stroke="#475569"/><rect x="367.7" y="347.7" width="44.6" height="66.4" rx="3" fill="#cbd5e1" stroke="#475569"/><rect x="367.7" y="414.1" width="44.6" height="66.4" rx="3" fill="#cbd5e1" stroke="#475569"/><polygon points="379.1,480.5 400.9,480.5 406.1,533.6 373.9,533.6" fill="#f87171" stroke="#991b1b"/><rect x="378.8" y="94.8" width="22.3" height="6.2" rx="3" fill="#cbd5e1" stroke="#475569"/><rect x="378.8" y="94.8" width="22.3" height="6.2" rx="3" fill="#cbd5e1" stroke="#475569"/><rect x="378.8" y="93.4" width="22.3" height="10.7" rx="3" fill="#cbd5e1" stroke="#475569"/><rect x="378.8" y="95.2" width="22.3" height="7.1" rx="3" fill="#cbd5e1" stroke="#475569"/><rect x="394.6" y="96.1" width="22.3" height="5.4" rx="3" fill="#cbd5e1" stroke="#475569"/><rect x="363.1" y="96.1" width="22.3" height="5.4" rx="3" fill="#cbd5e1" stroke="#475569"/><rect x="389.8" y="97.5" width="22.3" height="8.9" rx="3" fill="#cbd5e1" stroke="#475569"/><line x1="390.0" y1="278.6" x2="390.0" y2="301.5" stroke="#64748b" stroke-width="3" stroke-linecap="round"/><line x1="449.5" y1="278.6" x2="449.5" y2="301.5" stroke="#64748b" stroke-width="3" stroke-linecap="round"/><line x1="449.5" y1="278.6" x2="449.5" y2="301.5" stroke="#64748b" stroke-width="3" stroke-linecap="round"/><line x1="390.0" y1="278.6" x2="390.0" y2="301.5" stroke="#64748b" stroke-width="3" stroke-linecap="round"/><line x1="330.5" y1="278.6" x2="330.5" y2="301.5" stroke="#64748b" stroke-width="3" stroke-linecap="round"/><line x1="330.5" y1="278.6" x2="330.5" y2="301.5" stroke="#64748b" stroke-width="3" stroke-linecap="round"/><rect x="367.7" y="281.3" width="44.6" height="66.4" rx="3" fill="#cbd5e1" stroke="#475569"/><rect x="420.4" y="281.3" width="44.6" height="66.4" rx="3" fill="#cbd5e1" stroke="#475569"/><rect x="367.7" y="281.3" width="44.6" height="66.4" rx="3" fill="#cbd5e1" stroke="#475569"/><rect x="315.0" y="281.3" width="44.6" height="66.4" rx="3" fill="#cbd5e1" stroke="#475569"/><rect x="367.7" y="347.7" width="44.6" height="66.4" rx="3" fill="#cbd5e1" stroke="#475569"/><rect x="420.4" y="347.7" width="44.6" height="66.4" rx="3" fill="#cbd5e1" stroke="#475569"/><rect x="367.7" y="347.7" width="44.6" height="66.4" rx="3" fill="#cbd5e1" stroke="#475569"/><rect x="315.0" y="347.7" width="44.6" height="66.4" rx="3" fill="#cbd5e1" stroke="#475569"/><rect x="384.6" y="388.8" width="10.7" height="10.7" rx="3" fill="#cbd5e1" stroke="#475569"/><rect x="412.3" y="388.8" width="10.7" height="10.7" rx="3" fill="#cbd5e1" stroke="#475569"/><rect x="384.6" y="388.8" width="10.7" height="10.7" rx="3" fill="#cbd5e1" stroke="#475569"/><rect x="357.0" y="388.8" width="10.7" height="10.7" rx="3" fill="#cbd5e1" stroke="#475569"/><rect x="367.7" y="414.1" width="44.6" height="66.4" rx="3" fill="#cbd5e1" stroke="#475569"/><rect x="420.4" y="414.1" width="44.6" height="66.4" rx="3" fill="#cbd5e1" stroke="#475569"/><rect x="367.7" y="414.1" width="44.6" height="66.4" rx="3" fill="#cbd5e1" stroke="#475569"/><rect x="315.0" y="414.1" width="44.6" height="66.4" rx="3" fill="#cbd5e1" stroke="#475569"/><polygon points="390.0,459.5 382.0,486.4 398.0,486.4" fill="#94a3b8" stroke="#475569" opacity="0.88"/><polygon points="410.8,459.5 402.8,486.4 418.8,486.4" fill="#94a3b8" stroke="#475569" opacity="0.88"/><polygon points="419.5,459.5 411.5,486.4 427.5,486.4" fill="#94a3b8" stroke="#475569" opacity="0.88"/><polygon points="410.8,459.5 402.8,486.4 418.8,486.4" fill="#94a3b8" stroke="#475569" opacity="0.88"/><polygon points="390.0,459.5 382.0,486.4 398.0,486.4" fill="#94a3b8" stroke="#475569" opacity="0.88"/><polygon points="369.2,459.5 361.2,486.4 377.2,486.4" fill="#94a3b8" stroke="#475569" opacity="0.88"/><polygon points="360.5,459.5 352.5,486.4 368.5,486.4" fill="#94a3b8" stroke="#475569" opacity="0.88"/><polygon points="369.2,459.5 361.2,486.4 377.2,486.4" fill="#94a3b8" stroke="#475569" opacity="0.88"/><polygon points="379.1,480.5 400.9,480.5 406.1,533.6 373.9,533.6" fill="#f87171" stroke="#991b1b"/><polygon points="431.8,480.5 453.6,480.5 458.8,533.6 426.6,533.6" fill="#f87171" stroke="#991b1b"/><polygon points="379.1,480.5 400.9,480.5 406.1,533.6 373.9,533.6" fill="#f87171" stroke="#991b1b"/><polygon points="326.4,480.5 348.2,480.5 353.4,533.6 321.2,533.6" fill="#f87171" stroke="#991b1b"/>
  <circle cx="625.0" cy="380.0" r="22.3" fill="#cbd5e1" stroke="#475569" opacity="0.30"/><circle cx="625.0" cy="380.0" r="22.3" fill="#f87171" stroke="#475569" opacity="0.30"/><circle cx="625.0" cy="380.0" r="22.3" fill="#cbd5e1" stroke="#475569" opacity="0.30"/><circle cx="625.0" cy="380.0" r="22.3" fill="#cbd5e1" stroke="#475569" opacity="0.30"/><circle cx="625.0" cy="380.0" r="22.3" fill="#cbd5e1" stroke="#475569" opacity="0.30"/><circle cx="625.0" cy="380.0" r="22.3" fill="#f87171" stroke="#475569" opacity="0.30"/><circle cx="625.0" cy="380.0" r="11.2" fill="#e2e8f0" stroke="#475569" opacity="0.30"/><circle cx="625.0" cy="380.0" r="11.2" fill="#cbd5e1" stroke="#475569" opacity="0.30"/><circle cx="638.0" cy="380.0" r="11.2" fill="#cbd5e1" stroke="#334155" opacity="0.80"/><circle cx="612.0" cy="380.0" r="11.2" fill="#cbd5e1" stroke="#334155" opacity="0.80"/><circle cx="677.7" cy="380.0" r="16.1" fill="#f87171" stroke="#334155" opacity="0.80"/><circle cx="677.7" cy="380.0" r="22.3" fill="#cbd5e1" stroke="#334155" opacity="0.80"/><circle cx="677.7" cy="380.0" r="22.3" fill="#cbd5e1" stroke="#334155" opacity="0.80"/><circle cx="677.7" cy="380.0" r="22.3" fill="#cbd5e1" stroke="#334155" opacity="0.80"/><circle cx="652.7" cy="380.0" r="5.4" fill="#cbd5e1" stroke="#334155" opacity="0.80"/><circle cx="625.0" cy="432.7" r="16.1" fill="#f87171" stroke="#334155" opacity="0.80"/><circle cx="625.0" cy="432.7" r="22.3" fill="#cbd5e1" stroke="#334155" opacity="0.80"/><circle cx="625.0" cy="432.7" r="22.3" fill="#cbd5e1" stroke="#334155" opacity="0.80"/><circle cx="625.0" cy="432.7" r="22.3" fill="#cbd5e1" stroke="#334155" opacity="0.80"/><circle cx="625.0" cy="407.7" r="5.4" fill="#cbd5e1" stroke="#334155" opacity="0.80"/><circle cx="572.3" cy="380.0" r="16.1" fill="#f87171" stroke="#334155" opacity="0.80"/><circle cx="572.3" cy="380.0" r="22.3" fill="#cbd5e1" stroke="#334155" opacity="0.80"/><circle cx="572.3" cy="380.0" r="22.3" fill="#cbd5e1" stroke="#334155" opacity="0.80"/><circle cx="572.3" cy="380.0" r="22.3" fill="#cbd5e1" stroke="#334155" opacity="0.80"/><circle cx="597.3" cy="380.0" r="5.4" fill="#cbd5e1" stroke="#334155" opacity="0.80"/><circle cx="625.0" cy="327.3" r="16.1" fill="#f87171" stroke="#334155" opacity="0.80"/><circle cx="625.0" cy="327.3" r="22.3" fill="#cbd5e1" stroke="#334155" opacity="0.80"/><circle cx="625.0" cy="327.3" r="22.3" fill="#cbd5e1" stroke="#334155" opacity="0.80"/><circle cx="625.0" cy="327.3" r="22.3" fill="#cbd5e1" stroke="#334155" opacity="0.80"/><circle cx="625.0" cy="352.3" r="5.4" fill="#cbd5e1" stroke="#334155" opacity="0.80"/><circle cx="640.7" cy="380.0" r="11.2" fill="#cbd5e1" stroke="#334155" opacity="0.80"/><circle cx="609.3" cy="380.0" r="11.2" fill="#cbd5e1" stroke="#334155" opacity="0.80"/><circle cx="625.0" cy="395.7" r="11.2" fill="#cbd5e1" stroke="#334155" opacity="0.80"/><circle cx="625.0" cy="364.3" r="11.2" fill="#cbd5e1" stroke="#334155" opacity="0.80"/><circle cx="636.0" cy="391.0" r="11.2" fill="#cbd5e1" stroke="#334155" opacity="0.80"/><circle cx="654.5" cy="380.0" r="3.1" fill="#94a3b8" stroke="#334155" opacity="0.80"/><circle cx="645.8" cy="400.8" r="3.1" fill="#94a3b8" stroke="#334155" opacity="0.80"/><circle cx="625.0" cy="409.5" r="3.1" fill="#94a3b8" stroke="#334155" opacity="0.80"/><circle cx="604.2" cy="400.8" r="3.1" fill="#94a3b8" stroke="#334155" opacity="0.80"/><circle cx="595.5" cy="380.0" r="3.1" fill="#94a3b8" stroke="#334155" opacity="0.80"/><circle cx="604.2" cy="359.2" r="3.1" fill="#94a3b8" stroke="#334155" opacity="0.80"/><circle cx="625.0" cy="350.5" r="3.1" fill="#94a3b8" stroke="#334155" opacity="0.80"/><circle cx="645.8" cy="359.2" r="3.1" fill="#94a3b8" stroke="#334155" opacity="0.80"/><circle cx="693.8" cy="380.0" r="3.1" fill="#64748b" stroke="#334155" opacity="0.80"/><circle cx="659.4" cy="439.5" r="3.1" fill="#64748b" stroke="#334155" opacity="0.80"/><circle cx="590.6" cy="439.5" r="3.1" fill="#64748b" stroke="#334155" opacity="0.80"/><circle cx="556.2" cy="380.0" r="3.1" fill="#64748b" stroke="#334155" opacity="0.80"/><circle cx="590.6" cy="320.5" r="3.1" fill="#64748b" stroke="#334155" opacity="0.80"/><circle cx="659.4" cy="320.5" r="3.1" fill="#64748b" stroke="#334155" opacity="0.80"/>
  <text x="805" y="94" font-size="12" fill="#16a34a">PASS - slender body (4 &lt;= L/D &lt;= 19)</text><text x="805" y="116" font-size="12" fill="#16a34a">PASS - monotonic taper (widest toward base)</text><text x="805" y="138" font-size="12" fill="#16a34a">PASS - payload housed (fairing or capsule top)</text><text x="805" y="160" font-size="12" fill="#16a34a">PASS - engine at the base</text><text x="805" y="182" font-size="12" fill="#16a34a">PASS - controlled ascent margin</text><text x="805" y="204" font-size="12" fill="#16a34a">PASS - radial protrusions within ascent envelope</text><text x="805" y="226" font-size="12" fill="#16a34a">PASS - landing gear tip-over stable</text><text x="805" y="248" font-size="12" fill="#16a34a">PASS - symmetric strap-on boosters</text>
  <text x="805" y="280" font-size="12" fill="#0f172a">L/D 10.2:1</text><text x="805" y="298" font-size="12" fill="#0f172a">length 25.62 m</text><text x="805" y="316" font-size="12" fill="#0f172a">body dia 2.5 m</text><text x="805" y="334" font-size="12" fill="#0f172a">core span 3.65 m</text><text x="805" y="352" font-size="12" fill="#0f172a">4x radial boosters (span 8.4 m)</text><text x="805" y="370" font-size="12" fill="#0f172a">full span 8.4 m</text><text x="805" y="388" font-size="12" fill="#0f172a">static 0.44 cal</text><text x="805" y="406" font-size="12" fill="#0f172a">Cd 0.352</text><text x="805" y="424" font-size="12" fill="#0f172a">drag loss 73.0 m/s</text><text x="805" y="442" font-size="12" fill="#0f172a">max-Q 88.4 kPa</text>
</svg>