<svg xmlns="http://www.w3.org/2000/svg" width="1080" height="700" viewBox="0 0 1080 700" font-family="system-ui,Segoe UI,sans-serif">
  <rect width="1080" height="700" fill="#f8fafc"/>
  <text x="30" y="32" font-size="19" font-weight="700" fill="#0f172a">Three-view design chart - AI-Eve-Relay-3a</text>
  <text x="805" y="56" font-size="15" font-weight="700" fill="#16a34a">LOOKS LIKE A ROCKET</text>
  <text x="118" y="58" font-size="12" font-weight="700" fill="#334155">SIDE</text>
  <text x="355" y="58" font-size="12" font-weight="700" fill="#334155">FRONT</text>
  <text x="594" y="220" font-size="12" font-weight="700" fill="#334155">TOP</text>
  <line x1="150.0" y1="60" x2="150.0" y2="650" stroke="#e2e8f0" stroke-dasharray="4 4"/>
  <line x1="390.0" y1="60" x2="390.0" y2="650" stroke="#e2e8f0" stroke-dasharray="4 4"/>
  <circle cx="625.0" cy="380.0" r="40.9" fill="none" stroke="#94a3b8" stroke-dasharray="4 4"/>
  <rect x="136.4" y="76.0" width="27.3" height="8.2" rx="3" fill="#cbd5e1" stroke="#475569"/><rect x="136.4" y="84.2" width="27.3" height="6.5" rx="3" fill="#cbd5e1" stroke="#475569"/><rect x="136.4" y="90.7" width="27.3" height="6.5" rx="3" fill="#cbd5e1" stroke="#475569"/><rect x="136.4" y="97.2" width="27.3" height="6.5" rx="3" fill="#cbd5e1" stroke="#475569"/><path d="M 136.4 112.9 L 136.4 76.0 Q 136.4 72.0 150.0 58.0 Q 163.6 72.0 163.6 76.0 L 163.6 112.9 Z" fill="#fde68a" stroke="#d97706" stroke-width="1.4" opacity="0.55"/><rect x="136.4" y="112.9" width="27.3" height="2.2" rx="3" fill="#cbd5e1" stroke="#475569"/><rect x="122.7" y="115.1" width="54.5" height="40.1" rx="3" fill="#cbd5e1" stroke="#475569"/><polygon points="143.3,155.3 156.7,155.3 159.8,190.8 140.2,190.8" fill="#f87171" stroke="#991b1b"/><rect x="136.4" y="190.8" width="27.3" height="2.2" rx="3" fill="#cbd5e1" stroke="#475569"/><rect x="109.1" y="193.0" width="81.8" height="42.0" rx="3" fill="#cbd5e1" stroke="#475569"/><rect x="109.1" y="235.0" width="81.8" height="42.0" rx="3" fill="#cbd5e1" stroke="#475569"/><rect x="109.1" y="277.0" width="81.8" height="42.0" rx="3" fill="#cbd5e1" stroke="#475569"/><rect x="109.1" y="319.1" width="81.8" height="42.0" rx="3" fill="#cbd5e1" stroke="#475569"/><rect x="109.1" y="361.1" width="81.8" height="42.0" rx="3" fill="#cbd5e1" stroke="#475569"/><rect x="109.1" y="403.1" width="81.8" height="42.0" rx="3" fill="#cbd5e1" stroke="#475569"/><rect x="109.1" y="445.1" width="81.8" height="42.0" rx="3" fill="#cbd5e1" stroke="#475569"/><rect x="109.1" y="487.2" width="81.8" height="42.0" rx="3" fill="#cbd5e1" stroke="#475569"/><rect x="109.1" y="529.2" width="81.8" height="42.0" rx="3" fill="#cbd5e1" stroke="#475569"/><polygon points="136.7,571.2 163.3,571.2 169.6,636.0 130.4,636.0" fill="#f87171" stroke="#991b1b"/><rect x="146.7" y="74.6" width="27.3" height="13.1" rx="3" fill="#cbd5e1" stroke="#475569"/><rect x="126.0" y="76.8" width="27.3" height="8.7" rx="3" fill="#cbd5e1" stroke="#475569"/><rect x="136.4" y="77.9" width="27.3" height="6.5" rx="3" fill="#cbd5e1" stroke="#475569"/><rect x="136.4" y="77.9" width="27.3" height="6.5" rx="3" fill="#cbd5e1" stroke="#475569"/><rect x="143.6" y="79.6" width="27.3" height="10.9" rx="3" fill="#cbd5e1" stroke="#475569"/><polygon points="199.6,555.3 191.6,584.2 207.6,584.2" fill="#94a3b8" stroke="#475569" opacity="0.88"/><polygon points="185.1,555.3 177.1,584.2 193.1,584.2" fill="#94a3b8" stroke="#475569" opacity="0.88"/><polygon points="150.0,555.3 142.0,584.2 158.0,584.2" fill="#94a3b8" stroke="#475569" opacity="0.88"/><polygon points="114.9,555.3 106.9,584.2 122.9,584.2" fill="#94a3b8" stroke="#475569" opacity="0.88"/><polygon points="100.4,555.3 92.4,584.2 108.4,584.2" fill="#94a3b8" stroke="#475569" opacity="0.88"/><polygon points="114.9,555.3 106.9,584.2 122.9,584.2" fill="#94a3b8" stroke="#475569" opacity="0.88"/><polygon points="150.0,555.3 142.0,584.2 158.0,584.2" fill="#94a3b8" stroke="#475569" opacity="0.88"/><polygon points="185.1,555.3 177.1,584.2 193.1,584.2" fill="#94a3b8" stroke="#475569" opacity="0.88"/><polygon points="175.9,571.2 202.6,571.2 208.9,636.0 169.6,636.0" fill="#f87171" stroke="#991b1b"/>
  <rect x="376.4" y="76.0" width="27.3" height="8.2" rx="3" fill="#cbd5e1" stroke="#475569"/><rect x="376.4" y="84.2" width="27.3" height="6.5" rx="3" fill="#cbd5e1" stroke="#475569"/><rect x="376.4" y="90.7" width="27.3" height="6.5" rx="3" fill="#cbd5e1" stroke="#475569"/><rect x="376.4" y="97.2" width="27.3" height="6.5" rx="3" fill="#cbd5e1" stroke="#475569"/><path d="M 376.4 112.9 L 376.4 76.0 Q 376.4 72.0 390.0 58.0 Q 403.6 72.0 403.6 76.0 L 403.6 112.9 Z" fill="#fde68a" stroke="#d97706" stroke-width="1.4" opacity="0.55"/><rect x="376.4" y="112.9" width="27.3" height="2.2" rx="3" fill="#cbd5e1" stroke="#475569"/><rect x="362.7" y="115.1" width="54.5" height="40.1" rx="3" fill="#cbd5e1" stroke="#475569"/><polygon points="383.3,155.3 396.7,155.3 399.8,190.8 380.2,190.8" fill="#f87171" stroke="#991b1b"/><rect x="376.4" y="190.8" width="27.3" height="2.2" rx="3" fill="#cbd5e1" stroke="#475569"/><rect x="349.1" y="193.0" width="81.8" height="42.0" rx="3" fill="#cbd5e1" stroke="#475569"/><rect x="349.1" y="235.0" width="81.8" height="42.0" rx="3" fill="#cbd5e1" stroke="#475569"/><rect x="349.1" y="277.0" width="81.8" height="42.0" rx="3" fill="#cbd5e1" stroke="#475569"/><rect x="349.1" y="319.1" width="81.8" height="42.0" rx="3" fill="#cbd5e1" stroke="#475569"/><rect x="349.1" y="361.1" width="81.8" height="42.0" rx="3" fill="#cbd5e1" stroke="#475569"/><rect x="349.1" y="403.1" width="81.8" height="42.0" rx="3" fill="#cbd5e1" stroke="#475569"/><rect x="349.1" y="445.1" width="81.8" height="42.0" rx="3" fill="#cbd5e1" stroke="#475569"/><rect x="349.1" y="487.2" width="81.8" height="42.0" rx="3" fill="#cbd5e1" stroke="#475569"/><rect x="349.1" y="529.2" width="81.8" height="42.0" rx="3" fill="#cbd5e1" stroke="#475569"/><polygon points="376.7,571.2 403.3,571.2 409.6,636.0 370.4,636.0" fill="#f87171" stroke="#991b1b"/><rect x="376.4" y="74.6" width="27.3" height="13.1" rx="3" fill="#cbd5e1" stroke="#475569"/><rect x="376.4" y="76.8" width="27.3" height="8.7" rx="3" fill="#cbd5e1" stroke="#475569"/><rect x="386.7" y="77.9" width="27.3" height="6.5" rx="3" fill="#cbd5e1" stroke="#475569"/><rect x="366.0" y="77.9" width="27.3" height="6.5" rx="3" fill="#cbd5e1" stroke="#475569"/><rect x="383.6" y="79.6" width="27.3" height="10.9" rx="3" fill="#cbd5e1" stroke="#475569"/><polygon points="390.0,555.3 382.0,584.2 398.0,584.2" fill="#94a3b8" stroke="#475569" opacity="0.88"/><polygon points="425.1,555.3 417.1,584.2 433.1,584.2" fill="#94a3b8" stroke="#475569" opacity="0.88"/><polygon points="439.6,555.3 431.6,584.2 447.6,584.2" fill="#94a3b8" stroke="#475569" opacity="0.88"/><polygon points="425.1,555.3 417.1,584.2 433.1,584.2" fill="#94a3b8" stroke="#475569" opacity="0.88"/><polygon points="390.0,555.3 382.0,584.2 398.0,584.2" fill="#94a3b8" stroke="#475569" opacity="0.88"/><polygon points="354.9,555.3 346.9,584.2 362.9,584.2" fill="#94a3b8" stroke="#475569" opacity="0.88"/><polygon points="340.4,555.3 332.4,584.2 348.4,584.2" fill="#94a3b8" stroke="#475569" opacity="0.88"/><polygon points="354.9,555.3 346.9,584.2 362.9,584.2" fill="#94a3b8" stroke="#475569" opacity="0.88"/><polygon points="376.7,571.2 403.3,571.2 409.6,636.0 370.4,636.0" fill="#f87171" stroke="#991b1b"/>
  <circle cx="625.0" cy="380.0" r="40.9" fill="#cbd5e1" stroke="#475569" opacity="0.30"/><circle cx="625.0" cy="380.0" r="40.9" fill="#cbd5e1" stroke="#475569" opacity="0.30"/><circle cx="625.0" cy="380.0" r="40.9" fill="#cbd5e1" stroke="#475569" opacity="0.30"/><circle cx="625.0" cy="380.0" r="40.9" fill="#cbd5e1" stroke="#475569" opacity="0.30"/><circle cx="625.0" cy="380.0" r="40.9" fill="#cbd5e1" stroke="#475569" opacity="0.30"/><circle cx="625.0" cy="380.0" r="40.9" fill="#cbd5e1" stroke="#475569" opacity="0.30"/><circle cx="625.0" cy="380.0" r="40.9" fill="#cbd5e1" stroke="#475569" opacity="0.30"/><circle cx="625.0" cy="380.0" r="40.9" fill="#cbd5e1" stroke="#475569" opacity="0.30"/><circle cx="664.3" cy="380.0" r="19.6" fill="#f87171" stroke="#334155" opacity="0.80"/><circle cx="635.3" cy="380.0" r="13.6" fill="#cbd5e1" stroke="#334155" opacity="0.80"/><circle cx="614.7" cy="380.0" r="13.6" fill="#cbd5e1" stroke="#334155" opacity="0.80"/><circle cx="625.0" cy="390.3" r="13.6" fill="#cbd5e1" stroke="#334155" opacity="0.80"/><circle cx="625.0" cy="369.7" r="13.6" fill="#cbd5e1" stroke="#334155" opacity="0.80"/><circle cx="632.2" cy="387.2" r="13.6" fill="#cbd5e1" stroke="#334155" opacity="0.80"/><circle cx="674.6" cy="380.0" r="3.8" fill="#94a3b8" stroke="#334155" opacity="0.80"/><circle cx="660.1" cy="415.1" r="3.8" fill="#94a3b8" stroke="#334155" opacity="0.80"/><circle cx="625.0" cy="429.6" r="3.8" fill="#94a3b8" stroke="#334155" opacity="0.80"/><circle cx="589.9" cy="415.1" r="3.8" fill="#94a3b8" stroke="#334155" opacity="0.80"/><circle cx="575.4" cy="380.0" r="3.8" fill="#94a3b8" stroke="#334155" opacity="0.80"/><circle cx="589.9" cy="344.9" r="3.8" fill="#94a3b8" stroke="#334155" opacity="0.80"/><circle cx="625.0" cy="330.4" r="3.8" fill="#94a3b8" stroke="#334155" opacity="0.80"/><circle cx="660.1" cy="344.9" r="3.8" fill="#94a3b8" stroke="#334155" opacity="0.80"/>
  <text x="805" y="94" font-size="12" fill="#16a34a">PASS - slender body (4 &lt;= L/D &lt;= 19)</text><text x="805" y="116" font-size="12" fill="#16a34a">PASS - monotonic taper (widest toward base)</text><text x="805" y="138" font-size="12" fill="#16a34a">PASS - payload housed (fairing or capsule top)</text><text x="805" y="160" font-size="12" fill="#16a34a">PASS - engine at the base</text><text x="805" y="182" font-size="12" fill="#16a34a">PASS - controlled ascent margin</text><text x="805" y="204" font-size="12" fill="#16a34a">PASS - radial protrusions within ascent envelope</text><text x="805" y="226" font-size="12" fill="#16a34a">PASS - landing gear tip-over stable</text>
  <text x="805" y="258" font-size="12" fill="#0f172a">L/D 6.8:1</text><text x="805" y="276" font-size="12" fill="#0f172a">length 25.68 m</text><text x="805" y="294" font-size="12" fill="#0f172a">body dia 3.75 m</text><text x="805" y="312" font-size="12" fill="#0f172a">ascent span 5.4 m</text><text x="805" y="330" font-size="12" fill="#0f172a">full span 5.4 m</text><text x="805" y="348" font-size="12" fill="#0f172a">static 0.36 cal</text><text x="805" y="366" font-size="12" fill="#0f172a">Cd 0.232</text><text x="805" y="384" font-size="12" fill="#0f172a">drag loss 171.0 m/s</text><text x="805" y="402" font-size="12" fill="#0f172a">max-Q 88.4 kPa</text>
</svg>