<svg xmlns="http://www.w3.org/2000/svg" width="1080" height="700" viewBox="0 0 1080 700" font-family="system-ui,Segoe UI,sans-serif">
  <rect width="1080" height="700" fill="#f8fafc"/>
  <text x="30" y="32" font-size="19" font-weight="700" fill="#0f172a">Three-view design chart - AI-Relay-Keo</text>
  <text x="805" y="56" font-size="15" font-weight="700" fill="#16a34a">LOOKS LIKE A ROCKET</text>
  <text x="118" y="58" font-size="12" font-weight="700" fill="#334155">SIDE</text>
  <text x="355" y="58" font-size="12" font-weight="700" fill="#334155">FRONT</text>
  <text x="594" y="220" font-size="12" font-weight="700" fill="#334155">TOP</text>
  <line x1="150.0" y1="60" x2="150.0" y2="650" stroke="#e2e8f0" stroke-dasharray="4 4"/>
  <line x1="390.0" y1="60" x2="390.0" y2="650" stroke="#e2e8f0" stroke-dasharray="4 4"/>
  <circle cx="625.0" cy="380.0" r="39.0" fill="none" stroke="#94a3b8" stroke-dasharray="4 4"/>
  <rect x="130.5" y="76.0" width="39.0" height="11.7" rx="3" fill="#cbd5e1" stroke="#475569"/><rect x="130.5" y="87.7" width="39.0" height="18.7" rx="3" fill="#cbd5e1" stroke="#475569"/><rect x="130.5" y="106.4" width="39.0" height="18.7" rx="3" fill="#cbd5e1" stroke="#475569"/><rect x="130.5" y="125.1" width="39.0" height="18.7" rx="3" fill="#cbd5e1" stroke="#475569"/><rect x="130.5" y="143.8" width="39.0" height="9.4" rx="3" fill="#cbd5e1" stroke="#475569"/><rect x="130.5" y="153.2" width="39.0" height="9.4" rx="3" fill="#cbd5e1" stroke="#475569"/><rect x="130.5" y="162.5" width="39.0" height="9.4" rx="3" fill="#cbd5e1" stroke="#475569"/><path d="M 130.5 185.0 L 130.5 76.0 Q 130.5 64.7 150.0 50.7 Q 169.5 64.7 169.5 76.0 L 169.5 185.0 Z" fill="#fde68a" stroke="#d97706" stroke-width="1.4" opacity="0.55"/><rect x="130.5" y="185.0" width="39.0" height="3.1" rx="3" fill="#cbd5e1" stroke="#475569"/><rect x="130.5" y="188.1" width="39.0" height="34.6" rx="3" fill="#cbd5e1" stroke="#475569"/><polygon points="140.5,222.8 159.5,222.8 164.0,248.7 136.0,248.7" fill="#f87171" stroke="#991b1b"/><rect x="130.5" y="248.7" width="39.0" height="3.1" rx="3" fill="#cbd5e1" stroke="#475569"/><polygon points="130.5,251.8 169.5,251.8 189.0,329.8 111.0,329.8" fill="#dbeafe" stroke="#2563eb"/><rect x="111.0" y="329.8" width="78.0" height="116.1" rx="3" fill="#cbd5e1" stroke="#475569"/><rect x="111.0" y="445.8" width="78.0" height="116.1" rx="3" fill="#cbd5e1" stroke="#475569"/><polygon points="130.9,561.9 169.1,561.9 178.1,636.0 121.9,636.0" fill="#f87171" stroke="#991b1b"/><rect x="145.3" y="74.0" width="39.0" height="18.7" rx="3" fill="#cbd5e1" stroke="#475569"/><rect x="115.7" y="77.2" width="39.0" height="12.5" rx="3" fill="#cbd5e1" stroke="#475569"/><rect x="130.5" y="78.7" width="39.0" height="9.4" rx="3" fill="#cbd5e1" stroke="#475569"/><rect x="130.5" y="78.7" width="39.0" height="9.4" rx="3" fill="#cbd5e1" stroke="#475569"/><rect x="140.9" y="81.2" width="39.0" height="15.6" rx="3" fill="#cbd5e1" stroke="#475569"/><polygon points="201.5,525.1 193.5,558.7 209.5,558.7" fill="#94a3b8" stroke="#475569" opacity="0.88"/><polygon points="186.4,525.1 178.4,558.7 194.4,558.7" fill="#94a3b8" stroke="#475569" opacity="0.88"/><polygon points="150.0,525.1 142.0,558.7 158.0,558.7" fill="#94a3b8" stroke="#475569" opacity="0.88"/><polygon points="113.6,525.1 105.6,558.7 121.6,558.7" fill="#94a3b8" stroke="#475569" opacity="0.88"/><polygon points="98.5,525.1 90.5,558.7 106.5,558.7" fill="#94a3b8" stroke="#475569" opacity="0.88"/><polygon points="113.6,525.1 105.6,558.7 121.6,558.7" fill="#94a3b8" stroke="#475569" opacity="0.88"/><polygon points="150.0,525.1 142.0,558.7 158.0,558.7" fill="#94a3b8" stroke="#475569" opacity="0.88"/><polygon points="186.4,525.1 178.4,558.7 194.4,558.7" fill="#94a3b8" stroke="#475569" opacity="0.88"/>
  <rect x="370.5" y="76.0" width="39.0" height="11.7" rx="3" fill="#cbd5e1" stroke="#475569"/><rect x="370.5" y="87.7" width="39.0" height="18.7" rx="3" fill="#cbd5e1" stroke="#475569"/><rect x="370.5" y="106.4" width="39.0" height="18.7" rx="3" fill="#cbd5e1" stroke="#475569"/><rect x="370.5" y="125.1" width="39.0" height="18.7" rx="3" fill="#cbd5e1" stroke="#475569"/><rect x="370.5" y="143.8" width="39.0" height="9.4" rx="3" fill="#cbd5e1" stroke="#475569"/><rect x="370.5" y="153.2" width="39.0" height="9.4" rx="3" fill="#cbd5e1" stroke="#475569"/><rect x="370.5" y="162.5" width="39.0" height="9.4" rx="3" fill="#cbd5e1" stroke="#475569"/><path d="M 370.5 185.0 L 370.5 76.0 Q 370.5 64.7 390.0 50.7 Q 409.5 64.7 409.5 76.0 L 409.5 185.0 Z" fill="#fde68a" stroke="#d97706" stroke-width="1.4" opacity="0.55"/><rect x="370.5" y="185.0" width="39.0" height="3.1" rx="3" fill="#cbd5e1" stroke="#475569"/><rect x="370.5" y="188.1" width="39.0" height="34.6" rx="3" fill="#cbd5e1" stroke="#475569"/><polygon points="380.5,222.8 399.5,222.8 404.0,248.7 376.0,248.7" fill="#f87171" stroke="#991b1b"/><rect x="370.5" y="248.7" width="39.0" height="3.1" rx="3" fill="#cbd5e1" stroke="#475569"/><polygon points="370.5,251.8 409.5,251.8 429.0,329.8 351.0,329.8" fill="#dbeafe" stroke="#2563eb"/><rect x="351.0" y="329.8" width="78.0" height="116.1" rx="3" fill="#cbd5e1" stroke="#475569"/><rect x="351.0" y="445.8" width="78.0" height="116.1" rx="3" fill="#cbd5e1" stroke="#475569"/><polygon points="370.9,561.9 409.1,561.9 418.1,636.0 361.9,636.0" fill="#f87171" stroke="#991b1b"/><rect x="370.5" y="74.0" width="39.0" height="18.7" rx="3" fill="#cbd5e1" stroke="#475569"/><rect x="370.5" y="77.2" width="39.0" height="12.5" rx="3" fill="#cbd5e1" stroke="#475569"/><rect x="385.3" y="78.7" width="39.0" height="9.4" rx="3" fill="#cbd5e1" stroke="#475569"/><rect x="355.7" y="78.7" width="39.0" height="9.4" rx="3" fill="#cbd5e1" stroke="#475569"/><rect x="380.9" y="81.2" width="39.0" height="15.6" rx="3" fill="#cbd5e1" stroke="#475569"/><polygon points="390.0,525.1 382.0,558.7 398.0,558.7" fill="#94a3b8" stroke="#475569" opacity="0.88"/><polygon points="426.4,525.1 418.4,558.7 434.4,558.7" fill="#94a3b8" stroke="#475569" opacity="0.88"/><polygon points="441.5,525.1 433.5,558.7 449.5,558.7" fill="#94a3b8" stroke="#475569" opacity="0.88"/><polygon points="426.4,525.1 418.4,558.7 434.4,558.7" fill="#94a3b8" stroke="#475569" opacity="0.88"/><polygon points="390.0,525.1 382.0,558.7 398.0,558.7" fill="#94a3b8" stroke="#475569" opacity="0.88"/><polygon points="353.6,525.1 345.6,558.7 361.6,558.7" fill="#94a3b8" stroke="#475569" opacity="0.88"/><polygon points="338.5,525.1 330.5,558.7 346.5,558.7" fill="#94a3b8" stroke="#475569" opacity="0.88"/><polygon points="353.6,525.1 345.6,558.7 361.6,558.7" fill="#94a3b8" stroke="#475569" opacity="0.88"/>
  <circle cx="625.0" cy="380.0" r="39.0" fill="#dbeafe" stroke="#475569" opacity="0.30"/><circle cx="625.0" cy="380.0" r="39.0" fill="#cbd5e1" stroke="#475569" opacity="0.30"/><circle cx="625.0" cy="380.0" r="39.0" fill="#cbd5e1" stroke="#475569" opacity="0.30"/><circle cx="625.0" cy="380.0" r="39.0" fill="#f87171" stroke="#475569" opacity="0.30"/><circle cx="625.0" cy="380.0" r="19.5" fill="#cbd5e1" stroke="#475569" opacity="0.30"/><circle cx="625.0" cy="380.0" r="19.5" fill="#cbd5e1" stroke="#475569" opacity="0.30"/><circle cx="625.0" cy="380.0" r="19.5" fill="#cbd5e1" stroke="#475569" opacity="0.30"/><circle cx="625.0" cy="380.0" r="19.5" fill="#cbd5e1" stroke="#475569" opacity="0.30"/><circle cx="639.8" cy="380.0" r="19.5" fill="#cbd5e1" stroke="#334155" opacity="0.80"/><circle cx="610.2" cy="380.0" r="19.5" fill="#cbd5e1" stroke="#334155" opacity="0.80"/><circle cx="625.0" cy="394.8" r="19.5" fill="#cbd5e1" stroke="#334155" opacity="0.80"/><circle cx="625.0" cy="365.2" r="19.5" fill="#cbd5e1" stroke="#334155" opacity="0.80"/><circle cx="635.4" cy="390.4" r="19.5" fill="#cbd5e1" stroke="#334155" opacity="0.80"/><circle cx="676.5" cy="380.0" r="5.5" fill="#94a3b8" stroke="#334155" opacity="0.80"/><circle cx="661.4" cy="416.4" r="5.5" fill="#94a3b8" stroke="#334155" opacity="0.80"/><circle cx="625.0" cy="431.5" r="5.5" fill="#94a3b8" stroke="#334155" opacity="0.80"/><circle cx="588.6" cy="416.4" r="5.5" fill="#94a3b8" stroke="#334155" opacity="0.80"/><circle cx="573.5" cy="380.0" r="5.5" fill="#94a3b8" stroke="#334155" opacity="0.80"/><circle cx="588.6" cy="343.6" r="5.5" fill="#94a3b8" stroke="#334155" opacity="0.80"/><circle cx="625.0" cy="328.5" r="5.5" fill="#94a3b8" stroke="#334155" opacity="0.80"/><circle cx="661.4" cy="343.6" r="5.5" fill="#94a3b8" stroke="#334155" opacity="0.80"/>
  <text x="805" y="94" font-size="12" fill="#16a34a">PASS - slender body (4 &lt;= L/D &lt;= 19)</text><text x="805" y="116" font-size="12" fill="#16a34a">PASS - monotonic taper (widest toward base)</text><text x="805" y="138" font-size="12" fill="#16a34a">PASS - payload housed (fairing or capsule top)</text><text x="805" y="160" font-size="12" fill="#16a34a">PASS - engine at the base</text><text x="805" y="182" font-size="12" fill="#16a34a">PASS - controlled ascent margin</text><text x="805" y="204" font-size="12" fill="#16a34a">PASS - radial protrusions within ascent envelope</text><text x="805" y="226" font-size="12" fill="#16a34a">PASS - landing gear tip-over stable</text>
  <text x="805" y="258" font-size="12" fill="#0f172a">L/D 7.2:1</text><text x="805" y="276" font-size="12" fill="#0f172a">length 17.95 m</text><text x="805" y="294" font-size="12" fill="#0f172a">body dia 2.5 m</text><text x="805" y="312" font-size="12" fill="#0f172a">ascent span 3.65 m</text><text x="805" y="330" font-size="12" fill="#0f172a">full span 3.65 m</text><text x="805" y="348" font-size="12" fill="#0f172a">static -0.08 cal</text><text x="805" y="366" font-size="12" fill="#0f172a">Cd 0.232</text><text x="805" y="384" font-size="12" fill="#0f172a">drag loss 379.0 m/s</text><text x="805" y="402" font-size="12" fill="#0f172a">max-Q 88.4 kPa</text>
</svg>