<svg xmlns="http://www.w3.org/2000/svg" width="900" height="600" viewBox="0 0 900 600" font-family="system-ui,Segoe UI,sans-serif">
  <rect width="900" height="600" fill="#f8fafc"/>
  <text x="30" y="28" font-size="18" font-weight="700" fill="#0f172a">Design chart — AI-Duna-Ring-W</text>
  <line x1="230.0" y1="36" x2="230.0" y2="572" stroke="#e2e8f0" stroke-dasharray="4 4"/>
  <rect x="220.0" y="40.0" width="20.1" height="6.0" rx="3" fill="#cbd5e1" stroke="#64748b"/><rect x="220.0" y="46.0" width="20.1" height="9.6" rx="3" fill="#cbd5e1" stroke="#64748b"/><rect x="220.0" y="55.7" width="20.1" height="9.6" rx="3" fill="#cbd5e1" stroke="#64748b"/><rect x="220.0" y="65.3" width="20.1" height="9.6" rx="3" fill="#cbd5e1" stroke="#64748b"/><rect x="220.0" y="74.9" width="20.1" height="4.8" rx="3" fill="#cbd5e1" stroke="#64748b"/><rect x="220.0" y="79.8" width="20.1" height="4.8" rx="3" fill="#cbd5e1" stroke="#64748b"/><rect x="220.0" y="84.6" width="20.1" height="4.8" rx="3" fill="#cbd5e1" stroke="#64748b"/><path d="M 219.95549511682532 96.15280009889973 L 219.95549511682532 65.26876004450487 Q 219.95549511682532 40.0 230.0 26.0 Q 240.04450488317468 40.0 240.04450488317468 65.26876004450487 L 240.04450488317468 96.15280009889973 Z" fill="#fde68a" stroke="#d97706" stroke-width="1.5" opacity="0.92"/><rect x="220.0" y="96.2" width="20.1" height="1.6" rx="3" fill="#cbd5e1" stroke="#64748b"/><rect x="220.0" y="97.8" width="20.1" height="60.5" rx="3" fill="#cbd5e1" stroke="#64748b"/><polygon points="222.9688465817777,158.21980467301273 237.0311534182223,158.21980467301273 240.04450488317468,171.5589071578687 219.95549511682532,171.5589071578687" fill="#f87171" stroke="#991b1b"/><rect x="220.0" y="171.6" width="20.1" height="1.6" rx="3" fill="#cbd5e1" stroke="#64748b"/><rect x="209.9" y="173.2" width="40.2" height="40.2" rx="3" fill="#cbd5e1" stroke="#64748b"/><rect x="209.9" y="213.3" width="40.2" height="59.8" rx="3" fill="#cbd5e1" stroke="#64748b"/><rect x="209.9" y="273.1" width="40.2" height="59.8" rx="3" fill="#cbd5e1" stroke="#64748b"/><rect x="209.9" y="332.9" width="40.2" height="59.8" rx="3" fill="#cbd5e1" stroke="#64748b"/><rect x="209.9" y="392.7" width="40.2" height="59.8" rx="3" fill="#cbd5e1" stroke="#64748b"/><rect x="209.9" y="452.5" width="40.2" height="59.8" rx="3" fill="#cbd5e1" stroke="#64748b"/><polygon points="215.93769316355545,512.2685127951539 244.06230683644455,512.2685127951539 250.08900976634936,560.0 209.91099023365064,560.0" fill="#f87171" stroke="#991b1b"/>
  <text x="470" y="44" font-size="15" font-weight="700" fill="#16a34a">LOOKS LIKE A ROCKET</text>
  <text x="470" y="196" font-size="13" fill="#0f172a">fineness 12.9:1  •  length 32.36 m  •  max Ø 2.5 m</text>
  <text x="470" y="220" font-size="13" fill="#0f172a">Cd 0.232  •  ascent drag loss 154.0 m/s  •  max-Q 88.4 kPa</text>
</svg>