<svg xmlns="http://www.w3.org/2000/svg" width="1080" height="700" viewBox="0 0 1080 700" font-family="system-ui,Segoe UI,sans-serif">
  <rect width="1080" height="700" fill="#f8fafc"/>
  <text x="30" y="32" font-size="19" font-weight="700" fill="#0f172a">Three-view design chart - AI-Duna-1</text>
  <text x="805" y="56" font-size="15" font-weight="700" fill="#16a34a">LOOKS LIKE A ROCKET</text>
  <text x="118" y="58" font-size="12" font-weight="700" fill="#334155">SIDE</text>
  <text x="355" y="58" font-size="12" font-weight="700" fill="#334155">FRONT</text>
  <text x="594" y="220" font-size="12" font-weight="700" fill="#334155">TOP</text>
  <line x1="150.0" y1="60" x2="150.0" y2="650" stroke="#e2e8f0" stroke-dasharray="4 4"/>
  <line x1="390.0" y1="60" x2="390.0" y2="650" stroke="#e2e8f0" stroke-dasharray="4 4"/>
  <circle cx="625.0" cy="380.0" r="16.1" fill="none" stroke="#94a3b8" stroke-dasharray="4 4"/>
  <rect x="144.6" y="76.0" width="10.8" height="9.0" rx="3" fill="#e2e8f0" stroke="#475569"/><rect x="144.6" y="85.0" width="10.8" height="1.7" rx="3" fill="#cbd5e1" stroke="#475569"/><rect x="144.6" y="86.7" width="10.8" height="1.0" rx="3" fill="#cbd5e1" stroke="#475569"/><rect x="144.6" y="87.5" width="10.8" height="1.7" rx="3" fill="#cbd5e1" stroke="#475569"/><rect x="144.6" y="89.2" width="10.8" height="3.4" rx="3" fill="#cbd5e1" stroke="#475569"/><rect x="144.6" y="92.7" width="10.8" height="3.4" rx="3" fill="#cbd5e1" stroke="#475569"/><rect x="144.6" y="96.1" width="10.8" height="3.4" rx="3" fill="#cbd5e1" stroke="#475569"/><path d="M 136.2 103.1 L 136.2 76.0 Q 136.2 72.0 150.0 58.0 Q 163.8 72.0 163.8 76.0 L 163.8 103.1 Z" fill="#fde68a" stroke="#d97706" stroke-width="1.4" opacity="0.55"/><rect x="144.6" y="103.1" width="10.8" height="1.0" rx="3" fill="#cbd5e1" stroke="#475569"/><rect x="139.2" y="104.0" width="21.5" height="7.8" rx="3" fill="#cbd5e1" stroke="#475569"/><polygon points="147.4,111.8 152.6,111.8 153.9,119.0 146.1,119.0" fill="#f87171" stroke="#991b1b"/><rect x="144.6" y="119.0" width="10.8" height="1.0" rx="3" fill="#cbd5e1" stroke="#475569"/><rect x="139.2" y="119.8" width="21.5" height="7.8" rx="3" fill="#cbd5e1" stroke="#475569"/><rect x="139.2" y="127.6" width="21.5" height="7.8" rx="3" fill="#cbd5e1" stroke="#475569"/><rect x="139.2" y="135.5" width="21.5" height="7.8" rx="3" fill="#cbd5e1" stroke="#475569"/><rect x="139.2" y="143.3" width="21.5" height="7.8" rx="3" fill="#cbd5e1" stroke="#475569"/><rect x="139.2" y="151.1" width="21.5" height="7.8" rx="3" fill="#cbd5e1" stroke="#475569"/><rect x="139.2" y="159.0" width="21.5" height="7.7" rx="2" fill="#cbd5e1" stroke="#64748b" stroke-dasharray="3 2" opacity="0.45"/><polygon points="147.4,159.0 152.6,159.0 153.9,166.7 146.1,166.7" fill="#f87171" stroke="#991b1b"/><rect x="144.6" y="166.7" width="10.8" height="1.0" rx="3" fill="#cbd5e1" stroke="#475569"/><rect x="139.2" y="167.6" width="21.5" height="7.8" rx="3" fill="#cbd5e1" stroke="#475569"/><rect x="133.9" y="175.4" width="32.3" height="12.2" rx="2" fill="#cbd5e1" stroke="#64748b" stroke-dasharray="3 2" opacity="0.45"/><polygon points="147.4,175.4 152.6,175.4 153.9,187.6 146.1,187.6" fill="#f87171" stroke="#991b1b"/><rect x="144.6" y="187.6" width="10.8" height="1.0" rx="3" fill="#cbd5e1" stroke="#475569"/><rect x="133.9" y="188.5" width="32.3" height="19.4" rx="3" fill="#cbd5e1" stroke="#475569"/><rect x="133.9" y="207.8" width="32.3" height="16.6" rx="3" fill="#cbd5e1" stroke="#475569"/><rect x="133.9" y="224.4" width="32.3" height="16.6" rx="3" fill="#cbd5e1" stroke="#475569"/><rect x="133.9" y="241.0" width="32.3" height="16.6" rx="3" fill="#cbd5e1" stroke="#475569"/><rect x="133.9" y="257.5" width="32.3" height="16.6" rx="3" fill="#cbd5e1" stroke="#475569"/><rect x="133.9" y="274.1" width="32.3" height="16.6" rx="3" fill="#cbd5e1" stroke="#475569"/><rect x="133.9" y="290.7" width="32.3" height="16.6" rx="3" fill="#cbd5e1" stroke="#475569"/><rect x="133.9" y="307.3" width="32.3" height="16.6" rx="3" fill="#cbd5e1" stroke="#475569"/><rect x="133.9" y="323.8" width="32.3" height="16.6" rx="3" fill="#cbd5e1" stroke="#475569"/><rect x="133.9" y="340.4" width="32.3" height="16.6" rx="3" fill="#cbd5e1" stroke="#475569"/><rect x="133.9" y="357.0" width="32.3" height="16.6" rx="3" fill="#cbd5e1" stroke="#475569"/><rect x="133.9" y="373.6" width="32.3" height="16.6" rx="3" fill="#cbd5e1" stroke="#475569"/><rect x="133.9" y="390.2" width="32.3" height="16.6" rx="3" fill="#cbd5e1" stroke="#475569"/><rect x="133.9" y="406.7" width="32.3" height="16.6" rx="3" fill="#cbd5e1" stroke="#475569"/><rect x="133.9" y="423.3" width="32.3" height="16.6" rx="3" fill="#cbd5e1" stroke="#475569"/><rect x="133.9" y="439.9" width="32.3" height="16.6" rx="3" fill="#cbd5e1" stroke="#475569"/><rect x="133.9" y="456.5" width="32.3" height="16.6" rx="3" fill="#cbd5e1" stroke="#475569"/><rect x="133.9" y="473.0" width="32.3" height="16.6" rx="3" fill="#cbd5e1" stroke="#475569"/><rect x="133.9" y="489.6" width="32.3" height="16.6" rx="3" fill="#cbd5e1" stroke="#475569"/><rect x="133.9" y="506.2" width="32.3" height="16.6" rx="3" fill="#cbd5e1" stroke="#475569"/><rect x="133.9" y="522.8" width="32.3" height="16.6" rx="3" fill="#cbd5e1" stroke="#475569"/><rect x="133.9" y="539.4" width="32.3" height="16.6" rx="3" fill="#cbd5e1" stroke="#475569"/><rect x="133.9" y="555.9" width="32.3" height="16.6" rx="3" fill="#cbd5e1" stroke="#475569"/><rect x="133.9" y="572.5" width="32.3" height="16.6" rx="3" fill="#cbd5e1" stroke="#475569"/><rect x="133.9" y="589.1" width="32.3" height="16.6" rx="3" fill="#cbd5e1" stroke="#475569"/><rect x="133.9" y="605.7" width="32.3" height="16.6" rx="3" fill="#cbd5e1" stroke="#475569"/><polygon points="147.4,622.2 152.6,622.2 153.9,636.0 146.1,636.0" fill="#f87171" stroke="#991b1b"/><rect x="153.2" y="80.5" width="5.4" height="1.0" rx="3" fill="#cbd5e1" stroke="#475569"/><rect x="149.8" y="80.5" width="5.4" height="1.0" rx="3" fill="#cbd5e1" stroke="#475569"/><rect x="144.8" y="80.5" width="5.4" height="1.0" rx="3" fill="#cbd5e1" stroke="#475569"/><rect x="141.4" y="80.5" width="5.4" height="1.0" rx="3" fill="#cbd5e1" stroke="#475569"/><rect x="152.7" y="80.2" width="5.4" height="1.5" rx="3" fill="#cbd5e1" stroke="#475569"/><rect x="139.3" y="80.0" width="10.8" height="1.9" rx="3" fill="#cbd5e1" stroke="#475569"/><rect x="147.8" y="76.6" width="10.8" height="8.6" rx="3" fill="#cbd5e1" stroke="#475569"/><rect x="141.4" y="76.6" width="10.8" height="8.6" rx="3" fill="#cbd5e1" stroke="#475569"/><rect x="147.3" y="79.7" width="5.4" height="5.6" rx="3" fill="#cbd5e1" stroke="#475569"/><line x1="164.3" y1="116.4" x2="164.3" y2="139.0" stroke="#64748b" stroke-width="3" stroke-linecap="round"/><line x1="150.0" y1="116.4" x2="150.0" y2="139.0" stroke="#64748b" stroke-width="3" stroke-linecap="round"/><line x1="135.7" y1="116.4" x2="135.7" y2="139.0" stroke="#64748b" stroke-width="3" stroke-linecap="round"/><line x1="150.0" y1="116.4" x2="150.0" y2="139.0" stroke="#64748b" stroke-width="3" stroke-linecap="round"/><polygon points="169.6,613.8 161.6,640.4 177.6,640.4" fill="#94a3b8" stroke="#475569" opacity="0.88"/><polygon points="163.8,613.8 155.8,640.4 171.8,640.4" fill="#94a3b8" stroke="#475569" opacity="0.88"/><polygon points="150.0,613.8 142.0,640.4 158.0,640.4" fill="#94a3b8" stroke="#475569" opacity="0.88"/><polygon points="136.2,613.8 128.2,640.4 144.2,640.4" fill="#94a3b8" stroke="#475569" opacity="0.88"/><polygon points="130.4,613.8 122.4,640.4 138.4,640.4" fill="#94a3b8" stroke="#475569" opacity="0.88"/><polygon points="136.2,613.8 128.2,640.4 144.2,640.4" fill="#94a3b8" stroke="#475569" opacity="0.88"/><polygon points="150.0,613.8 142.0,640.4 158.0,640.4" fill="#94a3b8" stroke="#475569" opacity="0.88"/><polygon points="163.8,613.8 155.8,640.4 171.8,640.4" fill="#94a3b8" stroke="#475569" opacity="0.88"/><polygon points="156.3,622.2 161.6,622.2 162.8,636.0 155.1,636.0" fill="#f87171" stroke="#991b1b"/><polygon points="152.9,622.2 158.2,622.2 159.4,636.0 151.7,636.0" fill="#f87171" stroke="#991b1b"/><polygon points="145.4,622.2 150.6,622.2 151.9,636.0 144.1,636.0" fill="#f87171" stroke="#991b1b"/><polygon points="139.3,622.2 144.6,622.2 145.8,636.0 138.1,636.0" fill="#f87171" stroke="#991b1b"/><polygon points="139.3,622.2 144.6,622.2 145.8,636.0 138.1,636.0" fill="#f87171" stroke="#991b1b"/><polygon points="145.4,622.2 150.6,622.2 151.9,636.0 144.1,636.0" fill="#f87171" stroke="#991b1b"/><polygon points="152.9,622.2 158.2,622.2 159.4,636.0 151.7,636.0" fill="#f87171" stroke="#991b1b"/>
  <rect x="384.6" y="76.0" width="10.8" height="9.0" rx="3" fill="#e2e8f0" stroke="#475569"/><rect x="384.6" y="85.0" width="10.8" height="1.7" rx="3" fill="#cbd5e1" stroke="#475569"/><rect x="384.6" y="86.7" width="10.8" height="1.0" rx="3" fill="#cbd5e1" stroke="#475569"/><rect x="384.6" y="87.5" width="10.8" height="1.7" rx="3" fill="#cbd5e1" stroke="#475569"/><rect x="384.6" y="89.2" width="10.8" height="3.4" rx="3" fill="#cbd5e1" stroke="#475569"/><rect x="384.6" y="92.7" width="10.8" height="3.4" rx="3" fill="#cbd5e1" stroke="#475569"/><rect x="384.6" y="96.1" width="10.8" height="3.4" rx="3" fill="#cbd5e1" stroke="#475569"/><path d="M 376.2 103.1 L 376.2 76.0 Q 376.2 72.0 390.0 58.0 Q 403.8 72.0 403.8 76.0 L 403.8 103.1 Z" fill="#fde68a" stroke="#d97706" stroke-width="1.4" opacity="0.55"/><rect x="384.6" y="103.1" width="10.8" height="1.0" rx="3" fill="#cbd5e1" stroke="#475569"/><rect x="379.2" y="104.0" width="21.5" height="7.8" rx="3" fill="#cbd5e1" stroke="#475569"/><polygon points="387.4,111.8 392.6,111.8 393.9,119.0 386.1,119.0" fill="#f87171" stroke="#991b1b"/><rect x="384.6" y="119.0" width="10.8" height="1.0" rx="3" fill="#cbd5e1" stroke="#475569"/><rect x="379.2" y="119.8" width="21.5" height="7.8" rx="3" fill="#cbd5e1" stroke="#475569"/><rect x="379.2" y="127.6" width="21.5" height="7.8" rx="3" fill="#cbd5e1" stroke="#475569"/><rect x="379.2" y="135.5" width="21.5" height="7.8" rx="3" fill="#cbd5e1" stroke="#475569"/><rect x="379.2" y="143.3" width="21.5" height="7.8" rx="3" fill="#cbd5e1" stroke="#475569"/><rect x="379.2" y="151.1" width="21.5" height="7.8" rx="3" fill="#cbd5e1" stroke="#475569"/><rect x="379.2" y="159.0" width="21.5" height="7.7" rx="2" fill="#cbd5e1" stroke="#64748b" stroke-dasharray="3 2" opacity="0.45"/><polygon points="387.4,159.0 392.6,159.0 393.9,166.7 386.1,166.7" fill="#f87171" stroke="#991b1b"/><rect x="384.6" y="166.7" width="10.8" height="1.0" rx="3" fill="#cbd5e1" stroke="#475569"/><rect x="379.2" y="167.6" width="21.5" height="7.8" rx="3" fill="#cbd5e1" stroke="#475569"/><rect x="373.9" y="175.4" width="32.3" height="12.2" rx="2" fill="#cbd5e1" stroke="#64748b" stroke-dasharray="3 2" opacity="0.45"/><polygon points="387.4,175.4 392.6,175.4 393.9,187.6 386.1,187.6" fill="#f87171" stroke="#991b1b"/><rect x="384.6" y="187.6" width="10.8" height="1.0" rx="3" fill="#cbd5e1" stroke="#475569"/><rect x="373.9" y="188.5" width="32.3" height="19.4" rx="3" fill="#cbd5e1" stroke="#475569"/><rect x="373.9" y="207.8" width="32.3" height="16.6" rx="3" fill="#cbd5e1" stroke="#475569"/><rect x="373.9" y="224.4" width="32.3" height="16.6" rx="3" fill="#cbd5e1" stroke="#475569"/><rect x="373.9" y="241.0" width="32.3" height="16.6" rx="3" fill="#cbd5e1" stroke="#475569"/><rect x="373.9" y="257.5" width="32.3" height="16.6" rx="3" fill="#cbd5e1" stroke="#475569"/><rect x="373.9" y="274.1" width="32.3" height="16.6" rx="3" fill="#cbd5e1" stroke="#475569"/><rect x="373.9" y="290.7" width="32.3" height="16.6" rx="3" fill="#cbd5e1" stroke="#475569"/><rect x="373.9" y="307.3" width="32.3" height="16.6" rx="3" fill="#cbd5e1" stroke="#475569"/><rect x="373.9" y="323.8" width="32.3" height="16.6" rx="3" fill="#cbd5e1" stroke="#475569"/><rect x="373.9" y="340.4" width="32.3" height="16.6" rx="3" fill="#cbd5e1" stroke="#475569"/><rect x="373.9" y="357.0" width="32.3" height="16.6" rx="3" fill="#cbd5e1" stroke="#475569"/><rect x="373.9" y="373.6" width="32.3" height="16.6" rx="3" fill="#cbd5e1" stroke="#475569"/><rect x="373.9" y="390.2" width="32.3" height="16.6" rx="3" fill="#cbd5e1" stroke="#475569"/><rect x="373.9" y="406.7" width="32.3" height="16.6" rx="3" fill="#cbd5e1" stroke="#475569"/><rect x="373.9" y="423.3" width="32.3" height="16.6" rx="3" fill="#cbd5e1" stroke="#475569"/><rect x="373.9" y="439.9" width="32.3" height="16.6" rx="3" fill="#cbd5e1" stroke="#475569"/><rect x="373.9" y="456.5" width="32.3" height="16.6" rx="3" fill="#cbd5e1" stroke="#475569"/><rect x="373.9" y="473.0" width="32.3" height="16.6" rx="3" fill="#cbd5e1" stroke="#475569"/><rect x="373.9" y="489.6" width="32.3" height="16.6" rx="3" fill="#cbd5e1" stroke="#475569"/><rect x="373.9" y="506.2" width="32.3" height="16.6" rx="3" fill="#cbd5e1" stroke="#475569"/><rect x="373.9" y="522.8" width="32.3" height="16.6" rx="3" fill="#cbd5e1" stroke="#475569"/><rect x="373.9" y="539.4" width="32.3" height="16.6" rx="3" fill="#cbd5e1" stroke="#475569"/><rect x="373.9" y="555.9" width="32.3" height="16.6" rx="3" fill="#cbd5e1" stroke="#475569"/><rect x="373.9" y="572.5" width="32.3" height="16.6" rx="3" fill="#cbd5e1" stroke="#475569"/><rect x="373.9" y="589.1" width="32.3" height="16.6" rx="3" fill="#cbd5e1" stroke="#475569"/><rect x="373.9" y="605.7" width="32.3" height="16.6" rx="3" fill="#cbd5e1" stroke="#475569"/><polygon points="387.4,622.2 392.6,622.2 393.9,636.0 386.1,636.0" fill="#f87171" stroke="#991b1b"/><rect x="389.4" y="80.5" width="5.4" height="1.0" rx="3" fill="#cbd5e1" stroke="#475569"/><rect x="393.0" y="80.5" width="5.4" height="1.0" rx="3" fill="#cbd5e1" stroke="#475569"/><rect x="393.0" y="80.5" width="5.4" height="1.0" rx="3" fill="#cbd5e1" stroke="#475569"/><rect x="389.4" y="80.5" width="5.4" height="1.0" rx="3" fill="#cbd5e1" stroke="#475569"/><rect x="392.7" y="80.2" width="5.4" height="1.5" rx="3" fill="#cbd5e1" stroke="#475569"/><rect x="390.0" y="80.0" width="10.8" height="1.9" rx="3" fill="#cbd5e1" stroke="#475569"/><rect x="391.5" y="76.6" width="10.8" height="8.6" rx="3" fill="#cbd5e1" stroke="#475569"/><rect x="391.5" y="76.6" width="10.8" height="8.6" rx="3" fill="#cbd5e1" stroke="#475569"/><rect x="394.9" y="79.7" width="5.4" height="5.6" rx="3" fill="#cbd5e1" stroke="#475569"/><line x1="390.0" y1="116.4" x2="390.0" y2="139.0" stroke="#64748b" stroke-width="3" stroke-linecap="round"/><line x1="404.3" y1="116.4" x2="404.3" y2="139.0" stroke="#64748b" stroke-width="3" stroke-linecap="round"/><line x1="390.0" y1="116.4" x2="390.0" y2="139.0" stroke="#64748b" stroke-width="3" stroke-linecap="round"/><line x1="375.7" y1="116.4" x2="375.7" y2="139.0" stroke="#64748b" stroke-width="3" stroke-linecap="round"/><polygon points="390.0,613.8 382.0,640.4 398.0,640.4" fill="#94a3b8" stroke="#475569" opacity="0.88"/><polygon points="403.8,613.8 395.8,640.4 411.8,640.4" fill="#94a3b8" stroke="#475569" opacity="0.88"/><polygon points="409.6,613.8 401.6,640.4 417.6,640.4" fill="#94a3b8" stroke="#475569" opacity="0.88"/><polygon points="403.8,613.8 395.8,640.4 411.8,640.4" fill="#94a3b8" stroke="#475569" opacity="0.88"/><polygon points="390.0,613.8 382.0,640.4 398.0,640.4" fill="#94a3b8" stroke="#475569" opacity="0.88"/><polygon points="376.2,613.8 368.2,640.4 384.2,640.4" fill="#94a3b8" stroke="#475569" opacity="0.88"/><polygon points="370.4,613.8 362.4,640.4 378.4,640.4" fill="#94a3b8" stroke="#475569" opacity="0.88"/><polygon points="376.2,613.8 368.2,640.4 384.2,640.4" fill="#94a3b8" stroke="#475569" opacity="0.88"/><polygon points="387.4,622.2 392.6,622.2 393.9,636.0 386.1,636.0" fill="#f87171" stroke="#991b1b"/><polygon points="394.3,622.2 399.6,622.2 400.8,636.0 393.1,636.0" fill="#f87171" stroke="#991b1b"/><polygon points="396.1,622.2 401.3,622.2 402.6,636.0 394.8,636.0" fill="#f87171" stroke="#991b1b"/><polygon points="391.2,622.2 396.5,622.2 397.7,636.0 390.0,636.0" fill="#f87171" stroke="#991b1b"/><polygon points="383.5,622.2 388.8,622.2 390.0,636.0 382.3,636.0" fill="#f87171" stroke="#991b1b"/><polygon points="378.7,622.2 383.9,622.2 385.2,636.0 377.4,636.0" fill="#f87171" stroke="#991b1b"/><polygon points="380.4,622.2 385.7,622.2 386.9,636.0 379.2,636.0" fill="#f87171" stroke="#991b1b"/>
  <circle cx="625.0" cy="380.0" r="16.1" fill="#cbd5e1" stroke="#475569" opacity="0.30"/><circle cx="625.0" cy="380.0" r="16.1" fill="#cbd5e1" stroke="#475569" opacity="0.30"/><circle cx="625.0" cy="380.0" r="16.1" fill="#cbd5e1" stroke="#475569" opacity="0.30"/><circle cx="625.0" cy="380.0" r="16.1" fill="#cbd5e1" stroke="#475569" opacity="0.30"/><circle cx="625.0" cy="380.0" r="16.1" fill="#cbd5e1" stroke="#475569" opacity="0.30"/><circle cx="625.0" cy="380.0" r="16.1" fill="#cbd5e1" stroke="#475569" opacity="0.30"/><circle cx="625.0" cy="380.0" r="16.1" fill="#cbd5e1" stroke="#475569" opacity="0.30"/><circle cx="625.0" cy="380.0" r="16.1" fill="#cbd5e1" stroke="#475569" opacity="0.30"/><circle cx="630.9" cy="382.1" r="2.7" fill="#cbd5e1" stroke="#334155" opacity="0.80"/><circle cx="627.5" cy="385.7" r="2.7" fill="#cbd5e1" stroke="#334155" opacity="0.80"/><circle cx="622.5" cy="385.7" r="2.7" fill="#cbd5e1" stroke="#334155" opacity="0.80"/><circle cx="619.1" cy="382.1" r="2.7" fill="#cbd5e1" stroke="#334155" opacity="0.80"/><circle cx="625.0" cy="380.0" r="10.8" fill="#fde68a" stroke="#334155" opacity="0.80"/><circle cx="633.9" cy="380.0" r="3.9" fill="#f87171" stroke="#334155" opacity="0.80"/><circle cx="630.6" cy="387.0" r="3.9" fill="#f87171" stroke="#334155" opacity="0.80"/><circle cx="623.0" cy="388.7" r="3.9" fill="#f87171" stroke="#334155" opacity="0.80"/><circle cx="617.0" cy="383.9" r="3.9" fill="#f87171" stroke="#334155" opacity="0.80"/><circle cx="617.0" cy="376.1" r="3.9" fill="#f87171" stroke="#334155" opacity="0.80"/><circle cx="623.0" cy="371.3" r="3.9" fill="#f87171" stroke="#334155" opacity="0.80"/><circle cx="630.6" cy="373.0" r="3.9" fill="#f87171" stroke="#334155" opacity="0.80"/><circle cx="630.4" cy="385.4" r="2.7" fill="#cbd5e1" stroke="#334155" opacity="0.80"/><circle cx="619.6" cy="385.4" r="5.4" fill="#cbd5e1" stroke="#334155" opacity="0.80"/><circle cx="628.2" cy="386.9" r="5.4" fill="#cbd5e1" stroke="#334155" opacity="0.80"/><circle cx="621.8" cy="386.9" r="5.4" fill="#cbd5e1" stroke="#334155" opacity="0.80"/><circle cx="625.0" cy="387.6" r="2.7" fill="#cbd5e1" stroke="#334155" opacity="0.80"/><circle cx="644.6" cy="380.0" r="2.5" fill="#94a3b8" stroke="#334155" opacity="0.80"/><circle cx="638.8" cy="393.8" r="2.5" fill="#94a3b8" stroke="#334155" opacity="0.80"/><circle cx="625.0" cy="399.6" r="2.5" fill="#94a3b8" stroke="#334155" opacity="0.80"/><circle cx="611.2" cy="393.8" r="2.5" fill="#94a3b8" stroke="#334155" opacity="0.80"/><circle cx="605.4" cy="380.0" r="2.5" fill="#94a3b8" stroke="#334155" opacity="0.80"/><circle cx="611.2" cy="366.2" r="2.5" fill="#94a3b8" stroke="#334155" opacity="0.80"/><circle cx="625.0" cy="360.4" r="2.5" fill="#94a3b8" stroke="#334155" opacity="0.80"/><circle cx="638.8" cy="366.2" r="2.5" fill="#94a3b8" stroke="#334155" opacity="0.80"/><circle cx="639.3" cy="380.0" r="2.5" fill="#64748b" stroke="#334155" opacity="0.80"/><circle cx="625.0" cy="394.3" r="2.5" fill="#64748b" stroke="#334155" opacity="0.80"/><circle cx="610.7" cy="380.0" r="2.5" fill="#64748b" stroke="#334155" opacity="0.80"/><circle cx="625.0" cy="365.7" r="2.5" fill="#64748b" stroke="#334155" opacity="0.80"/>
  <text x="805" y="94" font-size="12" fill="#16a34a">PASS - slender body (4 &lt;= L/D &lt;= 19)</text><text x="805" y="116" font-size="12" fill="#16a34a">PASS - monotonic taper (widest toward base)</text><text x="805" y="138" font-size="12" fill="#16a34a">PASS - payload housed (fairing or capsule top)</text><text x="805" y="160" font-size="12" fill="#16a34a">PASS - payload fully enclosed (nothing protrudes the fairing)</text><text x="805" y="182" font-size="12" fill="#16a34a">PASS - engine at the base</text><text x="805" y="204" font-size="12" fill="#16a34a">PASS - upper-stage engine has interstage shroud</text><text x="805" y="226" font-size="12" fill="#16a34a">PASS - controlled ascent margin</text><text x="805" y="248" font-size="12" fill="#16a34a">PASS - radial protrusions within ascent envelope</text><text x="805" y="270" font-size="12" fill="#16a34a">PASS - landing gear tip-over stable</text>
  <text x="805" y="302" font-size="12" fill="#0f172a">L/D 17.4:1</text><text x="805" y="320" font-size="12" fill="#0f172a">length 65.1 m</text><text x="805" y="338" font-size="12" fill="#0f172a">body dia 3.75 m</text><text x="805" y="356" font-size="12" fill="#0f172a">core span 4.9 m</text><text x="805" y="374" font-size="12" fill="#0f172a">full span 4.9 m</text><text x="805" y="392" font-size="12" fill="#0f172a">static 0.03 cal</text><text x="805" y="410" font-size="12" fill="#0f172a">Cd 0.232</text><text x="805" y="428" font-size="12" fill="#0f172a">drag loss 61.0 m/s</text><text x="805" y="446" font-size="12" fill="#0f172a">max-Q 88.4 kPa</text>
</svg>