<svg xmlns="http://www.w3.org/2000/svg" width="1080" height="700" viewBox="0 0 1080 700" font-family="system-ui,Segoe UI,sans-serif">
  <rect width="1080" height="700" fill="#f8fafc"/>
  <text x="30" y="32" font-size="19" font-weight="700" fill="#0f172a">Three-view design chart - AI-Eve-Ferry2</text>
  <text x="805" y="56" font-size="15" font-weight="700" fill="#16a34a">LOOKS LIKE A ROCKET</text>
  <text x="118" y="58" font-size="12" font-weight="700" fill="#334155">SIDE</text>
  <text x="355" y="58" font-size="12" font-weight="700" fill="#334155">FRONT</text>
  <text x="594" y="220" font-size="12" font-weight="700" fill="#334155">TOP</text>
  <line x1="150.0" y1="60" x2="150.0" y2="650" stroke="#e2e8f0" stroke-dasharray="4 4"/>
  <line x1="390.0" y1="60" x2="390.0" y2="650" stroke="#e2e8f0" stroke-dasharray="4 4"/>
  <circle cx="625.0" cy="380.0" r="22.3" fill="none" stroke="#94a3b8" stroke-dasharray="4 4"/>
  <rect x="138.8" y="76.0" width="22.3" height="5.0" rx="3" fill="#e2e8f0" stroke="#475569"/><rect x="138.8" y="81.0" width="22.3" height="18.8" rx="3" fill="#e2e8f0" stroke="#475569"/><rect x="138.8" y="99.8" width="22.3" height="3.6" rx="3" fill="#cbd5e1" stroke="#475569"/><rect x="138.8" y="103.3" width="22.3" height="1.8" rx="3" fill="#cbd5e1" stroke="#475569"/><rect x="138.8" y="105.1" width="22.3" height="6.7" rx="3" fill="#cbd5e1" stroke="#475569"/><rect x="138.8" y="111.8" width="22.3" height="33.5" rx="3" fill="#cbd5e1" stroke="#475569"/><rect x="138.8" y="145.3" width="22.3" height="10.7" rx="3" fill="#cbd5e1" stroke="#475569"/><rect x="138.8" y="156.0" width="22.3" height="10.7" rx="3" fill="#cbd5e1" stroke="#475569"/><rect x="138.8" y="166.7" width="22.3" height="10.7" rx="3" fill="#cbd5e1" stroke="#475569"/><rect x="138.8" y="177.4" width="22.3" height="5.4" rx="3" fill="#cbd5e1" stroke="#475569"/><rect x="138.8" y="182.8" width="22.3" height="5.4" rx="3" fill="#cbd5e1" stroke="#475569"/><rect x="138.8" y="188.1" width="22.3" height="5.4" rx="3" fill="#cbd5e1" stroke="#475569"/><rect x="138.8" y="193.5" width="22.3" height="1.8" rx="3" fill="#cbd5e1" stroke="#475569"/><rect x="127.7" y="195.3" width="44.6" height="66.4" rx="3" fill="#cbd5e1" stroke="#475569"/><polygon points="144.5,261.7 155.5,261.7 158.0,290.8 142.0,290.8" fill="#f87171" stroke="#991b1b"/><rect x="138.8" y="290.8" width="22.3" height="1.8" rx="3" fill="#cbd5e1" stroke="#475569"/><rect x="127.7" y="292.6" width="44.6" height="66.4" rx="3" fill="#cbd5e1" stroke="#475569"/><rect x="127.7" y="359.0" width="44.6" height="66.4" rx="3" fill="#cbd5e1" stroke="#475569"/><rect x="127.7" y="425.4" width="44.6" height="66.4" rx="3" fill="#cbd5e1" stroke="#475569"/><polygon points="139.1,491.9 160.9,491.9 166.1,544.9 133.9,544.9" fill="#f87171" stroke="#991b1b"/><rect x="151.4" y="88.9" width="22.3" height="3.6" rx="3" fill="#cbd5e1" stroke="#475569"/><rect x="126.2" y="88.9" width="22.3" height="3.6" rx="3" fill="#cbd5e1" stroke="#475569"/><rect x="138.8" y="88.9" width="22.3" height="3.6" rx="3" fill="#cbd5e1" stroke="#475569"/><rect x="138.8" y="88.9" width="22.3" height="3.6" rx="3" fill="#cbd5e1" stroke="#475569"/><rect x="154.6" y="85.9" width="22.3" height="10.7" rx="3" fill="#cbd5e1" stroke="#475569"/><rect x="123.1" y="87.7" width="22.3" height="7.1" rx="3" fill="#cbd5e1" stroke="#475569"/><rect x="138.8" y="88.6" width="22.3" height="5.4" rx="3" fill="#cbd5e1" stroke="#475569"/><rect x="138.8" y="88.6" width="22.3" height="5.4" rx="3" fill="#cbd5e1" stroke="#475569"/><rect x="149.8" y="90.0" width="22.3" height="8.9" rx="3" fill="#cbd5e1" stroke="#475569"/><rect x="138.8" y="89.5" width="22.3" height="16.1" rx="3" fill="#cbd5e1" stroke="#475569"/><rect x="180.4" y="364.3" width="44.6" height="66.4" rx="3" fill="#cbd5e1" stroke="#475569"/><rect x="127.7" y="364.3" width="44.6" height="66.4" rx="3" fill="#cbd5e1" stroke="#475569"/><rect x="75.0" y="364.3" width="44.6" height="66.4" rx="3" fill="#cbd5e1" stroke="#475569"/><rect x="127.7" y="364.3" width="44.6" height="66.4" rx="3" fill="#cbd5e1" stroke="#475569"/><rect x="172.3" y="436.0" width="10.7" height="10.7" rx="3" fill="#cbd5e1" stroke="#475569"/><rect x="144.6" y="436.0" width="10.7" height="10.7" rx="3" fill="#cbd5e1" stroke="#475569"/><rect x="117.0" y="436.0" width="10.7" height="10.7" rx="3" fill="#cbd5e1" stroke="#475569"/><rect x="144.6" y="436.0" width="10.7" height="10.7" rx="3" fill="#cbd5e1" stroke="#475569"/><rect x="180.4" y="430.8" width="44.6" height="66.4" rx="3" fill="#cbd5e1" stroke="#475569"/><rect x="127.7" y="430.8" width="44.6" height="66.4" rx="3" fill="#cbd5e1" stroke="#475569"/><rect x="75.0" y="430.8" width="44.6" height="66.4" rx="3" fill="#cbd5e1" stroke="#475569"/><rect x="127.7" y="430.8" width="44.6" height="66.4" rx="3" fill="#cbd5e1" stroke="#475569"/><polygon points="179.5,470.8 171.5,497.7 187.5,497.7" fill="#94a3b8" stroke="#475569" opacity="0.88"/><polygon points="170.8,470.8 162.8,497.7 178.8,497.7" fill="#94a3b8" stroke="#475569" opacity="0.88"/><polygon points="150.0,470.8 142.0,497.7 158.0,497.7" fill="#94a3b8" stroke="#475569" opacity="0.88"/><polygon points="129.2,470.8 121.2,497.7 137.2,497.7" fill="#94a3b8" stroke="#475569" opacity="0.88"/><polygon points="120.5,470.8 112.5,497.7 128.5,497.7" fill="#94a3b8" stroke="#475569" opacity="0.88"/><polygon points="129.2,470.8 121.2,497.7 137.2,497.7" fill="#94a3b8" stroke="#475569" opacity="0.88"/><polygon points="150.0,470.8 142.0,497.7 158.0,497.7" fill="#94a3b8" stroke="#475569" opacity="0.88"/><polygon points="170.8,470.8 162.8,497.7 178.8,497.7" fill="#94a3b8" stroke="#475569" opacity="0.88"/><polygon points="191.8,497.2 213.6,497.2 218.8,539.6 186.6,539.6" fill="#f87171" stroke="#991b1b"/><polygon points="139.1,497.2 160.9,497.2 166.1,539.6 133.9,539.6" fill="#f87171" stroke="#991b1b"/><polygon points="86.4,497.2 108.3,497.2 113.4,539.6 81.3,539.6" fill="#f87171" stroke="#991b1b"/><polygon points="139.1,497.2 160.9,497.2 166.1,539.6 133.9,539.6" fill="#f87171" stroke="#991b1b"/>
  <rect x="378.8" y="76.0" width="22.3" height="5.0" rx="3" fill="#e2e8f0" stroke="#475569"/><rect x="378.8" y="81.0" width="22.3" height="18.8" rx="3" fill="#e2e8f0" stroke="#475569"/><rect x="378.8" y="99.8" width="22.3" height="3.6" rx="3" fill="#cbd5e1" stroke="#475569"/><rect x="378.8" y="103.3" width="22.3" height="1.8" rx="3" fill="#cbd5e1" stroke="#475569"/><rect x="378.8" y="105.1" width="22.3" height="6.7" rx="3" fill="#cbd5e1" stroke="#475569"/><rect x="378.8" y="111.8" width="22.3" height="33.5" rx="3" fill="#cbd5e1" stroke="#475569"/><rect x="378.8" y="145.3" width="22.3" height="10.7" rx="3" fill="#cbd5e1" stroke="#475569"/><rect x="378.8" y="156.0" width="22.3" height="10.7" rx="3" fill="#cbd5e1" stroke="#475569"/><rect x="378.8" y="166.7" width="22.3" height="10.7" rx="3" fill="#cbd5e1" stroke="#475569"/><rect x="378.8" y="177.4" width="22.3" height="5.4" rx="3" fill="#cbd5e1" stroke="#475569"/><rect x="378.8" y="182.8" width="22.3" height="5.4" rx="3" fill="#cbd5e1" stroke="#475569"/><rect x="378.8" y="188.1" width="22.3" height="5.4" rx="3" fill="#cbd5e1" stroke="#475569"/><rect x="378.8" y="193.5" width="22.3" height="1.8" rx="3" fill="#cbd5e1" stroke="#475569"/><rect x="367.7" y="195.3" width="44.6" height="66.4" rx="3" fill="#cbd5e1" stroke="#475569"/><polygon points="384.5,261.7 395.5,261.7 398.0,290.8 382.0,290.8" fill="#f87171" stroke="#991b1b"/><rect x="378.8" y="290.8" width="22.3" height="1.8" rx="3" fill="#cbd5e1" stroke="#475569"/><rect x="367.7" y="292.6" width="44.6" height="66.4" rx="3" fill="#cbd5e1" stroke="#475569"/><rect x="367.7" y="359.0" width="44.6" height="66.4" rx="3" fill="#cbd5e1" stroke="#475569"/><rect x="367.7" y="425.4" width="44.6" height="66.4" rx="3" fill="#cbd5e1" stroke="#475569"/><polygon points="379.1,491.9 400.9,491.9 406.1,544.9 373.9,544.9" fill="#f87171" stroke="#991b1b"/><rect x="378.8" y="88.9" width="22.3" height="3.6" rx="3" fill="#cbd5e1" stroke="#475569"/><rect x="378.8" y="88.9" width="22.3" height="3.6" rx="3" fill="#cbd5e1" stroke="#475569"/><rect x="391.4" y="88.9" width="22.3" height="3.6" rx="3" fill="#cbd5e1" stroke="#475569"/><rect x="366.2" y="88.9" width="22.3" height="3.6" rx="3" fill="#cbd5e1" stroke="#475569"/><rect x="378.8" y="85.9" width="22.3" height="10.7" rx="3" fill="#cbd5e1" stroke="#475569"/><rect x="378.8" y="87.7" width="22.3" height="7.1" rx="3" fill="#cbd5e1" stroke="#475569"/><rect x="394.6" y="88.6" width="22.3" height="5.4" rx="3" fill="#cbd5e1" stroke="#475569"/><rect x="363.1" y="88.6" width="22.3" height="5.4" rx="3" fill="#cbd5e1" stroke="#475569"/><rect x="389.8" y="90.0" width="22.3" height="8.9" rx="3" fill="#cbd5e1" stroke="#475569"/><rect x="391.4" y="89.5" width="22.3" height="16.1" rx="3" fill="#cbd5e1" stroke="#475569"/><rect x="367.7" y="364.3" width="44.6" height="66.4" rx="3" fill="#cbd5e1" stroke="#475569"/><rect x="420.4" y="364.3" width="44.6" height="66.4" rx="3" fill="#cbd5e1" stroke="#475569"/><rect x="367.7" y="364.3" width="44.6" height="66.4" rx="3" fill="#cbd5e1" stroke="#475569"/><rect x="315.0" y="364.3" width="44.6" height="66.4" rx="3" fill="#cbd5e1" stroke="#475569"/><rect x="384.6" y="436.0" width="10.7" height="10.7" rx="3" fill="#cbd5e1" stroke="#475569"/><rect x="412.3" y="436.0" width="10.7" height="10.7" rx="3" fill="#cbd5e1" stroke="#475569"/><rect x="384.6" y="436.0" width="10.7" height="10.7" rx="3" fill="#cbd5e1" stroke="#475569"/><rect x="357.0" y="436.0" width="10.7" height="10.7" rx="3" fill="#cbd5e1" stroke="#475569"/><rect x="367.7" y="430.8" width="44.6" height="66.4" rx="3" fill="#cbd5e1" stroke="#475569"/><rect x="420.4" y="430.8" width="44.6" height="66.4" rx="3" fill="#cbd5e1" stroke="#475569"/><rect x="367.7" y="430.8" width="44.6" height="66.4" rx="3" fill="#cbd5e1" stroke="#475569"/><rect x="315.0" y="430.8" width="44.6" height="66.4" rx="3" fill="#cbd5e1" stroke="#475569"/><polygon points="390.0,470.8 382.0,497.7 398.0,497.7" fill="#94a3b8" stroke="#475569" opacity="0.88"/><polygon points="410.8,470.8 402.8,497.7 418.8,497.7" fill="#94a3b8" stroke="#475569" opacity="0.88"/><polygon points="419.5,470.8 411.5,497.7 427.5,497.7" fill="#94a3b8" stroke="#475569" opacity="0.88"/><polygon points="410.8,470.8 402.8,497.7 418.8,497.7" fill="#94a3b8" stroke="#475569" opacity="0.88"/><polygon points="390.0,470.8 382.0,497.7 398.0,497.7" fill="#94a3b8" stroke="#475569" opacity="0.88"/><polygon points="369.2,470.8 361.2,497.7 377.2,497.7" fill="#94a3b8" stroke="#475569" opacity="0.88"/><polygon points="360.5,470.8 352.5,497.7 368.5,497.7" fill="#94a3b8" stroke="#475569" opacity="0.88"/><polygon points="369.2,470.8 361.2,497.7 377.2,497.7" fill="#94a3b8" stroke="#475569" opacity="0.88"/><polygon points="379.1,497.2 400.9,497.2 406.1,539.6 373.9,539.6" fill="#f87171" stroke="#991b1b"/><polygon points="431.8,497.2 453.6,497.2 458.8,539.6 426.6,539.6" fill="#f87171" stroke="#991b1b"/><polygon points="379.1,497.2 400.9,497.2 406.1,539.6 373.9,539.6" fill="#f87171" stroke="#991b1b"/><polygon points="326.4,497.2 348.2,497.2 353.4,539.6 321.2,539.6" fill="#f87171" stroke="#991b1b"/>
  <circle cx="625.0" cy="380.0" r="22.3" fill="#cbd5e1" stroke="#475569" opacity="0.30"/><circle cx="625.0" cy="380.0" r="22.3" fill="#cbd5e1" stroke="#475569" opacity="0.30"/><circle cx="625.0" cy="380.0" r="22.3" fill="#cbd5e1" stroke="#475569" opacity="0.30"/><circle cx="625.0" cy="380.0" r="22.3" fill="#cbd5e1" stroke="#475569" opacity="0.30"/><circle cx="625.0" cy="380.0" r="22.3" fill="#f87171" stroke="#475569" opacity="0.30"/><circle cx="625.0" cy="380.0" r="11.2" fill="#e2e8f0" stroke="#475569" opacity="0.30"/><circle cx="625.0" cy="380.0" r="11.2" fill="#cbd5e1" stroke="#475569" opacity="0.30"/><circle cx="625.0" cy="380.0" r="11.2" fill="#cbd5e1" stroke="#475569" opacity="0.30"/><circle cx="677.7" cy="380.0" r="16.1" fill="#f87171" stroke="#334155" opacity="0.80"/><circle cx="677.7" cy="380.0" r="22.3" fill="#cbd5e1" stroke="#334155" opacity="0.80"/><circle cx="677.7" cy="380.0" r="22.3" fill="#cbd5e1" stroke="#334155" opacity="0.80"/><circle cx="652.7" cy="380.0" r="5.4" fill="#cbd5e1" stroke="#334155" opacity="0.80"/><circle cx="625.0" cy="432.7" r="16.1" fill="#f87171" stroke="#334155" opacity="0.80"/><circle cx="625.0" cy="432.7" r="22.3" fill="#cbd5e1" stroke="#334155" opacity="0.80"/><circle cx="625.0" cy="432.7" r="22.3" fill="#cbd5e1" stroke="#334155" opacity="0.80"/><circle cx="625.0" cy="407.7" r="5.4" fill="#cbd5e1" stroke="#334155" opacity="0.80"/><circle cx="572.3" cy="380.0" r="16.1" fill="#f87171" stroke="#334155" opacity="0.80"/><circle cx="572.3" cy="380.0" r="22.3" fill="#cbd5e1" stroke="#334155" opacity="0.80"/><circle cx="572.3" cy="380.0" r="22.3" fill="#cbd5e1" stroke="#334155" opacity="0.80"/><circle cx="597.3" cy="380.0" r="5.4" fill="#cbd5e1" stroke="#334155" opacity="0.80"/><circle cx="625.0" cy="327.3" r="16.1" fill="#f87171" stroke="#334155" opacity="0.80"/><circle cx="625.0" cy="327.3" r="22.3" fill="#cbd5e1" stroke="#334155" opacity="0.80"/><circle cx="625.0" cy="327.3" r="22.3" fill="#cbd5e1" stroke="#334155" opacity="0.80"/><circle cx="625.0" cy="352.3" r="5.4" fill="#cbd5e1" stroke="#334155" opacity="0.80"/><circle cx="640.7" cy="380.0" r="11.2" fill="#cbd5e1" stroke="#334155" opacity="0.80"/><circle cx="609.3" cy="380.0" r="11.2" fill="#cbd5e1" stroke="#334155" opacity="0.80"/><circle cx="625.0" cy="395.7" r="11.2" fill="#cbd5e1" stroke="#334155" opacity="0.80"/><circle cx="625.0" cy="364.3" r="11.2" fill="#cbd5e1" stroke="#334155" opacity="0.80"/><circle cx="636.0" cy="391.0" r="11.2" fill="#cbd5e1" stroke="#334155" opacity="0.80"/><circle cx="637.6" cy="380.0" r="11.2" fill="#cbd5e1" stroke="#334155" opacity="0.80"/><circle cx="612.4" cy="380.0" r="11.2" fill="#cbd5e1" stroke="#334155" opacity="0.80"/><circle cx="625.0" cy="392.6" r="11.2" fill="#cbd5e1" stroke="#334155" opacity="0.80"/><circle cx="625.0" cy="367.4" r="11.2" fill="#cbd5e1" stroke="#334155" opacity="0.80"/><circle cx="625.0" cy="392.6" r="11.2" fill="#cbd5e1" stroke="#334155" opacity="0.80"/><circle cx="654.5" cy="380.0" r="3.1" fill="#94a3b8" stroke="#334155" opacity="0.80"/><circle cx="645.8" cy="400.8" r="3.1" fill="#94a3b8" stroke="#334155" opacity="0.80"/><circle cx="625.0" cy="409.5" r="3.1" fill="#94a3b8" stroke="#334155" opacity="0.80"/><circle cx="604.2" cy="400.8" r="3.1" fill="#94a3b8" stroke="#334155" opacity="0.80"/><circle cx="595.5" cy="380.0" r="3.1" fill="#94a3b8" stroke="#334155" opacity="0.80"/><circle cx="604.2" cy="359.2" r="3.1" fill="#94a3b8" stroke="#334155" opacity="0.80"/><circle cx="625.0" cy="350.5" r="3.1" fill="#94a3b8" stroke="#334155" opacity="0.80"/><circle cx="645.8" cy="359.2" r="3.1" fill="#94a3b8" stroke="#334155" opacity="0.80"/>
  <text x="805" y="94" font-size="12" fill="#16a34a">PASS - slender body (4 &lt;= L/D &lt;= 19)</text><text x="805" y="116" font-size="12" fill="#16a34a">PASS - monotonic taper (widest toward base)</text><text x="805" y="138" font-size="12" fill="#16a34a">PASS - payload housed (fairing or capsule top)</text><text x="805" y="160" font-size="12" fill="#16a34a">PASS - engine at the base</text><text x="805" y="182" font-size="12" fill="#16a34a">PASS - controlled ascent margin</text><text x="805" y="204" font-size="12" fill="#16a34a">PASS - radial protrusions within ascent envelope</text><text x="805" y="226" font-size="12" fill="#16a34a">PASS - landing gear tip-over stable</text><text x="805" y="248" font-size="12" fill="#16a34a">PASS - symmetric strap-on boosters</text>
  <text x="805" y="280" font-size="12" fill="#0f172a">L/D 10.5:1</text><text x="805" y="298" font-size="12" fill="#0f172a">length 26.26 m</text><text x="805" y="316" font-size="12" fill="#0f172a">body dia 2.5 m</text><text x="805" y="334" font-size="12" fill="#0f172a">core span 3.65 m</text><text x="805" y="352" font-size="12" fill="#0f172a">4x radial boosters (span 8.4 m)</text><text x="805" y="370" font-size="12" fill="#0f172a">full span 8.4 m</text><text x="805" y="388" font-size="12" fill="#0f172a">static 0.36 cal</text><text x="805" y="406" font-size="12" fill="#0f172a">Cd 0.232</text><text x="805" y="424" font-size="12" fill="#0f172a">drag loss 66.0 m/s</text><text x="805" y="442" font-size="12" fill="#0f172a">max-Q 88.4 kPa</text>
</svg>