<svg xmlns="http://www.w3.org/2000/svg" width="1080" height="700" viewBox="0 0 1080 700" font-family="system-ui,Segoe UI,sans-serif">
  <rect width="1080" height="700" fill="#f8fafc"/>
  <text x="30" y="32" font-size="19" font-weight="700" fill="#0f172a">Three-view design chart - AI-Duna-1</text>
  <text x="805" y="56" font-size="15" font-weight="700" fill="#16a34a">LOOKS LIKE A ROCKET</text>
  <text x="118" y="58" font-size="12" font-weight="700" fill="#334155">SIDE</text>
  <text x="355" y="58" font-size="12" font-weight="700" fill="#334155">FRONT</text>
  <text x="594" y="220" font-size="12" font-weight="700" fill="#334155">TOP</text>
  <line x1="150.0" y1="60" x2="150.0" y2="650" stroke="#e2e8f0" stroke-dasharray="4 4"/>
  <line x1="390.0" y1="60" x2="390.0" y2="650" stroke="#e2e8f0" stroke-dasharray="4 4"/>
  <circle cx="625.0" cy="380.0" r="35.6" fill="none" stroke="#94a3b8" stroke-dasharray="4 4"/>
  <rect x="138.1" y="76.0" width="23.7" height="19.9" rx="3" fill="#e2e8f0" stroke="#475569"/><rect x="138.1" y="95.9" width="23.7" height="3.6" rx="3" fill="#cbd5e1" stroke="#475569"/><rect x="138.1" y="99.5" width="23.7" height="1.9" rx="3" fill="#cbd5e1" stroke="#475569"/><rect x="138.1" y="101.4" width="23.7" height="3.8" rx="3" fill="#cbd5e1" stroke="#475569"/><rect x="138.1" y="105.2" width="23.7" height="7.6" rx="3" fill="#cbd5e1" stroke="#475569"/><rect x="138.1" y="112.8" width="23.7" height="7.6" rx="3" fill="#cbd5e1" stroke="#475569"/><rect x="138.1" y="120.4" width="23.7" height="7.6" rx="3" fill="#cbd5e1" stroke="#475569"/><path d="M 119.5 135.9 L 119.5 76.0 Q 119.5 50.4 150.0 36.4 Q 180.5 50.4 180.5 76.0 L 180.5 135.9 Z" fill="#fde68a" stroke="#d97706" stroke-width="1.4" opacity="0.55"/><rect x="138.1" y="135.9" width="23.7" height="1.9" rx="3" fill="#cbd5e1" stroke="#475569"/><rect x="138.1" y="137.8" width="23.7" height="4.7" rx="3" fill="#cbd5e1" stroke="#475569"/><rect x="138.1" y="142.5" width="23.7" height="4.7" rx="3" fill="#cbd5e1" stroke="#475569"/><rect x="138.1" y="147.3" width="23.7" height="4.7" rx="3" fill="#cbd5e1" stroke="#475569"/><rect x="138.1" y="152.0" width="23.7" height="4.7" rx="3" fill="#cbd5e1" stroke="#475569"/><rect x="138.1" y="156.8" width="23.7" height="4.7" rx="3" fill="#cbd5e1" stroke="#475569"/><rect x="138.1" y="161.5" width="23.7" height="4.7" rx="3" fill="#cbd5e1" stroke="#475569"/><rect x="138.1" y="166.3" width="23.7" height="4.7" rx="3" fill="#cbd5e1" stroke="#475569"/><rect x="138.1" y="171.0" width="23.7" height="4.7" rx="3" fill="#cbd5e1" stroke="#475569"/><rect x="138.1" y="175.8" width="23.7" height="4.7" rx="3" fill="#cbd5e1" stroke="#475569"/><rect x="138.1" y="180.5" width="23.7" height="4.7" rx="3" fill="#cbd5e1" stroke="#475569"/><rect x="138.1" y="185.3" width="23.7" height="4.7" rx="3" fill="#cbd5e1" stroke="#475569"/><rect x="138.1" y="190.0" width="23.7" height="4.7" rx="3" fill="#cbd5e1" stroke="#475569"/><rect x="138.1" y="194.8" width="23.7" height="4.7" rx="3" fill="#cbd5e1" stroke="#475569"/><rect x="138.1" y="199.5" width="23.7" height="4.7" rx="3" fill="#cbd5e1" stroke="#475569"/><rect x="138.1" y="204.3" width="23.7" height="4.7" rx="3" fill="#cbd5e1" stroke="#475569"/><rect x="138.1" y="209.0" width="23.7" height="4.7" rx="3" fill="#cbd5e1" stroke="#475569"/><rect x="138.1" y="213.8" width="23.7" height="4.7" rx="3" fill="#cbd5e1" stroke="#475569"/><rect x="138.1" y="218.5" width="23.7" height="4.7" rx="3" fill="#cbd5e1" stroke="#475569"/><rect x="138.1" y="223.3" width="23.7" height="4.7" rx="3" fill="#cbd5e1" stroke="#475569"/><polygon points="144.2,228.0 155.8,228.0 158.5,243.8 141.5,243.8" fill="#f87171" stroke="#991b1b"/><rect x="138.1" y="243.8" width="23.7" height="1.9" rx="3" fill="#cbd5e1" stroke="#475569"/><rect x="138.1" y="245.7" width="23.7" height="4.7" rx="3" fill="#cbd5e1" stroke="#475569"/><rect x="138.1" y="250.4" width="23.7" height="4.7" rx="3" fill="#cbd5e1" stroke="#475569"/><rect x="138.1" y="255.2" width="23.7" height="4.7" rx="3" fill="#cbd5e1" stroke="#475569"/><rect x="114.4" y="259.9" width="71.2" height="15.8" rx="2" fill="#cbd5e1" stroke="#64748b" stroke-dasharray="3 2" opacity="0.45"/><polygon points="144.2,259.9 155.8,259.9 158.5,275.7 141.5,275.7" fill="#f87171" stroke="#991b1b"/><rect x="138.1" y="275.7" width="23.7" height="1.9" rx="3" fill="#cbd5e1" stroke="#475569"/><rect x="114.4" y="277.6" width="71.2" height="36.6" rx="3" fill="#cbd5e1" stroke="#475569"/><rect x="114.4" y="314.2" width="71.2" height="36.6" rx="3" fill="#cbd5e1" stroke="#475569"/><rect x="114.4" y="350.8" width="71.2" height="36.6" rx="3" fill="#cbd5e1" stroke="#475569"/><rect x="114.4" y="387.4" width="71.2" height="36.6" rx="3" fill="#cbd5e1" stroke="#475569"/><rect x="114.4" y="424.0" width="71.2" height="36.6" rx="3" fill="#cbd5e1" stroke="#475569"/><rect x="114.4" y="460.6" width="71.2" height="36.6" rx="3" fill="#cbd5e1" stroke="#475569"/><rect x="114.4" y="497.2" width="71.2" height="36.6" rx="3" fill="#cbd5e1" stroke="#475569"/><rect x="114.4" y="533.8" width="71.2" height="36.6" rx="3" fill="#cbd5e1" stroke="#475569"/><rect x="114.4" y="570.4" width="71.2" height="36.6" rx="3" fill="#cbd5e1" stroke="#475569"/><polygon points="132.6,607.0 167.4,607.0 175.6,636.0 124.4,636.0" fill="#f87171" stroke="#991b1b"/><rect x="157.9" y="85.8" width="11.9" height="1.0" rx="3" fill="#cbd5e1" stroke="#475569"/><rect x="160.7" y="85.2" width="11.9" height="3.4" rx="3" fill="#cbd5e1" stroke="#475569"/><rect x="121.4" y="84.8" width="23.7" height="4.2" rx="3" fill="#cbd5e1" stroke="#475569"/><rect x="138.1" y="77.4" width="23.7" height="19.0" rx="3" fill="#cbd5e1" stroke="#475569"/><rect x="138.1" y="77.4" width="23.7" height="19.0" rx="3" fill="#cbd5e1" stroke="#475569"/><rect x="155.7" y="84.1" width="11.9" height="12.4" rx="3" fill="#cbd5e1" stroke="#475569"/><line x1="214.0" y1="238.1" x2="214.0" y2="271.1" stroke="#64748b" stroke-width="3" stroke-linecap="round"/><line x1="150.0" y1="238.1" x2="150.0" y2="271.1" stroke="#64748b" stroke-width="3" stroke-linecap="round"/><line x1="86.0" y1="238.1" x2="86.0" y2="271.1" stroke="#64748b" stroke-width="3" stroke-linecap="round"/><line x1="150.0" y1="238.1" x2="150.0" y2="271.1" stroke="#64748b" stroke-width="3" stroke-linecap="round"/><polygon points="193.2,588.3 185.2,625.3 201.2,625.3" fill="#94a3b8" stroke="#475569" opacity="0.88"/><polygon points="180.6,588.3 172.6,625.3 188.6,625.3" fill="#94a3b8" stroke="#475569" opacity="0.88"/><polygon points="150.0,588.3 142.0,625.3 158.0,625.3" fill="#94a3b8" stroke="#475569" opacity="0.88"/><polygon points="119.4,588.3 111.4,625.3 127.4,625.3" fill="#94a3b8" stroke="#475569" opacity="0.88"/><polygon points="106.8,588.3 98.8,625.3 114.8,625.3" fill="#94a3b8" stroke="#475569" opacity="0.88"/><polygon points="119.4,588.3 111.4,625.3 127.4,625.3" fill="#94a3b8" stroke="#475569" opacity="0.88"/><polygon points="150.0,588.3 142.0,625.3 158.0,625.3" fill="#94a3b8" stroke="#475569" opacity="0.88"/><polygon points="180.6,588.3 172.6,625.3 188.6,625.3" fill="#94a3b8" stroke="#475569" opacity="0.88"/>
  <rect x="378.1" y="76.0" width="23.7" height="19.9" rx="3" fill="#e2e8f0" stroke="#475569"/><rect x="378.1" y="95.9" width="23.7" height="3.6" rx="3" fill="#cbd5e1" stroke="#475569"/><rect x="378.1" y="99.5" width="23.7" height="1.9" rx="3" fill="#cbd5e1" stroke="#475569"/><rect x="378.1" y="101.4" width="23.7" height="3.8" rx="3" fill="#cbd5e1" stroke="#475569"/><rect x="378.1" y="105.2" width="23.7" height="7.6" rx="3" fill="#cbd5e1" stroke="#475569"/><rect x="378.1" y="112.8" width="23.7" height="7.6" rx="3" fill="#cbd5e1" stroke="#475569"/><rect x="378.1" y="120.4" width="23.7" height="7.6" rx="3" fill="#cbd5e1" stroke="#475569"/><path d="M 359.5 135.9 L 359.5 76.0 Q 359.5 50.4 390.0 36.4 Q 420.5 50.4 420.5 76.0 L 420.5 135.9 Z" fill="#fde68a" stroke="#d97706" stroke-width="1.4" opacity="0.55"/><rect x="378.1" y="135.9" width="23.7" height="1.9" rx="3" fill="#cbd5e1" stroke="#475569"/><rect x="378.1" y="137.8" width="23.7" height="4.7" rx="3" fill="#cbd5e1" stroke="#475569"/><rect x="378.1" y="142.5" width="23.7" height="4.7" rx="3" fill="#cbd5e1" stroke="#475569"/><rect x="378.1" y="147.3" width="23.7" height="4.7" rx="3" fill="#cbd5e1" stroke="#475569"/><rect x="378.1" y="152.0" width="23.7" height="4.7" rx="3" fill="#cbd5e1" stroke="#475569"/><rect x="378.1" y="156.8" width="23.7" height="4.7" rx="3" fill="#cbd5e1" stroke="#475569"/><rect x="378.1" y="161.5" width="23.7" height="4.7" rx="3" fill="#cbd5e1" stroke="#475569"/><rect x="378.1" y="166.3" width="23.7" height="4.7" rx="3" fill="#cbd5e1" stroke="#475569"/><rect x="378.1" y="171.0" width="23.7" height="4.7" rx="3" fill="#cbd5e1" stroke="#475569"/><rect x="378.1" y="175.8" width="23.7" height="4.7" rx="3" fill="#cbd5e1" stroke="#475569"/><rect x="378.1" y="180.5" width="23.7" height="4.7" rx="3" fill="#cbd5e1" stroke="#475569"/><rect x="378.1" y="185.3" width="23.7" height="4.7" rx="3" fill="#cbd5e1" stroke="#475569"/><rect x="378.1" y="190.0" width="23.7" height="4.7" rx="3" fill="#cbd5e1" stroke="#475569"/><rect x="378.1" y="194.8" width="23.7" height="4.7" rx="3" fill="#cbd5e1" stroke="#475569"/><rect x="378.1" y="199.5" width="23.7" height="4.7" rx="3" fill="#cbd5e1" stroke="#475569"/><rect x="378.1" y="204.3" width="23.7" height="4.7" rx="3" fill="#cbd5e1" stroke="#475569"/><rect x="378.1" y="209.0" width="23.7" height="4.7" rx="3" fill="#cbd5e1" stroke="#475569"/><rect x="378.1" y="213.8" width="23.7" height="4.7" rx="3" fill="#cbd5e1" stroke="#475569"/><rect x="378.1" y="218.5" width="23.7" height="4.7" rx="3" fill="#cbd5e1" stroke="#475569"/><rect x="378.1" y="223.3" width="23.7" height="4.7" rx="3" fill="#cbd5e1" stroke="#475569"/><polygon points="384.2,228.0 395.8,228.0 398.5,243.8 381.5,243.8" fill="#f87171" stroke="#991b1b"/><rect x="378.1" y="243.8" width="23.7" height="1.9" rx="3" fill="#cbd5e1" stroke="#475569"/><rect x="378.1" y="245.7" width="23.7" height="4.7" rx="3" fill="#cbd5e1" stroke="#475569"/><rect x="378.1" y="250.4" width="23.7" height="4.7" rx="3" fill="#cbd5e1" stroke="#475569"/><rect x="378.1" y="255.2" width="23.7" height="4.7" rx="3" fill="#cbd5e1" stroke="#475569"/><rect x="354.4" y="259.9" width="71.2" height="15.8" rx="2" fill="#cbd5e1" stroke="#64748b" stroke-dasharray="3 2" opacity="0.45"/><polygon points="384.2,259.9 395.8,259.9 398.5,275.7 381.5,275.7" fill="#f87171" stroke="#991b1b"/><rect x="378.1" y="275.7" width="23.7" height="1.9" rx="3" fill="#cbd5e1" stroke="#475569"/><rect x="354.4" y="277.6" width="71.2" height="36.6" rx="3" fill="#cbd5e1" stroke="#475569"/><rect x="354.4" y="314.2" width="71.2" height="36.6" rx="3" fill="#cbd5e1" stroke="#475569"/><rect x="354.4" y="350.8" width="71.2" height="36.6" rx="3" fill="#cbd5e1" stroke="#475569"/><rect x="354.4" y="387.4" width="71.2" height="36.6" rx="3" fill="#cbd5e1" stroke="#475569"/><rect x="354.4" y="424.0" width="71.2" height="36.6" rx="3" fill="#cbd5e1" stroke="#475569"/><rect x="354.4" y="460.6" width="71.2" height="36.6" rx="3" fill="#cbd5e1" stroke="#475569"/><rect x="354.4" y="497.2" width="71.2" height="36.6" rx="3" fill="#cbd5e1" stroke="#475569"/><rect x="354.4" y="533.8" width="71.2" height="36.6" rx="3" fill="#cbd5e1" stroke="#475569"/><rect x="354.4" y="570.4" width="71.2" height="36.6" rx="3" fill="#cbd5e1" stroke="#475569"/><polygon points="372.6,607.0 407.4,607.0 415.6,636.0 364.4,636.0" fill="#f87171" stroke="#991b1b"/><rect x="384.1" y="85.8" width="11.9" height="1.0" rx="3" fill="#cbd5e1" stroke="#475569"/><rect x="384.1" y="85.2" width="11.9" height="3.4" rx="3" fill="#cbd5e1" stroke="#475569"/><rect x="378.1" y="84.8" width="23.7" height="4.2" rx="3" fill="#cbd5e1" stroke="#475569"/><rect x="394.8" y="77.4" width="23.7" height="19.0" rx="3" fill="#cbd5e1" stroke="#475569"/><rect x="361.4" y="77.4" width="23.7" height="19.0" rx="3" fill="#cbd5e1" stroke="#475569"/><rect x="395.7" y="84.1" width="11.9" height="12.4" rx="3" fill="#cbd5e1" stroke="#475569"/><line x1="390.0" y1="238.1" x2="390.0" y2="271.1" stroke="#64748b" stroke-width="3" stroke-linecap="round"/><line x1="454.0" y1="238.1" x2="454.0" y2="271.1" stroke="#64748b" stroke-width="3" stroke-linecap="round"/><line x1="390.0" y1="238.1" x2="390.0" y2="271.1" stroke="#64748b" stroke-width="3" stroke-linecap="round"/><line x1="326.0" y1="238.1" x2="326.0" y2="271.1" stroke="#64748b" stroke-width="3" stroke-linecap="round"/><polygon points="390.0,588.3 382.0,625.3 398.0,625.3" fill="#94a3b8" stroke="#475569" opacity="0.88"/><polygon points="420.6,588.3 412.6,625.3 428.6,625.3" fill="#94a3b8" stroke="#475569" opacity="0.88"/><polygon points="433.2,588.3 425.2,625.3 441.2,625.3" fill="#94a3b8" stroke="#475569" opacity="0.88"/><polygon points="420.6,588.3 412.6,625.3 428.6,625.3" fill="#94a3b8" stroke="#475569" opacity="0.88"/><polygon points="390.0,588.3 382.0,625.3 398.0,625.3" fill="#94a3b8" stroke="#475569" opacity="0.88"/><polygon points="359.4,588.3 351.4,625.3 367.4,625.3" fill="#94a3b8" stroke="#475569" opacity="0.88"/><polygon points="346.8,588.3 338.8,625.3 354.8,625.3" fill="#94a3b8" stroke="#475569" opacity="0.88"/><polygon points="359.4,588.3 351.4,625.3 367.4,625.3" fill="#94a3b8" stroke="#475569" opacity="0.88"/>
  <circle cx="625.0" cy="380.0" r="35.6" fill="#cbd5e1" stroke="#475569" opacity="0.30"/><circle cx="625.0" cy="380.0" r="35.6" fill="#cbd5e1" stroke="#475569" opacity="0.30"/><circle cx="625.0" cy="380.0" r="35.6" fill="#cbd5e1" stroke="#475569" opacity="0.30"/><circle cx="625.0" cy="380.0" r="35.6" fill="#cbd5e1" stroke="#475569" opacity="0.30"/><circle cx="625.0" cy="380.0" r="35.6" fill="#cbd5e1" stroke="#475569" opacity="0.30"/><circle cx="625.0" cy="380.0" r="35.6" fill="#cbd5e1" stroke="#475569" opacity="0.30"/><circle cx="625.0" cy="380.0" r="35.6" fill="#cbd5e1" stroke="#475569" opacity="0.30"/><circle cx="625.0" cy="380.0" r="35.6" fill="#cbd5e1" stroke="#475569" opacity="0.30"/><circle cx="638.8" cy="380.0" r="5.9" fill="#cbd5e1" stroke="#334155" opacity="0.80"/><circle cx="641.7" cy="380.0" r="5.9" fill="#cbd5e1" stroke="#334155" opacity="0.80"/><circle cx="608.3" cy="380.0" r="11.9" fill="#cbd5e1" stroke="#334155" opacity="0.80"/><circle cx="625.0" cy="396.7" r="11.9" fill="#cbd5e1" stroke="#334155" opacity="0.80"/><circle cx="625.0" cy="363.3" r="11.9" fill="#cbd5e1" stroke="#334155" opacity="0.80"/><circle cx="636.7" cy="391.7" r="5.9" fill="#cbd5e1" stroke="#334155" opacity="0.80"/><circle cx="668.2" cy="380.0" r="3.3" fill="#94a3b8" stroke="#334155" opacity="0.80"/><circle cx="655.6" cy="410.6" r="3.3" fill="#94a3b8" stroke="#334155" opacity="0.80"/><circle cx="625.0" cy="423.2" r="3.3" fill="#94a3b8" stroke="#334155" opacity="0.80"/><circle cx="594.4" cy="410.6" r="3.3" fill="#94a3b8" stroke="#334155" opacity="0.80"/><circle cx="581.8" cy="380.0" r="3.3" fill="#94a3b8" stroke="#334155" opacity="0.80"/><circle cx="594.4" cy="349.4" r="3.3" fill="#94a3b8" stroke="#334155" opacity="0.80"/><circle cx="625.0" cy="336.8" r="3.3" fill="#94a3b8" stroke="#334155" opacity="0.80"/><circle cx="655.6" cy="349.4" r="3.3" fill="#94a3b8" stroke="#334155" opacity="0.80"/><circle cx="689.0" cy="380.0" r="3.3" fill="#64748b" stroke="#334155" opacity="0.80"/><circle cx="625.0" cy="444.0" r="3.3" fill="#64748b" stroke="#334155" opacity="0.80"/><circle cx="561.0" cy="380.0" r="3.3" fill="#64748b" stroke="#334155" opacity="0.80"/><circle cx="625.0" cy="316.0" r="3.3" fill="#64748b" stroke="#334155" opacity="0.80"/>
  <text x="805" y="94" font-size="12" fill="#16a34a">PASS - slender body (4 &lt;= L/D &lt;= 19)</text><text x="805" y="116" font-size="12" fill="#16a34a">PASS - monotonic taper (widest toward base)</text><text x="805" y="138" font-size="12" fill="#16a34a">PASS - payload housed (fairing or capsule top)</text><text x="805" y="160" font-size="12" fill="#16a34a">PASS - payload fully enclosed (nothing protrudes the fairing)</text><text x="805" y="182" font-size="12" fill="#16a34a">PASS - engine at the base</text><text x="805" y="204" font-size="12" fill="#16a34a">PASS - upper-stage engine has interstage shroud</text><text x="805" y="226" font-size="12" fill="#16a34a">PASS - controlled ascent margin</text><text x="805" y="248" font-size="12" fill="#16a34a">PASS - radial protrusions within ascent envelope</text><text x="805" y="270" font-size="12" fill="#16a34a">PASS - landing gear tip-over stable</text>
  <text x="805" y="302" font-size="12" fill="#0f172a">L/D 7.9:1</text><text x="805" y="320" font-size="12" fill="#0f172a">length 29.48 m</text><text x="805" y="338" font-size="12" fill="#0f172a">body dia 3.75 m</text><text x="805" y="356" font-size="12" fill="#0f172a">core span 4.9 m</text><text x="805" y="374" font-size="12" fill="#0f172a">full span 7.09 m</text><text x="805" y="392" font-size="12" fill="#0f172a">static -0.01 cal</text><text x="805" y="410" font-size="12" fill="#0f172a">Cd 0.232</text><text x="805" y="428" font-size="12" fill="#0f172a">drag loss 170.0 m/s</text><text x="805" y="446" font-size="12" fill="#0f172a">max-Q 88.4 kPa</text>
</svg>