<svg xmlns="http://www.w3.org/2000/svg" width="1080" height="700" viewBox="0 0 1080 700" font-family="system-ui,Segoe UI,sans-serif">
  <rect width="1080" height="700" fill="#f8fafc"/>
  <text x="30" y="32" font-size="19" font-weight="700" fill="#0f172a">Three-view design chart - AI-Eve-Integrated</text>
  <text x="805" y="56" font-size="15" font-weight="700" fill="#dc2626">REJECTED - geometry gate failed</text>
  <text x="118" y="58" font-size="12" font-weight="700" fill="#334155">SIDE</text>
  <text x="355" y="58" font-size="12" font-weight="700" fill="#334155">FRONT</text>
  <text x="594" y="220" font-size="12" font-weight="700" fill="#334155">TOP</text>
  <line x1="150.0" y1="60" x2="150.0" y2="650" stroke="#e2e8f0" stroke-dasharray="4 4"/>
  <line x1="390.0" y1="60" x2="390.0" y2="650" stroke="#e2e8f0" stroke-dasharray="4 4"/>
  <circle cx="625.0" cy="380.0" r="6.9" fill="none" stroke="#94a3b8" stroke-dasharray="4 4"/>
  <polygon points="150.0,76.0 147.7,78.6 152.3,78.6" fill="#e2e8f0" stroke="#475569"/><rect x="147.7" y="78.6" width="4.6" height="1.3" rx="3" fill="#cbd5e1" stroke="#475569"/><rect x="147.7" y="79.9" width="4.6" height="3.9" rx="3" fill="#e2e8f0" stroke="#475569"/><rect x="147.7" y="83.7" width="4.6" height="1.0" rx="3" fill="#cbd5e1" stroke="#475569"/><rect x="147.7" y="84.5" width="4.6" height="1.0" rx="3" fill="#cbd5e1" stroke="#475569"/><rect x="147.7" y="84.9" width="4.6" height="1.4" rx="3" fill="#cbd5e1" stroke="#475569"/><rect x="147.7" y="86.2" width="4.6" height="6.9" rx="3" fill="#cbd5e1" stroke="#475569"/><rect x="147.7" y="93.2" width="4.6" height="1.1" rx="3" fill="#cbd5e1" stroke="#475569"/><rect x="147.7" y="94.3" width="4.6" height="1.1" rx="3" fill="#cbd5e1" stroke="#475569"/><rect x="147.7" y="95.4" width="4.6" height="1.1" rx="3" fill="#cbd5e1" stroke="#475569"/><rect x="147.7" y="96.5" width="4.6" height="1.0" rx="3" fill="#cbd5e1" stroke="#475569"/><rect x="147.7" y="96.8" width="4.6" height="7.0" rx="3" fill="#cbd5e1" stroke="#475569"/><polygon points="148.9,103.8 151.1,103.8 151.7,106.9 148.3,106.9" fill="#f87171" stroke="#991b1b"/><rect x="147.7" y="106.9" width="4.6" height="1.0" rx="3" fill="#cbd5e1" stroke="#475569"/><polygon points="147.7,107.3 152.3,107.3 154.6,116.5 145.4,116.5" fill="#dbeafe" stroke="#2563eb"/><rect x="145.4" y="116.5" width="9.2" height="13.7" rx="3" fill="#cbd5e1" stroke="#475569"/><polygon points="148.9,130.2 151.1,130.2 151.7,133.3 148.3,133.3" fill="#f87171" stroke="#991b1b"/><rect x="147.7" y="133.3" width="4.6" height="1.0" rx="3" fill="#cbd5e1" stroke="#475569"/><polygon points="145.4,133.7 154.6,133.7 156.9,142.0 143.1,142.0" fill="#dbeafe" stroke="#2563eb"/><rect x="143.1" y="142.0" width="13.8" height="7.1" rx="3" fill="#cbd5e1" stroke="#475569"/><rect x="143.1" y="149.1" width="13.8" height="7.1" rx="3" fill="#cbd5e1" stroke="#475569"/><rect x="143.1" y="156.2" width="13.8" height="7.1" rx="3" fill="#cbd5e1" stroke="#475569"/><rect x="143.1" y="163.3" width="13.8" height="7.1" rx="3" fill="#cbd5e1" stroke="#475569"/><rect x="143.1" y="170.4" width="13.8" height="7.1" rx="3" fill="#cbd5e1" stroke="#475569"/><rect x="143.1" y="177.5" width="13.8" height="7.1" rx="3" fill="#cbd5e1" stroke="#475569"/><rect x="143.1" y="184.6" width="13.8" height="7.1" rx="3" fill="#cbd5e1" stroke="#475569"/><rect x="143.1" y="191.7" width="13.8" height="7.1" rx="3" fill="#cbd5e1" stroke="#475569"/><rect x="143.1" y="198.9" width="13.8" height="7.1" rx="3" fill="#cbd5e1" stroke="#475569"/><rect x="143.1" y="206.0" width="13.8" height="7.1" rx="3" fill="#cbd5e1" stroke="#475569"/><rect x="143.1" y="213.1" width="13.8" height="7.1" rx="3" fill="#cbd5e1" stroke="#475569"/><rect x="143.1" y="220.2" width="13.8" height="7.1" rx="3" fill="#cbd5e1" stroke="#475569"/><rect x="143.1" y="227.3" width="13.8" height="7.1" rx="3" fill="#cbd5e1" stroke="#475569"/><rect x="143.1" y="234.4" width="13.8" height="7.1" rx="3" fill="#cbd5e1" stroke="#475569"/><rect x="143.1" y="241.5" width="13.8" height="7.1" rx="3" fill="#cbd5e1" stroke="#475569"/><rect x="143.1" y="248.6" width="13.8" height="7.1" rx="3" fill="#cbd5e1" stroke="#475569"/><rect x="143.1" y="255.7" width="13.8" height="7.1" rx="3" fill="#cbd5e1" stroke="#475569"/><polygon points="147.7,262.9 152.3,262.9 153.3,273.8 146.7,273.8" fill="#f87171" stroke="#991b1b"/><rect x="147.7" y="273.8" width="4.6" height="1.0" rx="3" fill="#cbd5e1" stroke="#475569"/><rect x="143.1" y="274.2" width="13.8" height="14.3" rx="3" fill="#cbd5e1" stroke="#475569"/><rect x="143.1" y="288.5" width="13.8" height="14.3" rx="3" fill="#cbd5e1" stroke="#475569"/><rect x="143.1" y="302.7" width="13.8" height="14.3" rx="3" fill="#cbd5e1" stroke="#475569"/><rect x="143.1" y="317.0" width="13.8" height="14.3" rx="3" fill="#cbd5e1" stroke="#475569"/><rect x="143.1" y="331.3" width="13.8" height="14.3" rx="3" fill="#cbd5e1" stroke="#475569"/><polygon points="148.9,345.6 151.1,345.6 151.7,348.6 148.3,348.6" fill="#f87171" stroke="#991b1b"/><rect x="147.7" y="348.6" width="4.6" height="1.0" rx="3" fill="#cbd5e1" stroke="#475569"/><rect x="143.1" y="349.0" width="13.8" height="27.6" rx="3" fill="#cbd5e1" stroke="#475569"/><rect x="143.1" y="376.6" width="13.8" height="27.6" rx="3" fill="#cbd5e1" stroke="#475569"/><rect x="143.1" y="404.2" width="13.8" height="27.6" rx="3" fill="#cbd5e1" stroke="#475569"/><rect x="143.1" y="431.8" width="13.8" height="27.6" rx="3" fill="#cbd5e1" stroke="#475569"/><rect x="143.1" y="459.4" width="13.8" height="27.6" rx="3" fill="#cbd5e1" stroke="#475569"/><rect x="143.1" y="487.0" width="13.8" height="27.6" rx="3" fill="#cbd5e1" stroke="#475569"/><rect x="143.1" y="514.6" width="13.8" height="27.6" rx="3" fill="#cbd5e1" stroke="#475569"/><rect x="143.1" y="542.2" width="13.8" height="27.6" rx="3" fill="#cbd5e1" stroke="#475569"/><rect x="143.1" y="569.8" width="13.8" height="27.6" rx="3" fill="#cbd5e1" stroke="#475569"/><rect x="143.1" y="597.4" width="13.8" height="27.6" rx="3" fill="#cbd5e1" stroke="#475569"/><polygon points="147.7,625.0 152.3,625.0 153.3,636.0 146.7,636.0" fill="#f87171" stroke="#991b1b"/><rect x="150.9" y="80.9" width="4.6" height="2.2" rx="3" fill="#cbd5e1" stroke="#475569"/><rect x="144.4" y="81.3" width="4.6" height="1.5" rx="3" fill="#cbd5e1" stroke="#475569"/><rect x="147.7" y="81.4" width="4.6" height="1.1" rx="3" fill="#cbd5e1" stroke="#475569"/><rect x="147.7" y="81.4" width="4.6" height="1.1" rx="3" fill="#cbd5e1" stroke="#475569"/><rect x="150.0" y="81.7" width="4.6" height="1.8" rx="3" fill="#cbd5e1" stroke="#475569"/><line x1="161.5" y1="106.7" x2="161.5" y2="122.6" stroke="#64748b" stroke-width="3" stroke-linecap="round"/><line x1="150.0" y1="106.7" x2="150.0" y2="122.6" stroke="#64748b" stroke-width="3" stroke-linecap="round"/><line x1="138.5" y1="106.7" x2="138.5" y2="122.6" stroke="#64748b" stroke-width="3" stroke-linecap="round"/><line x1="150.0" y1="106.7" x2="150.0" y2="122.6" stroke="#64748b" stroke-width="3" stroke-linecap="round"/><polygon points="154.4,262.9 158.9,262.9 160.0,273.8 153.3,273.8" fill="#f87171" stroke="#991b1b"/><polygon points="151.1,262.9 155.6,262.9 156.6,273.8 150.0,273.8" fill="#f87171" stroke="#991b1b"/><polygon points="144.4,262.9 148.9,262.9 150.0,273.8 143.4,273.8" fill="#f87171" stroke="#991b1b"/><polygon points="141.1,262.9 145.6,262.9 146.7,273.8 140.0,273.8" fill="#f87171" stroke="#991b1b"/><polygon points="144.4,262.9 148.9,262.9 150.0,273.8 143.4,273.8" fill="#f87171" stroke="#991b1b"/><polygon points="151.1,262.9 155.6,262.9 156.6,273.8 150.0,273.8" fill="#f87171" stroke="#991b1b"/><polygon points="158.4,617.2 150.4,637.1 166.4,637.1" fill="#94a3b8" stroke="#475569" opacity="0.88"/><polygon points="155.9,617.2 147.9,637.1 163.9,637.1" fill="#94a3b8" stroke="#475569" opacity="0.88"/><polygon points="150.0,617.2 142.0,637.1 158.0,637.1" fill="#94a3b8" stroke="#475569" opacity="0.88"/><polygon points="144.1,617.2 136.1,637.1 152.1,637.1" fill="#94a3b8" stroke="#475569" opacity="0.88"/><polygon points="141.6,617.2 133.6,637.1 149.6,637.1" fill="#94a3b8" stroke="#475569" opacity="0.88"/><polygon points="144.1,617.2 136.1,637.1 152.1,637.1" fill="#94a3b8" stroke="#475569" opacity="0.88"/><polygon points="150.0,617.2 142.0,637.1 158.0,637.1" fill="#94a3b8" stroke="#475569" opacity="0.88"/><polygon points="155.9,617.2 147.9,637.1 163.9,637.1" fill="#94a3b8" stroke="#475569" opacity="0.88"/><polygon points="154.4,625.0 158.9,625.0 160.0,636.0 153.3,636.0" fill="#f87171" stroke="#991b1b"/><polygon points="151.1,625.0 155.6,625.0 156.6,636.0 150.0,636.0" fill="#f87171" stroke="#991b1b"/><polygon points="144.4,625.0 148.9,625.0 150.0,636.0 143.4,636.0" fill="#f87171" stroke="#991b1b"/><polygon points="141.1,625.0 145.6,625.0 146.7,636.0 140.0,636.0" fill="#f87171" stroke="#991b1b"/><polygon points="144.4,625.0 148.9,625.0 150.0,636.0 143.4,636.0" fill="#f87171" stroke="#991b1b"/><polygon points="151.1,625.0 155.6,625.0 156.6,636.0 150.0,636.0" fill="#f87171" stroke="#991b1b"/>
  <polygon points="390.0,76.0 387.7,78.6 392.3,78.6" fill="#e2e8f0" stroke="#475569"/><rect x="387.7" y="78.6" width="4.6" height="1.3" rx="3" fill="#cbd5e1" stroke="#475569"/><rect x="387.7" y="79.9" width="4.6" height="3.9" rx="3" fill="#e2e8f0" stroke="#475569"/><rect x="387.7" y="83.7" width="4.6" height="1.0" rx="3" fill="#cbd5e1" stroke="#475569"/><rect x="387.7" y="84.5" width="4.6" height="1.0" rx="3" fill="#cbd5e1" stroke="#475569"/><rect x="387.7" y="84.9" width="4.6" height="1.4" rx="3" fill="#cbd5e1" stroke="#475569"/><rect x="387.7" y="86.2" width="4.6" height="6.9" rx="3" fill="#cbd5e1" stroke="#475569"/><rect x="387.7" y="93.2" width="4.6" height="1.1" rx="3" fill="#cbd5e1" stroke="#475569"/><rect x="387.7" y="94.3" width="4.6" height="1.1" rx="3" fill="#cbd5e1" stroke="#475569"/><rect x="387.7" y="95.4" width="4.6" height="1.1" rx="3" fill="#cbd5e1" stroke="#475569"/><rect x="387.7" y="96.5" width="4.6" height="1.0" rx="3" fill="#cbd5e1" stroke="#475569"/><rect x="387.7" y="96.8" width="4.6" height="7.0" rx="3" fill="#cbd5e1" stroke="#475569"/><polygon points="388.9,103.8 391.1,103.8 391.7,106.9 388.3,106.9" fill="#f87171" stroke="#991b1b"/><rect x="387.7" y="106.9" width="4.6" height="1.0" rx="3" fill="#cbd5e1" stroke="#475569"/><polygon points="387.7,107.3 392.3,107.3 394.6,116.5 385.4,116.5" fill="#dbeafe" stroke="#2563eb"/><rect x="385.4" y="116.5" width="9.2" height="13.7" rx="3" fill="#cbd5e1" stroke="#475569"/><polygon points="388.9,130.2 391.1,130.2 391.7,133.3 388.3,133.3" fill="#f87171" stroke="#991b1b"/><rect x="387.7" y="133.3" width="4.6" height="1.0" rx="3" fill="#cbd5e1" stroke="#475569"/><polygon points="385.4,133.7 394.6,133.7 396.9,142.0 383.1,142.0" fill="#dbeafe" stroke="#2563eb"/><rect x="383.1" y="142.0" width="13.8" height="7.1" rx="3" fill="#cbd5e1" stroke="#475569"/><rect x="383.1" y="149.1" width="13.8" height="7.1" rx="3" fill="#cbd5e1" stroke="#475569"/><rect x="383.1" y="156.2" width="13.8" height="7.1" rx="3" fill="#cbd5e1" stroke="#475569"/><rect x="383.1" y="163.3" width="13.8" height="7.1" rx="3" fill="#cbd5e1" stroke="#475569"/><rect x="383.1" y="170.4" width="13.8" height="7.1" rx="3" fill="#cbd5e1" stroke="#475569"/><rect x="383.1" y="177.5" width="13.8" height="7.1" rx="3" fill="#cbd5e1" stroke="#475569"/><rect x="383.1" y="184.6" width="13.8" height="7.1" rx="3" fill="#cbd5e1" stroke="#475569"/><rect x="383.1" y="191.7" width="13.8" height="7.1" rx="3" fill="#cbd5e1" stroke="#475569"/><rect x="383.1" y="198.9" width="13.8" height="7.1" rx="3" fill="#cbd5e1" stroke="#475569"/><rect x="383.1" y="206.0" width="13.8" height="7.1" rx="3" fill="#cbd5e1" stroke="#475569"/><rect x="383.1" y="213.1" width="13.8" height="7.1" rx="3" fill="#cbd5e1" stroke="#475569"/><rect x="383.1" y="220.2" width="13.8" height="7.1" rx="3" fill="#cbd5e1" stroke="#475569"/><rect x="383.1" y="227.3" width="13.8" height="7.1" rx="3" fill="#cbd5e1" stroke="#475569"/><rect x="383.1" y="234.4" width="13.8" height="7.1" rx="3" fill="#cbd5e1" stroke="#475569"/><rect x="383.1" y="241.5" width="13.8" height="7.1" rx="3" fill="#cbd5e1" stroke="#475569"/><rect x="383.1" y="248.6" width="13.8" height="7.1" rx="3" fill="#cbd5e1" stroke="#475569"/><rect x="383.1" y="255.7" width="13.8" height="7.1" rx="3" fill="#cbd5e1" stroke="#475569"/><polygon points="387.7,262.9 392.3,262.9 393.3,273.8 386.7,273.8" fill="#f87171" stroke="#991b1b"/><rect x="387.7" y="273.8" width="4.6" height="1.0" rx="3" fill="#cbd5e1" stroke="#475569"/><rect x="383.1" y="274.2" width="13.8" height="14.3" rx="3" fill="#cbd5e1" stroke="#475569"/><rect x="383.1" y="288.5" width="13.8" height="14.3" rx="3" fill="#cbd5e1" stroke="#475569"/><rect x="383.1" y="302.7" width="13.8" height="14.3" rx="3" fill="#cbd5e1" stroke="#475569"/><rect x="383.1" y="317.0" width="13.8" height="14.3" rx="3" fill="#cbd5e1" stroke="#475569"/><rect x="383.1" y="331.3" width="13.8" height="14.3" rx="3" fill="#cbd5e1" stroke="#475569"/><polygon points="388.9,345.6 391.1,345.6 391.7,348.6 388.3,348.6" fill="#f87171" stroke="#991b1b"/><rect x="387.7" y="348.6" width="4.6" height="1.0" rx="3" fill="#cbd5e1" stroke="#475569"/><rect x="383.1" y="349.0" width="13.8" height="27.6" rx="3" fill="#cbd5e1" stroke="#475569"/><rect x="383.1" y="376.6" width="13.8" height="27.6" rx="3" fill="#cbd5e1" stroke="#475569"/><rect x="383.1" y="404.2" width="13.8" height="27.6" rx="3" fill="#cbd5e1" stroke="#475569"/><rect x="383.1" y="431.8" width="13.8" height="27.6" rx="3" fill="#cbd5e1" stroke="#475569"/><rect x="383.1" y="459.4" width="13.8" height="27.6" rx="3" fill="#cbd5e1" stroke="#475569"/><rect x="383.1" y="487.0" width="13.8" height="27.6" rx="3" fill="#cbd5e1" stroke="#475569"/><rect x="383.1" y="514.6" width="13.8" height="27.6" rx="3" fill="#cbd5e1" stroke="#475569"/><rect x="383.1" y="542.2" width="13.8" height="27.6" rx="3" fill="#cbd5e1" stroke="#475569"/><rect x="383.1" y="569.8" width="13.8" height="27.6" rx="3" fill="#cbd5e1" stroke="#475569"/><rect x="383.1" y="597.4" width="13.8" height="27.6" rx="3" fill="#cbd5e1" stroke="#475569"/><polygon points="387.7,625.0 392.3,625.0 393.3,636.0 386.7,636.0" fill="#f87171" stroke="#991b1b"/><rect x="387.7" y="80.9" width="4.6" height="2.2" rx="3" fill="#cbd5e1" stroke="#475569"/><rect x="387.7" y="81.3" width="4.6" height="1.5" rx="3" fill="#cbd5e1" stroke="#475569"/><rect x="390.9" y="81.4" width="4.6" height="1.1" rx="3" fill="#cbd5e1" stroke="#475569"/><rect x="384.4" y="81.4" width="4.6" height="1.1" rx="3" fill="#cbd5e1" stroke="#475569"/><rect x="390.0" y="81.7" width="4.6" height="1.8" rx="3" fill="#cbd5e1" stroke="#475569"/><line x1="390.0" y1="106.7" x2="390.0" y2="122.6" stroke="#64748b" stroke-width="3" stroke-linecap="round"/><line x1="401.5" y1="106.7" x2="401.5" y2="122.6" stroke="#64748b" stroke-width="3" stroke-linecap="round"/><line x1="390.0" y1="106.7" x2="390.0" y2="122.6" stroke="#64748b" stroke-width="3" stroke-linecap="round"/><line x1="378.5" y1="106.7" x2="378.5" y2="122.6" stroke="#64748b" stroke-width="3" stroke-linecap="round"/><polygon points="387.7,262.9 392.3,262.9 393.3,273.8 386.7,273.8" fill="#f87171" stroke="#991b1b"/><polygon points="393.5,262.9 398.0,262.9 399.1,273.8 392.4,273.8" fill="#f87171" stroke="#991b1b"/><polygon points="393.5,262.9 398.0,262.9 399.1,273.8 392.4,273.8" fill="#f87171" stroke="#991b1b"/><polygon points="387.7,262.9 392.3,262.9 393.3,273.8 386.7,273.8" fill="#f87171" stroke="#991b1b"/><polygon points="382.0,262.9 386.5,262.9 387.6,273.8 380.9,273.8" fill="#f87171" stroke="#991b1b"/><polygon points="382.0,262.9 386.5,262.9 387.6,273.8 380.9,273.8" fill="#f87171" stroke="#991b1b"/><polygon points="390.0,617.2 382.0,637.1 398.0,637.1" fill="#94a3b8" stroke="#475569" opacity="0.88"/><polygon points="395.9,617.2 387.9,637.1 403.9,637.1" fill="#94a3b8" stroke="#475569" opacity="0.88"/><polygon points="398.4,617.2 390.4,637.1 406.4,637.1" fill="#94a3b8" stroke="#475569" opacity="0.88"/><polygon points="395.9,617.2 387.9,637.1 403.9,637.1" fill="#94a3b8" stroke="#475569" opacity="0.88"/><polygon points="390.0,617.2 382.0,637.1 398.0,637.1" fill="#94a3b8" stroke="#475569" opacity="0.88"/><polygon points="384.1,617.2 376.1,637.1 392.1,637.1" fill="#94a3b8" stroke="#475569" opacity="0.88"/><polygon points="381.6,617.2 373.6,637.1 389.6,637.1" fill="#94a3b8" stroke="#475569" opacity="0.88"/><polygon points="384.1,617.2 376.1,637.1 392.1,637.1" fill="#94a3b8" stroke="#475569" opacity="0.88"/><polygon points="387.7,625.0 392.3,625.0 393.3,636.0 386.7,636.0" fill="#f87171" stroke="#991b1b"/><polygon points="393.5,625.0 398.0,625.0 399.1,636.0 392.4,636.0" fill="#f87171" stroke="#991b1b"/><polygon points="393.5,625.0 398.0,625.0 399.1,636.0 392.4,636.0" fill="#f87171" stroke="#991b1b"/><polygon points="387.7,625.0 392.3,625.0 393.3,636.0 386.7,636.0" fill="#f87171" stroke="#991b1b"/><polygon points="382.0,625.0 386.5,625.0 387.6,636.0 380.9,636.0" fill="#f87171" stroke="#991b1b"/><polygon points="382.0,625.0 386.5,625.0 387.6,636.0 380.9,636.0" fill="#f87171" stroke="#991b1b"/>
  <circle cx="625.0" cy="380.0" r="6.9" fill="#dbeafe" stroke="#475569" opacity="0.30"/><circle cx="625.0" cy="380.0" r="6.9" fill="#cbd5e1" stroke="#475569" opacity="0.30"/><circle cx="625.0" cy="380.0" r="6.9" fill="#cbd5e1" stroke="#475569" opacity="0.30"/><circle cx="625.0" cy="380.0" r="6.9" fill="#cbd5e1" stroke="#475569" opacity="0.30"/><circle cx="625.0" cy="380.0" r="6.9" fill="#cbd5e1" stroke="#475569" opacity="0.30"/><circle cx="625.0" cy="380.0" r="6.9" fill="#cbd5e1" stroke="#475569" opacity="0.30"/><circle cx="625.0" cy="380.0" r="6.9" fill="#cbd5e1" stroke="#475569" opacity="0.30"/><circle cx="625.0" cy="380.0" r="6.9" fill="#cbd5e1" stroke="#475569" opacity="0.30"/><circle cx="631.6" cy="380.0" r="3.3" fill="#f87171" stroke="#334155" opacity="0.80"/><circle cx="628.3" cy="385.8" r="3.3" fill="#f87171" stroke="#334155" opacity="0.80"/><circle cx="621.7" cy="385.8" r="3.3" fill="#f87171" stroke="#334155" opacity="0.80"/><circle cx="618.4" cy="380.0" r="3.3" fill="#f87171" stroke="#334155" opacity="0.80"/><circle cx="621.7" cy="374.2" r="3.3" fill="#f87171" stroke="#334155" opacity="0.80"/><circle cx="628.3" cy="374.2" r="3.3" fill="#f87171" stroke="#334155" opacity="0.80"/><circle cx="631.6" cy="380.0" r="3.3" fill="#f87171" stroke="#334155" opacity="0.80"/><circle cx="628.3" cy="385.8" r="3.3" fill="#f87171" stroke="#334155" opacity="0.80"/><circle cx="621.7" cy="385.8" r="3.3" fill="#f87171" stroke="#334155" opacity="0.80"/><circle cx="618.4" cy="380.0" r="3.3" fill="#f87171" stroke="#334155" opacity="0.80"/><circle cx="621.7" cy="374.2" r="3.3" fill="#f87171" stroke="#334155" opacity="0.80"/><circle cx="628.3" cy="374.2" r="3.3" fill="#f87171" stroke="#334155" opacity="0.80"/><circle cx="628.2" cy="380.0" r="2.5" fill="#cbd5e1" stroke="#334155" opacity="0.80"/><circle cx="621.8" cy="380.0" r="2.5" fill="#cbd5e1" stroke="#334155" opacity="0.80"/><circle cx="625.0" cy="383.2" r="2.5" fill="#cbd5e1" stroke="#334155" opacity="0.80"/><circle cx="625.0" cy="376.8" r="2.5" fill="#cbd5e1" stroke="#334155" opacity="0.80"/><circle cx="627.3" cy="382.3" r="2.5" fill="#cbd5e1" stroke="#334155" opacity="0.80"/><circle cx="633.4" cy="380.0" r="2.5" fill="#94a3b8" stroke="#334155" opacity="0.80"/><circle cx="630.9" cy="385.9" r="2.5" fill="#94a3b8" stroke="#334155" opacity="0.80"/><circle cx="625.0" cy="388.4" r="2.5" fill="#94a3b8" stroke="#334155" opacity="0.80"/><circle cx="619.1" cy="385.9" r="2.5" fill="#94a3b8" stroke="#334155" opacity="0.80"/><circle cx="616.6" cy="380.0" r="2.5" fill="#94a3b8" stroke="#334155" opacity="0.80"/><circle cx="619.1" cy="374.1" r="2.5" fill="#94a3b8" stroke="#334155" opacity="0.80"/><circle cx="625.0" cy="371.6" r="2.5" fill="#94a3b8" stroke="#334155" opacity="0.80"/><circle cx="630.9" cy="374.1" r="2.5" fill="#94a3b8" stroke="#334155" opacity="0.80"/><circle cx="636.5" cy="380.0" r="2.5" fill="#64748b" stroke="#334155" opacity="0.80"/><circle cx="625.0" cy="391.5" r="2.5" fill="#64748b" stroke="#334155" opacity="0.80"/><circle cx="613.5" cy="380.0" r="2.5" fill="#64748b" stroke="#334155" opacity="0.80"/><circle cx="625.0" cy="368.5" r="2.5" fill="#64748b" stroke="#334155" opacity="0.80"/>
  <text x="805" y="94" font-size="12" fill="#dc2626">FAIL - slender body (4 &lt;= L/D &lt;= 19)</text><text x="805" y="116" font-size="12" fill="#16a34a">PASS - monotonic taper (widest toward base)</text><text x="805" y="138" font-size="12" fill="#16a34a">PASS - payload housed (fairing or capsule top)</text><text x="805" y="160" font-size="12" fill="#16a34a">PASS - engine at the base</text><text x="805" y="182" font-size="12" fill="#16a34a">PASS - controlled ascent margin</text><text x="805" y="204" font-size="12" fill="#16a34a">PASS - radial protrusions within ascent envelope</text><text x="805" y="226" font-size="12" fill="#16a34a">PASS - landing gear tip-over stable</text>
  <text x="805" y="258" font-size="12" fill="#0f172a">L/D 40.5:1</text><text x="805" y="276" font-size="12" fill="#0f172a">length 151.74 m</text><text x="805" y="294" font-size="12" fill="#0f172a">body dia 3.75 m</text><text x="805" y="312" font-size="12" fill="#0f172a">core span 5.4 m</text><text x="805" y="330" font-size="12" fill="#0f172a">full span 6.58 m</text><text x="805" y="348" font-size="12" fill="#0f172a">static -0.44 cal</text><text x="805" y="366" font-size="12" fill="#0f172a">Cd 0.352</text><text x="805" y="384" font-size="12" fill="#0f172a">drag loss 36.0 m/s</text><text x="805" y="402" font-size="12" fill="#0f172a">max-Q 88.4 kPa</text>
</svg>