<svg xmlns="http://www.w3.org/2000/svg" width="1080" height="700" viewBox="0 0 1080 700" font-family="system-ui,Segoe UI,sans-serif">
  <rect width="1080" height="700" fill="#f8fafc"/>
  <text x="30" y="32" font-size="19" font-weight="700" fill="#0f172a">Three-view design chart - AI-Eve-Tug</text>
  <text x="805" y="56" font-size="15" font-weight="700" fill="#16a34a">LOOKS LIKE A ROCKET</text>
  <text x="118" y="58" font-size="12" font-weight="700" fill="#334155">SIDE</text>
  <text x="355" y="58" font-size="12" font-weight="700" fill="#334155">FRONT</text>
  <text x="594" y="220" font-size="12" font-weight="700" fill="#334155">TOP</text>
  <line x1="150.0" y1="60" x2="150.0" y2="650" stroke="#e2e8f0" stroke-dasharray="4 4"/>
  <line x1="390.0" y1="60" x2="390.0" y2="650" stroke="#e2e8f0" stroke-dasharray="4 4"/>
  <circle cx="625.0" cy="380.0" r="29.1" fill="none" stroke="#94a3b8" stroke-dasharray="4 4"/>
  <rect x="140.3" y="76.0" width="19.4" height="4.4" rx="3" fill="#e2e8f0" stroke="#475569"/><rect x="140.3" y="80.4" width="19.4" height="16.3" rx="3" fill="#e2e8f0" stroke="#475569"/><rect x="140.3" y="96.7" width="19.4" height="3.1" rx="3" fill="#cbd5e1" stroke="#475569"/><rect x="140.3" y="99.8" width="19.4" height="1.6" rx="3" fill="#cbd5e1" stroke="#475569"/><rect x="140.3" y="101.3" width="19.4" height="5.8" rx="3" fill="#cbd5e1" stroke="#475569"/><rect x="140.3" y="107.2" width="19.4" height="29.1" rx="3" fill="#cbd5e1" stroke="#475569"/><rect x="140.3" y="136.3" width="19.4" height="9.3" rx="3" fill="#cbd5e1" stroke="#475569"/><rect x="140.3" y="145.6" width="19.4" height="9.3" rx="3" fill="#cbd5e1" stroke="#475569"/><rect x="140.3" y="154.9" width="19.4" height="9.3" rx="3" fill="#cbd5e1" stroke="#475569"/><rect x="140.3" y="164.3" width="19.4" height="4.7" rx="3" fill="#cbd5e1" stroke="#475569"/><rect x="140.3" y="168.9" width="19.4" height="4.7" rx="3" fill="#cbd5e1" stroke="#475569"/><rect x="140.3" y="173.6" width="19.4" height="4.7" rx="3" fill="#cbd5e1" stroke="#475569"/><rect x="140.3" y="178.3" width="19.4" height="1.6" rx="3" fill="#cbd5e1" stroke="#475569"/><rect x="130.6" y="179.8" width="38.9" height="28.6" rx="3" fill="#cbd5e1" stroke="#475569"/><rect x="130.6" y="208.4" width="38.9" height="28.6" rx="3" fill="#cbd5e1" stroke="#475569"/><rect x="130.6" y="237.0" width="38.9" height="28.6" rx="3" fill="#cbd5e1" stroke="#475569"/><polygon points="145.2,265.6 154.8,265.6 157.0,291.0 143.0,291.0" fill="#f87171" stroke="#991b1b"/><rect x="140.3" y="291.0" width="19.4" height="1.6" rx="3" fill="#cbd5e1" stroke="#475569"/><polygon points="130.6,292.5 169.4,292.5 179.1,327.5 120.9,327.5" fill="#dbeafe" stroke="#2563eb"/><rect x="120.9" y="327.5" width="58.3" height="116.3" rx="3" fill="#cbd5e1" stroke="#475569"/><polygon points="140.5,443.8 159.5,443.8 164.0,489.9 136.0,489.9" fill="#f87171" stroke="#991b1b"/><rect x="151.6" y="85.8" width="19.4" height="5.4" rx="3" fill="#cbd5e1" stroke="#475569"/><rect x="129.0" y="85.8" width="19.4" height="5.4" rx="3" fill="#cbd5e1" stroke="#475569"/><rect x="151.2" y="87.3" width="19.4" height="3.1" rx="3" fill="#cbd5e1" stroke="#475569"/><rect x="129.3" y="87.3" width="19.4" height="3.1" rx="3" fill="#cbd5e1" stroke="#475569"/><rect x="140.3" y="87.3" width="19.4" height="3.1" rx="3" fill="#cbd5e1" stroke="#475569"/><rect x="140.3" y="87.3" width="19.4" height="3.1" rx="3" fill="#cbd5e1" stroke="#475569"/><rect x="154.0" y="84.6" width="19.4" height="9.3" rx="3" fill="#cbd5e1" stroke="#475569"/><rect x="126.6" y="86.2" width="19.4" height="6.2" rx="3" fill="#cbd5e1" stroke="#475569"/><rect x="140.3" y="87.0" width="19.4" height="4.7" rx="3" fill="#cbd5e1" stroke="#475569"/><rect x="140.3" y="87.0" width="19.4" height="4.7" rx="3" fill="#cbd5e1" stroke="#475569"/><rect x="149.9" y="88.2" width="19.4" height="7.8" rx="3" fill="#cbd5e1" stroke="#475569"/><rect x="140.3" y="87.7" width="19.4" height="14.0" rx="3" fill="#cbd5e1" stroke="#475569"/><line x1="216.9" y1="290.2" x2="216.9" y2="312.0" stroke="#64748b" stroke-width="3" stroke-linecap="round"/><line x1="183.4" y1="290.2" x2="183.4" y2="312.0" stroke="#64748b" stroke-width="3" stroke-linecap="round"/><line x1="116.6" y1="290.2" x2="116.6" y2="312.0" stroke="#64748b" stroke-width="3" stroke-linecap="round"/><line x1="83.1" y1="290.2" x2="83.1" y2="312.0" stroke="#64748b" stroke-width="3" stroke-linecap="round"/><line x1="116.6" y1="290.2" x2="116.6" y2="312.0" stroke="#64748b" stroke-width="3" stroke-linecap="round"/><line x1="183.4" y1="290.2" x2="183.4" y2="312.0" stroke="#64748b" stroke-width="3" stroke-linecap="round"/><rect x="186.1" y="332.7" width="38.9" height="57.8" rx="3" fill="#cbd5e1" stroke="#475569"/><rect x="169.9" y="332.7" width="38.9" height="57.8" rx="3" fill="#cbd5e1" stroke="#475569"/><rect x="130.6" y="332.7" width="38.9" height="57.8" rx="3" fill="#cbd5e1" stroke="#475569"/><rect x="91.3" y="332.7" width="38.9" height="57.8" rx="3" fill="#cbd5e1" stroke="#475569"/><rect x="75.0" y="332.7" width="38.9" height="57.8" rx="3" fill="#cbd5e1" stroke="#475569"/><rect x="91.3" y="332.7" width="38.9" height="57.8" rx="3" fill="#cbd5e1" stroke="#475569"/><rect x="130.6" y="332.7" width="38.9" height="57.8" rx="3" fill="#cbd5e1" stroke="#475569"/><rect x="169.9" y="332.7" width="38.9" height="57.8" rx="3" fill="#cbd5e1" stroke="#475569"/><rect x="179.1" y="395.1" width="9.3" height="9.3" rx="3" fill="#cbd5e1" stroke="#475569"/><rect x="169.2" y="395.1" width="9.3" height="9.3" rx="3" fill="#cbd5e1" stroke="#475569"/><rect x="145.3" y="395.1" width="9.3" height="9.3" rx="3" fill="#cbd5e1" stroke="#475569"/><rect x="121.4" y="395.1" width="9.3" height="9.3" rx="3" fill="#cbd5e1" stroke="#475569"/><rect x="111.5" y="395.1" width="9.3" height="9.3" rx="3" fill="#cbd5e1" stroke="#475569"/><rect x="121.4" y="395.1" width="9.3" height="9.3" rx="3" fill="#cbd5e1" stroke="#475569"/><rect x="145.3" y="395.1" width="9.3" height="9.3" rx="3" fill="#cbd5e1" stroke="#475569"/><rect x="169.2" y="395.1" width="9.3" height="9.3" rx="3" fill="#cbd5e1" stroke="#475569"/><polygon points="185.4,410.8 177.4,436.6 193.4,436.6" fill="#94a3b8" stroke="#475569" opacity="0.88"/><polygon points="175.0,410.8 167.0,436.6 183.0,436.6" fill="#94a3b8" stroke="#475569" opacity="0.88"/><polygon points="150.0,410.8 142.0,436.6 158.0,436.6" fill="#94a3b8" stroke="#475569" opacity="0.88"/><polygon points="125.0,410.8 117.0,436.6 133.0,436.6" fill="#94a3b8" stroke="#475569" opacity="0.88"/><polygon points="114.6,410.8 106.6,436.6 122.6,436.6" fill="#94a3b8" stroke="#475569" opacity="0.88"/><polygon points="125.0,410.8 117.0,436.6 133.0,436.6" fill="#94a3b8" stroke="#475569" opacity="0.88"/><polygon points="150.0,410.8 142.0,436.6 158.0,436.6" fill="#94a3b8" stroke="#475569" opacity="0.88"/><polygon points="175.0,410.8 167.0,436.6 183.0,436.6" fill="#94a3b8" stroke="#475569" opacity="0.88"/><rect x="186.1" y="390.6" width="38.9" height="57.8" rx="3" fill="#cbd5e1" stroke="#475569"/><rect x="169.9" y="390.6" width="38.9" height="57.8" rx="3" fill="#cbd5e1" stroke="#475569"/><rect x="130.6" y="390.6" width="38.9" height="57.8" rx="3" fill="#cbd5e1" stroke="#475569"/><rect x="91.3" y="390.6" width="38.9" height="57.8" rx="3" fill="#cbd5e1" stroke="#475569"/><rect x="75.0" y="390.6" width="38.9" height="57.8" rx="3" fill="#cbd5e1" stroke="#475569"/><rect x="91.3" y="390.6" width="38.9" height="57.8" rx="3" fill="#cbd5e1" stroke="#475569"/><rect x="130.6" y="390.6" width="38.9" height="57.8" rx="3" fill="#cbd5e1" stroke="#475569"/><rect x="169.9" y="390.6" width="38.9" height="57.8" rx="3" fill="#cbd5e1" stroke="#475569"/><polygon points="168.5,443.8 187.5,443.8 192.0,489.9 164.0,489.9" fill="#f87171" stroke="#991b1b"/><polygon points="196.1,448.4 215.1,448.4 219.6,485.3 191.6,485.3" fill="#f87171" stroke="#991b1b"/><polygon points="179.8,448.4 198.8,448.4 203.3,485.3 175.3,485.3" fill="#f87171" stroke="#991b1b"/><polygon points="140.5,448.4 159.5,448.4 164.0,485.3 136.0,485.3" fill="#f87171" stroke="#991b1b"/><polygon points="101.2,448.4 120.2,448.4 124.7,485.3 96.7,485.3" fill="#f87171" stroke="#991b1b"/><polygon points="84.9,448.4 103.9,448.4 108.4,485.3 80.4,485.3" fill="#f87171" stroke="#991b1b"/><polygon points="101.2,448.4 120.2,448.4 124.7,485.3 96.7,485.3" fill="#f87171" stroke="#991b1b"/><polygon points="140.5,448.4 159.5,448.4 164.0,485.3 136.0,485.3" fill="#f87171" stroke="#991b1b"/><polygon points="179.8,448.4 198.8,448.4 203.3,485.3 175.3,485.3" fill="#f87171" stroke="#991b1b"/>
  <rect x="380.3" y="76.0" width="19.4" height="4.4" rx="3" fill="#e2e8f0" stroke="#475569"/><rect x="380.3" y="80.4" width="19.4" height="16.3" rx="3" fill="#e2e8f0" stroke="#475569"/><rect x="380.3" y="96.7" width="19.4" height="3.1" rx="3" fill="#cbd5e1" stroke="#475569"/><rect x="380.3" y="99.8" width="19.4" height="1.6" rx="3" fill="#cbd5e1" stroke="#475569"/><rect x="380.3" y="101.3" width="19.4" height="5.8" rx="3" fill="#cbd5e1" stroke="#475569"/><rect x="380.3" y="107.2" width="19.4" height="29.1" rx="3" fill="#cbd5e1" stroke="#475569"/><rect x="380.3" y="136.3" width="19.4" height="9.3" rx="3" fill="#cbd5e1" stroke="#475569"/><rect x="380.3" y="145.6" width="19.4" height="9.3" rx="3" fill="#cbd5e1" stroke="#475569"/><rect x="380.3" y="154.9" width="19.4" height="9.3" rx="3" fill="#cbd5e1" stroke="#475569"/><rect x="380.3" y="164.3" width="19.4" height="4.7" rx="3" fill="#cbd5e1" stroke="#475569"/><rect x="380.3" y="168.9" width="19.4" height="4.7" rx="3" fill="#cbd5e1" stroke="#475569"/><rect x="380.3" y="173.6" width="19.4" height="4.7" rx="3" fill="#cbd5e1" stroke="#475569"/><rect x="380.3" y="178.3" width="19.4" height="1.6" rx="3" fill="#cbd5e1" stroke="#475569"/><rect x="370.6" y="179.8" width="38.9" height="28.6" rx="3" fill="#cbd5e1" stroke="#475569"/><rect x="370.6" y="208.4" width="38.9" height="28.6" rx="3" fill="#cbd5e1" stroke="#475569"/><rect x="370.6" y="237.0" width="38.9" height="28.6" rx="3" fill="#cbd5e1" stroke="#475569"/><polygon points="385.2,265.6 394.8,265.6 397.0,291.0 383.0,291.0" fill="#f87171" stroke="#991b1b"/><rect x="380.3" y="291.0" width="19.4" height="1.6" rx="3" fill="#cbd5e1" stroke="#475569"/><polygon points="370.6,292.5 409.4,292.5 419.1,327.5 360.9,327.5" fill="#dbeafe" stroke="#2563eb"/><rect x="360.9" y="327.5" width="58.3" height="116.3" rx="3" fill="#cbd5e1" stroke="#475569"/><polygon points="380.5,443.8 399.5,443.8 404.0,489.9 376.0,489.9" fill="#f87171" stroke="#991b1b"/><rect x="380.3" y="85.8" width="19.4" height="5.4" rx="3" fill="#cbd5e1" stroke="#475569"/><rect x="380.3" y="85.8" width="19.4" height="5.4" rx="3" fill="#cbd5e1" stroke="#475569"/><rect x="380.3" y="87.3" width="19.4" height="3.1" rx="3" fill="#cbd5e1" stroke="#475569"/><rect x="380.3" y="87.3" width="19.4" height="3.1" rx="3" fill="#cbd5e1" stroke="#475569"/><rect x="391.2" y="87.3" width="19.4" height="3.1" rx="3" fill="#cbd5e1" stroke="#475569"/><rect x="369.3" y="87.3" width="19.4" height="3.1" rx="3" fill="#cbd5e1" stroke="#475569"/><rect x="380.3" y="84.6" width="19.4" height="9.3" rx="3" fill="#cbd5e1" stroke="#475569"/><rect x="380.3" y="86.2" width="19.4" height="6.2" rx="3" fill="#cbd5e1" stroke="#475569"/><rect x="394.0" y="87.0" width="19.4" height="4.7" rx="3" fill="#cbd5e1" stroke="#475569"/><rect x="366.6" y="87.0" width="19.4" height="4.7" rx="3" fill="#cbd5e1" stroke="#475569"/><rect x="389.9" y="88.2" width="19.4" height="7.8" rx="3" fill="#cbd5e1" stroke="#475569"/><rect x="391.2" y="87.7" width="19.4" height="14.0" rx="3" fill="#cbd5e1" stroke="#475569"/><line x1="390.0" y1="290.2" x2="390.0" y2="312.0" stroke="#64748b" stroke-width="3" stroke-linecap="round"/><line x1="447.9" y1="290.2" x2="447.9" y2="312.0" stroke="#64748b" stroke-width="3" stroke-linecap="round"/><line x1="447.9" y1="290.2" x2="447.9" y2="312.0" stroke="#64748b" stroke-width="3" stroke-linecap="round"/><line x1="390.0" y1="290.2" x2="390.0" y2="312.0" stroke="#64748b" stroke-width="3" stroke-linecap="round"/><line x1="332.1" y1="290.2" x2="332.1" y2="312.0" stroke="#64748b" stroke-width="3" stroke-linecap="round"/><line x1="332.1" y1="290.2" x2="332.1" y2="312.0" stroke="#64748b" stroke-width="3" stroke-linecap="round"/><rect x="370.6" y="332.7" width="38.9" height="57.8" rx="3" fill="#cbd5e1" stroke="#475569"/><rect x="409.9" y="332.7" width="38.9" height="57.8" rx="3" fill="#cbd5e1" stroke="#475569"/><rect x="426.1" y="332.7" width="38.9" height="57.8" rx="3" fill="#cbd5e1" stroke="#475569"/><rect x="409.9" y="332.7" width="38.9" height="57.8" rx="3" fill="#cbd5e1" stroke="#475569"/><rect x="370.6" y="332.7" width="38.9" height="57.8" rx="3" fill="#cbd5e1" stroke="#475569"/><rect x="331.3" y="332.7" width="38.9" height="57.8" rx="3" fill="#cbd5e1" stroke="#475569"/><rect x="315.0" y="332.7" width="38.9" height="57.8" rx="3" fill="#cbd5e1" stroke="#475569"/><rect x="331.3" y="332.7" width="38.9" height="57.8" rx="3" fill="#cbd5e1" stroke="#475569"/><rect x="385.3" y="395.1" width="9.3" height="9.3" rx="3" fill="#cbd5e1" stroke="#475569"/><rect x="409.2" y="395.1" width="9.3" height="9.3" rx="3" fill="#cbd5e1" stroke="#475569"/><rect x="419.1" y="395.1" width="9.3" height="9.3" rx="3" fill="#cbd5e1" stroke="#475569"/><rect x="409.2" y="395.1" width="9.3" height="9.3" rx="3" fill="#cbd5e1" stroke="#475569"/><rect x="385.3" y="395.1" width="9.3" height="9.3" rx="3" fill="#cbd5e1" stroke="#475569"/><rect x="361.4" y="395.1" width="9.3" height="9.3" rx="3" fill="#cbd5e1" stroke="#475569"/><rect x="351.5" y="395.1" width="9.3" height="9.3" rx="3" fill="#cbd5e1" stroke="#475569"/><rect x="361.4" y="395.1" width="9.3" height="9.3" rx="3" fill="#cbd5e1" stroke="#475569"/><polygon points="390.0,410.8 382.0,436.6 398.0,436.6" fill="#94a3b8" stroke="#475569" opacity="0.88"/><polygon points="415.0,410.8 407.0,436.6 423.0,436.6" fill="#94a3b8" stroke="#475569" opacity="0.88"/><polygon points="425.4,410.8 417.4,436.6 433.4,436.6" fill="#94a3b8" stroke="#475569" opacity="0.88"/><polygon points="415.0,410.8 407.0,436.6 423.0,436.6" fill="#94a3b8" stroke="#475569" opacity="0.88"/><polygon points="390.0,410.8 382.0,436.6 398.0,436.6" fill="#94a3b8" stroke="#475569" opacity="0.88"/><polygon points="365.0,410.8 357.0,436.6 373.0,436.6" fill="#94a3b8" stroke="#475569" opacity="0.88"/><polygon points="354.6,410.8 346.6,436.6 362.6,436.6" fill="#94a3b8" stroke="#475569" opacity="0.88"/><polygon points="365.0,410.8 357.0,436.6 373.0,436.6" fill="#94a3b8" stroke="#475569" opacity="0.88"/><rect x="370.6" y="390.6" width="38.9" height="57.8" rx="3" fill="#cbd5e1" stroke="#475569"/><rect x="409.9" y="390.6" width="38.9" height="57.8" rx="3" fill="#cbd5e1" stroke="#475569"/><rect x="426.1" y="390.6" width="38.9" height="57.8" rx="3" fill="#cbd5e1" stroke="#475569"/><rect x="409.9" y="390.6" width="38.9" height="57.8" rx="3" fill="#cbd5e1" stroke="#475569"/><rect x="370.6" y="390.6" width="38.9" height="57.8" rx="3" fill="#cbd5e1" stroke="#475569"/><rect x="331.3" y="390.6" width="38.9" height="57.8" rx="3" fill="#cbd5e1" stroke="#475569"/><rect x="315.0" y="390.6" width="38.9" height="57.8" rx="3" fill="#cbd5e1" stroke="#475569"/><rect x="331.3" y="390.6" width="38.9" height="57.8" rx="3" fill="#cbd5e1" stroke="#475569"/><polygon points="380.5,443.8 399.5,443.8 404.0,489.9 376.0,489.9" fill="#f87171" stroke="#991b1b"/><polygon points="380.5,448.4 399.5,448.4 404.0,485.3 376.0,485.3" fill="#f87171" stroke="#991b1b"/><polygon points="419.8,448.4 438.8,448.4 443.3,485.3 415.3,485.3" fill="#f87171" stroke="#991b1b"/><polygon points="436.1,448.4 455.1,448.4 459.6,485.3 431.6,485.3" fill="#f87171" stroke="#991b1b"/><polygon points="419.8,448.4 438.8,448.4 443.3,485.3 415.3,485.3" fill="#f87171" stroke="#991b1b"/><polygon points="380.5,448.4 399.5,448.4 404.0,485.3 376.0,485.3" fill="#f87171" stroke="#991b1b"/><polygon points="341.2,448.4 360.2,448.4 364.7,485.3 336.7,485.3" fill="#f87171" stroke="#991b1b"/><polygon points="324.9,448.4 343.9,448.4 348.4,485.3 320.4,485.3" fill="#f87171" stroke="#991b1b"/><polygon points="341.2,448.4 360.2,448.4 364.7,485.3 336.7,485.3" fill="#f87171" stroke="#991b1b"/>
  <circle cx="625.0" cy="380.0" r="29.1" fill="#dbeafe" stroke="#475569" opacity="0.30"/><circle cx="625.0" cy="380.0" r="29.1" fill="#cbd5e1" stroke="#475569" opacity="0.30"/><circle cx="625.0" cy="380.0" r="19.4" fill="#cbd5e1" stroke="#475569" opacity="0.30"/><circle cx="625.0" cy="380.0" r="19.4" fill="#cbd5e1" stroke="#475569" opacity="0.30"/><circle cx="625.0" cy="380.0" r="19.4" fill="#cbd5e1" stroke="#475569" opacity="0.30"/><circle cx="625.0" cy="380.0" r="19.4" fill="#f87171" stroke="#475569" opacity="0.30"/><circle cx="625.0" cy="380.0" r="9.7" fill="#e2e8f0" stroke="#475569" opacity="0.30"/><circle cx="625.0" cy="380.0" r="9.7" fill="#cbd5e1" stroke="#475569" opacity="0.30"/><circle cx="636.3" cy="380.0" r="9.7" fill="#cbd5e1" stroke="#334155" opacity="0.80"/><circle cx="613.7" cy="380.0" r="9.7" fill="#cbd5e1" stroke="#334155" opacity="0.80"/><circle cx="653.0" cy="380.0" r="14.0" fill="#f87171" stroke="#334155" opacity="0.80"/><circle cx="680.6" cy="380.0" r="14.0" fill="#f87171" stroke="#334155" opacity="0.80"/><circle cx="680.6" cy="380.0" r="19.4" fill="#cbd5e1" stroke="#334155" opacity="0.80"/><circle cx="680.6" cy="380.0" r="19.4" fill="#cbd5e1" stroke="#334155" opacity="0.80"/><circle cx="658.8" cy="380.0" r="4.7" fill="#cbd5e1" stroke="#334155" opacity="0.80"/><circle cx="664.3" cy="419.3" r="14.0" fill="#f87171" stroke="#334155" opacity="0.80"/><circle cx="664.3" cy="419.3" r="19.4" fill="#cbd5e1" stroke="#334155" opacity="0.80"/><circle cx="664.3" cy="419.3" r="19.4" fill="#cbd5e1" stroke="#334155" opacity="0.80"/><circle cx="648.9" cy="403.9" r="4.7" fill="#cbd5e1" stroke="#334155" opacity="0.80"/><circle cx="625.0" cy="435.6" r="14.0" fill="#f87171" stroke="#334155" opacity="0.80"/><circle cx="625.0" cy="435.6" r="19.4" fill="#cbd5e1" stroke="#334155" opacity="0.80"/><circle cx="625.0" cy="435.6" r="19.4" fill="#cbd5e1" stroke="#334155" opacity="0.80"/><circle cx="625.0" cy="413.8" r="4.7" fill="#cbd5e1" stroke="#334155" opacity="0.80"/><circle cx="585.7" cy="419.3" r="14.0" fill="#f87171" stroke="#334155" opacity="0.80"/><circle cx="585.7" cy="419.3" r="19.4" fill="#cbd5e1" stroke="#334155" opacity="0.80"/><circle cx="585.7" cy="419.3" r="19.4" fill="#cbd5e1" stroke="#334155" opacity="0.80"/><circle cx="601.1" cy="403.9" r="4.7" fill="#cbd5e1" stroke="#334155" opacity="0.80"/><circle cx="569.4" cy="380.0" r="14.0" fill="#f87171" stroke="#334155" opacity="0.80"/><circle cx="569.4" cy="380.0" r="19.4" fill="#cbd5e1" stroke="#334155" opacity="0.80"/><circle cx="569.4" cy="380.0" r="19.4" fill="#cbd5e1" stroke="#334155" opacity="0.80"/><circle cx="591.2" cy="380.0" r="4.7" fill="#cbd5e1" stroke="#334155" opacity="0.80"/><circle cx="585.7" cy="340.7" r="14.0" fill="#f87171" stroke="#334155" opacity="0.80"/><circle cx="585.7" cy="340.7" r="19.4" fill="#cbd5e1" stroke="#334155" opacity="0.80"/><circle cx="585.7" cy="340.7" r="19.4" fill="#cbd5e1" stroke="#334155" opacity="0.80"/><circle cx="601.1" cy="356.1" r="4.7" fill="#cbd5e1" stroke="#334155" opacity="0.80"/><circle cx="625.0" cy="324.4" r="14.0" fill="#f87171" stroke="#334155" opacity="0.80"/><circle cx="625.0" cy="324.4" r="19.4" fill="#cbd5e1" stroke="#334155" opacity="0.80"/><circle cx="625.0" cy="324.4" r="19.4" fill="#cbd5e1" stroke="#334155" opacity="0.80"/><circle cx="625.0" cy="346.2" r="4.7" fill="#cbd5e1" stroke="#334155" opacity="0.80"/><circle cx="664.3" cy="340.7" r="14.0" fill="#f87171" stroke="#334155" opacity="0.80"/><circle cx="664.3" cy="340.7" r="19.4" fill="#cbd5e1" stroke="#334155" opacity="0.80"/><circle cx="664.3" cy="340.7" r="19.4" fill="#cbd5e1" stroke="#334155" opacity="0.80"/><circle cx="648.9" cy="356.1" r="4.7" fill="#cbd5e1" stroke="#334155" opacity="0.80"/><circle cx="638.7" cy="380.0" r="9.7" fill="#cbd5e1" stroke="#334155" opacity="0.80"/><circle cx="611.3" cy="380.0" r="9.7" fill="#cbd5e1" stroke="#334155" opacity="0.80"/><circle cx="625.0" cy="393.7" r="9.7" fill="#cbd5e1" stroke="#334155" opacity="0.80"/><circle cx="625.0" cy="366.3" r="9.7" fill="#cbd5e1" stroke="#334155" opacity="0.80"/><circle cx="634.6" cy="389.6" r="9.7" fill="#cbd5e1" stroke="#334155" opacity="0.80"/><circle cx="636.0" cy="380.0" r="9.7" fill="#cbd5e1" stroke="#334155" opacity="0.80"/><circle cx="614.0" cy="380.0" r="9.7" fill="#cbd5e1" stroke="#334155" opacity="0.80"/><circle cx="625.0" cy="391.0" r="9.7" fill="#cbd5e1" stroke="#334155" opacity="0.80"/><circle cx="625.0" cy="369.0" r="9.7" fill="#cbd5e1" stroke="#334155" opacity="0.80"/><circle cx="625.0" cy="391.0" r="9.7" fill="#cbd5e1" stroke="#334155" opacity="0.80"/><circle cx="660.4" cy="380.0" r="2.7" fill="#94a3b8" stroke="#334155" opacity="0.80"/><circle cx="650.0" cy="405.0" r="2.7" fill="#94a3b8" stroke="#334155" opacity="0.80"/><circle cx="625.0" cy="415.4" r="2.7" fill="#94a3b8" stroke="#334155" opacity="0.80"/><circle cx="600.0" cy="405.0" r="2.7" fill="#94a3b8" stroke="#334155" opacity="0.80"/><circle cx="589.6" cy="380.0" r="2.7" fill="#94a3b8" stroke="#334155" opacity="0.80"/><circle cx="600.0" cy="355.0" r="2.7" fill="#94a3b8" stroke="#334155" opacity="0.80"/><circle cx="625.0" cy="344.6" r="2.7" fill="#94a3b8" stroke="#334155" opacity="0.80"/><circle cx="650.0" cy="355.0" r="2.7" fill="#94a3b8" stroke="#334155" opacity="0.80"/><circle cx="691.9" cy="380.0" r="2.7" fill="#64748b" stroke="#334155" opacity="0.80"/><circle cx="658.4" cy="437.9" r="2.7" fill="#64748b" stroke="#334155" opacity="0.80"/><circle cx="591.6" cy="437.9" r="2.7" fill="#64748b" stroke="#334155" opacity="0.80"/><circle cx="558.1" cy="380.0" r="2.7" fill="#64748b" stroke="#334155" opacity="0.80"/><circle cx="591.6" cy="322.1" r="2.7" fill="#64748b" stroke="#334155" opacity="0.80"/><circle cx="658.4" cy="322.1" r="2.7" fill="#64748b" stroke="#334155" opacity="0.80"/>
  <text x="805" y="94" font-size="12" fill="#16a34a">PASS - slender body (4 &lt;= L/D &lt;= 19)</text><text x="805" y="116" font-size="12" fill="#16a34a">PASS - monotonic taper (widest toward base)</text><text x="805" y="138" font-size="12" fill="#16a34a">PASS - payload housed (fairing or capsule top)</text><text x="805" y="160" font-size="12" fill="#16a34a">PASS - engine at the base</text><text x="805" y="182" font-size="12" fill="#16a34a">PASS - controlled ascent margin</text><text x="805" y="204" font-size="12" fill="#16a34a">PASS - radial protrusions within ascent envelope</text><text x="805" y="226" font-size="12" fill="#16a34a">PASS - landing gear tip-over stable</text><text x="805" y="248" font-size="12" fill="#16a34a">PASS - symmetric strap-on boosters</text>
  <text x="805" y="280" font-size="12" fill="#0f172a">L/D 7.1:1</text><text x="805" y="298" font-size="12" fill="#0f172a">length 26.63 m</text><text x="805" y="316" font-size="12" fill="#0f172a">body dia 3.75 m</text><text x="805" y="334" font-size="12" fill="#0f172a">core span 5.4 m</text><text x="805" y="352" font-size="12" fill="#0f172a">8x radial boosters (span 9.65 m)</text><text x="805" y="370" font-size="12" fill="#0f172a">full span 9.65 m</text><text x="805" y="388" font-size="12" fill="#0f172a">static -0.13 cal</text><text x="805" y="406" font-size="12" fill="#0f172a">Cd 0.232</text><text x="805" y="424" font-size="12" fill="#0f172a">drag loss 81.0 m/s</text><text x="805" y="442" font-size="12" fill="#0f172a">max-Q 88.4 kPa</text>
</svg>