<svg xmlns="http://www.w3.org/2000/svg" width="1080" height="700" viewBox="0 0 1080 700" font-family="system-ui,Segoe UI,sans-serif">
  <rect width="1080" height="700" fill="#f8fafc"/>
  <text x="30" y="32" font-size="19" font-weight="700" fill="#0f172a">Three-view design chart - AI-Duna-1</text>
  <text x="805" y="56" font-size="15" font-weight="700" fill="#16a34a">LOOKS LIKE A ROCKET</text>
  <text x="118" y="58" font-size="12" font-weight="700" fill="#334155">SIDE</text>
  <text x="355" y="58" font-size="12" font-weight="700" fill="#334155">FRONT</text>
  <text x="594" y="220" font-size="12" font-weight="700" fill="#334155">TOP</text>
  <line x1="150.0" y1="60" x2="150.0" y2="650" stroke="#e2e8f0" stroke-dasharray="4 4"/>
  <line x1="390.0" y1="60" x2="390.0" y2="650" stroke="#e2e8f0" stroke-dasharray="4 4"/>
  <circle cx="625.0" cy="380.0" r="20.5" fill="none" stroke="#94a3b8" stroke-dasharray="4 4"/>
  <rect x="143.2" y="76.0" width="13.7" height="11.5" rx="3" fill="#e2e8f0" stroke="#475569"/><rect x="143.2" y="87.5" width="13.7" height="2.1" rx="3" fill="#cbd5e1" stroke="#475569"/><rect x="143.2" y="89.6" width="13.7" height="1.1" rx="3" fill="#cbd5e1" stroke="#475569"/><rect x="143.2" y="90.7" width="13.7" height="2.2" rx="3" fill="#cbd5e1" stroke="#475569"/><rect x="143.2" y="92.8" width="13.7" height="4.4" rx="3" fill="#cbd5e1" stroke="#475569"/><rect x="143.2" y="97.2" width="13.7" height="4.4" rx="3" fill="#cbd5e1" stroke="#475569"/><rect x="143.2" y="101.5" width="13.7" height="4.4" rx="3" fill="#cbd5e1" stroke="#475569"/><path d="M 132.5 110.5 L 132.5 76.0 Q 132.5 67.2 150.0 53.2 Q 167.5 67.2 167.5 76.0 L 167.5 110.5 Z" fill="#fde68a" stroke="#d97706" stroke-width="1.4" opacity="0.55"/><rect x="143.2" y="110.5" width="13.7" height="1.1" rx="3" fill="#cbd5e1" stroke="#475569"/><rect x="136.3" y="111.6" width="27.3" height="10.0" rx="3" fill="#cbd5e1" stroke="#475569"/><polygon points="146.7,121.5 153.3,121.5 154.9,130.6 145.1,130.6" fill="#f87171" stroke="#991b1b"/><rect x="143.2" y="130.6" width="13.7" height="1.1" rx="3" fill="#cbd5e1" stroke="#475569"/><rect x="136.3" y="131.7" width="27.3" height="10.0" rx="3" fill="#cbd5e1" stroke="#475569"/><rect x="136.3" y="141.7" width="27.3" height="10.0" rx="3" fill="#cbd5e1" stroke="#475569"/><rect x="136.3" y="151.6" width="27.3" height="10.0" rx="3" fill="#cbd5e1" stroke="#475569"/><rect x="136.3" y="161.6" width="27.3" height="9.8" rx="2" fill="#cbd5e1" stroke="#64748b" stroke-dasharray="3 2" opacity="0.45"/><polygon points="146.7,161.6 153.3,161.6 154.9,171.4 145.1,171.4" fill="#f87171" stroke="#991b1b"/><rect x="143.2" y="171.4" width="13.7" height="1.1" rx="3" fill="#cbd5e1" stroke="#475569"/><rect x="136.3" y="172.5" width="27.3" height="10.0" rx="3" fill="#cbd5e1" stroke="#475569"/><rect x="129.5" y="182.5" width="41.0" height="9.8" rx="2" fill="#cbd5e1" stroke="#64748b" stroke-dasharray="3 2" opacity="0.45"/><polygon points="146.7,182.5 153.3,182.5 154.9,192.3 145.1,192.3" fill="#f87171" stroke="#991b1b"/><rect x="143.2" y="192.3" width="13.7" height="1.1" rx="3" fill="#cbd5e1" stroke="#475569"/><rect x="129.5" y="193.4" width="41.0" height="24.6" rx="3" fill="#cbd5e1" stroke="#475569"/><rect x="129.5" y="218.0" width="41.0" height="21.1" rx="3" fill="#cbd5e1" stroke="#475569"/><rect x="129.5" y="239.1" width="41.0" height="21.1" rx="3" fill="#cbd5e1" stroke="#475569"/><rect x="129.5" y="260.2" width="41.0" height="21.1" rx="3" fill="#cbd5e1" stroke="#475569"/><rect x="129.5" y="281.3" width="41.0" height="21.1" rx="3" fill="#cbd5e1" stroke="#475569"/><rect x="129.5" y="302.3" width="41.0" height="21.1" rx="3" fill="#cbd5e1" stroke="#475569"/><rect x="129.5" y="323.4" width="41.0" height="21.1" rx="3" fill="#cbd5e1" stroke="#475569"/><rect x="129.5" y="344.5" width="41.0" height="21.1" rx="3" fill="#cbd5e1" stroke="#475569"/><rect x="129.5" y="365.6" width="41.0" height="21.1" rx="3" fill="#cbd5e1" stroke="#475569"/><rect x="129.5" y="386.6" width="41.0" height="21.1" rx="3" fill="#cbd5e1" stroke="#475569"/><rect x="129.5" y="407.7" width="41.0" height="21.1" rx="3" fill="#cbd5e1" stroke="#475569"/><rect x="129.5" y="428.8" width="41.0" height="21.1" rx="3" fill="#cbd5e1" stroke="#475569"/><rect x="129.5" y="449.9" width="41.0" height="21.1" rx="3" fill="#cbd5e1" stroke="#475569"/><rect x="129.5" y="471.0" width="41.0" height="21.1" rx="3" fill="#cbd5e1" stroke="#475569"/><rect x="129.5" y="492.0" width="41.0" height="21.1" rx="3" fill="#cbd5e1" stroke="#475569"/><rect x="129.5" y="513.1" width="41.0" height="21.1" rx="3" fill="#cbd5e1" stroke="#475569"/><rect x="129.5" y="534.2" width="41.0" height="21.1" rx="3" fill="#cbd5e1" stroke="#475569"/><rect x="129.5" y="555.3" width="41.0" height="21.1" rx="3" fill="#cbd5e1" stroke="#475569"/><rect x="129.5" y="576.3" width="41.0" height="21.1" rx="3" fill="#cbd5e1" stroke="#475569"/><rect x="129.5" y="597.4" width="41.0" height="21.1" rx="3" fill="#cbd5e1" stroke="#475569"/><polygon points="146.7,618.5 153.3,618.5 154.9,636.0 145.1,636.0" fill="#f87171" stroke="#991b1b"/><rect x="154.0" y="81.7" width="6.8" height="1.0" rx="3" fill="#cbd5e1" stroke="#475569"/><rect x="139.1" y="81.7" width="6.8" height="1.0" rx="3" fill="#cbd5e1" stroke="#475569"/><rect x="153.4" y="81.3" width="6.8" height="2.0" rx="3" fill="#cbd5e1" stroke="#475569"/><rect x="136.3" y="81.1" width="13.7" height="2.4" rx="3" fill="#cbd5e1" stroke="#475569"/><rect x="147.2" y="76.8" width="13.7" height="10.9" rx="3" fill="#cbd5e1" stroke="#475569"/><rect x="139.1" y="76.8" width="13.7" height="10.9" rx="3" fill="#cbd5e1" stroke="#475569"/><rect x="146.6" y="80.7" width="6.8" height="7.1" rx="3" fill="#cbd5e1" stroke="#475569"/><line x1="168.2" y1="127.3" x2="168.2" y2="152.3" stroke="#64748b" stroke-width="3" stroke-linecap="round"/><line x1="150.0" y1="127.3" x2="150.0" y2="152.3" stroke="#64748b" stroke-width="3" stroke-linecap="round"/><line x1="131.8" y1="127.3" x2="131.8" y2="152.3" stroke="#64748b" stroke-width="3" stroke-linecap="round"/><line x1="150.0" y1="127.3" x2="150.0" y2="152.3" stroke="#64748b" stroke-width="3" stroke-linecap="round"/><polygon points="174.9,607.8 166.9,636.7 182.9,636.7" fill="#94a3b8" stroke="#475569" opacity="0.88"/><polygon points="167.6,607.8 159.6,636.7 175.6,636.7" fill="#94a3b8" stroke="#475569" opacity="0.88"/><polygon points="150.0,607.8 142.0,636.7 158.0,636.7" fill="#94a3b8" stroke="#475569" opacity="0.88"/><polygon points="132.4,607.8 124.4,636.7 140.4,636.7" fill="#94a3b8" stroke="#475569" opacity="0.88"/><polygon points="125.1,607.8 117.1,636.7 133.1,636.7" fill="#94a3b8" stroke="#475569" opacity="0.88"/><polygon points="132.4,607.8 124.4,636.7 140.4,636.7" fill="#94a3b8" stroke="#475569" opacity="0.88"/><polygon points="150.0,607.8 142.0,636.7 158.0,636.7" fill="#94a3b8" stroke="#475569" opacity="0.88"/><polygon points="167.6,607.8 159.6,636.7 175.6,636.7" fill="#94a3b8" stroke="#475569" opacity="0.88"/><polygon points="156.5,618.5 163.2,618.5 164.8,636.0 154.9,636.0" fill="#f87171" stroke="#991b1b"/><polygon points="149.7,618.5 156.4,618.5 158.0,636.0 148.1,636.0" fill="#f87171" stroke="#991b1b"/><polygon points="138.7,618.5 145.4,618.5 147.0,636.0 137.1,636.0" fill="#f87171" stroke="#991b1b"/><polygon points="138.7,618.5 145.4,618.5 147.0,636.0 137.1,636.0" fill="#f87171" stroke="#991b1b"/><polygon points="149.7,618.5 156.4,618.5 158.0,636.0 148.1,636.0" fill="#f87171" stroke="#991b1b"/>
  <rect x="383.2" y="76.0" width="13.7" height="11.5" rx="3" fill="#e2e8f0" stroke="#475569"/><rect x="383.2" y="87.5" width="13.7" height="2.1" rx="3" fill="#cbd5e1" stroke="#475569"/><rect x="383.2" y="89.6" width="13.7" height="1.1" rx="3" fill="#cbd5e1" stroke="#475569"/><rect x="383.2" y="90.7" width="13.7" height="2.2" rx="3" fill="#cbd5e1" stroke="#475569"/><rect x="383.2" y="92.8" width="13.7" height="4.4" rx="3" fill="#cbd5e1" stroke="#475569"/><rect x="383.2" y="97.2" width="13.7" height="4.4" rx="3" fill="#cbd5e1" stroke="#475569"/><rect x="383.2" y="101.5" width="13.7" height="4.4" rx="3" fill="#cbd5e1" stroke="#475569"/><path d="M 372.5 110.5 L 372.5 76.0 Q 372.5 67.2 390.0 53.2 Q 407.5 67.2 407.5 76.0 L 407.5 110.5 Z" fill="#fde68a" stroke="#d97706" stroke-width="1.4" opacity="0.55"/><rect x="383.2" y="110.5" width="13.7" height="1.1" rx="3" fill="#cbd5e1" stroke="#475569"/><rect x="376.3" y="111.6" width="27.3" height="10.0" rx="3" fill="#cbd5e1" stroke="#475569"/><polygon points="386.7,121.5 393.3,121.5 394.9,130.6 385.1,130.6" fill="#f87171" stroke="#991b1b"/><rect x="383.2" y="130.6" width="13.7" height="1.1" rx="3" fill="#cbd5e1" stroke="#475569"/><rect x="376.3" y="131.7" width="27.3" height="10.0" rx="3" fill="#cbd5e1" stroke="#475569"/><rect x="376.3" y="141.7" width="27.3" height="10.0" rx="3" fill="#cbd5e1" stroke="#475569"/><rect x="376.3" y="151.6" width="27.3" height="10.0" rx="3" fill="#cbd5e1" stroke="#475569"/><rect x="376.3" y="161.6" width="27.3" height="9.8" rx="2" fill="#cbd5e1" stroke="#64748b" stroke-dasharray="3 2" opacity="0.45"/><polygon points="386.7,161.6 393.3,161.6 394.9,171.4 385.1,171.4" fill="#f87171" stroke="#991b1b"/><rect x="383.2" y="171.4" width="13.7" height="1.1" rx="3" fill="#cbd5e1" stroke="#475569"/><rect x="376.3" y="172.5" width="27.3" height="10.0" rx="3" fill="#cbd5e1" stroke="#475569"/><rect x="369.5" y="182.5" width="41.0" height="9.8" rx="2" fill="#cbd5e1" stroke="#64748b" stroke-dasharray="3 2" opacity="0.45"/><polygon points="386.7,182.5 393.3,182.5 394.9,192.3 385.1,192.3" fill="#f87171" stroke="#991b1b"/><rect x="383.2" y="192.3" width="13.7" height="1.1" rx="3" fill="#cbd5e1" stroke="#475569"/><rect x="369.5" y="193.4" width="41.0" height="24.6" rx="3" fill="#cbd5e1" stroke="#475569"/><rect x="369.5" y="218.0" width="41.0" height="21.1" rx="3" fill="#cbd5e1" stroke="#475569"/><rect x="369.5" y="239.1" width="41.0" height="21.1" rx="3" fill="#cbd5e1" stroke="#475569"/><rect x="369.5" y="260.2" width="41.0" height="21.1" rx="3" fill="#cbd5e1" stroke="#475569"/><rect x="369.5" y="281.3" width="41.0" height="21.1" rx="3" fill="#cbd5e1" stroke="#475569"/><rect x="369.5" y="302.3" width="41.0" height="21.1" rx="3" fill="#cbd5e1" stroke="#475569"/><rect x="369.5" y="323.4" width="41.0" height="21.1" rx="3" fill="#cbd5e1" stroke="#475569"/><rect x="369.5" y="344.5" width="41.0" height="21.1" rx="3" fill="#cbd5e1" stroke="#475569"/><rect x="369.5" y="365.6" width="41.0" height="21.1" rx="3" fill="#cbd5e1" stroke="#475569"/><rect x="369.5" y="386.6" width="41.0" height="21.1" rx="3" fill="#cbd5e1" stroke="#475569"/><rect x="369.5" y="407.7" width="41.0" height="21.1" rx="3" fill="#cbd5e1" stroke="#475569"/><rect x="369.5" y="428.8" width="41.0" height="21.1" rx="3" fill="#cbd5e1" stroke="#475569"/><rect x="369.5" y="449.9" width="41.0" height="21.1" rx="3" fill="#cbd5e1" stroke="#475569"/><rect x="369.5" y="471.0" width="41.0" height="21.1" rx="3" fill="#cbd5e1" stroke="#475569"/><rect x="369.5" y="492.0" width="41.0" height="21.1" rx="3" fill="#cbd5e1" stroke="#475569"/><rect x="369.5" y="513.1" width="41.0" height="21.1" rx="3" fill="#cbd5e1" stroke="#475569"/><rect x="369.5" y="534.2" width="41.0" height="21.1" rx="3" fill="#cbd5e1" stroke="#475569"/><rect x="369.5" y="555.3" width="41.0" height="21.1" rx="3" fill="#cbd5e1" stroke="#475569"/><rect x="369.5" y="576.3" width="41.0" height="21.1" rx="3" fill="#cbd5e1" stroke="#475569"/><rect x="369.5" y="597.4" width="41.0" height="21.1" rx="3" fill="#cbd5e1" stroke="#475569"/><polygon points="386.7,618.5 393.3,618.5 394.9,636.0 385.1,636.0" fill="#f87171" stroke="#991b1b"/><rect x="389.3" y="81.7" width="6.8" height="1.0" rx="3" fill="#cbd5e1" stroke="#475569"/><rect x="389.3" y="81.7" width="6.8" height="1.0" rx="3" fill="#cbd5e1" stroke="#475569"/><rect x="393.4" y="81.3" width="6.8" height="2.0" rx="3" fill="#cbd5e1" stroke="#475569"/><rect x="390.0" y="81.1" width="13.7" height="2.4" rx="3" fill="#cbd5e1" stroke="#475569"/><rect x="391.9" y="76.8" width="13.7" height="10.9" rx="3" fill="#cbd5e1" stroke="#475569"/><rect x="391.9" y="76.8" width="13.7" height="10.9" rx="3" fill="#cbd5e1" stroke="#475569"/><rect x="396.2" y="80.7" width="6.8" height="7.1" rx="3" fill="#cbd5e1" stroke="#475569"/><line x1="390.0" y1="127.3" x2="390.0" y2="152.3" stroke="#64748b" stroke-width="3" stroke-linecap="round"/><line x1="408.2" y1="127.3" x2="408.2" y2="152.3" stroke="#64748b" stroke-width="3" stroke-linecap="round"/><line x1="390.0" y1="127.3" x2="390.0" y2="152.3" stroke="#64748b" stroke-width="3" stroke-linecap="round"/><line x1="371.8" y1="127.3" x2="371.8" y2="152.3" stroke="#64748b" stroke-width="3" stroke-linecap="round"/><polygon points="390.0,607.8 382.0,636.7 398.0,636.7" fill="#94a3b8" stroke="#475569" opacity="0.88"/><polygon points="407.6,607.8 399.6,636.7 415.6,636.7" fill="#94a3b8" stroke="#475569" opacity="0.88"/><polygon points="414.9,607.8 406.9,636.7 422.9,636.7" fill="#94a3b8" stroke="#475569" opacity="0.88"/><polygon points="407.6,607.8 399.6,636.7 415.6,636.7" fill="#94a3b8" stroke="#475569" opacity="0.88"/><polygon points="390.0,607.8 382.0,636.7 398.0,636.7" fill="#94a3b8" stroke="#475569" opacity="0.88"/><polygon points="372.4,607.8 364.4,636.7 380.4,636.7" fill="#94a3b8" stroke="#475569" opacity="0.88"/><polygon points="365.1,607.8 357.1,636.7 373.1,636.7" fill="#94a3b8" stroke="#475569" opacity="0.88"/><polygon points="372.4,607.8 364.4,636.7 380.4,636.7" fill="#94a3b8" stroke="#475569" opacity="0.88"/><polygon points="386.7,618.5 393.3,618.5 394.9,636.0 385.1,636.0" fill="#f87171" stroke="#991b1b"/><polygon points="396.0,618.5 402.7,618.5 404.3,636.0 394.4,636.0" fill="#f87171" stroke="#991b1b"/><polygon points="392.4,618.5 399.1,618.5 400.7,636.0 390.9,636.0" fill="#f87171" stroke="#991b1b"/><polygon points="380.9,618.5 387.6,618.5 389.1,636.0 379.3,636.0" fill="#f87171" stroke="#991b1b"/><polygon points="377.3,618.5 384.0,618.5 385.6,636.0 375.7,636.0" fill="#f87171" stroke="#991b1b"/>
  <circle cx="625.0" cy="380.0" r="20.5" fill="#cbd5e1" stroke="#475569" opacity="0.30"/><circle cx="625.0" cy="380.0" r="20.5" fill="#cbd5e1" stroke="#475569" opacity="0.30"/><circle cx="625.0" cy="380.0" r="20.5" fill="#cbd5e1" stroke="#475569" opacity="0.30"/><circle cx="625.0" cy="380.0" r="20.5" fill="#cbd5e1" stroke="#475569" opacity="0.30"/><circle cx="625.0" cy="380.0" r="20.5" fill="#cbd5e1" stroke="#475569" opacity="0.30"/><circle cx="625.0" cy="380.0" r="20.5" fill="#cbd5e1" stroke="#475569" opacity="0.30"/><circle cx="625.0" cy="380.0" r="20.5" fill="#cbd5e1" stroke="#475569" opacity="0.30"/><circle cx="625.0" cy="380.0" r="20.5" fill="#cbd5e1" stroke="#475569" opacity="0.30"/><circle cx="632.5" cy="382.7" r="3.4" fill="#cbd5e1" stroke="#334155" opacity="0.80"/><circle cx="617.5" cy="382.7" r="3.4" fill="#cbd5e1" stroke="#334155" opacity="0.80"/><circle cx="625.0" cy="380.0" r="13.7" fill="#fde68a" stroke="#334155" opacity="0.80"/><circle cx="634.8" cy="380.0" r="4.9" fill="#f87171" stroke="#334155" opacity="0.80"/><circle cx="628.0" cy="389.4" r="4.9" fill="#f87171" stroke="#334155" opacity="0.80"/><circle cx="617.0" cy="385.8" r="4.9" fill="#f87171" stroke="#334155" opacity="0.80"/><circle cx="617.0" cy="374.2" r="4.9" fill="#f87171" stroke="#334155" opacity="0.80"/><circle cx="628.0" cy="370.6" r="4.9" fill="#f87171" stroke="#334155" opacity="0.80"/><circle cx="631.8" cy="386.8" r="3.4" fill="#cbd5e1" stroke="#334155" opacity="0.80"/><circle cx="618.2" cy="386.8" r="6.8" fill="#cbd5e1" stroke="#334155" opacity="0.80"/><circle cx="629.0" cy="388.7" r="6.8" fill="#cbd5e1" stroke="#334155" opacity="0.80"/><circle cx="621.0" cy="388.7" r="6.8" fill="#cbd5e1" stroke="#334155" opacity="0.80"/><circle cx="625.0" cy="389.6" r="3.4" fill="#cbd5e1" stroke="#334155" opacity="0.80"/><circle cx="649.9" cy="380.0" r="2.5" fill="#94a3b8" stroke="#334155" opacity="0.80"/><circle cx="642.6" cy="397.6" r="2.5" fill="#94a3b8" stroke="#334155" opacity="0.80"/><circle cx="625.0" cy="404.9" r="2.5" fill="#94a3b8" stroke="#334155" opacity="0.80"/><circle cx="607.4" cy="397.6" r="2.5" fill="#94a3b8" stroke="#334155" opacity="0.80"/><circle cx="600.1" cy="380.0" r="2.5" fill="#94a3b8" stroke="#334155" opacity="0.80"/><circle cx="607.4" cy="362.4" r="2.5" fill="#94a3b8" stroke="#334155" opacity="0.80"/><circle cx="625.0" cy="355.1" r="2.5" fill="#94a3b8" stroke="#334155" opacity="0.80"/><circle cx="642.6" cy="362.4" r="2.5" fill="#94a3b8" stroke="#334155" opacity="0.80"/><circle cx="643.2" cy="380.0" r="2.5" fill="#64748b" stroke="#334155" opacity="0.80"/><circle cx="625.0" cy="398.2" r="2.5" fill="#64748b" stroke="#334155" opacity="0.80"/><circle cx="606.8" cy="380.0" r="2.5" fill="#64748b" stroke="#334155" opacity="0.80"/><circle cx="625.0" cy="361.8" r="2.5" fill="#64748b" stroke="#334155" opacity="0.80"/>
  <text x="805" y="94" font-size="12" fill="#16a34a">PASS - slender body (4 &lt;= L/D &lt;= 19)</text><text x="805" y="116" font-size="12" fill="#16a34a">PASS - monotonic taper (widest toward base)</text><text x="805" y="138" font-size="12" fill="#16a34a">PASS - payload housed (fairing or capsule top)</text><text x="805" y="160" font-size="12" fill="#16a34a">PASS - payload fully enclosed (nothing protrudes the fairing)</text><text x="805" y="182" font-size="12" fill="#16a34a">PASS - engine at the base</text><text x="805" y="204" font-size="12" fill="#16a34a">PASS - upper-stage engine has interstage shroud</text><text x="805" y="226" font-size="12" fill="#16a34a">PASS - controlled ascent margin</text><text x="805" y="248" font-size="12" fill="#16a34a">PASS - radial protrusions within ascent envelope</text><text x="805" y="270" font-size="12" fill="#16a34a">PASS - landing gear tip-over stable</text>
  <text x="805" y="302" font-size="12" fill="#0f172a">L/D 13.7:1</text><text x="805" y="320" font-size="12" fill="#0f172a">length 51.2 m</text><text x="805" y="338" font-size="12" fill="#0f172a">body dia 3.75 m</text><text x="805" y="356" font-size="12" fill="#0f172a">core span 4.9 m</text><text x="805" y="374" font-size="12" fill="#0f172a">full span 4.9 m</text><text x="805" y="392" font-size="12" fill="#0f172a">static 0.08 cal</text><text x="805" y="410" font-size="12" fill="#0f172a">Cd 0.232</text><text x="805" y="428" font-size="12" fill="#0f172a">drag loss 81.0 m/s</text><text x="805" y="446" font-size="12" fill="#0f172a">max-Q 88.4 kPa</text>
</svg>