<svg xmlns="http://www.w3.org/2000/svg" width="1080" height="700" viewBox="0 0 1080 700" font-family="system-ui,Segoe UI,sans-serif">
  <rect width="1080" height="700" fill="#f8fafc"/>
  <text x="30" y="32" font-size="19" font-weight="700" fill="#0f172a">Three-view design chart - AI-Eve-Relay-1d</text>
  <text x="805" y="56" font-size="15" font-weight="700" fill="#16a34a">LOOKS LIKE A ROCKET</text>
  <text x="118" y="58" font-size="12" font-weight="700" fill="#334155">SIDE</text>
  <text x="355" y="58" font-size="12" font-weight="700" fill="#334155">FRONT</text>
  <text x="594" y="220" font-size="12" font-weight="700" fill="#334155">TOP</text>
  <line x1="150.0" y1="60" x2="150.0" y2="650" stroke="#e2e8f0" stroke-dasharray="4 4"/>
  <line x1="390.0" y1="60" x2="390.0" y2="650" stroke="#e2e8f0" stroke-dasharray="4 4"/>
  <circle cx="625.0" cy="380.0" r="42.2" fill="none" stroke="#94a3b8" stroke-dasharray="4 4"/>
  <rect x="135.9" y="76.0" width="28.1" height="8.4" rx="3" fill="#cbd5e1" stroke="#475569"/><rect x="135.9" y="84.4" width="28.1" height="6.8" rx="3" fill="#cbd5e1" stroke="#475569"/><rect x="135.9" y="91.2" width="28.1" height="6.8" rx="3" fill="#cbd5e1" stroke="#475569"/><rect x="135.9" y="97.9" width="28.1" height="6.8" rx="3" fill="#cbd5e1" stroke="#475569"/><path d="M 135.9 114.1 L 135.9 76.0 Q 135.9 71.7 150.0 57.7 Q 164.1 71.7 164.1 76.0 L 164.1 114.1 Z" fill="#fde68a" stroke="#d97706" stroke-width="1.4" opacity="0.55"/><rect x="135.9" y="114.1" width="28.1" height="2.3" rx="3" fill="#cbd5e1" stroke="#475569"/><rect x="121.9" y="116.4" width="56.3" height="41.4" rx="3" fill="#cbd5e1" stroke="#475569"/><polygon points="143.1,157.8 156.9,157.8 160.1,176.5 139.9,176.5" fill="#f87171" stroke="#991b1b"/><rect x="135.9" y="176.5" width="28.1" height="2.3" rx="3" fill="#cbd5e1" stroke="#475569"/><rect x="107.8" y="178.7" width="84.4" height="43.4" rx="3" fill="#cbd5e1" stroke="#475569"/><rect x="107.8" y="222.1" width="84.4" height="43.4" rx="3" fill="#cbd5e1" stroke="#475569"/><rect x="107.8" y="265.5" width="84.4" height="43.4" rx="3" fill="#cbd5e1" stroke="#475569"/><rect x="107.8" y="308.9" width="84.4" height="43.4" rx="3" fill="#cbd5e1" stroke="#475569"/><rect x="107.8" y="352.3" width="84.4" height="43.4" rx="3" fill="#cbd5e1" stroke="#475569"/><rect x="107.8" y="395.6" width="84.4" height="43.4" rx="3" fill="#cbd5e1" stroke="#475569"/><rect x="107.8" y="439.0" width="84.4" height="43.4" rx="3" fill="#cbd5e1" stroke="#475569"/><rect x="107.8" y="482.4" width="84.4" height="43.4" rx="3" fill="#cbd5e1" stroke="#475569"/><rect x="107.8" y="525.8" width="84.4" height="43.4" rx="3" fill="#cbd5e1" stroke="#475569"/><polygon points="136.2,569.1 163.8,569.1 170.3,636.0 129.7,636.0" fill="#f87171" stroke="#991b1b"/><rect x="146.6" y="74.6" width="28.1" height="13.5" rx="3" fill="#cbd5e1" stroke="#475569"/><rect x="125.3" y="76.8" width="28.1" height="9.0" rx="3" fill="#cbd5e1" stroke="#475569"/><rect x="135.9" y="78.0" width="28.1" height="6.8" rx="3" fill="#cbd5e1" stroke="#475569"/><rect x="135.9" y="78.0" width="28.1" height="6.8" rx="3" fill="#cbd5e1" stroke="#475569"/><rect x="143.4" y="79.8" width="28.1" height="11.3" rx="3" fill="#cbd5e1" stroke="#475569"/><polygon points="201.2,552.7 193.2,581.9 209.2,581.9" fill="#94a3b8" stroke="#475569" opacity="0.88"/><polygon points="186.2,552.7 178.2,581.9 194.2,581.9" fill="#94a3b8" stroke="#475569" opacity="0.88"/><polygon points="150.0,552.7 142.0,581.9 158.0,581.9" fill="#94a3b8" stroke="#475569" opacity="0.88"/><polygon points="113.8,552.7 105.8,581.9 121.8,581.9" fill="#94a3b8" stroke="#475569" opacity="0.88"/><polygon points="98.8,552.7 90.8,581.9 106.8,581.9" fill="#94a3b8" stroke="#475569" opacity="0.88"/><polygon points="113.8,552.7 105.8,581.9 121.8,581.9" fill="#94a3b8" stroke="#475569" opacity="0.88"/><polygon points="150.0,552.7 142.0,581.9 158.0,581.9" fill="#94a3b8" stroke="#475569" opacity="0.88"/><polygon points="186.2,552.7 178.2,581.9 194.2,581.9" fill="#94a3b8" stroke="#475569" opacity="0.88"/><polygon points="176.7,569.1 204.3,569.1 210.8,636.0 170.3,636.0" fill="#f87171" stroke="#991b1b"/>
  <rect x="375.9" y="76.0" width="28.1" height="8.4" rx="3" fill="#cbd5e1" stroke="#475569"/><rect x="375.9" y="84.4" width="28.1" height="6.8" rx="3" fill="#cbd5e1" stroke="#475569"/><rect x="375.9" y="91.2" width="28.1" height="6.8" rx="3" fill="#cbd5e1" stroke="#475569"/><rect x="375.9" y="97.9" width="28.1" height="6.8" rx="3" fill="#cbd5e1" stroke="#475569"/><path d="M 375.9 114.1 L 375.9 76.0 Q 375.9 71.7 390.0 57.7 Q 404.1 71.7 404.1 76.0 L 404.1 114.1 Z" fill="#fde68a" stroke="#d97706" stroke-width="1.4" opacity="0.55"/><rect x="375.9" y="114.1" width="28.1" height="2.3" rx="3" fill="#cbd5e1" stroke="#475569"/><rect x="361.9" y="116.4" width="56.3" height="41.4" rx="3" fill="#cbd5e1" stroke="#475569"/><polygon points="383.1,157.8 396.9,157.8 400.1,176.5 379.9,176.5" fill="#f87171" stroke="#991b1b"/><rect x="375.9" y="176.5" width="28.1" height="2.3" rx="3" fill="#cbd5e1" stroke="#475569"/><rect x="347.8" y="178.7" width="84.4" height="43.4" rx="3" fill="#cbd5e1" stroke="#475569"/><rect x="347.8" y="222.1" width="84.4" height="43.4" rx="3" fill="#cbd5e1" stroke="#475569"/><rect x="347.8" y="265.5" width="84.4" height="43.4" rx="3" fill="#cbd5e1" stroke="#475569"/><rect x="347.8" y="308.9" width="84.4" height="43.4" rx="3" fill="#cbd5e1" stroke="#475569"/><rect x="347.8" y="352.3" width="84.4" height="43.4" rx="3" fill="#cbd5e1" stroke="#475569"/><rect x="347.8" y="395.6" width="84.4" height="43.4" rx="3" fill="#cbd5e1" stroke="#475569"/><rect x="347.8" y="439.0" width="84.4" height="43.4" rx="3" fill="#cbd5e1" stroke="#475569"/><rect x="347.8" y="482.4" width="84.4" height="43.4" rx="3" fill="#cbd5e1" stroke="#475569"/><rect x="347.8" y="525.8" width="84.4" height="43.4" rx="3" fill="#cbd5e1" stroke="#475569"/><polygon points="376.2,569.1 403.8,569.1 410.3,636.0 369.7,636.0" fill="#f87171" stroke="#991b1b"/><rect x="375.9" y="74.6" width="28.1" height="13.5" rx="3" fill="#cbd5e1" stroke="#475569"/><rect x="375.9" y="76.8" width="28.1" height="9.0" rx="3" fill="#cbd5e1" stroke="#475569"/><rect x="386.6" y="78.0" width="28.1" height="6.8" rx="3" fill="#cbd5e1" stroke="#475569"/><rect x="365.3" y="78.0" width="28.1" height="6.8" rx="3" fill="#cbd5e1" stroke="#475569"/><rect x="383.4" y="79.8" width="28.1" height="11.3" rx="3" fill="#cbd5e1" stroke="#475569"/><polygon points="390.0,552.7 382.0,581.9 398.0,581.9" fill="#94a3b8" stroke="#475569" opacity="0.88"/><polygon points="426.2,552.7 418.2,581.9 434.2,581.9" fill="#94a3b8" stroke="#475569" opacity="0.88"/><polygon points="441.2,552.7 433.2,581.9 449.2,581.9" fill="#94a3b8" stroke="#475569" opacity="0.88"/><polygon points="426.2,552.7 418.2,581.9 434.2,581.9" fill="#94a3b8" stroke="#475569" opacity="0.88"/><polygon points="390.0,552.7 382.0,581.9 398.0,581.9" fill="#94a3b8" stroke="#475569" opacity="0.88"/><polygon points="353.8,552.7 345.8,581.9 361.8,581.9" fill="#94a3b8" stroke="#475569" opacity="0.88"/><polygon points="338.8,552.7 330.8,581.9 346.8,581.9" fill="#94a3b8" stroke="#475569" opacity="0.88"/><polygon points="353.8,552.7 345.8,581.9 361.8,581.9" fill="#94a3b8" stroke="#475569" opacity="0.88"/><polygon points="376.2,569.1 403.8,569.1 410.3,636.0 369.7,636.0" fill="#f87171" stroke="#991b1b"/>
  <circle cx="625.0" cy="380.0" r="42.2" fill="#cbd5e1" stroke="#475569" opacity="0.30"/><circle cx="625.0" cy="380.0" r="42.2" fill="#cbd5e1" stroke="#475569" opacity="0.30"/><circle cx="625.0" cy="380.0" r="42.2" fill="#cbd5e1" stroke="#475569" opacity="0.30"/><circle cx="625.0" cy="380.0" r="42.2" fill="#cbd5e1" stroke="#475569" opacity="0.30"/><circle cx="625.0" cy="380.0" r="42.2" fill="#cbd5e1" stroke="#475569" opacity="0.30"/><circle cx="625.0" cy="380.0" r="42.2" fill="#cbd5e1" stroke="#475569" opacity="0.30"/><circle cx="625.0" cy="380.0" r="42.2" fill="#cbd5e1" stroke="#475569" opacity="0.30"/><circle cx="625.0" cy="380.0" r="42.2" fill="#cbd5e1" stroke="#475569" opacity="0.30"/><circle cx="665.5" cy="380.0" r="20.3" fill="#f87171" stroke="#334155" opacity="0.80"/><circle cx="635.7" cy="380.0" r="14.1" fill="#cbd5e1" stroke="#334155" opacity="0.80"/><circle cx="614.3" cy="380.0" r="14.1" fill="#cbd5e1" stroke="#334155" opacity="0.80"/><circle cx="625.0" cy="390.7" r="14.1" fill="#cbd5e1" stroke="#334155" opacity="0.80"/><circle cx="625.0" cy="369.3" r="14.1" fill="#cbd5e1" stroke="#334155" opacity="0.80"/><circle cx="632.5" cy="387.5" r="14.1" fill="#cbd5e1" stroke="#334155" opacity="0.80"/><circle cx="676.2" cy="380.0" r="3.9" fill="#94a3b8" stroke="#334155" opacity="0.80"/><circle cx="661.2" cy="416.2" r="3.9" fill="#94a3b8" stroke="#334155" opacity="0.80"/><circle cx="625.0" cy="431.2" r="3.9" fill="#94a3b8" stroke="#334155" opacity="0.80"/><circle cx="588.8" cy="416.2" r="3.9" fill="#94a3b8" stroke="#334155" opacity="0.80"/><circle cx="573.8" cy="380.0" r="3.9" fill="#94a3b8" stroke="#334155" opacity="0.80"/><circle cx="588.8" cy="343.8" r="3.9" fill="#94a3b8" stroke="#334155" opacity="0.80"/><circle cx="625.0" cy="328.8" r="3.9" fill="#94a3b8" stroke="#334155" opacity="0.80"/><circle cx="661.2" cy="343.8" r="3.9" fill="#94a3b8" stroke="#334155" opacity="0.80"/>
  <text x="805" y="94" font-size="12" fill="#16a34a">PASS - slender body (4 &lt;= L/D &lt;= 19)</text><text x="805" y="116" font-size="12" fill="#16a34a">PASS - monotonic taper (widest toward base)</text><text x="805" y="138" font-size="12" fill="#16a34a">PASS - payload housed (fairing or capsule top)</text><text x="805" y="160" font-size="12" fill="#16a34a">PASS - engine at the base</text><text x="805" y="182" font-size="12" fill="#16a34a">PASS - controlled ascent margin</text><text x="805" y="204" font-size="12" fill="#16a34a">PASS - radial protrusions within ascent envelope</text><text x="805" y="226" font-size="12" fill="#16a34a">PASS - landing gear tip-over stable</text>
  <text x="805" y="258" font-size="12" fill="#0f172a">L/D 6.6:1</text><text x="805" y="276" font-size="12" fill="#0f172a">length 24.88 m</text><text x="805" y="294" font-size="12" fill="#0f172a">body dia 3.75 m</text><text x="805" y="312" font-size="12" fill="#0f172a">ascent span 5.4 m</text><text x="805" y="330" font-size="12" fill="#0f172a">full span 5.4 m</text><text x="805" y="348" font-size="12" fill="#0f172a">static 0.39 cal</text><text x="805" y="366" font-size="12" fill="#0f172a">Cd 0.232</text><text x="805" y="384" font-size="12" fill="#0f172a">drag loss 172.0 m/s</text><text x="805" y="402" font-size="12" fill="#0f172a">max-Q 88.4 kPa</text>
</svg>