<svg xmlns="http://www.w3.org/2000/svg" width="1080" height="700" viewBox="0 0 1080 700" font-family="system-ui,Segoe UI,sans-serif">
  <rect width="1080" height="700" fill="#f8fafc"/>
  <text x="30" y="32" font-size="19" font-weight="700" fill="#0f172a">Three-view design chart - AI-Eve-Tanker</text>
  <text x="805" y="56" font-size="15" font-weight="700" fill="#dc2626">REJECTED - geometry gate failed</text>
  <text x="118" y="58" font-size="12" font-weight="700" fill="#334155">SIDE</text>
  <text x="355" y="58" font-size="12" font-weight="700" fill="#334155">FRONT</text>
  <text x="594" y="220" font-size="12" font-weight="700" fill="#334155">TOP</text>
  <line x1="150.0" y1="60" x2="150.0" y2="650" stroke="#e2e8f0" stroke-dasharray="4 4"/>
  <line x1="390.0" y1="60" x2="390.0" y2="650" stroke="#e2e8f0" stroke-dasharray="4 4"/>
  <circle cx="625.0" cy="380.0" r="11.0" fill="none" stroke="#94a3b8" stroke-dasharray="4 4"/>
  <rect x="146.3" y="76.0" width="7.3" height="2.2" rx="3" fill="#cbd5e1" stroke="#475569"/><rect x="146.3" y="78.2" width="7.3" height="3.5" rx="3" fill="#cbd5e1" stroke="#475569"/><rect x="146.3" y="81.7" width="7.3" height="3.5" rx="3" fill="#cbd5e1" stroke="#475569"/><rect x="146.3" y="85.3" width="7.3" height="3.5" rx="3" fill="#cbd5e1" stroke="#475569"/><rect x="146.3" y="88.8" width="7.3" height="3.5" rx="3" fill="#cbd5e1" stroke="#475569"/><rect x="146.3" y="92.3" width="7.3" height="3.5" rx="3" fill="#cbd5e1" stroke="#475569"/><rect x="146.3" y="95.8" width="7.3" height="3.5" rx="3" fill="#cbd5e1" stroke="#475569"/><rect x="146.3" y="99.4" width="7.3" height="3.5" rx="3" fill="#cbd5e1" stroke="#475569"/><rect x="146.3" y="102.9" width="7.3" height="3.5" rx="3" fill="#cbd5e1" stroke="#475569"/><rect x="146.3" y="106.4" width="7.3" height="1.8" rx="3" fill="#cbd5e1" stroke="#475569"/><rect x="146.3" y="108.2" width="7.3" height="1.8" rx="3" fill="#cbd5e1" stroke="#475569"/><rect x="146.3" y="109.9" width="7.3" height="1.8" rx="3" fill="#cbd5e1" stroke="#475569"/><path d="M 146.3 114.2 L 146.3 76.0 Q 146.3 72.0 150.0 58.0 Q 153.7 72.0 153.7 76.0 L 153.7 114.2 Z" fill="#fde68a" stroke="#d97706" stroke-width="1.4" opacity="0.55"/><rect x="146.3" y="114.2" width="7.3" height="1.0" rx="3" fill="#cbd5e1" stroke="#475569"/><rect x="139.0" y="114.8" width="22.0" height="11.3" rx="3" fill="#cbd5e1" stroke="#475569"/><rect x="139.0" y="126.1" width="22.0" height="11.3" rx="3" fill="#cbd5e1" stroke="#475569"/><rect x="139.0" y="137.4" width="22.0" height="11.3" rx="3" fill="#cbd5e1" stroke="#475569"/><rect x="139.0" y="148.7" width="22.0" height="11.3" rx="3" fill="#cbd5e1" stroke="#475569"/><rect x="139.0" y="160.1" width="22.0" height="11.3" rx="3" fill="#cbd5e1" stroke="#475569"/><rect x="139.0" y="171.4" width="22.0" height="11.3" rx="3" fill="#cbd5e1" stroke="#475569"/><rect x="139.0" y="182.7" width="22.0" height="11.3" rx="3" fill="#cbd5e1" stroke="#475569"/><rect x="139.0" y="194.0" width="22.0" height="11.3" rx="3" fill="#cbd5e1" stroke="#475569"/><rect x="139.0" y="205.4" width="22.0" height="11.3" rx="3" fill="#cbd5e1" stroke="#475569"/><polygon points="148.2,216.7 151.8,216.7 152.6,221.6 147.4,221.6" fill="#f87171" stroke="#991b1b"/><rect x="146.3" y="221.6" width="7.3" height="1.0" rx="3" fill="#cbd5e1" stroke="#475569"/><rect x="139.0" y="222.2" width="22.0" height="11.3" rx="3" fill="#cbd5e1" stroke="#475569"/><rect x="139.0" y="233.5" width="22.0" height="11.3" rx="3" fill="#cbd5e1" stroke="#475569"/><rect x="139.0" y="244.8" width="22.0" height="11.3" rx="3" fill="#cbd5e1" stroke="#475569"/><rect x="139.0" y="256.1" width="22.0" height="11.3" rx="3" fill="#cbd5e1" stroke="#475569"/><rect x="139.0" y="267.5" width="22.0" height="11.3" rx="3" fill="#cbd5e1" stroke="#475569"/><rect x="139.0" y="278.8" width="22.0" height="11.3" rx="3" fill="#cbd5e1" stroke="#475569"/><rect x="139.0" y="290.1" width="22.0" height="11.3" rx="3" fill="#cbd5e1" stroke="#475569"/><rect x="139.0" y="301.4" width="22.0" height="11.3" rx="3" fill="#cbd5e1" stroke="#475569"/><rect x="139.0" y="312.8" width="22.0" height="11.3" rx="3" fill="#cbd5e1" stroke="#475569"/><rect x="139.0" y="324.1" width="22.0" height="11.3" rx="3" fill="#cbd5e1" stroke="#475569"/><rect x="139.0" y="335.4" width="22.0" height="11.3" rx="3" fill="#cbd5e1" stroke="#475569"/><rect x="139.0" y="346.7" width="22.0" height="11.3" rx="3" fill="#cbd5e1" stroke="#475569"/><rect x="139.0" y="358.1" width="22.0" height="11.3" rx="3" fill="#cbd5e1" stroke="#475569"/><rect x="139.0" y="369.4" width="22.0" height="11.3" rx="3" fill="#cbd5e1" stroke="#475569"/><rect x="139.0" y="380.7" width="22.0" height="11.3" rx="3" fill="#cbd5e1" stroke="#475569"/><rect x="139.0" y="392.0" width="22.0" height="11.3" rx="3" fill="#cbd5e1" stroke="#475569"/><rect x="139.0" y="403.4" width="22.0" height="11.3" rx="3" fill="#cbd5e1" stroke="#475569"/><rect x="139.0" y="414.7" width="22.0" height="11.3" rx="3" fill="#cbd5e1" stroke="#475569"/><rect x="139.0" y="426.0" width="22.0" height="11.3" rx="3" fill="#cbd5e1" stroke="#475569"/><rect x="139.0" y="437.3" width="22.0" height="11.3" rx="3" fill="#cbd5e1" stroke="#475569"/><rect x="139.0" y="448.7" width="22.0" height="11.3" rx="3" fill="#cbd5e1" stroke="#475569"/><rect x="139.0" y="460.0" width="22.0" height="11.3" rx="3" fill="#cbd5e1" stroke="#475569"/><rect x="139.0" y="471.3" width="22.0" height="11.3" rx="3" fill="#cbd5e1" stroke="#475569"/><rect x="139.0" y="482.6" width="22.0" height="11.3" rx="3" fill="#cbd5e1" stroke="#475569"/><rect x="139.0" y="494.0" width="22.0" height="11.3" rx="3" fill="#cbd5e1" stroke="#475569"/><rect x="139.0" y="505.3" width="22.0" height="11.3" rx="3" fill="#cbd5e1" stroke="#475569"/><rect x="139.0" y="516.6" width="22.0" height="11.3" rx="3" fill="#cbd5e1" stroke="#475569"/><rect x="139.0" y="527.9" width="22.0" height="11.3" rx="3" fill="#cbd5e1" stroke="#475569"/><rect x="139.0" y="539.3" width="22.0" height="11.3" rx="3" fill="#cbd5e1" stroke="#475569"/><rect x="139.0" y="550.6" width="22.0" height="11.3" rx="3" fill="#cbd5e1" stroke="#475569"/><rect x="139.0" y="561.9" width="22.0" height="11.3" rx="3" fill="#cbd5e1" stroke="#475569"/><rect x="139.0" y="573.2" width="22.0" height="11.3" rx="3" fill="#cbd5e1" stroke="#475569"/><rect x="139.0" y="584.6" width="22.0" height="11.3" rx="3" fill="#cbd5e1" stroke="#475569"/><rect x="139.0" y="595.9" width="22.0" height="11.3" rx="3" fill="#cbd5e1" stroke="#475569"/><rect x="139.0" y="607.2" width="22.0" height="11.3" rx="3" fill="#cbd5e1" stroke="#475569"/><polygon points="146.4,618.5 153.6,618.5 155.3,636.0 144.7,636.0" fill="#f87171" stroke="#991b1b"/><rect x="149.1" y="75.6" width="7.3" height="3.5" rx="3" fill="#cbd5e1" stroke="#475569"/><rect x="143.5" y="76.2" width="7.3" height="2.4" rx="3" fill="#cbd5e1" stroke="#475569"/><rect x="146.3" y="76.5" width="7.3" height="1.8" rx="3" fill="#cbd5e1" stroke="#475569"/><rect x="146.3" y="76.5" width="7.3" height="1.8" rx="3" fill="#cbd5e1" stroke="#475569"/><rect x="148.3" y="77.0" width="7.3" height="2.9" rx="3" fill="#cbd5e1" stroke="#475569"/><polygon points="163.4,614.2 155.4,635.2 171.4,635.2" fill="#94a3b8" stroke="#475569" opacity="0.88"/><polygon points="159.5,614.2 151.5,635.2 167.5,635.2" fill="#94a3b8" stroke="#475569" opacity="0.88"/><polygon points="150.0,614.2 142.0,635.2 158.0,635.2" fill="#94a3b8" stroke="#475569" opacity="0.88"/><polygon points="140.5,614.2 132.5,635.2 148.5,635.2" fill="#94a3b8" stroke="#475569" opacity="0.88"/><polygon points="136.6,614.2 128.6,635.2 144.6,635.2" fill="#94a3b8" stroke="#475569" opacity="0.88"/><polygon points="140.5,614.2 132.5,635.2 148.5,635.2" fill="#94a3b8" stroke="#475569" opacity="0.88"/><polygon points="150.0,614.2 142.0,635.2 158.0,635.2" fill="#94a3b8" stroke="#475569" opacity="0.88"/><polygon points="159.5,614.2 151.5,635.2 167.5,635.2" fill="#94a3b8" stroke="#475569" opacity="0.88"/><polygon points="157.0,618.5 164.2,618.5 165.9,636.0 155.3,636.0" fill="#f87171" stroke="#991b1b"/><polygon points="151.7,618.5 158.9,618.5 160.6,636.0 150.0,636.0" fill="#f87171" stroke="#991b1b"/><polygon points="141.1,618.5 148.3,618.5 150.0,636.0 139.4,636.0" fill="#f87171" stroke="#991b1b"/><polygon points="135.8,618.5 143.0,618.5 144.7,636.0 134.1,636.0" fill="#f87171" stroke="#991b1b"/><polygon points="141.1,618.5 148.3,618.5 150.0,636.0 139.4,636.0" fill="#f87171" stroke="#991b1b"/><polygon points="151.7,618.5 158.9,618.5 160.6,636.0 150.0,636.0" fill="#f87171" stroke="#991b1b"/>
  <rect x="386.3" y="76.0" width="7.3" height="2.2" rx="3" fill="#cbd5e1" stroke="#475569"/><rect x="386.3" y="78.2" width="7.3" height="3.5" rx="3" fill="#cbd5e1" stroke="#475569"/><rect x="386.3" y="81.7" width="7.3" height="3.5" rx="3" fill="#cbd5e1" stroke="#475569"/><rect x="386.3" y="85.3" width="7.3" height="3.5" rx="3" fill="#cbd5e1" stroke="#475569"/><rect x="386.3" y="88.8" width="7.3" height="3.5" rx="3" fill="#cbd5e1" stroke="#475569"/><rect x="386.3" y="92.3" width="7.3" height="3.5" rx="3" fill="#cbd5e1" stroke="#475569"/><rect x="386.3" y="95.8" width="7.3" height="3.5" rx="3" fill="#cbd5e1" stroke="#475569"/><rect x="386.3" y="99.4" width="7.3" height="3.5" rx="3" fill="#cbd5e1" stroke="#475569"/><rect x="386.3" y="102.9" width="7.3" height="3.5" rx="3" fill="#cbd5e1" stroke="#475569"/><rect x="386.3" y="106.4" width="7.3" height="1.8" rx="3" fill="#cbd5e1" stroke="#475569"/><rect x="386.3" y="108.2" width="7.3" height="1.8" rx="3" fill="#cbd5e1" stroke="#475569"/><rect x="386.3" y="109.9" width="7.3" height="1.8" rx="3" fill="#cbd5e1" stroke="#475569"/><path d="M 386.3 114.2 L 386.3 76.0 Q 386.3 72.0 390.0 58.0 Q 393.7 72.0 393.7 76.0 L 393.7 114.2 Z" fill="#fde68a" stroke="#d97706" stroke-width="1.4" opacity="0.55"/><rect x="386.3" y="114.2" width="7.3" height="1.0" rx="3" fill="#cbd5e1" stroke="#475569"/><rect x="379.0" y="114.8" width="22.0" height="11.3" rx="3" fill="#cbd5e1" stroke="#475569"/><rect x="379.0" y="126.1" width="22.0" height="11.3" rx="3" fill="#cbd5e1" stroke="#475569"/><rect x="379.0" y="137.4" width="22.0" height="11.3" rx="3" fill="#cbd5e1" stroke="#475569"/><rect x="379.0" y="148.7" width="22.0" height="11.3" rx="3" fill="#cbd5e1" stroke="#475569"/><rect x="379.0" y="160.1" width="22.0" height="11.3" rx="3" fill="#cbd5e1" stroke="#475569"/><rect x="379.0" y="171.4" width="22.0" height="11.3" rx="3" fill="#cbd5e1" stroke="#475569"/><rect x="379.0" y="182.7" width="22.0" height="11.3" rx="3" fill="#cbd5e1" stroke="#475569"/><rect x="379.0" y="194.0" width="22.0" height="11.3" rx="3" fill="#cbd5e1" stroke="#475569"/><rect x="379.0" y="205.4" width="22.0" height="11.3" rx="3" fill="#cbd5e1" stroke="#475569"/><polygon points="388.2,216.7 391.8,216.7 392.6,221.6 387.4,221.6" fill="#f87171" stroke="#991b1b"/><rect x="386.3" y="221.6" width="7.3" height="1.0" rx="3" fill="#cbd5e1" stroke="#475569"/><rect x="379.0" y="222.2" width="22.0" height="11.3" rx="3" fill="#cbd5e1" stroke="#475569"/><rect x="379.0" y="233.5" width="22.0" height="11.3" rx="3" fill="#cbd5e1" stroke="#475569"/><rect x="379.0" y="244.8" width="22.0" height="11.3" rx="3" fill="#cbd5e1" stroke="#475569"/><rect x="379.0" y="256.1" width="22.0" height="11.3" rx="3" fill="#cbd5e1" stroke="#475569"/><rect x="379.0" y="267.5" width="22.0" height="11.3" rx="3" fill="#cbd5e1" stroke="#475569"/><rect x="379.0" y="278.8" width="22.0" height="11.3" rx="3" fill="#cbd5e1" stroke="#475569"/><rect x="379.0" y="290.1" width="22.0" height="11.3" rx="3" fill="#cbd5e1" stroke="#475569"/><rect x="379.0" y="301.4" width="22.0" height="11.3" rx="3" fill="#cbd5e1" stroke="#475569"/><rect x="379.0" y="312.8" width="22.0" height="11.3" rx="3" fill="#cbd5e1" stroke="#475569"/><rect x="379.0" y="324.1" width="22.0" height="11.3" rx="3" fill="#cbd5e1" stroke="#475569"/><rect x="379.0" y="335.4" width="22.0" height="11.3" rx="3" fill="#cbd5e1" stroke="#475569"/><rect x="379.0" y="346.7" width="22.0" height="11.3" rx="3" fill="#cbd5e1" stroke="#475569"/><rect x="379.0" y="358.1" width="22.0" height="11.3" rx="3" fill="#cbd5e1" stroke="#475569"/><rect x="379.0" y="369.4" width="22.0" height="11.3" rx="3" fill="#cbd5e1" stroke="#475569"/><rect x="379.0" y="380.7" width="22.0" height="11.3" rx="3" fill="#cbd5e1" stroke="#475569"/><rect x="379.0" y="392.0" width="22.0" height="11.3" rx="3" fill="#cbd5e1" stroke="#475569"/><rect x="379.0" y="403.4" width="22.0" height="11.3" rx="3" fill="#cbd5e1" stroke="#475569"/><rect x="379.0" y="414.7" width="22.0" height="11.3" rx="3" fill="#cbd5e1" stroke="#475569"/><rect x="379.0" y="426.0" width="22.0" height="11.3" rx="3" fill="#cbd5e1" stroke="#475569"/><rect x="379.0" y="437.3" width="22.0" height="11.3" rx="3" fill="#cbd5e1" stroke="#475569"/><rect x="379.0" y="448.7" width="22.0" height="11.3" rx="3" fill="#cbd5e1" stroke="#475569"/><rect x="379.0" y="460.0" width="22.0" height="11.3" rx="3" fill="#cbd5e1" stroke="#475569"/><rect x="379.0" y="471.3" width="22.0" height="11.3" rx="3" fill="#cbd5e1" stroke="#475569"/><rect x="379.0" y="482.6" width="22.0" height="11.3" rx="3" fill="#cbd5e1" stroke="#475569"/><rect x="379.0" y="494.0" width="22.0" height="11.3" rx="3" fill="#cbd5e1" stroke="#475569"/><rect x="379.0" y="505.3" width="22.0" height="11.3" rx="3" fill="#cbd5e1" stroke="#475569"/><rect x="379.0" y="516.6" width="22.0" height="11.3" rx="3" fill="#cbd5e1" stroke="#475569"/><rect x="379.0" y="527.9" width="22.0" height="11.3" rx="3" fill="#cbd5e1" stroke="#475569"/><rect x="379.0" y="539.3" width="22.0" height="11.3" rx="3" fill="#cbd5e1" stroke="#475569"/><rect x="379.0" y="550.6" width="22.0" height="11.3" rx="3" fill="#cbd5e1" stroke="#475569"/><rect x="379.0" y="561.9" width="22.0" height="11.3" rx="3" fill="#cbd5e1" stroke="#475569"/><rect x="379.0" y="573.2" width="22.0" height="11.3" rx="3" fill="#cbd5e1" stroke="#475569"/><rect x="379.0" y="584.6" width="22.0" height="11.3" rx="3" fill="#cbd5e1" stroke="#475569"/><rect x="379.0" y="595.9" width="22.0" height="11.3" rx="3" fill="#cbd5e1" stroke="#475569"/><rect x="379.0" y="607.2" width="22.0" height="11.3" rx="3" fill="#cbd5e1" stroke="#475569"/><polygon points="386.4,618.5 393.6,618.5 395.3,636.0 384.7,636.0" fill="#f87171" stroke="#991b1b"/><rect x="386.3" y="75.6" width="7.3" height="3.5" rx="3" fill="#cbd5e1" stroke="#475569"/><rect x="386.3" y="76.2" width="7.3" height="2.4" rx="3" fill="#cbd5e1" stroke="#475569"/><rect x="389.1" y="76.5" width="7.3" height="1.8" rx="3" fill="#cbd5e1" stroke="#475569"/><rect x="383.5" y="76.5" width="7.3" height="1.8" rx="3" fill="#cbd5e1" stroke="#475569"/><rect x="388.3" y="77.0" width="7.3" height="2.9" rx="3" fill="#cbd5e1" stroke="#475569"/><polygon points="390.0,614.2 382.0,635.2 398.0,635.2" fill="#94a3b8" stroke="#475569" opacity="0.88"/><polygon points="399.5,614.2 391.5,635.2 407.5,635.2" fill="#94a3b8" stroke="#475569" opacity="0.88"/><polygon points="403.4,614.2 395.4,635.2 411.4,635.2" fill="#94a3b8" stroke="#475569" opacity="0.88"/><polygon points="399.5,614.2 391.5,635.2 407.5,635.2" fill="#94a3b8" stroke="#475569" opacity="0.88"/><polygon points="390.0,614.2 382.0,635.2 398.0,635.2" fill="#94a3b8" stroke="#475569" opacity="0.88"/><polygon points="380.5,614.2 372.5,635.2 388.5,635.2" fill="#94a3b8" stroke="#475569" opacity="0.88"/><polygon points="376.6,614.2 368.6,635.2 384.6,635.2" fill="#94a3b8" stroke="#475569" opacity="0.88"/><polygon points="380.5,614.2 372.5,635.2 388.5,635.2" fill="#94a3b8" stroke="#475569" opacity="0.88"/><polygon points="386.4,618.5 393.6,618.5 395.3,636.0 384.7,636.0" fill="#f87171" stroke="#991b1b"/><polygon points="395.6,618.5 402.8,618.5 404.5,636.0 393.9,636.0" fill="#f87171" stroke="#991b1b"/><polygon points="395.6,618.5 402.8,618.5 404.5,636.0 393.9,636.0" fill="#f87171" stroke="#991b1b"/><polygon points="386.4,618.5 393.6,618.5 395.3,636.0 384.7,636.0" fill="#f87171" stroke="#991b1b"/><polygon points="377.2,618.5 384.4,618.5 386.1,636.0 375.5,636.0" fill="#f87171" stroke="#991b1b"/><polygon points="377.2,618.5 384.4,618.5 386.1,636.0 375.5,636.0" fill="#f87171" stroke="#991b1b"/>
  <circle cx="625.0" cy="380.0" r="11.0" fill="#cbd5e1" stroke="#475569" opacity="0.30"/><circle cx="625.0" cy="380.0" r="11.0" fill="#cbd5e1" stroke="#475569" opacity="0.30"/><circle cx="625.0" cy="380.0" r="11.0" fill="#cbd5e1" stroke="#475569" opacity="0.30"/><circle cx="625.0" cy="380.0" r="11.0" fill="#cbd5e1" stroke="#475569" opacity="0.30"/><circle cx="625.0" cy="380.0" r="11.0" fill="#cbd5e1" stroke="#475569" opacity="0.30"/><circle cx="625.0" cy="380.0" r="11.0" fill="#cbd5e1" stroke="#475569" opacity="0.30"/><circle cx="625.0" cy="380.0" r="11.0" fill="#cbd5e1" stroke="#475569" opacity="0.30"/><circle cx="625.0" cy="380.0" r="11.0" fill="#cbd5e1" stroke="#475569" opacity="0.30"/><circle cx="635.6" cy="380.0" r="5.3" fill="#f87171" stroke="#334155" opacity="0.80"/><circle cx="630.3" cy="389.2" r="5.3" fill="#f87171" stroke="#334155" opacity="0.80"/><circle cx="619.7" cy="389.2" r="5.3" fill="#f87171" stroke="#334155" opacity="0.80"/><circle cx="614.4" cy="380.0" r="5.3" fill="#f87171" stroke="#334155" opacity="0.80"/><circle cx="619.7" cy="370.8" r="5.3" fill="#f87171" stroke="#334155" opacity="0.80"/><circle cx="630.3" cy="370.8" r="5.3" fill="#f87171" stroke="#334155" opacity="0.80"/><circle cx="627.8" cy="380.0" r="3.7" fill="#cbd5e1" stroke="#334155" opacity="0.80"/><circle cx="622.2" cy="380.0" r="3.7" fill="#cbd5e1" stroke="#334155" opacity="0.80"/><circle cx="625.0" cy="382.8" r="3.7" fill="#cbd5e1" stroke="#334155" opacity="0.80"/><circle cx="625.0" cy="377.2" r="3.7" fill="#cbd5e1" stroke="#334155" opacity="0.80"/><circle cx="627.0" cy="382.0" r="3.7" fill="#cbd5e1" stroke="#334155" opacity="0.80"/><circle cx="638.4" cy="380.0" r="2.5" fill="#94a3b8" stroke="#334155" opacity="0.80"/><circle cx="634.5" cy="389.5" r="2.5" fill="#94a3b8" stroke="#334155" opacity="0.80"/><circle cx="625.0" cy="393.4" r="2.5" fill="#94a3b8" stroke="#334155" opacity="0.80"/><circle cx="615.5" cy="389.5" r="2.5" fill="#94a3b8" stroke="#334155" opacity="0.80"/><circle cx="611.6" cy="380.0" r="2.5" fill="#94a3b8" stroke="#334155" opacity="0.80"/><circle cx="615.5" cy="370.5" r="2.5" fill="#94a3b8" stroke="#334155" opacity="0.80"/><circle cx="625.0" cy="366.6" r="2.5" fill="#94a3b8" stroke="#334155" opacity="0.80"/><circle cx="634.5" cy="370.5" r="2.5" fill="#94a3b8" stroke="#334155" opacity="0.80"/>
  <text x="805" y="94" font-size="12" fill="#dc2626">FAIL - slender body (4 &lt;= L/D &lt;= 19)</text><text x="805" y="116" font-size="12" fill="#16a34a">PASS - monotonic taper (widest toward base)</text><text x="805" y="138" font-size="12" fill="#16a34a">PASS - payload housed (fairing or capsule top)</text><text x="805" y="160" font-size="12" fill="#16a34a">PASS - engine at the base</text><text x="805" y="182" font-size="12" fill="#16a34a">PASS - controlled ascent margin</text><text x="805" y="204" font-size="12" fill="#16a34a">PASS - radial protrusions within ascent envelope</text><text x="805" y="226" font-size="12" fill="#16a34a">PASS - landing gear tip-over stable</text>
  <text x="805" y="258" font-size="12" fill="#0f172a">L/D 25.4:1</text><text x="805" y="276" font-size="12" fill="#0f172a">length 95.28 m</text><text x="805" y="294" font-size="12" fill="#0f172a">body dia 3.75 m</text><text x="805" y="312" font-size="12" fill="#0f172a">core span 5.4 m</text><text x="805" y="330" font-size="12" fill="#0f172a">full span 5.4 m</text><text x="805" y="348" font-size="12" fill="#0f172a">static 0.39 cal</text><text x="805" y="366" font-size="12" fill="#0f172a">Cd 0.232</text><text x="805" y="384" font-size="12" fill="#0f172a">drag loss 27.0 m/s</text><text x="805" y="402" font-size="12" fill="#0f172a">max-Q 88.4 kPa</text>
</svg>