<svg xmlns="http://www.w3.org/2000/svg" width="1080" height="700" viewBox="0 0 1080 700" font-family="system-ui,Segoe UI,sans-serif">
  <rect width="1080" height="700" fill="#f8fafc"/>
  <text x="30" y="32" font-size="19" font-weight="700" fill="#0f172a">Three-view design chart - AI-Duna-1</text>
  <text x="805" y="56" font-size="15" font-weight="700" fill="#16a34a">LOOKS LIKE A ROCKET</text>
  <text x="118" y="58" font-size="12" font-weight="700" fill="#334155">SIDE</text>
  <text x="355" y="58" font-size="12" font-weight="700" fill="#334155">FRONT</text>
  <text x="594" y="220" font-size="12" font-weight="700" fill="#334155">TOP</text>
  <line x1="150.0" y1="60" x2="150.0" y2="650" stroke="#e2e8f0" stroke-dasharray="4 4"/>
  <line x1="390.0" y1="60" x2="390.0" y2="650" stroke="#e2e8f0" stroke-dasharray="4 4"/>
  <circle cx="625.0" cy="380.0" r="21.3" fill="none" stroke="#94a3b8" stroke-dasharray="4 4"/>
  <rect x="142.9" y="76.0" width="14.2" height="11.9" rx="3" fill="#e2e8f0" stroke="#475569"/><rect x="142.9" y="87.9" width="14.2" height="2.2" rx="3" fill="#cbd5e1" stroke="#475569"/><rect x="142.9" y="90.1" width="14.2" height="1.1" rx="3" fill="#cbd5e1" stroke="#475569"/><rect x="142.9" y="91.2" width="14.2" height="2.3" rx="3" fill="#cbd5e1" stroke="#475569"/><rect x="142.9" y="93.5" width="14.2" height="4.5" rx="3" fill="#cbd5e1" stroke="#475569"/><rect x="142.9" y="98.0" width="14.2" height="4.5" rx="3" fill="#cbd5e1" stroke="#475569"/><rect x="142.9" y="102.6" width="14.2" height="4.5" rx="3" fill="#cbd5e1" stroke="#475569"/><path d="M 131.8 111.9 L 131.8 76.0 Q 131.8 66.3 150.0 52.3 Q 168.2 66.3 168.2 76.0 L 168.2 111.9 Z" fill="#fde68a" stroke="#d97706" stroke-width="1.4" opacity="0.55"/><rect x="142.9" y="111.9" width="14.2" height="1.1" rx="3" fill="#cbd5e1" stroke="#475569"/><rect x="135.8" y="113.0" width="28.4" height="10.3" rx="3" fill="#cbd5e1" stroke="#475569"/><polygon points="146.5,123.3 153.5,123.3 155.1,132.8 144.9,132.8" fill="#f87171" stroke="#991b1b"/><rect x="142.9" y="132.8" width="14.2" height="1.1" rx="3" fill="#cbd5e1" stroke="#475569"/><rect x="135.8" y="133.9" width="28.4" height="10.3" rx="3" fill="#cbd5e1" stroke="#475569"/><rect x="135.8" y="144.3" width="28.4" height="10.3" rx="3" fill="#cbd5e1" stroke="#475569"/><rect x="135.8" y="154.6" width="28.4" height="10.3" rx="3" fill="#cbd5e1" stroke="#475569"/><rect x="135.8" y="164.9" width="28.4" height="9.4" rx="2" fill="#cbd5e1" stroke="#64748b" stroke-dasharray="3 2" opacity="0.45"/><polygon points="146.5,164.9 153.5,164.9 155.1,174.4 144.9,174.4" fill="#f87171" stroke="#991b1b"/><rect x="142.9" y="174.4" width="14.2" height="1.1" rx="3" fill="#cbd5e1" stroke="#475569"/><rect x="135.8" y="175.5" width="28.4" height="10.3" rx="3" fill="#cbd5e1" stroke="#475569"/><rect x="128.7" y="185.9" width="42.6" height="9.4" rx="2" fill="#cbd5e1" stroke="#64748b" stroke-dasharray="3 2" opacity="0.45"/><polygon points="146.5,185.9 153.5,185.9 155.1,195.3 144.9,195.3" fill="#f87171" stroke="#991b1b"/><rect x="142.9" y="195.3" width="14.2" height="1.1" rx="3" fill="#cbd5e1" stroke="#475569"/><rect x="128.7" y="196.4" width="42.6" height="25.6" rx="3" fill="#cbd5e1" stroke="#475569"/><rect x="128.7" y="222.0" width="42.6" height="44.0" rx="3" fill="#cbd5e1" stroke="#475569"/><rect x="128.7" y="266.0" width="42.6" height="44.0" rx="3" fill="#cbd5e1" stroke="#475569"/><rect x="128.7" y="310.0" width="42.6" height="44.0" rx="3" fill="#cbd5e1" stroke="#475569"/><rect x="128.7" y="354.0" width="42.6" height="44.0" rx="3" fill="#cbd5e1" stroke="#475569"/><rect x="128.7" y="397.9" width="42.6" height="44.0" rx="3" fill="#cbd5e1" stroke="#475569"/><rect x="128.7" y="441.9" width="42.6" height="44.0" rx="3" fill="#cbd5e1" stroke="#475569"/><rect x="128.7" y="485.9" width="42.6" height="44.0" rx="3" fill="#cbd5e1" stroke="#475569"/><rect x="128.7" y="529.9" width="42.6" height="44.0" rx="3" fill="#cbd5e1" stroke="#475569"/><rect x="128.7" y="573.8" width="42.6" height="44.0" rx="3" fill="#cbd5e1" stroke="#475569"/><polygon points="146.5,617.8 153.5,617.8 155.1,636.0 144.9,636.0" fill="#f87171" stroke="#991b1b"/><rect x="154.2" y="81.9" width="7.1" height="1.0" rx="3" fill="#cbd5e1" stroke="#475569"/><rect x="149.7" y="81.9" width="7.1" height="1.0" rx="3" fill="#cbd5e1" stroke="#475569"/><rect x="143.2" y="81.9" width="7.1" height="1.0" rx="3" fill="#cbd5e1" stroke="#475569"/><rect x="138.7" y="81.9" width="7.1" height="1.0" rx="3" fill="#cbd5e1" stroke="#475569"/><rect x="153.5" y="81.5" width="7.1" height="2.0" rx="3" fill="#cbd5e1" stroke="#475569"/><rect x="135.8" y="81.3" width="14.2" height="2.5" rx="3" fill="#cbd5e1" stroke="#475569"/><rect x="147.1" y="76.8" width="14.2" height="11.4" rx="3" fill="#cbd5e1" stroke="#475569"/><rect x="138.7" y="76.8" width="14.2" height="11.4" rx="3" fill="#cbd5e1" stroke="#475569"/><rect x="146.4" y="80.9" width="7.1" height="7.4" rx="3" fill="#cbd5e1" stroke="#475569"/><line x1="168.9" y1="129.4" x2="168.9" y2="154.7" stroke="#64748b" stroke-width="3" stroke-linecap="round"/><line x1="150.0" y1="129.4" x2="150.0" y2="154.7" stroke="#64748b" stroke-width="3" stroke-linecap="round"/><line x1="131.1" y1="129.4" x2="131.1" y2="154.7" stroke="#64748b" stroke-width="3" stroke-linecap="round"/><line x1="150.0" y1="129.4" x2="150.0" y2="154.7" stroke="#64748b" stroke-width="3" stroke-linecap="round"/><polygon points="175.9,601.1 167.9,630.5 183.9,630.5" fill="#94a3b8" stroke="#475569" opacity="0.88"/><polygon points="168.3,601.1 160.3,630.5 176.3,630.5" fill="#94a3b8" stroke="#475569" opacity="0.88"/><polygon points="150.0,601.1 142.0,630.5 158.0,630.5" fill="#94a3b8" stroke="#475569" opacity="0.88"/><polygon points="131.7,601.1 123.7,630.5 139.7,630.5" fill="#94a3b8" stroke="#475569" opacity="0.88"/><polygon points="124.1,601.1 116.1,630.5 132.1,630.5" fill="#94a3b8" stroke="#475569" opacity="0.88"/><polygon points="131.7,601.1 123.7,630.5 139.7,630.5" fill="#94a3b8" stroke="#475569" opacity="0.88"/><polygon points="150.0,601.1 142.0,630.5 158.0,630.5" fill="#94a3b8" stroke="#475569" opacity="0.88"/><polygon points="168.3,601.1 160.3,630.5 176.3,630.5" fill="#94a3b8" stroke="#475569" opacity="0.88"/><polygon points="156.8,617.8 163.7,617.8 165.3,636.0 155.1,636.0" fill="#f87171" stroke="#991b1b"/><polygon points="149.7,617.8 156.6,617.8 158.3,636.0 148.0,636.0" fill="#f87171" stroke="#991b1b"/><polygon points="138.2,617.8 145.2,617.8 146.8,636.0 136.6,636.0" fill="#f87171" stroke="#991b1b"/><polygon points="138.2,617.8 145.2,617.8 146.8,636.0 136.6,636.0" fill="#f87171" stroke="#991b1b"/><polygon points="149.7,617.8 156.6,617.8 158.3,636.0 148.0,636.0" fill="#f87171" stroke="#991b1b"/>
  <rect x="382.9" y="76.0" width="14.2" height="11.9" rx="3" fill="#e2e8f0" stroke="#475569"/><rect x="382.9" y="87.9" width="14.2" height="2.2" rx="3" fill="#cbd5e1" stroke="#475569"/><rect x="382.9" y="90.1" width="14.2" height="1.1" rx="3" fill="#cbd5e1" stroke="#475569"/><rect x="382.9" y="91.2" width="14.2" height="2.3" rx="3" fill="#cbd5e1" stroke="#475569"/><rect x="382.9" y="93.5" width="14.2" height="4.5" rx="3" fill="#cbd5e1" stroke="#475569"/><rect x="382.9" y="98.0" width="14.2" height="4.5" rx="3" fill="#cbd5e1" stroke="#475569"/><rect x="382.9" y="102.6" width="14.2" height="4.5" rx="3" fill="#cbd5e1" stroke="#475569"/><path d="M 371.8 111.9 L 371.8 76.0 Q 371.8 66.3 390.0 52.3 Q 408.2 66.3 408.2 76.0 L 408.2 111.9 Z" fill="#fde68a" stroke="#d97706" stroke-width="1.4" opacity="0.55"/><rect x="382.9" y="111.9" width="14.2" height="1.1" rx="3" fill="#cbd5e1" stroke="#475569"/><rect x="375.8" y="113.0" width="28.4" height="10.3" rx="3" fill="#cbd5e1" stroke="#475569"/><polygon points="386.5,123.3 393.5,123.3 395.1,132.8 384.9,132.8" fill="#f87171" stroke="#991b1b"/><rect x="382.9" y="132.8" width="14.2" height="1.1" rx="3" fill="#cbd5e1" stroke="#475569"/><rect x="375.8" y="133.9" width="28.4" height="10.3" rx="3" fill="#cbd5e1" stroke="#475569"/><rect x="375.8" y="144.3" width="28.4" height="10.3" rx="3" fill="#cbd5e1" stroke="#475569"/><rect x="375.8" y="154.6" width="28.4" height="10.3" rx="3" fill="#cbd5e1" stroke="#475569"/><rect x="375.8" y="164.9" width="28.4" height="9.4" rx="2" fill="#cbd5e1" stroke="#64748b" stroke-dasharray="3 2" opacity="0.45"/><polygon points="386.5,164.9 393.5,164.9 395.1,174.4 384.9,174.4" fill="#f87171" stroke="#991b1b"/><rect x="382.9" y="174.4" width="14.2" height="1.1" rx="3" fill="#cbd5e1" stroke="#475569"/><rect x="375.8" y="175.5" width="28.4" height="10.3" rx="3" fill="#cbd5e1" stroke="#475569"/><rect x="368.7" y="185.9" width="42.6" height="9.4" rx="2" fill="#cbd5e1" stroke="#64748b" stroke-dasharray="3 2" opacity="0.45"/><polygon points="386.5,185.9 393.5,185.9 395.1,195.3 384.9,195.3" fill="#f87171" stroke="#991b1b"/><rect x="382.9" y="195.3" width="14.2" height="1.1" rx="3" fill="#cbd5e1" stroke="#475569"/><rect x="368.7" y="196.4" width="42.6" height="25.6" rx="3" fill="#cbd5e1" stroke="#475569"/><rect x="368.7" y="222.0" width="42.6" height="44.0" rx="3" fill="#cbd5e1" stroke="#475569"/><rect x="368.7" y="266.0" width="42.6" height="44.0" rx="3" fill="#cbd5e1" stroke="#475569"/><rect x="368.7" y="310.0" width="42.6" height="44.0" rx="3" fill="#cbd5e1" stroke="#475569"/><rect x="368.7" y="354.0" width="42.6" height="44.0" rx="3" fill="#cbd5e1" stroke="#475569"/><rect x="368.7" y="397.9" width="42.6" height="44.0" rx="3" fill="#cbd5e1" stroke="#475569"/><rect x="368.7" y="441.9" width="42.6" height="44.0" rx="3" fill="#cbd5e1" stroke="#475569"/><rect x="368.7" y="485.9" width="42.6" height="44.0" rx="3" fill="#cbd5e1" stroke="#475569"/><rect x="368.7" y="529.9" width="42.6" height="44.0" rx="3" fill="#cbd5e1" stroke="#475569"/><rect x="368.7" y="573.8" width="42.6" height="44.0" rx="3" fill="#cbd5e1" stroke="#475569"/><polygon points="386.5,617.8 393.5,617.8 395.1,636.0 384.9,636.0" fill="#f87171" stroke="#991b1b"/><rect x="389.3" y="81.9" width="7.1" height="1.0" rx="3" fill="#cbd5e1" stroke="#475569"/><rect x="394.0" y="81.9" width="7.1" height="1.0" rx="3" fill="#cbd5e1" stroke="#475569"/><rect x="394.0" y="81.9" width="7.1" height="1.0" rx="3" fill="#cbd5e1" stroke="#475569"/><rect x="389.3" y="81.9" width="7.1" height="1.0" rx="3" fill="#cbd5e1" stroke="#475569"/><rect x="393.5" y="81.5" width="7.1" height="2.0" rx="3" fill="#cbd5e1" stroke="#475569"/><rect x="390.0" y="81.3" width="14.2" height="2.5" rx="3" fill="#cbd5e1" stroke="#475569"/><rect x="392.0" y="76.8" width="14.2" height="11.4" rx="3" fill="#cbd5e1" stroke="#475569"/><rect x="392.0" y="76.8" width="14.2" height="11.4" rx="3" fill="#cbd5e1" stroke="#475569"/><rect x="396.4" y="80.9" width="7.1" height="7.4" rx="3" fill="#cbd5e1" stroke="#475569"/><line x1="390.0" y1="129.4" x2="390.0" y2="154.7" stroke="#64748b" stroke-width="3" stroke-linecap="round"/><line x1="408.9" y1="129.4" x2="408.9" y2="154.7" stroke="#64748b" stroke-width="3" stroke-linecap="round"/><line x1="390.0" y1="129.4" x2="390.0" y2="154.7" stroke="#64748b" stroke-width="3" stroke-linecap="round"/><line x1="371.1" y1="129.4" x2="371.1" y2="154.7" stroke="#64748b" stroke-width="3" stroke-linecap="round"/><polygon points="390.0,601.1 382.0,630.5 398.0,630.5" fill="#94a3b8" stroke="#475569" opacity="0.88"/><polygon points="408.3,601.1 400.3,630.5 416.3,630.5" fill="#94a3b8" stroke="#475569" opacity="0.88"/><polygon points="415.9,601.1 407.9,630.5 423.9,630.5" fill="#94a3b8" stroke="#475569" opacity="0.88"/><polygon points="408.3,601.1 400.3,630.5 416.3,630.5" fill="#94a3b8" stroke="#475569" opacity="0.88"/><polygon points="390.0,601.1 382.0,630.5 398.0,630.5" fill="#94a3b8" stroke="#475569" opacity="0.88"/><polygon points="371.7,601.1 363.7,630.5 379.7,630.5" fill="#94a3b8" stroke="#475569" opacity="0.88"/><polygon points="364.1,601.1 356.1,630.5 372.1,630.5" fill="#94a3b8" stroke="#475569" opacity="0.88"/><polygon points="371.7,601.1 363.7,630.5 379.7,630.5" fill="#94a3b8" stroke="#475569" opacity="0.88"/><polygon points="386.5,617.8 393.5,617.8 395.1,636.0 384.9,636.0" fill="#f87171" stroke="#991b1b"/><polygon points="396.3,617.8 403.2,617.8 404.8,636.0 394.6,636.0" fill="#f87171" stroke="#991b1b"/><polygon points="392.5,617.8 399.5,617.8 401.1,636.0 390.9,636.0" fill="#f87171" stroke="#991b1b"/><polygon points="380.5,617.8 387.5,617.8 389.1,636.0 378.9,636.0" fill="#f87171" stroke="#991b1b"/><polygon points="376.8,617.8 383.7,617.8 385.4,636.0 375.2,636.0" fill="#f87171" stroke="#991b1b"/>
  <circle cx="625.0" cy="380.0" r="21.3" fill="#cbd5e1" stroke="#475569" opacity="0.30"/><circle cx="625.0" cy="380.0" r="21.3" fill="#cbd5e1" stroke="#475569" opacity="0.30"/><circle cx="625.0" cy="380.0" r="21.3" fill="#cbd5e1" stroke="#475569" opacity="0.30"/><circle cx="625.0" cy="380.0" r="21.3" fill="#cbd5e1" stroke="#475569" opacity="0.30"/><circle cx="625.0" cy="380.0" r="21.3" fill="#cbd5e1" stroke="#475569" opacity="0.30"/><circle cx="625.0" cy="380.0" r="21.3" fill="#cbd5e1" stroke="#475569" opacity="0.30"/><circle cx="625.0" cy="380.0" r="21.3" fill="#cbd5e1" stroke="#475569" opacity="0.30"/><circle cx="625.0" cy="380.0" r="21.3" fill="#cbd5e1" stroke="#475569" opacity="0.30"/><circle cx="632.8" cy="382.8" r="3.6" fill="#cbd5e1" stroke="#334155" opacity="0.80"/><circle cx="628.3" cy="387.6" r="3.6" fill="#cbd5e1" stroke="#334155" opacity="0.80"/><circle cx="621.7" cy="387.6" r="3.6" fill="#cbd5e1" stroke="#334155" opacity="0.80"/><circle cx="617.2" cy="382.8" r="3.6" fill="#cbd5e1" stroke="#334155" opacity="0.80"/><circle cx="625.0" cy="380.0" r="14.2" fill="#fde68a" stroke="#334155" opacity="0.80"/><circle cx="635.2" cy="380.0" r="5.1" fill="#f87171" stroke="#334155" opacity="0.80"/><circle cx="628.2" cy="389.7" r="5.1" fill="#f87171" stroke="#334155" opacity="0.80"/><circle cx="616.7" cy="386.0" r="5.1" fill="#f87171" stroke="#334155" opacity="0.80"/><circle cx="616.7" cy="374.0" r="5.1" fill="#f87171" stroke="#334155" opacity="0.80"/><circle cx="628.2" cy="370.3" r="5.1" fill="#f87171" stroke="#334155" opacity="0.80"/><circle cx="632.1" cy="387.1" r="3.6" fill="#cbd5e1" stroke="#334155" opacity="0.80"/><circle cx="617.9" cy="387.1" r="7.1" fill="#cbd5e1" stroke="#334155" opacity="0.80"/><circle cx="629.2" cy="389.1" r="7.1" fill="#cbd5e1" stroke="#334155" opacity="0.80"/><circle cx="620.8" cy="389.1" r="7.1" fill="#cbd5e1" stroke="#334155" opacity="0.80"/><circle cx="625.0" cy="390.0" r="3.6" fill="#cbd5e1" stroke="#334155" opacity="0.80"/><circle cx="650.9" cy="380.0" r="2.5" fill="#94a3b8" stroke="#334155" opacity="0.80"/><circle cx="643.3" cy="398.3" r="2.5" fill="#94a3b8" stroke="#334155" opacity="0.80"/><circle cx="625.0" cy="405.9" r="2.5" fill="#94a3b8" stroke="#334155" opacity="0.80"/><circle cx="606.7" cy="398.3" r="2.5" fill="#94a3b8" stroke="#334155" opacity="0.80"/><circle cx="599.1" cy="380.0" r="2.5" fill="#94a3b8" stroke="#334155" opacity="0.80"/><circle cx="606.7" cy="361.7" r="2.5" fill="#94a3b8" stroke="#334155" opacity="0.80"/><circle cx="625.0" cy="354.1" r="2.5" fill="#94a3b8" stroke="#334155" opacity="0.80"/><circle cx="643.3" cy="361.7" r="2.5" fill="#94a3b8" stroke="#334155" opacity="0.80"/><circle cx="643.9" cy="380.0" r="2.5" fill="#64748b" stroke="#334155" opacity="0.80"/><circle cx="625.0" cy="398.9" r="2.5" fill="#64748b" stroke="#334155" opacity="0.80"/><circle cx="606.1" cy="380.0" r="2.5" fill="#64748b" stroke="#334155" opacity="0.80"/><circle cx="625.0" cy="361.1" r="2.5" fill="#64748b" stroke="#334155" opacity="0.80"/>
  <text x="805" y="94" font-size="12" fill="#16a34a">PASS - slender body (4 &lt;= L/D &lt;= 19)</text><text x="805" y="116" font-size="12" fill="#16a34a">PASS - monotonic taper (widest toward base)</text><text x="805" y="138" font-size="12" fill="#16a34a">PASS - payload housed (fairing or capsule top)</text><text x="805" y="160" font-size="12" fill="#16a34a">PASS - payload fully enclosed (nothing protrudes the fairing)</text><text x="805" y="182" font-size="12" fill="#16a34a">PASS - engine at the base</text><text x="805" y="204" font-size="12" fill="#16a34a">PASS - upper-stage engine has interstage shroud</text><text x="805" y="226" font-size="12" fill="#16a34a">PASS - controlled ascent margin</text><text x="805" y="248" font-size="12" fill="#16a34a">PASS - radial protrusions within ascent envelope</text><text x="805" y="270" font-size="12" fill="#16a34a">PASS - landing gear tip-over stable</text>
  <text x="805" y="302" font-size="12" fill="#0f172a">L/D 13.1:1</text><text x="805" y="320" font-size="12" fill="#0f172a">length 49.26 m</text><text x="805" y="338" font-size="12" fill="#0f172a">body dia 3.75 m</text><text x="805" y="356" font-size="12" fill="#0f172a">core span 4.9 m</text><text x="805" y="374" font-size="12" fill="#0f172a">full span 4.9 m</text><text x="805" y="392" font-size="12" fill="#0f172a">static 0.06 cal</text><text x="805" y="410" font-size="12" fill="#0f172a">Cd 0.232</text><text x="805" y="428" font-size="12" fill="#0f172a">drag loss 85.0 m/s</text><text x="805" y="446" font-size="12" fill="#0f172a">max-Q 88.4 kPa</text>
</svg>