<svg xmlns="http://www.w3.org/2000/svg" width="1080" height="700" viewBox="0 0 1080 700" font-family="system-ui,Segoe UI,sans-serif">
  <rect width="1080" height="700" fill="#f8fafc"/>
  <text x="30" y="32" font-size="19" font-weight="700" fill="#0f172a">Three-view design chart - AI-Mun-1</text>
  <text x="805" y="56" font-size="15" font-weight="700" fill="#16a34a">LOOKS LIKE A ROCKET</text>
  <text x="118" y="58" font-size="12" font-weight="700" fill="#334155">SIDE</text>
  <text x="355" y="58" font-size="12" font-weight="700" fill="#334155">FRONT</text>
  <text x="594" y="220" font-size="12" font-weight="700" fill="#334155">TOP</text>
  <line x1="150.0" y1="60" x2="150.0" y2="650" stroke="#e2e8f0" stroke-dasharray="4 4"/>
  <line x1="390.0" y1="60" x2="390.0" y2="650" stroke="#e2e8f0" stroke-dasharray="4 4"/>
  <circle cx="625.0" cy="380.0" r="31.7" fill="none" stroke="#94a3b8" stroke-dasharray="4 4"/>
  <rect x="139.4" y="76.0" width="21.2" height="17.7" rx="3" fill="#e2e8f0" stroke="#475569"/><rect x="139.4" y="93.7" width="21.2" height="3.2" rx="3" fill="#cbd5e1" stroke="#475569"/><rect x="139.4" y="97.0" width="21.2" height="1.7" rx="3" fill="#cbd5e1" stroke="#475569"/><rect x="139.4" y="98.7" width="21.2" height="3.4" rx="3" fill="#cbd5e1" stroke="#475569"/><rect x="139.4" y="102.1" width="21.2" height="6.7" rx="3" fill="#cbd5e1" stroke="#475569"/><rect x="139.4" y="108.8" width="21.2" height="6.7" rx="3" fill="#cbd5e1" stroke="#475569"/><rect x="139.4" y="115.5" width="21.2" height="6.7" rx="3" fill="#cbd5e1" stroke="#475569"/><path d="M 122.9 129.4 L 122.9 76.0 Q 122.9 54.7 150.0 40.7 Q 177.1 54.7 177.1 76.0 L 177.1 129.4 Z" fill="#fde68a" stroke="#d97706" stroke-width="1.4" opacity="0.55"/><rect x="139.4" y="129.4" width="21.2" height="1.7" rx="3" fill="#cbd5e1" stroke="#475569"/><rect x="139.4" y="131.1" width="21.2" height="4.2" rx="3" fill="#cbd5e1" stroke="#475569"/><rect x="139.4" y="135.3" width="21.2" height="4.2" rx="3" fill="#cbd5e1" stroke="#475569"/><rect x="139.4" y="139.5" width="21.2" height="4.2" rx="3" fill="#cbd5e1" stroke="#475569"/><rect x="139.4" y="143.8" width="21.2" height="4.2" rx="3" fill="#cbd5e1" stroke="#475569"/><rect x="139.4" y="148.0" width="21.2" height="4.2" rx="3" fill="#cbd5e1" stroke="#475569"/><rect x="139.4" y="152.2" width="21.2" height="4.2" rx="3" fill="#cbd5e1" stroke="#475569"/><rect x="139.4" y="156.4" width="21.2" height="4.2" rx="3" fill="#cbd5e1" stroke="#475569"/><rect x="139.4" y="160.7" width="21.2" height="4.2" rx="3" fill="#cbd5e1" stroke="#475569"/><rect x="139.4" y="164.9" width="21.2" height="4.2" rx="3" fill="#cbd5e1" stroke="#475569"/><rect x="139.4" y="169.1" width="21.2" height="4.2" rx="3" fill="#cbd5e1" stroke="#475569"/><rect x="139.4" y="173.4" width="21.2" height="4.2" rx="3" fill="#cbd5e1" stroke="#475569"/><rect x="139.4" y="177.6" width="21.2" height="4.2" rx="3" fill="#cbd5e1" stroke="#475569"/><rect x="139.4" y="181.8" width="21.2" height="4.2" rx="3" fill="#cbd5e1" stroke="#475569"/><rect x="139.4" y="186.1" width="21.2" height="4.2" rx="3" fill="#cbd5e1" stroke="#475569"/><rect x="139.4" y="190.3" width="21.2" height="4.2" rx="3" fill="#cbd5e1" stroke="#475569"/><rect x="139.4" y="194.5" width="21.2" height="4.2" rx="3" fill="#cbd5e1" stroke="#475569"/><rect x="139.4" y="198.8" width="21.2" height="4.2" rx="3" fill="#cbd5e1" stroke="#475569"/><rect x="139.4" y="203.0" width="21.2" height="4.2" rx="3" fill="#cbd5e1" stroke="#475569"/><rect x="139.4" y="207.2" width="21.2" height="4.2" rx="3" fill="#cbd5e1" stroke="#475569"/><rect x="139.4" y="211.4" width="21.2" height="4.2" rx="3" fill="#cbd5e1" stroke="#475569"/><rect x="139.4" y="215.7" width="21.2" height="4.2" rx="3" fill="#cbd5e1" stroke="#475569"/><rect x="139.4" y="219.9" width="21.2" height="4.2" rx="3" fill="#cbd5e1" stroke="#475569"/><rect x="139.4" y="224.1" width="21.2" height="4.2" rx="3" fill="#cbd5e1" stroke="#475569"/><rect x="139.4" y="228.4" width="21.2" height="4.2" rx="3" fill="#cbd5e1" stroke="#475569"/><polygon points="144.8,232.6 155.2,232.6 157.6,246.6 142.4,246.6" fill="#f87171" stroke="#991b1b"/><rect x="139.4" y="246.6" width="21.2" height="1.7" rx="3" fill="#cbd5e1" stroke="#475569"/><rect x="139.4" y="248.3" width="21.2" height="18.8" rx="3" fill="#cbd5e1" stroke="#475569"/><rect x="118.3" y="267.1" width="63.5" height="14.0" rx="2" fill="#cbd5e1" stroke="#64748b" stroke-dasharray="3 2" opacity="0.45"/><polygon points="144.8,267.1 155.2,267.1 157.6,281.2 142.4,281.2" fill="#f87171" stroke="#991b1b"/><rect x="139.4" y="281.2" width="21.2" height="1.7" rx="3" fill="#cbd5e1" stroke="#475569"/><rect x="118.3" y="282.9" width="63.5" height="65.5" rx="3" fill="#cbd5e1" stroke="#475569"/><rect x="118.3" y="348.3" width="63.5" height="65.5" rx="3" fill="#cbd5e1" stroke="#475569"/><rect x="118.3" y="413.8" width="63.5" height="65.5" rx="3" fill="#cbd5e1" stroke="#475569"/><rect x="118.3" y="479.2" width="63.5" height="65.5" rx="3" fill="#cbd5e1" stroke="#475569"/><rect x="118.3" y="544.7" width="63.5" height="65.5" rx="3" fill="#cbd5e1" stroke="#475569"/><polygon points="134.5,610.2 165.5,610.2 172.8,636.0 127.2,636.0" fill="#f87171" stroke="#991b1b"/><rect x="157.0" y="84.8" width="10.6" height="1.0" rx="3" fill="#cbd5e1" stroke="#475569"/><rect x="132.4" y="84.8" width="10.6" height="1.0" rx="3" fill="#cbd5e1" stroke="#475569"/><rect x="159.6" y="84.2" width="10.6" height="3.0" rx="3" fill="#cbd5e1" stroke="#475569"/><rect x="124.6" y="83.8" width="21.2" height="3.8" rx="3" fill="#cbd5e1" stroke="#475569"/><rect x="139.4" y="77.2" width="21.2" height="16.9" rx="3" fill="#cbd5e1" stroke="#475569"/><rect x="139.4" y="77.2" width="21.2" height="16.9" rx="3" fill="#cbd5e1" stroke="#475569"/><rect x="155.1" y="83.2" width="10.6" height="11.1" rx="3" fill="#cbd5e1" stroke="#475569"/><line x1="215.4" y1="241.6" x2="215.4" y2="272.5" stroke="#64748b" stroke-width="3" stroke-linecap="round"/><line x1="150.0" y1="241.6" x2="150.0" y2="272.5" stroke="#64748b" stroke-width="3" stroke-linecap="round"/><line x1="84.6" y1="241.6" x2="84.6" y2="272.5" stroke="#64748b" stroke-width="3" stroke-linecap="round"/><line x1="150.0" y1="241.6" x2="150.0" y2="272.5" stroke="#64748b" stroke-width="3" stroke-linecap="round"/><polygon points="188.5,585.3 180.5,620.3 196.5,620.3" fill="#94a3b8" stroke="#475569" opacity="0.88"/><polygon points="177.2,585.3 169.2,620.3 185.2,620.3" fill="#94a3b8" stroke="#475569" opacity="0.88"/><polygon points="150.0,585.3 142.0,620.3 158.0,620.3" fill="#94a3b8" stroke="#475569" opacity="0.88"/><polygon points="122.8,585.3 114.8,620.3 130.8,620.3" fill="#94a3b8" stroke="#475569" opacity="0.88"/><polygon points="111.5,585.3 103.5,620.3 119.5,620.3" fill="#94a3b8" stroke="#475569" opacity="0.88"/><polygon points="122.8,585.3 114.8,620.3 130.8,620.3" fill="#94a3b8" stroke="#475569" opacity="0.88"/><polygon points="150.0,585.3 142.0,620.3 158.0,620.3" fill="#94a3b8" stroke="#475569" opacity="0.88"/><polygon points="177.2,585.3 169.2,620.3 185.2,620.3" fill="#94a3b8" stroke="#475569" opacity="0.88"/>
  <rect x="379.4" y="76.0" width="21.2" height="17.7" rx="3" fill="#e2e8f0" stroke="#475569"/><rect x="379.4" y="93.7" width="21.2" height="3.2" rx="3" fill="#cbd5e1" stroke="#475569"/><rect x="379.4" y="97.0" width="21.2" height="1.7" rx="3" fill="#cbd5e1" stroke="#475569"/><rect x="379.4" y="98.7" width="21.2" height="3.4" rx="3" fill="#cbd5e1" stroke="#475569"/><rect x="379.4" y="102.1" width="21.2" height="6.7" rx="3" fill="#cbd5e1" stroke="#475569"/><rect x="379.4" y="108.8" width="21.2" height="6.7" rx="3" fill="#cbd5e1" stroke="#475569"/><rect x="379.4" y="115.5" width="21.2" height="6.7" rx="3" fill="#cbd5e1" stroke="#475569"/><path d="M 362.9 129.4 L 362.9 76.0 Q 362.9 54.7 390.0 40.7 Q 417.1 54.7 417.1 76.0 L 417.1 129.4 Z" fill="#fde68a" stroke="#d97706" stroke-width="1.4" opacity="0.55"/><rect x="379.4" y="129.4" width="21.2" height="1.7" rx="3" fill="#cbd5e1" stroke="#475569"/><rect x="379.4" y="131.1" width="21.2" height="4.2" rx="3" fill="#cbd5e1" stroke="#475569"/><rect x="379.4" y="135.3" width="21.2" height="4.2" rx="3" fill="#cbd5e1" stroke="#475569"/><rect x="379.4" y="139.5" width="21.2" height="4.2" rx="3" fill="#cbd5e1" stroke="#475569"/><rect x="379.4" y="143.8" width="21.2" height="4.2" rx="3" fill="#cbd5e1" stroke="#475569"/><rect x="379.4" y="148.0" width="21.2" height="4.2" rx="3" fill="#cbd5e1" stroke="#475569"/><rect x="379.4" y="152.2" width="21.2" height="4.2" rx="3" fill="#cbd5e1" stroke="#475569"/><rect x="379.4" y="156.4" width="21.2" height="4.2" rx="3" fill="#cbd5e1" stroke="#475569"/><rect x="379.4" y="160.7" width="21.2" height="4.2" rx="3" fill="#cbd5e1" stroke="#475569"/><rect x="379.4" y="164.9" width="21.2" height="4.2" rx="3" fill="#cbd5e1" stroke="#475569"/><rect x="379.4" y="169.1" width="21.2" height="4.2" rx="3" fill="#cbd5e1" stroke="#475569"/><rect x="379.4" y="173.4" width="21.2" height="4.2" rx="3" fill="#cbd5e1" stroke="#475569"/><rect x="379.4" y="177.6" width="21.2" height="4.2" rx="3" fill="#cbd5e1" stroke="#475569"/><rect x="379.4" y="181.8" width="21.2" height="4.2" rx="3" fill="#cbd5e1" stroke="#475569"/><rect x="379.4" y="186.1" width="21.2" height="4.2" rx="3" fill="#cbd5e1" stroke="#475569"/><rect x="379.4" y="190.3" width="21.2" height="4.2" rx="3" fill="#cbd5e1" stroke="#475569"/><rect x="379.4" y="194.5" width="21.2" height="4.2" rx="3" fill="#cbd5e1" stroke="#475569"/><rect x="379.4" y="198.8" width="21.2" height="4.2" rx="3" fill="#cbd5e1" stroke="#475569"/><rect x="379.4" y="203.0" width="21.2" height="4.2" rx="3" fill="#cbd5e1" stroke="#475569"/><rect x="379.4" y="207.2" width="21.2" height="4.2" rx="3" fill="#cbd5e1" stroke="#475569"/><rect x="379.4" y="211.4" width="21.2" height="4.2" rx="3" fill="#cbd5e1" stroke="#475569"/><rect x="379.4" y="215.7" width="21.2" height="4.2" rx="3" fill="#cbd5e1" stroke="#475569"/><rect x="379.4" y="219.9" width="21.2" height="4.2" rx="3" fill="#cbd5e1" stroke="#475569"/><rect x="379.4" y="224.1" width="21.2" height="4.2" rx="3" fill="#cbd5e1" stroke="#475569"/><rect x="379.4" y="228.4" width="21.2" height="4.2" rx="3" fill="#cbd5e1" stroke="#475569"/><polygon points="384.8,232.6 395.2,232.6 397.6,246.6 382.4,246.6" fill="#f87171" stroke="#991b1b"/><rect x="379.4" y="246.6" width="21.2" height="1.7" rx="3" fill="#cbd5e1" stroke="#475569"/><rect x="379.4" y="248.3" width="21.2" height="18.8" rx="3" fill="#cbd5e1" stroke="#475569"/><rect x="358.3" y="267.1" width="63.5" height="14.0" rx="2" fill="#cbd5e1" stroke="#64748b" stroke-dasharray="3 2" opacity="0.45"/><polygon points="384.8,267.1 395.2,267.1 397.6,281.2 382.4,281.2" fill="#f87171" stroke="#991b1b"/><rect x="379.4" y="281.2" width="21.2" height="1.7" rx="3" fill="#cbd5e1" stroke="#475569"/><rect x="358.3" y="282.9" width="63.5" height="65.5" rx="3" fill="#cbd5e1" stroke="#475569"/><rect x="358.3" y="348.3" width="63.5" height="65.5" rx="3" fill="#cbd5e1" stroke="#475569"/><rect x="358.3" y="413.8" width="63.5" height="65.5" rx="3" fill="#cbd5e1" stroke="#475569"/><rect x="358.3" y="479.2" width="63.5" height="65.5" rx="3" fill="#cbd5e1" stroke="#475569"/><rect x="358.3" y="544.7" width="63.5" height="65.5" rx="3" fill="#cbd5e1" stroke="#475569"/><polygon points="374.5,610.2 405.5,610.2 412.8,636.0 367.2,636.0" fill="#f87171" stroke="#991b1b"/><rect x="384.7" y="84.8" width="10.6" height="1.0" rx="3" fill="#cbd5e1" stroke="#475569"/><rect x="384.7" y="84.8" width="10.6" height="1.0" rx="3" fill="#cbd5e1" stroke="#475569"/><rect x="384.7" y="84.2" width="10.6" height="3.0" rx="3" fill="#cbd5e1" stroke="#475569"/><rect x="379.4" y="83.8" width="21.2" height="3.8" rx="3" fill="#cbd5e1" stroke="#475569"/><rect x="394.3" y="77.2" width="21.2" height="16.9" rx="3" fill="#cbd5e1" stroke="#475569"/><rect x="364.6" y="77.2" width="21.2" height="16.9" rx="3" fill="#cbd5e1" stroke="#475569"/><rect x="395.1" y="83.2" width="10.6" height="11.1" rx="3" fill="#cbd5e1" stroke="#475569"/><line x1="390.0" y1="241.6" x2="390.0" y2="272.5" stroke="#64748b" stroke-width="3" stroke-linecap="round"/><line x1="455.4" y1="241.6" x2="455.4" y2="272.5" stroke="#64748b" stroke-width="3" stroke-linecap="round"/><line x1="390.0" y1="241.6" x2="390.0" y2="272.5" stroke="#64748b" stroke-width="3" stroke-linecap="round"/><line x1="324.6" y1="241.6" x2="324.6" y2="272.5" stroke="#64748b" stroke-width="3" stroke-linecap="round"/><polygon points="390.0,585.3 382.0,620.3 398.0,620.3" fill="#94a3b8" stroke="#475569" opacity="0.88"/><polygon points="417.2,585.3 409.2,620.3 425.2,620.3" fill="#94a3b8" stroke="#475569" opacity="0.88"/><polygon points="428.5,585.3 420.5,620.3 436.5,620.3" fill="#94a3b8" stroke="#475569" opacity="0.88"/><polygon points="417.2,585.3 409.2,620.3 425.2,620.3" fill="#94a3b8" stroke="#475569" opacity="0.88"/><polygon points="390.0,585.3 382.0,620.3 398.0,620.3" fill="#94a3b8" stroke="#475569" opacity="0.88"/><polygon points="362.8,585.3 354.8,620.3 370.8,620.3" fill="#94a3b8" stroke="#475569" opacity="0.88"/><polygon points="351.5,585.3 343.5,620.3 359.5,620.3" fill="#94a3b8" stroke="#475569" opacity="0.88"/><polygon points="362.8,585.3 354.8,620.3 370.8,620.3" fill="#94a3b8" stroke="#475569" opacity="0.88"/>
  <circle cx="625.0" cy="380.0" r="31.7" fill="#cbd5e1" stroke="#475569" opacity="0.30"/><circle cx="625.0" cy="380.0" r="31.7" fill="#cbd5e1" stroke="#475569" opacity="0.30"/><circle cx="625.0" cy="380.0" r="31.7" fill="#cbd5e1" stroke="#475569" opacity="0.30"/><circle cx="625.0" cy="380.0" r="31.7" fill="#cbd5e1" stroke="#475569" opacity="0.30"/><circle cx="625.0" cy="380.0" r="31.7" fill="#cbd5e1" stroke="#475569" opacity="0.30"/><circle cx="625.0" cy="380.0" r="31.7" fill="#f87171" stroke="#475569" opacity="0.30"/><circle cx="625.0" cy="380.0" r="10.6" fill="#e2e8f0" stroke="#475569" opacity="0.30"/><circle cx="625.0" cy="380.0" r="10.6" fill="#cbd5e1" stroke="#475569" opacity="0.30"/><circle cx="637.3" cy="380.0" r="5.3" fill="#cbd5e1" stroke="#334155" opacity="0.80"/><circle cx="612.7" cy="380.0" r="5.3" fill="#cbd5e1" stroke="#334155" opacity="0.80"/><circle cx="639.9" cy="380.0" r="5.3" fill="#cbd5e1" stroke="#334155" opacity="0.80"/><circle cx="610.1" cy="380.0" r="10.6" fill="#cbd5e1" stroke="#334155" opacity="0.80"/><circle cx="625.0" cy="394.9" r="10.6" fill="#cbd5e1" stroke="#334155" opacity="0.80"/><circle cx="625.0" cy="365.1" r="10.6" fill="#cbd5e1" stroke="#334155" opacity="0.80"/><circle cx="635.4" cy="390.4" r="5.3" fill="#cbd5e1" stroke="#334155" opacity="0.80"/><circle cx="663.5" cy="380.0" r="3.0" fill="#94a3b8" stroke="#334155" opacity="0.80"/><circle cx="652.2" cy="407.2" r="3.0" fill="#94a3b8" stroke="#334155" opacity="0.80"/><circle cx="625.0" cy="418.5" r="3.0" fill="#94a3b8" stroke="#334155" opacity="0.80"/><circle cx="597.8" cy="407.2" r="3.0" fill="#94a3b8" stroke="#334155" opacity="0.80"/><circle cx="586.5" cy="380.0" r="3.0" fill="#94a3b8" stroke="#334155" opacity="0.80"/><circle cx="597.8" cy="352.8" r="3.0" fill="#94a3b8" stroke="#334155" opacity="0.80"/><circle cx="625.0" cy="341.5" r="3.0" fill="#94a3b8" stroke="#334155" opacity="0.80"/><circle cx="652.2" cy="352.8" r="3.0" fill="#94a3b8" stroke="#334155" opacity="0.80"/><circle cx="690.4" cy="380.0" r="3.0" fill="#64748b" stroke="#334155" opacity="0.80"/><circle cx="625.0" cy="445.4" r="3.0" fill="#64748b" stroke="#334155" opacity="0.80"/><circle cx="559.6" cy="380.0" r="3.0" fill="#64748b" stroke="#334155" opacity="0.80"/><circle cx="625.0" cy="314.6" r="3.0" fill="#64748b" stroke="#334155" opacity="0.80"/>
  <text x="805" y="94" font-size="12" fill="#16a34a">PASS - slender body (4 &lt;= L/D &lt;= 19)</text><text x="805" y="116" font-size="12" fill="#16a34a">PASS - monotonic taper (widest toward base)</text><text x="805" y="138" font-size="12" fill="#16a34a">PASS - payload housed (fairing or capsule top)</text><text x="805" y="160" font-size="12" fill="#16a34a">PASS - payload fully enclosed (nothing protrudes the fairing)</text><text x="805" y="182" font-size="12" fill="#16a34a">PASS - engine at the base</text><text x="805" y="204" font-size="12" fill="#16a34a">PASS - upper-stage engine has interstage shroud</text><text x="805" y="226" font-size="12" fill="#16a34a">PASS - controlled ascent margin</text><text x="805" y="248" font-size="12" fill="#16a34a">PASS - radial protrusions within ascent envelope</text><text x="805" y="270" font-size="12" fill="#16a34a">PASS - landing gear tip-over stable</text>
  <text x="805" y="302" font-size="12" fill="#0f172a">L/D 8.8:1</text><text x="805" y="320" font-size="12" fill="#0f172a">length 33.09 m</text><text x="805" y="338" font-size="12" fill="#0f172a">body dia 3.75 m</text><text x="805" y="356" font-size="12" fill="#0f172a">core span 4.9 m</text><text x="805" y="374" font-size="12" fill="#0f172a">full span 8.08 m</text><text x="805" y="392" font-size="12" fill="#0f172a">static -0.07 cal</text><text x="805" y="410" font-size="12" fill="#0f172a">Cd 0.232</text><text x="805" y="428" font-size="12" fill="#0f172a">drag loss 153.0 m/s</text><text x="805" y="446" font-size="12" fill="#0f172a">max-Q 88.4 kPa</text>
</svg>