<svg xmlns="http://www.w3.org/2000/svg" width="1080" height="700" viewBox="0 0 1080 700" font-family="system-ui,Segoe UI,sans-serif">
  <rect width="1080" height="700" fill="#f8fafc"/>
  <text x="30" y="32" font-size="19" font-weight="700" fill="#0f172a">Three-view design chart - AI-Eve-Crew2</text>
  <text x="805" y="56" font-size="15" font-weight="700" fill="#16a34a">LOOKS LIKE A ROCKET</text>
  <text x="118" y="58" font-size="12" font-weight="700" fill="#334155">SIDE</text>
  <text x="355" y="58" font-size="12" font-weight="700" fill="#334155">FRONT</text>
  <text x="594" y="220" font-size="12" font-weight="700" fill="#334155">TOP</text>
  <line x1="150.0" y1="60" x2="150.0" y2="650" stroke="#e2e8f0" stroke-dasharray="4 4"/>
  <line x1="390.0" y1="60" x2="390.0" y2="650" stroke="#e2e8f0" stroke-dasharray="4 4"/>
  <circle cx="625.0" cy="380.0" r="22.3" fill="none" stroke="#94a3b8" stroke-dasharray="4 4"/>
  <polygon points="150.0,76.0 138.8,88.5 161.2,88.5" fill="#e2e8f0" stroke="#475569"/><rect x="138.8" y="88.5" width="22.3" height="18.8" rx="3" fill="#e2e8f0" stroke="#475569"/><rect x="138.8" y="107.2" width="22.3" height="3.6" rx="3" fill="#cbd5e1" stroke="#475569"/><rect x="138.8" y="110.8" width="22.3" height="1.8" rx="3" fill="#cbd5e1" stroke="#475569"/><rect x="138.8" y="112.6" width="22.3" height="6.7" rx="3" fill="#cbd5e1" stroke="#475569"/><rect x="138.8" y="119.3" width="22.3" height="33.5" rx="3" fill="#cbd5e1" stroke="#475569"/><rect x="138.8" y="152.8" width="22.3" height="10.7" rx="3" fill="#cbd5e1" stroke="#475569"/><rect x="138.8" y="163.5" width="22.3" height="10.7" rx="3" fill="#cbd5e1" stroke="#475569"/><rect x="138.8" y="174.2" width="22.3" height="5.4" rx="3" fill="#cbd5e1" stroke="#475569"/><rect x="138.8" y="179.6" width="22.3" height="5.4" rx="3" fill="#cbd5e1" stroke="#475569"/><rect x="138.8" y="184.9" width="22.3" height="5.4" rx="3" fill="#cbd5e1" stroke="#475569"/><rect x="138.8" y="190.3" width="22.3" height="1.8" rx="3" fill="#cbd5e1" stroke="#475569"/><rect x="127.7" y="192.1" width="44.6" height="66.4" rx="3" fill="#cbd5e1" stroke="#475569"/><polygon points="144.5,258.5 155.5,258.5 158.0,287.6 142.0,287.6" fill="#f87171" stroke="#991b1b"/><rect x="138.8" y="287.6" width="22.3" height="1.8" rx="3" fill="#cbd5e1" stroke="#475569"/><rect x="127.7" y="289.4" width="44.6" height="66.4" rx="3" fill="#cbd5e1" stroke="#475569"/><rect x="127.7" y="355.8" width="44.6" height="66.4" rx="3" fill="#cbd5e1" stroke="#475569"/><rect x="127.7" y="422.2" width="44.6" height="66.4" rx="3" fill="#cbd5e1" stroke="#475569"/><polygon points="139.1,488.7 160.9,488.7 166.1,541.7 133.9,541.7" fill="#f87171" stroke="#991b1b"/><rect x="151.8" y="94.8" width="22.3" height="6.2" rx="3" fill="#cbd5e1" stroke="#475569"/><rect x="125.8" y="94.8" width="22.3" height="6.2" rx="3" fill="#cbd5e1" stroke="#475569"/><rect x="154.6" y="93.4" width="22.3" height="10.7" rx="3" fill="#cbd5e1" stroke="#475569"/><rect x="123.1" y="95.2" width="22.3" height="7.1" rx="3" fill="#cbd5e1" stroke="#475569"/><rect x="138.8" y="96.1" width="22.3" height="5.4" rx="3" fill="#cbd5e1" stroke="#475569"/><rect x="138.8" y="96.1" width="22.3" height="5.4" rx="3" fill="#cbd5e1" stroke="#475569"/><rect x="149.8" y="97.5" width="22.3" height="8.9" rx="3" fill="#cbd5e1" stroke="#475569"/><line x1="213.9" y1="286.7" x2="213.9" y2="309.6" stroke="#64748b" stroke-width="3" stroke-linecap="round"/><line x1="182.0" y1="286.7" x2="182.0" y2="309.6" stroke="#64748b" stroke-width="3" stroke-linecap="round"/><line x1="118.0" y1="286.7" x2="118.0" y2="309.6" stroke="#64748b" stroke-width="3" stroke-linecap="round"/><line x1="86.1" y1="286.7" x2="86.1" y2="309.6" stroke="#64748b" stroke-width="3" stroke-linecap="round"/><line x1="118.0" y1="286.7" x2="118.0" y2="309.6" stroke="#64748b" stroke-width="3" stroke-linecap="round"/><line x1="182.0" y1="286.7" x2="182.0" y2="309.6" stroke="#64748b" stroke-width="3" stroke-linecap="round"/><rect x="180.4" y="361.1" width="44.6" height="66.4" rx="3" fill="#cbd5e1" stroke="#475569"/><rect x="127.7" y="361.1" width="44.6" height="66.4" rx="3" fill="#cbd5e1" stroke="#475569"/><rect x="75.0" y="361.1" width="44.6" height="66.4" rx="3" fill="#cbd5e1" stroke="#475569"/><rect x="127.7" y="361.1" width="44.6" height="66.4" rx="3" fill="#cbd5e1" stroke="#475569"/><rect x="172.3" y="432.8" width="10.7" height="10.7" rx="3" fill="#cbd5e1" stroke="#475569"/><rect x="144.6" y="432.8" width="10.7" height="10.7" rx="3" fill="#cbd5e1" stroke="#475569"/><rect x="117.0" y="432.8" width="10.7" height="10.7" rx="3" fill="#cbd5e1" stroke="#475569"/><rect x="144.6" y="432.8" width="10.7" height="10.7" rx="3" fill="#cbd5e1" stroke="#475569"/><rect x="180.4" y="427.5" width="44.6" height="66.4" rx="3" fill="#cbd5e1" stroke="#475569"/><rect x="127.7" y="427.5" width="44.6" height="66.4" rx="3" fill="#cbd5e1" stroke="#475569"/><rect x="75.0" y="427.5" width="44.6" height="66.4" rx="3" fill="#cbd5e1" stroke="#475569"/><rect x="127.7" y="427.5" width="44.6" height="66.4" rx="3" fill="#cbd5e1" stroke="#475569"/><polygon points="179.5,467.6 171.5,494.5 187.5,494.5" fill="#94a3b8" stroke="#475569" opacity="0.88"/><polygon points="170.8,467.6 162.8,494.5 178.8,494.5" fill="#94a3b8" stroke="#475569" opacity="0.88"/><polygon points="150.0,467.6 142.0,494.5 158.0,494.5" fill="#94a3b8" stroke="#475569" opacity="0.88"/><polygon points="129.2,467.6 121.2,494.5 137.2,494.5" fill="#94a3b8" stroke="#475569" opacity="0.88"/><polygon points="120.5,467.6 112.5,494.5 128.5,494.5" fill="#94a3b8" stroke="#475569" opacity="0.88"/><polygon points="129.2,467.6 121.2,494.5 137.2,494.5" fill="#94a3b8" stroke="#475569" opacity="0.88"/><polygon points="150.0,467.6 142.0,494.5 158.0,494.5" fill="#94a3b8" stroke="#475569" opacity="0.88"/><polygon points="170.8,467.6 162.8,494.5 178.8,494.5" fill="#94a3b8" stroke="#475569" opacity="0.88"/><polygon points="191.8,494.0 213.6,494.0 218.8,536.4 186.6,536.4" fill="#f87171" stroke="#991b1b"/><polygon points="139.1,494.0 160.9,494.0 166.1,536.4 133.9,536.4" fill="#f87171" stroke="#991b1b"/><polygon points="86.4,494.0 108.3,494.0 113.4,536.4 81.3,536.4" fill="#f87171" stroke="#991b1b"/><polygon points="139.1,494.0 160.9,494.0 166.1,536.4 133.9,536.4" fill="#f87171" stroke="#991b1b"/>
  <polygon points="390.0,76.0 378.8,88.5 401.2,88.5" fill="#e2e8f0" stroke="#475569"/><rect x="378.8" y="88.5" width="22.3" height="18.8" rx="3" fill="#e2e8f0" stroke="#475569"/><rect x="378.8" y="107.2" width="22.3" height="3.6" rx="3" fill="#cbd5e1" stroke="#475569"/><rect x="378.8" y="110.8" width="22.3" height="1.8" rx="3" fill="#cbd5e1" stroke="#475569"/><rect x="378.8" y="112.6" width="22.3" height="6.7" rx="3" fill="#cbd5e1" stroke="#475569"/><rect x="378.8" y="119.3" width="22.3" height="33.5" rx="3" fill="#cbd5e1" stroke="#475569"/><rect x="378.8" y="152.8" width="22.3" height="10.7" rx="3" fill="#cbd5e1" stroke="#475569"/><rect x="378.8" y="163.5" width="22.3" height="10.7" rx="3" fill="#cbd5e1" stroke="#475569"/><rect x="378.8" y="174.2" width="22.3" height="5.4" rx="3" fill="#cbd5e1" stroke="#475569"/><rect x="378.8" y="179.6" width="22.3" height="5.4" rx="3" fill="#cbd5e1" stroke="#475569"/><rect x="378.8" y="184.9" width="22.3" height="5.4" rx="3" fill="#cbd5e1" stroke="#475569"/><rect x="378.8" y="190.3" width="22.3" height="1.8" rx="3" fill="#cbd5e1" stroke="#475569"/><rect x="367.7" y="192.1" width="44.6" height="66.4" rx="3" fill="#cbd5e1" stroke="#475569"/><polygon points="384.5,258.5 395.5,258.5 398.0,287.6 382.0,287.6" fill="#f87171" stroke="#991b1b"/><rect x="378.8" y="287.6" width="22.3" height="1.8" rx="3" fill="#cbd5e1" stroke="#475569"/><rect x="367.7" y="289.4" width="44.6" height="66.4" rx="3" fill="#cbd5e1" stroke="#475569"/><rect x="367.7" y="355.8" width="44.6" height="66.4" rx="3" fill="#cbd5e1" stroke="#475569"/><rect x="367.7" y="422.2" width="44.6" height="66.4" rx="3" fill="#cbd5e1" stroke="#475569"/><polygon points="379.1,488.7 400.9,488.7 406.1,541.7 373.9,541.7" fill="#f87171" stroke="#991b1b"/><rect x="378.8" y="94.8" width="22.3" height="6.2" rx="3" fill="#cbd5e1" stroke="#475569"/><rect x="378.8" y="94.8" width="22.3" height="6.2" rx="3" fill="#cbd5e1" stroke="#475569"/><rect x="378.8" y="93.4" width="22.3" height="10.7" rx="3" fill="#cbd5e1" stroke="#475569"/><rect x="378.8" y="95.2" width="22.3" height="7.1" rx="3" fill="#cbd5e1" stroke="#475569"/><rect x="394.6" y="96.1" width="22.3" height="5.4" rx="3" fill="#cbd5e1" stroke="#475569"/><rect x="363.1" y="96.1" width="22.3" height="5.4" rx="3" fill="#cbd5e1" stroke="#475569"/><rect x="389.8" y="97.5" width="22.3" height="8.9" rx="3" fill="#cbd5e1" stroke="#475569"/><line x1="390.0" y1="286.7" x2="390.0" y2="309.6" stroke="#64748b" stroke-width="3" stroke-linecap="round"/><line x1="445.4" y1="286.7" x2="445.4" y2="309.6" stroke="#64748b" stroke-width="3" stroke-linecap="round"/><line x1="445.4" y1="286.7" x2="445.4" y2="309.6" stroke="#64748b" stroke-width="3" stroke-linecap="round"/><line x1="390.0" y1="286.7" x2="390.0" y2="309.6" stroke="#64748b" stroke-width="3" stroke-linecap="round"/><line x1="334.6" y1="286.7" x2="334.6" y2="309.6" stroke="#64748b" stroke-width="3" stroke-linecap="round"/><line x1="334.6" y1="286.7" x2="334.6" y2="309.6" stroke="#64748b" stroke-width="3" stroke-linecap="round"/><rect x="367.7" y="361.1" width="44.6" height="66.4" rx="3" fill="#cbd5e1" stroke="#475569"/><rect x="420.4" y="361.1" width="44.6" height="66.4" rx="3" fill="#cbd5e1" stroke="#475569"/><rect x="367.7" y="361.1" width="44.6" height="66.4" rx="3" fill="#cbd5e1" stroke="#475569"/><rect x="315.0" y="361.1" width="44.6" height="66.4" rx="3" fill="#cbd5e1" stroke="#475569"/><rect x="384.6" y="432.8" width="10.7" height="10.7" rx="3" fill="#cbd5e1" stroke="#475569"/><rect x="412.3" y="432.8" width="10.7" height="10.7" rx="3" fill="#cbd5e1" stroke="#475569"/><rect x="384.6" y="432.8" width="10.7" height="10.7" rx="3" fill="#cbd5e1" stroke="#475569"/><rect x="357.0" y="432.8" width="10.7" height="10.7" rx="3" fill="#cbd5e1" stroke="#475569"/><rect x="367.7" y="427.5" width="44.6" height="66.4" rx="3" fill="#cbd5e1" stroke="#475569"/><rect x="420.4" y="427.5" width="44.6" height="66.4" rx="3" fill="#cbd5e1" stroke="#475569"/><rect x="367.7" y="427.5" width="44.6" height="66.4" rx="3" fill="#cbd5e1" stroke="#475569"/><rect x="315.0" y="427.5" width="44.6" height="66.4" rx="3" fill="#cbd5e1" stroke="#475569"/><polygon points="390.0,467.6 382.0,494.5 398.0,494.5" fill="#94a3b8" stroke="#475569" opacity="0.88"/><polygon points="410.8,467.6 402.8,494.5 418.8,494.5" fill="#94a3b8" stroke="#475569" opacity="0.88"/><polygon points="419.5,467.6 411.5,494.5 427.5,494.5" fill="#94a3b8" stroke="#475569" opacity="0.88"/><polygon points="410.8,467.6 402.8,494.5 418.8,494.5" fill="#94a3b8" stroke="#475569" opacity="0.88"/><polygon points="390.0,467.6 382.0,494.5 398.0,494.5" fill="#94a3b8" stroke="#475569" opacity="0.88"/><polygon points="369.2,467.6 361.2,494.5 377.2,494.5" fill="#94a3b8" stroke="#475569" opacity="0.88"/><polygon points="360.5,467.6 352.5,494.5 368.5,494.5" fill="#94a3b8" stroke="#475569" opacity="0.88"/><polygon points="369.2,467.6 361.2,494.5 377.2,494.5" fill="#94a3b8" stroke="#475569" opacity="0.88"/><polygon points="379.1,494.0 400.9,494.0 406.1,536.4 373.9,536.4" fill="#f87171" stroke="#991b1b"/><polygon points="431.8,494.0 453.6,494.0 458.8,536.4 426.6,536.4" fill="#f87171" stroke="#991b1b"/><polygon points="379.1,494.0 400.9,494.0 406.1,536.4 373.9,536.4" fill="#f87171" stroke="#991b1b"/><polygon points="326.4,494.0 348.2,494.0 353.4,536.4 321.2,536.4" fill="#f87171" stroke="#991b1b"/>
  <circle cx="625.0" cy="380.0" r="22.3" fill="#cbd5e1" stroke="#475569" opacity="0.30"/><circle cx="625.0" cy="380.0" r="22.3" fill="#cbd5e1" stroke="#475569" opacity="0.30"/><circle cx="625.0" cy="380.0" r="22.3" fill="#cbd5e1" stroke="#475569" opacity="0.30"/><circle cx="625.0" cy="380.0" r="22.3" fill="#cbd5e1" stroke="#475569" opacity="0.30"/><circle cx="625.0" cy="380.0" r="22.3" fill="#f87171" stroke="#475569" opacity="0.30"/><circle cx="625.0" cy="380.0" r="11.2" fill="#e2e8f0" stroke="#475569" opacity="0.30"/><circle cx="625.0" cy="380.0" r="11.2" fill="#cbd5e1" stroke="#475569" opacity="0.30"/><circle cx="625.0" cy="380.0" r="11.2" fill="#cbd5e1" stroke="#475569" opacity="0.30"/><circle cx="638.0" cy="380.0" r="11.2" fill="#cbd5e1" stroke="#334155" opacity="0.80"/><circle cx="612.0" cy="380.0" r="11.2" fill="#cbd5e1" stroke="#334155" opacity="0.80"/><circle cx="677.7" cy="380.0" r="16.1" fill="#f87171" stroke="#334155" opacity="0.80"/><circle cx="677.7" cy="380.0" r="22.3" fill="#cbd5e1" stroke="#334155" opacity="0.80"/><circle cx="677.7" cy="380.0" r="22.3" fill="#cbd5e1" stroke="#334155" opacity="0.80"/><circle cx="652.7" cy="380.0" r="5.4" fill="#cbd5e1" stroke="#334155" opacity="0.80"/><circle cx="625.0" cy="432.7" r="16.1" fill="#f87171" stroke="#334155" opacity="0.80"/><circle cx="625.0" cy="432.7" r="22.3" fill="#cbd5e1" stroke="#334155" opacity="0.80"/><circle cx="625.0" cy="432.7" r="22.3" fill="#cbd5e1" stroke="#334155" opacity="0.80"/><circle cx="625.0" cy="407.7" r="5.4" fill="#cbd5e1" stroke="#334155" opacity="0.80"/><circle cx="572.3" cy="380.0" r="16.1" fill="#f87171" stroke="#334155" opacity="0.80"/><circle cx="572.3" cy="380.0" r="22.3" fill="#cbd5e1" stroke="#334155" opacity="0.80"/><circle cx="572.3" cy="380.0" r="22.3" fill="#cbd5e1" stroke="#334155" opacity="0.80"/><circle cx="597.3" cy="380.0" r="5.4" fill="#cbd5e1" stroke="#334155" opacity="0.80"/><circle cx="625.0" cy="327.3" r="16.1" fill="#f87171" stroke="#334155" opacity="0.80"/><circle cx="625.0" cy="327.3" r="22.3" fill="#cbd5e1" stroke="#334155" opacity="0.80"/><circle cx="625.0" cy="327.3" r="22.3" fill="#cbd5e1" stroke="#334155" opacity="0.80"/><circle cx="625.0" cy="352.3" r="5.4" fill="#cbd5e1" stroke="#334155" opacity="0.80"/><circle cx="640.7" cy="380.0" r="11.2" fill="#cbd5e1" stroke="#334155" opacity="0.80"/><circle cx="609.3" cy="380.0" r="11.2" fill="#cbd5e1" stroke="#334155" opacity="0.80"/><circle cx="625.0" cy="395.7" r="11.2" fill="#cbd5e1" stroke="#334155" opacity="0.80"/><circle cx="625.0" cy="364.3" r="11.2" fill="#cbd5e1" stroke="#334155" opacity="0.80"/><circle cx="636.0" cy="391.0" r="11.2" fill="#cbd5e1" stroke="#334155" opacity="0.80"/><circle cx="654.5" cy="380.0" r="3.1" fill="#94a3b8" stroke="#334155" opacity="0.80"/><circle cx="645.8" cy="400.8" r="3.1" fill="#94a3b8" stroke="#334155" opacity="0.80"/><circle cx="625.0" cy="409.5" r="3.1" fill="#94a3b8" stroke="#334155" opacity="0.80"/><circle cx="604.2" cy="400.8" r="3.1" fill="#94a3b8" stroke="#334155" opacity="0.80"/><circle cx="595.5" cy="380.0" r="3.1" fill="#94a3b8" stroke="#334155" opacity="0.80"/><circle cx="604.2" cy="359.2" r="3.1" fill="#94a3b8" stroke="#334155" opacity="0.80"/><circle cx="625.0" cy="350.5" r="3.1" fill="#94a3b8" stroke="#334155" opacity="0.80"/><circle cx="645.8" cy="359.2" r="3.1" fill="#94a3b8" stroke="#334155" opacity="0.80"/><circle cx="688.9" cy="380.0" r="3.1" fill="#64748b" stroke="#334155" opacity="0.80"/><circle cx="657.0" cy="435.4" r="3.1" fill="#64748b" stroke="#334155" opacity="0.80"/><circle cx="593.0" cy="435.4" r="3.1" fill="#64748b" stroke="#334155" opacity="0.80"/><circle cx="561.1" cy="380.0" r="3.1" fill="#64748b" stroke="#334155" opacity="0.80"/><circle cx="593.0" cy="324.6" r="3.1" fill="#64748b" stroke="#334155" opacity="0.80"/><circle cx="657.0" cy="324.6" r="3.1" fill="#64748b" stroke="#334155" opacity="0.80"/>
  <text x="805" y="94" font-size="12" fill="#16a34a">PASS - slender body (4 &lt;= L/D &lt;= 19)</text><text x="805" y="116" font-size="12" fill="#16a34a">PASS - monotonic taper (widest toward base)</text><text x="805" y="138" font-size="12" fill="#16a34a">PASS - payload housed (fairing or capsule top)</text><text x="805" y="160" font-size="12" fill="#16a34a">PASS - engine at the base</text><text x="805" y="182" font-size="12" fill="#16a34a">PASS - controlled ascent margin</text><text x="805" y="204" font-size="12" fill="#16a34a">PASS - radial protrusions within ascent envelope</text><text x="805" y="226" font-size="12" fill="#16a34a">PASS - landing gear tip-over stable</text><text x="805" y="248" font-size="12" fill="#16a34a">PASS - symmetric strap-on boosters</text>
  <text x="805" y="280" font-size="12" fill="#0f172a">L/D 10.4:1</text><text x="805" y="298" font-size="12" fill="#0f172a">length 26.08 m</text><text x="805" y="316" font-size="12" fill="#0f172a">body dia 2.5 m</text><text x="805" y="334" font-size="12" fill="#0f172a">core span 3.65 m</text><text x="805" y="352" font-size="12" fill="#0f172a">4x radial boosters (span 8.4 m)</text><text x="805" y="370" font-size="12" fill="#0f172a">full span 8.4 m</text><text x="805" y="388" font-size="12" fill="#0f172a">static 0.42 cal</text><text x="805" y="406" font-size="12" fill="#0f172a">Cd 0.232</text><text x="805" y="424" font-size="12" fill="#0f172a">drag loss 66.0 m/s</text><text x="805" y="442" font-size="12" fill="#0f172a">max-Q 88.4 kPa</text>
</svg>