<svg xmlns="http://www.w3.org/2000/svg" width="900" height="600" viewBox="0 0 900 600" font-family="system-ui,Segoe UI,sans-serif">
  <rect width="900" height="600" fill="#f8fafc"/>
  <text x="30" y="28" font-size="18" font-weight="700" fill="#0f172a">Design chart — AI-Keo-4</text>
  <line x1="230.0" y1="36" x2="230.0" y2="572" stroke="#e2e8f0" stroke-dasharray="4 4"/>
  <rect x="223.5" y="40.0" width="13.0" height="2.6" rx="3" fill="#cbd5e1" stroke="#64748b"/><rect x="223.5" y="42.6" width="13.0" height="5.2" rx="3" fill="#cbd5e1" stroke="#64748b"/><rect x="223.5" y="47.8" width="13.0" height="5.2" rx="3" fill="#cbd5e1" stroke="#64748b"/><rect x="223.5" y="53.0" width="13.0" height="5.2" rx="3" fill="#cbd5e1" stroke="#64748b"/><rect x="223.5" y="58.2" width="13.0" height="3.1" rx="3" fill="#cbd5e1" stroke="#64748b"/><rect x="223.5" y="61.3" width="13.0" height="3.1" rx="3" fill="#cbd5e1" stroke="#64748b"/><rect x="223.5" y="64.4" width="13.0" height="3.1" rx="3" fill="#cbd5e1" stroke="#64748b"/><path d="M 223.5129740518962 72.69461077844312 L 223.5129740518962 54.712574850299404 Q 223.5129740518962 40.0 230.0 26.0 Q 236.4870259481038 40.0 236.4870259481038 54.712574850299404 L 236.4870259481038 72.69461077844312 Z" fill="#fde68a" stroke="#d97706" stroke-width="1.5" opacity="0.92"/><rect x="223.5" y="72.7" width="13.0" height="2.6" rx="3" fill="#cbd5e1" stroke="#64748b"/><rect x="223.5" y="75.3" width="13.0" height="38.4" rx="3" fill="#cbd5e1" stroke="#64748b"/><polygon points="225.45908183632736,113.69261477045909 234.54091816367264,113.69261477045909 236.4870259481038,122.51497005988024 223.5129740518962,122.51497005988024" fill="#f87171" stroke="#991b1b"/><rect x="223.5" y="122.5" width="13.0" height="2.6" rx="3" fill="#cbd5e1" stroke="#64748b"/><rect x="217.0" y="125.1" width="25.9" height="16.6" rx="3" fill="#cbd5e1" stroke="#64748b"/><rect x="217.0" y="141.7" width="25.9" height="77.8" rx="3" fill="#cbd5e1" stroke="#64748b"/><rect x="217.0" y="219.6" width="25.9" height="77.8" rx="3" fill="#cbd5e1" stroke="#64748b"/><rect x="217.0" y="297.4" width="25.9" height="77.8" rx="3" fill="#cbd5e1" stroke="#64748b"/><rect x="217.0" y="375.2" width="25.9" height="77.8" rx="3" fill="#cbd5e1" stroke="#64748b"/><rect x="217.0" y="453.1" width="25.9" height="77.8" rx="3" fill="#cbd5e1" stroke="#64748b"/><polygon points="220.91816367265469,530.938123752495 239.08183632734531,530.938123752495 242.97405189620758,560.0 217.02594810379242,560.0" fill="#f87171" stroke="#991b1b"/>
  <text x="470" y="44" font-size="15" font-weight="700" fill="#16a34a">LOOKS LIKE A ROCKET</text>
  <text x="470" y="196" font-size="13" fill="#0f172a">fineness 20.0:1  •  length 50.1 m  •  max Ø 2.5 m</text>
  <text x="470" y="220" font-size="13" fill="#0f172a">Cd 0.232  •  ascent drag loss 154.0 m/s  •  max-Q 88.4 kPa</text>
</svg>