<svg xmlns="http://www.w3.org/2000/svg" width="1080" height="700" viewBox="0 0 1080 700" font-family="system-ui,Segoe UI,sans-serif">
  <rect width="1080" height="700" fill="#f8fafc"/>
  <text x="30" y="32" font-size="19" font-weight="700" fill="#0f172a">Three-view design chart - AI-Eve-Relay-1b</text>
  <text x="805" y="56" font-size="15" font-weight="700" fill="#16a34a">LOOKS LIKE A ROCKET</text>
  <text x="118" y="58" font-size="12" font-weight="700" fill="#334155">SIDE</text>
  <text x="355" y="58" font-size="12" font-weight="700" fill="#334155">FRONT</text>
  <text x="594" y="220" font-size="12" font-weight="700" fill="#334155">TOP</text>
  <line x1="150.0" y1="60" x2="150.0" y2="650" stroke="#e2e8f0" stroke-dasharray="4 4"/>
  <line x1="390.0" y1="60" x2="390.0" y2="650" stroke="#e2e8f0" stroke-dasharray="4 4"/>
  <circle cx="625.0" cy="380.0" r="48.6" fill="none" stroke="#94a3b8" stroke-dasharray="4 4"/>
  <rect x="133.8" y="76.0" width="32.4" height="9.7" rx="3" fill="#cbd5e1" stroke="#475569"/><rect x="133.8" y="85.7" width="32.4" height="15.5" rx="3" fill="#cbd5e1" stroke="#475569"/><rect x="133.8" y="101.2" width="32.4" height="15.5" rx="3" fill="#cbd5e1" stroke="#475569"/><rect x="133.8" y="116.8" width="32.4" height="15.5" rx="3" fill="#cbd5e1" stroke="#475569"/><rect x="133.8" y="132.3" width="32.4" height="7.8" rx="3" fill="#cbd5e1" stroke="#475569"/><rect x="133.8" y="140.1" width="32.4" height="7.8" rx="3" fill="#cbd5e1" stroke="#475569"/><rect x="133.8" y="147.9" width="32.4" height="7.8" rx="3" fill="#cbd5e1" stroke="#475569"/><path d="M 133.8 166.5 L 133.8 76.0 Q 133.8 69.0 150.0 55.0 Q 166.2 69.0 166.2 76.0 L 166.2 166.5 Z" fill="#fde68a" stroke="#d97706" stroke-width="1.4" opacity="0.55"/><rect x="133.8" y="166.5" width="32.4" height="2.6" rx="3" fill="#cbd5e1" stroke="#475569"/><rect x="133.8" y="169.1" width="32.4" height="49.1" rx="3" fill="#cbd5e1" stroke="#475569"/><polygon points="142.1,218.2 157.9,218.2 161.7,239.7 138.3,239.7" fill="#f87171" stroke="#991b1b"/><rect x="133.8" y="239.7" width="32.4" height="2.6" rx="3" fill="#cbd5e1" stroke="#475569"/><polygon points="133.8,242.3 166.2,242.3 182.4,307.0 117.6,307.0" fill="#dbeafe" stroke="#2563eb"/><polygon points="117.6,307.0 182.4,307.0 198.6,365.3 101.4,365.3" fill="#dbeafe" stroke="#2563eb"/><rect x="101.4" y="365.3" width="97.1" height="193.8" rx="3" fill="#cbd5e1" stroke="#475569"/><polygon points="134.1,559.1 165.9,559.1 173.3,636.0 126.7,636.0" fill="#f87171" stroke="#991b1b"/><rect x="146.1" y="74.4" width="32.4" height="15.5" rx="3" fill="#cbd5e1" stroke="#475569"/><rect x="121.5" y="77.0" width="32.4" height="10.4" rx="3" fill="#cbd5e1" stroke="#475569"/><rect x="133.8" y="78.3" width="32.4" height="7.8" rx="3" fill="#cbd5e1" stroke="#475569"/><rect x="133.8" y="78.3" width="32.4" height="7.8" rx="3" fill="#cbd5e1" stroke="#475569"/><rect x="142.4" y="80.3" width="32.4" height="13.0" rx="3" fill="#cbd5e1" stroke="#475569"/><polygon points="208.9,504.1 200.9,535.1 216.9,535.1" fill="#94a3b8" stroke="#475569" opacity="0.88"/><polygon points="191.7,504.1 183.7,535.1 199.7,535.1" fill="#94a3b8" stroke="#475569" opacity="0.88"/><polygon points="150.0,504.1 142.0,535.1 158.0,535.1" fill="#94a3b8" stroke="#475569" opacity="0.88"/><polygon points="108.3,504.1 100.3,535.1 116.3,535.1" fill="#94a3b8" stroke="#475569" opacity="0.88"/><polygon points="91.1,504.1 83.1,535.1 99.1,535.1" fill="#94a3b8" stroke="#475569" opacity="0.88"/><polygon points="108.3,504.1 100.3,535.1 116.3,535.1" fill="#94a3b8" stroke="#475569" opacity="0.88"/><polygon points="150.0,504.1 142.0,535.1 158.0,535.1" fill="#94a3b8" stroke="#475569" opacity="0.88"/><polygon points="191.7,504.1 183.7,535.1 199.7,535.1" fill="#94a3b8" stroke="#475569" opacity="0.88"/>
  <rect x="373.8" y="76.0" width="32.4" height="9.7" rx="3" fill="#cbd5e1" stroke="#475569"/><rect x="373.8" y="85.7" width="32.4" height="15.5" rx="3" fill="#cbd5e1" stroke="#475569"/><rect x="373.8" y="101.2" width="32.4" height="15.5" rx="3" fill="#cbd5e1" stroke="#475569"/><rect x="373.8" y="116.8" width="32.4" height="15.5" rx="3" fill="#cbd5e1" stroke="#475569"/><rect x="373.8" y="132.3" width="32.4" height="7.8" rx="3" fill="#cbd5e1" stroke="#475569"/><rect x="373.8" y="140.1" width="32.4" height="7.8" rx="3" fill="#cbd5e1" stroke="#475569"/><rect x="373.8" y="147.9" width="32.4" height="7.8" rx="3" fill="#cbd5e1" stroke="#475569"/><path d="M 373.8 166.5 L 373.8 76.0 Q 373.8 69.0 390.0 55.0 Q 406.2 69.0 406.2 76.0 L 406.2 166.5 Z" fill="#fde68a" stroke="#d97706" stroke-width="1.4" opacity="0.55"/><rect x="373.8" y="166.5" width="32.4" height="2.6" rx="3" fill="#cbd5e1" stroke="#475569"/><rect x="373.8" y="169.1" width="32.4" height="49.1" rx="3" fill="#cbd5e1" stroke="#475569"/><polygon points="382.1,218.2 397.9,218.2 401.7,239.7 378.3,239.7" fill="#f87171" stroke="#991b1b"/><rect x="373.8" y="239.7" width="32.4" height="2.6" rx="3" fill="#cbd5e1" stroke="#475569"/><polygon points="373.8,242.3 406.2,242.3 422.4,307.0 357.6,307.0" fill="#dbeafe" stroke="#2563eb"/><polygon points="357.6,307.0 422.4,307.0 438.6,365.3 341.4,365.3" fill="#dbeafe" stroke="#2563eb"/><rect x="341.4" y="365.3" width="97.1" height="193.8" rx="3" fill="#cbd5e1" stroke="#475569"/><polygon points="374.1,559.1 405.9,559.1 413.3,636.0 366.7,636.0" fill="#f87171" stroke="#991b1b"/><rect x="373.8" y="74.4" width="32.4" height="15.5" rx="3" fill="#cbd5e1" stroke="#475569"/><rect x="373.8" y="77.0" width="32.4" height="10.4" rx="3" fill="#cbd5e1" stroke="#475569"/><rect x="386.1" y="78.3" width="32.4" height="7.8" rx="3" fill="#cbd5e1" stroke="#475569"/><rect x="361.5" y="78.3" width="32.4" height="7.8" rx="3" fill="#cbd5e1" stroke="#475569"/><rect x="382.4" y="80.3" width="32.4" height="13.0" rx="3" fill="#cbd5e1" stroke="#475569"/><polygon points="390.0,504.1 382.0,535.1 398.0,535.1" fill="#94a3b8" stroke="#475569" opacity="0.88"/><polygon points="431.7,504.1 423.7,535.1 439.7,535.1" fill="#94a3b8" stroke="#475569" opacity="0.88"/><polygon points="448.9,504.1 440.9,535.1 456.9,535.1" fill="#94a3b8" stroke="#475569" opacity="0.88"/><polygon points="431.7,504.1 423.7,535.1 439.7,535.1" fill="#94a3b8" stroke="#475569" opacity="0.88"/><polygon points="390.0,504.1 382.0,535.1 398.0,535.1" fill="#94a3b8" stroke="#475569" opacity="0.88"/><polygon points="348.3,504.1 340.3,535.1 356.3,535.1" fill="#94a3b8" stroke="#475569" opacity="0.88"/><polygon points="331.1,504.1 323.1,535.1 339.1,535.1" fill="#94a3b8" stroke="#475569" opacity="0.88"/><polygon points="348.3,504.1 340.3,535.1 356.3,535.1" fill="#94a3b8" stroke="#475569" opacity="0.88"/>
  <circle cx="625.0" cy="380.0" r="48.6" fill="#dbeafe" stroke="#475569" opacity="0.30"/><circle cx="625.0" cy="380.0" r="48.6" fill="#cbd5e1" stroke="#475569" opacity="0.30"/><circle cx="625.0" cy="380.0" r="32.4" fill="#dbeafe" stroke="#475569" opacity="0.30"/><circle cx="625.0" cy="380.0" r="32.4" fill="#f87171" stroke="#475569" opacity="0.30"/><circle cx="625.0" cy="380.0" r="16.2" fill="#cbd5e1" stroke="#475569" opacity="0.30"/><circle cx="625.0" cy="380.0" r="16.2" fill="#cbd5e1" stroke="#475569" opacity="0.30"/><circle cx="625.0" cy="380.0" r="16.2" fill="#cbd5e1" stroke="#475569" opacity="0.30"/><circle cx="625.0" cy="380.0" r="16.2" fill="#cbd5e1" stroke="#475569" opacity="0.30"/><circle cx="637.3" cy="380.0" r="16.2" fill="#cbd5e1" stroke="#334155" opacity="0.80"/><circle cx="612.7" cy="380.0" r="16.2" fill="#cbd5e1" stroke="#334155" opacity="0.80"/><circle cx="625.0" cy="392.3" r="16.2" fill="#cbd5e1" stroke="#334155" opacity="0.80"/><circle cx="625.0" cy="367.7" r="16.2" fill="#cbd5e1" stroke="#334155" opacity="0.80"/><circle cx="633.6" cy="388.6" r="16.2" fill="#cbd5e1" stroke="#334155" opacity="0.80"/><circle cx="683.9" cy="380.0" r="4.5" fill="#94a3b8" stroke="#334155" opacity="0.80"/><circle cx="666.7" cy="421.7" r="4.5" fill="#94a3b8" stroke="#334155" opacity="0.80"/><circle cx="625.0" cy="438.9" r="4.5" fill="#94a3b8" stroke="#334155" opacity="0.80"/><circle cx="583.3" cy="421.7" r="4.5" fill="#94a3b8" stroke="#334155" opacity="0.80"/><circle cx="566.1" cy="380.0" r="4.5" fill="#94a3b8" stroke="#334155" opacity="0.80"/><circle cx="583.3" cy="338.3" r="4.5" fill="#94a3b8" stroke="#334155" opacity="0.80"/><circle cx="625.0" cy="321.1" r="4.5" fill="#94a3b8" stroke="#334155" opacity="0.80"/><circle cx="666.7" cy="338.3" r="4.5" fill="#94a3b8" stroke="#334155" opacity="0.80"/>
  <text x="805" y="94" font-size="12" fill="#16a34a">PASS - slender body (4 &lt;= L/D &lt;= 19)</text><text x="805" y="116" font-size="12" fill="#16a34a">PASS - monotonic taper (widest toward base)</text><text x="805" y="138" font-size="12" fill="#16a34a">PASS - payload housed (fairing or capsule top)</text><text x="805" y="160" font-size="12" fill="#16a34a">PASS - engine at the base</text><text x="805" y="182" font-size="12" fill="#16a34a">PASS - controlled ascent margin</text><text x="805" y="204" font-size="12" fill="#16a34a">PASS - radial protrusions within ascent envelope</text><text x="805" y="226" font-size="12" fill="#16a34a">PASS - landing gear tip-over stable</text>
  <text x="805" y="258" font-size="12" fill="#0f172a">L/D 5.8:1</text><text x="805" y="276" font-size="12" fill="#0f172a">length 21.62 m</text><text x="805" y="294" font-size="12" fill="#0f172a">body dia 3.75 m</text><text x="805" y="312" font-size="12" fill="#0f172a">ascent span 4.9 m</text><text x="805" y="330" font-size="12" fill="#0f172a">full span 4.9 m</text><text x="805" y="348" font-size="12" fill="#0f172a">static -0.34 cal</text><text x="805" y="366" font-size="12" fill="#0f172a">Cd 0.232</text><text x="805" y="384" font-size="12" fill="#0f172a">drag loss 389.0 m/s</text><text x="805" y="402" font-size="12" fill="#0f172a">max-Q 88.4 kPa</text>
</svg>