<svg xmlns="http://www.w3.org/2000/svg" width="1080" height="700" viewBox="0 0 1080 700" font-family="system-ui,Segoe UI,sans-serif">
  <rect width="1080" height="700" fill="#f8fafc"/>
  <text x="30" y="32" font-size="19" font-weight="700" fill="#0f172a">Three-view design chart - AI-Eve-Relay-4</text>
  <text x="805" y="56" font-size="15" font-weight="700" fill="#16a34a">LOOKS LIKE A ROCKET</text>
  <text x="118" y="58" font-size="12" font-weight="700" fill="#334155">SIDE</text>
  <text x="355" y="58" font-size="12" font-weight="700" fill="#334155">FRONT</text>
  <text x="594" y="220" font-size="12" font-weight="700" fill="#334155">TOP</text>
  <line x1="150.0" y1="60" x2="150.0" y2="650" stroke="#e2e8f0" stroke-dasharray="4 4"/>
  <line x1="390.0" y1="60" x2="390.0" y2="650" stroke="#e2e8f0" stroke-dasharray="4 4"/>
  <circle cx="625.0" cy="380.0" r="22.3" fill="none" stroke="#94a3b8" stroke-dasharray="4 4"/>
  <rect x="138.8" y="76.0" width="22.3" height="6.7" rx="3" fill="#cbd5e1" stroke="#475569"/><rect x="138.8" y="82.7" width="22.3" height="5.4" rx="3" fill="#cbd5e1" stroke="#475569"/><rect x="138.8" y="88.0" width="22.3" height="5.4" rx="3" fill="#cbd5e1" stroke="#475569"/><rect x="138.8" y="93.4" width="22.3" height="5.4" rx="3" fill="#cbd5e1" stroke="#475569"/><path d="M 138.8 106.2 L 138.8 76.0 Q 138.8 72.0 150.0 58.0 Q 161.2 72.0 161.2 76.0 L 161.2 106.2 Z" fill="#fde68a" stroke="#d97706" stroke-width="1.4" opacity="0.55"/><rect x="138.8" y="106.2" width="22.3" height="1.8" rx="3" fill="#cbd5e1" stroke="#475569"/><rect x="127.7" y="108.0" width="44.6" height="32.9" rx="3" fill="#cbd5e1" stroke="#475569"/><polygon points="144.5,140.9 155.5,140.9 158.0,170.0 142.0,170.0" fill="#f87171" stroke="#991b1b"/><rect x="138.8" y="170.0" width="22.3" height="1.8" rx="3" fill="#cbd5e1" stroke="#475569"/><rect x="127.7" y="171.8" width="44.6" height="32.9" rx="3" fill="#cbd5e1" stroke="#475569"/><rect x="127.7" y="204.6" width="44.6" height="32.9" rx="3" fill="#cbd5e1" stroke="#475569"/><rect x="127.7" y="237.5" width="44.6" height="32.9" rx="3" fill="#cbd5e1" stroke="#475569"/><polygon points="139.1,270.4 160.9,270.4 166.1,312.8 133.9,312.8" fill="#f87171" stroke="#991b1b"/><rect x="147.3" y="74.9" width="22.3" height="10.7" rx="3" fill="#cbd5e1" stroke="#475569"/><rect x="130.4" y="76.7" width="22.3" height="7.1" rx="3" fill="#cbd5e1" stroke="#475569"/><rect x="138.8" y="77.6" width="22.3" height="5.4" rx="3" fill="#cbd5e1" stroke="#475569"/><rect x="138.8" y="77.6" width="22.3" height="5.4" rx="3" fill="#cbd5e1" stroke="#475569"/><rect x="144.8" y="79.0" width="22.3" height="8.9" rx="3" fill="#cbd5e1" stroke="#475569"/><rect x="180.4" y="137.5" width="44.6" height="66.4" rx="3" fill="#cbd5e1" stroke="#475569"/><rect x="127.7" y="137.5" width="44.6" height="66.4" rx="3" fill="#cbd5e1" stroke="#475569"/><rect x="75.0" y="137.5" width="44.6" height="66.4" rx="3" fill="#cbd5e1" stroke="#475569"/><rect x="127.7" y="137.5" width="44.6" height="66.4" rx="3" fill="#cbd5e1" stroke="#475569"/><rect x="172.3" y="209.2" width="10.7" height="10.7" rx="3" fill="#cbd5e1" stroke="#475569"/><rect x="144.6" y="209.2" width="10.7" height="10.7" rx="3" fill="#cbd5e1" stroke="#475569"/><rect x="117.0" y="209.2" width="10.7" height="10.7" rx="3" fill="#cbd5e1" stroke="#475569"/><rect x="144.6" y="209.2" width="10.7" height="10.7" rx="3" fill="#cbd5e1" stroke="#475569"/><rect x="180.4" y="203.9" width="44.6" height="66.4" rx="3" fill="#cbd5e1" stroke="#475569"/><rect x="127.7" y="203.9" width="44.6" height="66.4" rx="3" fill="#cbd5e1" stroke="#475569"/><rect x="75.0" y="203.9" width="44.6" height="66.4" rx="3" fill="#cbd5e1" stroke="#475569"/><rect x="127.7" y="203.9" width="44.6" height="66.4" rx="3" fill="#cbd5e1" stroke="#475569"/><polygon points="179.5,257.7 171.5,284.6 187.5,284.6" fill="#94a3b8" stroke="#475569" opacity="0.88"/><polygon points="170.8,257.7 162.8,284.6 178.8,284.6" fill="#94a3b8" stroke="#475569" opacity="0.88"/><polygon points="150.0,257.7 142.0,284.6 158.0,284.6" fill="#94a3b8" stroke="#475569" opacity="0.88"/><polygon points="129.2,257.7 121.2,284.6 137.2,284.6" fill="#94a3b8" stroke="#475569" opacity="0.88"/><polygon points="120.5,257.7 112.5,284.6 128.5,284.6" fill="#94a3b8" stroke="#475569" opacity="0.88"/><polygon points="129.2,257.7 121.2,284.6 137.2,284.6" fill="#94a3b8" stroke="#475569" opacity="0.88"/><polygon points="150.0,257.7 142.0,284.6 158.0,284.6" fill="#94a3b8" stroke="#475569" opacity="0.88"/><polygon points="170.8,257.7 162.8,284.6 178.8,284.6" fill="#94a3b8" stroke="#475569" opacity="0.88"/><polygon points="191.8,270.4 213.6,270.4 218.8,312.8 186.6,312.8" fill="#f87171" stroke="#991b1b"/><polygon points="139.1,270.4 160.9,270.4 166.1,312.8 133.9,312.8" fill="#f87171" stroke="#991b1b"/><polygon points="86.4,270.4 108.3,270.4 113.4,312.8 81.3,312.8" fill="#f87171" stroke="#991b1b"/><polygon points="139.1,270.4 160.9,270.4 166.1,312.8 133.9,312.8" fill="#f87171" stroke="#991b1b"/>
  <rect x="378.8" y="76.0" width="22.3" height="6.7" rx="3" fill="#cbd5e1" stroke="#475569"/><rect x="378.8" y="82.7" width="22.3" height="5.4" rx="3" fill="#cbd5e1" stroke="#475569"/><rect x="378.8" y="88.0" width="22.3" height="5.4" rx="3" fill="#cbd5e1" stroke="#475569"/><rect x="378.8" y="93.4" width="22.3" height="5.4" rx="3" fill="#cbd5e1" stroke="#475569"/><path d="M 378.8 106.2 L 378.8 76.0 Q 378.8 72.0 390.0 58.0 Q 401.2 72.0 401.2 76.0 L 401.2 106.2 Z" fill="#fde68a" stroke="#d97706" stroke-width="1.4" opacity="0.55"/><rect x="378.8" y="106.2" width="22.3" height="1.8" rx="3" fill="#cbd5e1" stroke="#475569"/><rect x="367.7" y="108.0" width="44.6" height="32.9" rx="3" fill="#cbd5e1" stroke="#475569"/><polygon points="384.5,140.9 395.5,140.9 398.0,170.0 382.0,170.0" fill="#f87171" stroke="#991b1b"/><rect x="378.8" y="170.0" width="22.3" height="1.8" rx="3" fill="#cbd5e1" stroke="#475569"/><rect x="367.7" y="171.8" width="44.6" height="32.9" rx="3" fill="#cbd5e1" stroke="#475569"/><rect x="367.7" y="204.6" width="44.6" height="32.9" rx="3" fill="#cbd5e1" stroke="#475569"/><rect x="367.7" y="237.5" width="44.6" height="32.9" rx="3" fill="#cbd5e1" stroke="#475569"/><polygon points="379.1,270.4 400.9,270.4 406.1,312.8 373.9,312.8" fill="#f87171" stroke="#991b1b"/><rect x="378.8" y="74.9" width="22.3" height="10.7" rx="3" fill="#cbd5e1" stroke="#475569"/><rect x="378.8" y="76.7" width="22.3" height="7.1" rx="3" fill="#cbd5e1" stroke="#475569"/><rect x="387.3" y="77.6" width="22.3" height="5.4" rx="3" fill="#cbd5e1" stroke="#475569"/><rect x="370.4" y="77.6" width="22.3" height="5.4" rx="3" fill="#cbd5e1" stroke="#475569"/><rect x="384.8" y="79.0" width="22.3" height="8.9" rx="3" fill="#cbd5e1" stroke="#475569"/><rect x="367.7" y="137.5" width="44.6" height="66.4" rx="3" fill="#cbd5e1" stroke="#475569"/><rect x="420.4" y="137.5" width="44.6" height="66.4" rx="3" fill="#cbd5e1" stroke="#475569"/><rect x="367.7" y="137.5" width="44.6" height="66.4" rx="3" fill="#cbd5e1" stroke="#475569"/><rect x="315.0" y="137.5" width="44.6" height="66.4" rx="3" fill="#cbd5e1" stroke="#475569"/><rect x="384.6" y="209.2" width="10.7" height="10.7" rx="3" fill="#cbd5e1" stroke="#475569"/><rect x="412.3" y="209.2" width="10.7" height="10.7" rx="3" fill="#cbd5e1" stroke="#475569"/><rect x="384.6" y="209.2" width="10.7" height="10.7" rx="3" fill="#cbd5e1" stroke="#475569"/><rect x="357.0" y="209.2" width="10.7" height="10.7" rx="3" fill="#cbd5e1" stroke="#475569"/><rect x="367.7" y="203.9" width="44.6" height="66.4" rx="3" fill="#cbd5e1" stroke="#475569"/><rect x="420.4" y="203.9" width="44.6" height="66.4" rx="3" fill="#cbd5e1" stroke="#475569"/><rect x="367.7" y="203.9" width="44.6" height="66.4" rx="3" fill="#cbd5e1" stroke="#475569"/><rect x="315.0" y="203.9" width="44.6" height="66.4" rx="3" fill="#cbd5e1" stroke="#475569"/><polygon points="390.0,257.7 382.0,284.6 398.0,284.6" fill="#94a3b8" stroke="#475569" opacity="0.88"/><polygon points="410.8,257.7 402.8,284.6 418.8,284.6" fill="#94a3b8" stroke="#475569" opacity="0.88"/><polygon points="419.5,257.7 411.5,284.6 427.5,284.6" fill="#94a3b8" stroke="#475569" opacity="0.88"/><polygon points="410.8,257.7 402.8,284.6 418.8,284.6" fill="#94a3b8" stroke="#475569" opacity="0.88"/><polygon points="390.0,257.7 382.0,284.6 398.0,284.6" fill="#94a3b8" stroke="#475569" opacity="0.88"/><polygon points="369.2,257.7 361.2,284.6 377.2,284.6" fill="#94a3b8" stroke="#475569" opacity="0.88"/><polygon points="360.5,257.7 352.5,284.6 368.5,284.6" fill="#94a3b8" stroke="#475569" opacity="0.88"/><polygon points="369.2,257.7 361.2,284.6 377.2,284.6" fill="#94a3b8" stroke="#475569" opacity="0.88"/><polygon points="379.1,270.4 400.9,270.4 406.1,312.8 373.9,312.8" fill="#f87171" stroke="#991b1b"/><polygon points="431.8,270.4 453.6,270.4 458.8,312.8 426.6,312.8" fill="#f87171" stroke="#991b1b"/><polygon points="379.1,270.4 400.9,270.4 406.1,312.8 373.9,312.8" fill="#f87171" stroke="#991b1b"/><polygon points="326.4,270.4 348.2,270.4 353.4,312.8 321.2,312.8" fill="#f87171" stroke="#991b1b"/>
  <circle cx="625.0" cy="380.0" r="22.3" fill="#cbd5e1" stroke="#475569" opacity="0.30"/><circle cx="625.0" cy="380.0" r="22.3" fill="#cbd5e1" stroke="#475569" opacity="0.30"/><circle cx="625.0" cy="380.0" r="22.3" fill="#cbd5e1" stroke="#475569" opacity="0.30"/><circle cx="625.0" cy="380.0" r="22.3" fill="#cbd5e1" stroke="#475569" opacity="0.30"/><circle cx="625.0" cy="380.0" r="22.3" fill="#f87171" stroke="#475569" opacity="0.30"/><circle cx="625.0" cy="380.0" r="11.2" fill="#cbd5e1" stroke="#475569" opacity="0.30"/><circle cx="625.0" cy="380.0" r="11.2" fill="#cbd5e1" stroke="#475569" opacity="0.30"/><circle cx="625.0" cy="380.0" r="11.2" fill="#cbd5e1" stroke="#475569" opacity="0.30"/><circle cx="677.7" cy="380.0" r="16.1" fill="#f87171" stroke="#334155" opacity="0.80"/><circle cx="677.7" cy="380.0" r="22.3" fill="#cbd5e1" stroke="#334155" opacity="0.80"/><circle cx="677.7" cy="380.0" r="22.3" fill="#cbd5e1" stroke="#334155" opacity="0.80"/><circle cx="652.7" cy="380.0" r="5.4" fill="#cbd5e1" stroke="#334155" opacity="0.80"/><circle cx="625.0" cy="432.7" r="16.1" fill="#f87171" stroke="#334155" opacity="0.80"/><circle cx="625.0" cy="432.7" r="22.3" fill="#cbd5e1" stroke="#334155" opacity="0.80"/><circle cx="625.0" cy="432.7" r="22.3" fill="#cbd5e1" stroke="#334155" opacity="0.80"/><circle cx="625.0" cy="407.7" r="5.4" fill="#cbd5e1" stroke="#334155" opacity="0.80"/><circle cx="572.3" cy="380.0" r="16.1" fill="#f87171" stroke="#334155" opacity="0.80"/><circle cx="572.3" cy="380.0" r="22.3" fill="#cbd5e1" stroke="#334155" opacity="0.80"/><circle cx="572.3" cy="380.0" r="22.3" fill="#cbd5e1" stroke="#334155" opacity="0.80"/><circle cx="597.3" cy="380.0" r="5.4" fill="#cbd5e1" stroke="#334155" opacity="0.80"/><circle cx="625.0" cy="327.3" r="16.1" fill="#f87171" stroke="#334155" opacity="0.80"/><circle cx="625.0" cy="327.3" r="22.3" fill="#cbd5e1" stroke="#334155" opacity="0.80"/><circle cx="625.0" cy="327.3" r="22.3" fill="#cbd5e1" stroke="#334155" opacity="0.80"/><circle cx="625.0" cy="352.3" r="5.4" fill="#cbd5e1" stroke="#334155" opacity="0.80"/><circle cx="633.5" cy="380.0" r="11.2" fill="#cbd5e1" stroke="#334155" opacity="0.80"/><circle cx="616.5" cy="380.0" r="11.2" fill="#cbd5e1" stroke="#334155" opacity="0.80"/><circle cx="625.0" cy="388.5" r="11.2" fill="#cbd5e1" stroke="#334155" opacity="0.80"/><circle cx="625.0" cy="371.5" r="11.2" fill="#cbd5e1" stroke="#334155" opacity="0.80"/><circle cx="630.9" cy="385.9" r="11.2" fill="#cbd5e1" stroke="#334155" opacity="0.80"/><circle cx="654.5" cy="380.0" r="3.1" fill="#94a3b8" stroke="#334155" opacity="0.80"/><circle cx="645.8" cy="400.8" r="3.1" fill="#94a3b8" stroke="#334155" opacity="0.80"/><circle cx="625.0" cy="409.5" r="3.1" fill="#94a3b8" stroke="#334155" opacity="0.80"/><circle cx="604.2" cy="400.8" r="3.1" fill="#94a3b8" stroke="#334155" opacity="0.80"/><circle cx="595.5" cy="380.0" r="3.1" fill="#94a3b8" stroke="#334155" opacity="0.80"/><circle cx="604.2" cy="359.2" r="3.1" fill="#94a3b8" stroke="#334155" opacity="0.80"/><circle cx="625.0" cy="350.5" r="3.1" fill="#94a3b8" stroke="#334155" opacity="0.80"/><circle cx="645.8" cy="359.2" r="3.1" fill="#94a3b8" stroke="#334155" opacity="0.80"/>
  <text x="805" y="94" font-size="12" fill="#16a34a">PASS - slender body (4 &lt;= L/D &lt;= 19)</text><text x="805" y="116" font-size="12" fill="#16a34a">PASS - monotonic taper (widest toward base)</text><text x="805" y="138" font-size="12" fill="#16a34a">PASS - payload housed (fairing or capsule top)</text><text x="805" y="160" font-size="12" fill="#16a34a">PASS - engine at the base</text><text x="805" y="182" font-size="12" fill="#16a34a">PASS - controlled ascent margin</text><text x="805" y="204" font-size="12" fill="#16a34a">PASS - radial protrusions within ascent envelope</text><text x="805" y="226" font-size="12" fill="#16a34a">PASS - landing gear tip-over stable</text><text x="805" y="248" font-size="12" fill="#16a34a">PASS - symmetric strap-on boosters</text>
  <text x="805" y="280" font-size="12" fill="#0f172a">L/D 5.3:1</text><text x="805" y="298" font-size="12" fill="#0f172a">length 13.26 m</text><text x="805" y="316" font-size="12" fill="#0f172a">body dia 2.5 m</text><text x="805" y="334" font-size="12" fill="#0f172a">core span 3.65 m</text><text x="805" y="352" font-size="12" fill="#0f172a">4x radial boosters (span 8.4 m)</text><text x="805" y="370" font-size="12" fill="#0f172a">full span 8.4 m</text><text x="805" y="388" font-size="12" fill="#0f172a">static 0.54 cal</text><text x="805" y="406" font-size="12" fill="#0f172a">Cd 0.232</text><text x="805" y="424" font-size="12" fill="#0f172a">drag loss 79.0 m/s</text><text x="805" y="442" font-size="12" fill="#0f172a">max-Q 88.4 kPa</text>
</svg>