<svg xmlns="http://www.w3.org/2000/svg" width="1080" height="700" viewBox="0 0 1080 700" font-family="system-ui,Segoe UI,sans-serif">
  <rect width="1080" height="700" fill="#f8fafc"/>
  <text x="30" y="32" font-size="19" font-weight="700" fill="#0f172a">Three-view design chart - AI-Duna-Ring-S</text>
  <text x="805" y="56" font-size="15" font-weight="700" fill="#16a34a">LOOKS LIKE A ROCKET</text>
  <text x="118" y="58" font-size="12" font-weight="700" fill="#334155">SIDE</text>
  <text x="355" y="58" font-size="12" font-weight="700" fill="#334155">FRONT</text>
  <text x="594" y="220" font-size="12" font-weight="700" fill="#334155">TOP</text>
  <line x1="150.0" y1="60" x2="150.0" y2="650" stroke="#e2e8f0" stroke-dasharray="4 4"/>
  <line x1="390.0" y1="60" x2="390.0" y2="650" stroke="#e2e8f0" stroke-dasharray="4 4"/>
  <circle cx="625.0" cy="380.0" r="45.5" fill="none" stroke="#94a3b8" stroke-dasharray="4 4"/>
  <rect x="134.8" y="76.0" width="30.4" height="9.1" rx="3" fill="#cbd5e1" stroke="#475569"/><rect x="134.8" y="85.1" width="30.4" height="14.6" rx="3" fill="#cbd5e1" stroke="#475569"/><rect x="134.8" y="99.7" width="30.4" height="14.6" rx="3" fill="#cbd5e1" stroke="#475569"/><rect x="134.8" y="114.2" width="30.4" height="14.6" rx="3" fill="#cbd5e1" stroke="#475569"/><rect x="134.8" y="128.8" width="30.4" height="7.3" rx="3" fill="#cbd5e1" stroke="#475569"/><rect x="134.8" y="136.1" width="30.4" height="7.3" rx="3" fill="#cbd5e1" stroke="#475569"/><rect x="134.8" y="143.4" width="30.4" height="7.3" rx="3" fill="#cbd5e1" stroke="#475569"/><path d="M 134.8 160.9 L 134.8 76.0 Q 134.8 70.3 150.0 56.3 Q 165.2 70.3 165.2 76.0 L 165.2 160.9 Z" fill="#fde68a" stroke="#d97706" stroke-width="1.4" opacity="0.55"/><rect x="134.8" y="160.9" width="30.4" height="2.4" rx="3" fill="#cbd5e1" stroke="#475569"/><rect x="134.8" y="163.3" width="30.4" height="27.0" rx="3" fill="#cbd5e1" stroke="#475569"/><rect x="134.8" y="190.3" width="30.4" height="27.0" rx="3" fill="#cbd5e1" stroke="#475569"/><rect x="134.8" y="217.2" width="30.4" height="27.0" rx="3" fill="#cbd5e1" stroke="#475569"/><polygon points="142.6,244.2 157.4,244.2 160.9,264.4 139.1,264.4" fill="#f87171" stroke="#991b1b"/><rect x="134.8" y="264.4" width="30.4" height="2.4" rx="3" fill="#cbd5e1" stroke="#475569"/><polygon points="134.8,266.8 165.2,266.8 180.4,327.5 119.6,327.5" fill="#dbeafe" stroke="#2563eb"/><polygon points="119.6,327.5 180.4,327.5 195.5,382.2 104.5,382.2" fill="#dbeafe" stroke="#2563eb"/><rect x="104.5" y="382.2" width="91.1" height="181.7" rx="3" fill="#cbd5e1" stroke="#475569"/><polygon points="135.1,563.9 164.9,563.9 171.9,636.0 128.1,636.0" fill="#f87171" stroke="#991b1b"/><rect x="146.3" y="74.5" width="30.4" height="14.6" rx="3" fill="#cbd5e1" stroke="#475569"/><rect x="123.3" y="76.9" width="30.4" height="9.7" rx="3" fill="#cbd5e1" stroke="#475569"/><rect x="134.8" y="78.1" width="30.4" height="7.3" rx="3" fill="#cbd5e1" stroke="#475569"/><rect x="134.8" y="78.1" width="30.4" height="7.3" rx="3" fill="#cbd5e1" stroke="#475569"/><rect x="142.9" y="80.1" width="30.4" height="12.1" rx="3" fill="#cbd5e1" stroke="#475569"/><polygon points="205.3,512.4 197.3,542.5 213.3,542.5" fill="#94a3b8" stroke="#475569" opacity="0.88"/><polygon points="189.1,512.4 181.1,542.5 197.1,542.5" fill="#94a3b8" stroke="#475569" opacity="0.88"/><polygon points="150.0,512.4 142.0,542.5 158.0,542.5" fill="#94a3b8" stroke="#475569" opacity="0.88"/><polygon points="110.9,512.4 102.9,542.5 118.9,542.5" fill="#94a3b8" stroke="#475569" opacity="0.88"/><polygon points="94.7,512.4 86.7,542.5 102.7,542.5" fill="#94a3b8" stroke="#475569" opacity="0.88"/><polygon points="110.9,512.4 102.9,542.5 118.9,542.5" fill="#94a3b8" stroke="#475569" opacity="0.88"/><polygon points="150.0,512.4 142.0,542.5 158.0,542.5" fill="#94a3b8" stroke="#475569" opacity="0.88"/><polygon points="189.1,512.4 181.1,542.5 197.1,542.5" fill="#94a3b8" stroke="#475569" opacity="0.88"/>
  <rect x="374.8" y="76.0" width="30.4" height="9.1" rx="3" fill="#cbd5e1" stroke="#475569"/><rect x="374.8" y="85.1" width="30.4" height="14.6" rx="3" fill="#cbd5e1" stroke="#475569"/><rect x="374.8" y="99.7" width="30.4" height="14.6" rx="3" fill="#cbd5e1" stroke="#475569"/><rect x="374.8" y="114.2" width="30.4" height="14.6" rx="3" fill="#cbd5e1" stroke="#475569"/><rect x="374.8" y="128.8" width="30.4" height="7.3" rx="3" fill="#cbd5e1" stroke="#475569"/><rect x="374.8" y="136.1" width="30.4" height="7.3" rx="3" fill="#cbd5e1" stroke="#475569"/><rect x="374.8" y="143.4" width="30.4" height="7.3" rx="3" fill="#cbd5e1" stroke="#475569"/><path d="M 374.8 160.9 L 374.8 76.0 Q 374.8 70.3 390.0 56.3 Q 405.2 70.3 405.2 76.0 L 405.2 160.9 Z" fill="#fde68a" stroke="#d97706" stroke-width="1.4" opacity="0.55"/><rect x="374.8" y="160.9" width="30.4" height="2.4" rx="3" fill="#cbd5e1" stroke="#475569"/><rect x="374.8" y="163.3" width="30.4" height="27.0" rx="3" fill="#cbd5e1" stroke="#475569"/><rect x="374.8" y="190.3" width="30.4" height="27.0" rx="3" fill="#cbd5e1" stroke="#475569"/><rect x="374.8" y="217.2" width="30.4" height="27.0" rx="3" fill="#cbd5e1" stroke="#475569"/><polygon points="382.6,244.2 397.4,244.2 400.9,264.4 379.1,264.4" fill="#f87171" stroke="#991b1b"/><rect x="374.8" y="264.4" width="30.4" height="2.4" rx="3" fill="#cbd5e1" stroke="#475569"/><polygon points="374.8,266.8 405.2,266.8 420.4,327.5 359.6,327.5" fill="#dbeafe" stroke="#2563eb"/><polygon points="359.6,327.5 420.4,327.5 435.5,382.2 344.5,382.2" fill="#dbeafe" stroke="#2563eb"/><rect x="344.5" y="382.2" width="91.1" height="181.7" rx="3" fill="#cbd5e1" stroke="#475569"/><polygon points="375.1,563.9 404.9,563.9 411.9,636.0 368.1,636.0" fill="#f87171" stroke="#991b1b"/><rect x="374.8" y="74.5" width="30.4" height="14.6" rx="3" fill="#cbd5e1" stroke="#475569"/><rect x="374.8" y="76.9" width="30.4" height="9.7" rx="3" fill="#cbd5e1" stroke="#475569"/><rect x="386.3" y="78.1" width="30.4" height="7.3" rx="3" fill="#cbd5e1" stroke="#475569"/><rect x="363.3" y="78.1" width="30.4" height="7.3" rx="3" fill="#cbd5e1" stroke="#475569"/><rect x="382.9" y="80.1" width="30.4" height="12.1" rx="3" fill="#cbd5e1" stroke="#475569"/><polygon points="390.0,512.4 382.0,542.5 398.0,542.5" fill="#94a3b8" stroke="#475569" opacity="0.88"/><polygon points="429.1,512.4 421.1,542.5 437.1,542.5" fill="#94a3b8" stroke="#475569" opacity="0.88"/><polygon points="445.3,512.4 437.3,542.5 453.3,542.5" fill="#94a3b8" stroke="#475569" opacity="0.88"/><polygon points="429.1,512.4 421.1,542.5 437.1,542.5" fill="#94a3b8" stroke="#475569" opacity="0.88"/><polygon points="390.0,512.4 382.0,542.5 398.0,542.5" fill="#94a3b8" stroke="#475569" opacity="0.88"/><polygon points="350.9,512.4 342.9,542.5 358.9,542.5" fill="#94a3b8" stroke="#475569" opacity="0.88"/><polygon points="334.7,512.4 326.7,542.5 342.7,542.5" fill="#94a3b8" stroke="#475569" opacity="0.88"/><polygon points="350.9,512.4 342.9,542.5 358.9,542.5" fill="#94a3b8" stroke="#475569" opacity="0.88"/>
  <circle cx="625.0" cy="380.0" r="45.5" fill="#dbeafe" stroke="#475569" opacity="0.30"/><circle cx="625.0" cy="380.0" r="45.5" fill="#cbd5e1" stroke="#475569" opacity="0.30"/><circle cx="625.0" cy="380.0" r="30.4" fill="#dbeafe" stroke="#475569" opacity="0.30"/><circle cx="625.0" cy="380.0" r="30.4" fill="#f87171" stroke="#475569" opacity="0.30"/><circle cx="625.0" cy="380.0" r="15.2" fill="#cbd5e1" stroke="#475569" opacity="0.30"/><circle cx="625.0" cy="380.0" r="15.2" fill="#cbd5e1" stroke="#475569" opacity="0.30"/><circle cx="625.0" cy="380.0" r="15.2" fill="#cbd5e1" stroke="#475569" opacity="0.30"/><circle cx="625.0" cy="380.0" r="15.2" fill="#cbd5e1" stroke="#475569" opacity="0.30"/><circle cx="636.5" cy="380.0" r="15.2" fill="#cbd5e1" stroke="#334155" opacity="0.80"/><circle cx="613.5" cy="380.0" r="15.2" fill="#cbd5e1" stroke="#334155" opacity="0.80"/><circle cx="625.0" cy="391.5" r="15.2" fill="#cbd5e1" stroke="#334155" opacity="0.80"/><circle cx="625.0" cy="368.5" r="15.2" fill="#cbd5e1" stroke="#334155" opacity="0.80"/><circle cx="633.1" cy="388.1" r="15.2" fill="#cbd5e1" stroke="#334155" opacity="0.80"/><circle cx="680.3" cy="380.0" r="4.3" fill="#94a3b8" stroke="#334155" opacity="0.80"/><circle cx="664.1" cy="419.1" r="4.3" fill="#94a3b8" stroke="#334155" opacity="0.80"/><circle cx="625.0" cy="435.3" r="4.3" fill="#94a3b8" stroke="#334155" opacity="0.80"/><circle cx="585.9" cy="419.1" r="4.3" fill="#94a3b8" stroke="#334155" opacity="0.80"/><circle cx="569.7" cy="380.0" r="4.3" fill="#94a3b8" stroke="#334155" opacity="0.80"/><circle cx="585.9" cy="340.9" r="4.3" fill="#94a3b8" stroke="#334155" opacity="0.80"/><circle cx="625.0" cy="324.7" r="4.3" fill="#94a3b8" stroke="#334155" opacity="0.80"/><circle cx="664.1" cy="340.9" r="4.3" fill="#94a3b8" stroke="#334155" opacity="0.80"/>
  <text x="805" y="94" font-size="12" fill="#16a34a">PASS - slender body (4 &lt;= L/D &lt;= 19)</text><text x="805" y="116" font-size="12" fill="#16a34a">PASS - monotonic taper (widest toward base)</text><text x="805" y="138" font-size="12" fill="#16a34a">PASS - payload housed (fairing or capsule top)</text><text x="805" y="160" font-size="12" fill="#16a34a">PASS - engine at the base</text><text x="805" y="182" font-size="12" fill="#16a34a">PASS - controlled ascent margin</text><text x="805" y="204" font-size="12" fill="#16a34a">PASS - radial protrusions within ascent envelope</text><text x="805" y="226" font-size="12" fill="#16a34a">PASS - landing gear tip-over stable</text>
  <text x="805" y="258" font-size="12" fill="#0f172a">L/D 6.1:1</text><text x="805" y="276" font-size="12" fill="#0f172a">length 23.05 m</text><text x="805" y="294" font-size="12" fill="#0f172a">body dia 3.75 m</text><text x="805" y="312" font-size="12" fill="#0f172a">ascent span 4.9 m</text><text x="805" y="330" font-size="12" fill="#0f172a">full span 4.9 m</text><text x="805" y="348" font-size="12" fill="#0f172a">static -0.39 cal</text><text x="805" y="366" font-size="12" fill="#0f172a">Cd 0.232</text><text x="805" y="384" font-size="12" fill="#0f172a">drag loss 384.0 m/s</text><text x="805" y="402" font-size="12" fill="#0f172a">max-Q 88.4 kPa</text>
</svg>