<svg xmlns="http://www.w3.org/2000/svg" width="900" height="600" viewBox="0 0 900 600" font-family="system-ui,Segoe UI,sans-serif">
  <rect width="900" height="600" fill="#f8fafc"/>
  <text x="30" y="28" font-size="18" font-weight="700" fill="#0f172a">Design chart — AI-Duna-Ring-Y</text>
  <line x1="230.0" y1="36" x2="230.0" y2="572" stroke="#e2e8f0" stroke-dasharray="4 4"/>
  <rect x="224.1" y="40.0" width="11.9" height="3.6" rx="3" fill="#cbd5e1" stroke="#64748b"/><rect x="224.1" y="43.6" width="11.9" height="5.7" rx="3" fill="#cbd5e1" stroke="#64748b"/><rect x="224.1" y="49.3" width="11.9" height="5.7" rx="3" fill="#cbd5e1" stroke="#64748b"/><rect x="224.1" y="55.0" width="11.9" height="5.7" rx="3" fill="#cbd5e1" stroke="#64748b"/><rect x="224.1" y="60.7" width="11.9" height="2.9" rx="3" fill="#cbd5e1" stroke="#64748b"/><rect x="224.1" y="63.5" width="11.9" height="2.9" rx="3" fill="#cbd5e1" stroke="#64748b"/><rect x="224.1" y="66.4" width="11.9" height="2.9" rx="3" fill="#cbd5e1" stroke="#64748b"/><path d="M 224.06045542600242 73.2044299864761 L 224.06045542600242 54.94199349391424 Q 224.06045542600242 40.0 230.0 26.0 Q 235.93954457399758 40.0 235.93954457399758 54.94199349391424 L 235.93954457399758 73.2044299864761 Z" fill="#fde68a" stroke="#d97706" stroke-width="1.5" opacity="0.92"/><rect x="224.1" y="73.2" width="11.9" height="1.0" rx="3" fill="#cbd5e1" stroke="#64748b"/><rect x="224.1" y="74.2" width="11.9" height="35.8" rx="3" fill="#cbd5e1" stroke="#64748b"/><rect x="224.1" y="109.9" width="11.9" height="35.8" rx="3" fill="#cbd5e1" stroke="#64748b"/><polygon points="225.8423187982017,145.65737051792829 234.1576812017983,145.65737051792829 235.93954457399758,153.54508571219708 224.06045542600242,153.54508571219708" fill="#f87171" stroke="#991b1b"/><rect x="224.1" y="153.5" width="11.9" height="1.0" rx="3" fill="#cbd5e1" stroke="#64748b"/><rect x="218.1" y="154.5" width="23.8" height="23.8" rx="3" fill="#cbd5e1" stroke="#64748b"/><rect x="218.1" y="178.3" width="23.8" height="35.4" rx="3" fill="#cbd5e1" stroke="#64748b"/><rect x="218.1" y="213.6" width="23.8" height="35.4" rx="3" fill="#cbd5e1" stroke="#64748b"/><rect x="218.1" y="249.0" width="23.8" height="35.4" rx="3" fill="#cbd5e1" stroke="#64748b"/><rect x="218.1" y="284.3" width="23.8" height="35.4" rx="3" fill="#cbd5e1" stroke="#64748b"/><rect x="218.1" y="319.7" width="23.8" height="35.4" rx="3" fill="#cbd5e1" stroke="#64748b"/><rect x="218.1" y="355.0" width="23.8" height="35.4" rx="3" fill="#cbd5e1" stroke="#64748b"/><rect x="218.1" y="390.4" width="23.8" height="35.4" rx="3" fill="#cbd5e1" stroke="#64748b"/><rect x="218.1" y="425.7" width="23.8" height="35.4" rx="3" fill="#cbd5e1" stroke="#64748b"/><rect x="218.1" y="461.1" width="23.8" height="35.4" rx="3" fill="#cbd5e1" stroke="#64748b"/><rect x="218.1" y="496.4" width="23.8" height="35.4" rx="3" fill="#cbd5e1" stroke="#64748b"/><polygon points="221.68463759640338,531.7752841843635 238.31536240359662,531.7752841843635 241.8790891479952,560.0 218.1209108520048,560.0" fill="#f87171" stroke="#991b1b"/>
  <text x="470" y="44" font-size="15" font-weight="700" fill="#16a34a">LOOKS LIKE A ROCKET</text>
  <text x="470" y="196" font-size="13" fill="#0f172a">fineness 21.9:1  •  length 54.72 m  •  max Ø 2.5 m</text>
  <text x="470" y="220" font-size="13" fill="#0f172a">Cd 0.232  •  ascent drag loss 77.0 m/s  •  max-Q 88.4 kPa</text>
</svg>