<svg xmlns="http://www.w3.org/2000/svg" width="1080" height="700" viewBox="0 0 1080 700" font-family="system-ui,Segoe UI,sans-serif">
  <rect width="1080" height="700" fill="#f8fafc"/>
  <text x="30" y="32" font-size="19" font-weight="700" fill="#0f172a">Three-view design chart - AI-Eve-Crew8</text>
  <text x="805" y="56" font-size="15" font-weight="700" fill="#16a34a">LOOKS LIKE A ROCKET</text>
  <text x="118" y="58" font-size="12" font-weight="700" fill="#334155">SIDE</text>
  <text x="355" y="58" font-size="12" font-weight="700" fill="#334155">FRONT</text>
  <text x="594" y="220" font-size="12" font-weight="700" fill="#334155">TOP</text>
  <line x1="150.0" y1="60" x2="150.0" y2="650" stroke="#e2e8f0" stroke-dasharray="4 4"/>
  <line x1="390.0" y1="60" x2="390.0" y2="650" stroke="#e2e8f0" stroke-dasharray="4 4"/>
  <circle cx="625.0" cy="380.0" r="22.3" fill="none" stroke="#94a3b8" stroke-dasharray="4 4"/>
  <rect x="138.8" y="76.0" width="22.3" height="18.8" rx="3" fill="#e2e8f0" stroke="#475569"/><rect x="138.8" y="94.8" width="22.3" height="3.6" rx="3" fill="#cbd5e1" stroke="#475569"/><rect x="138.8" y="98.3" width="22.3" height="1.8" rx="3" fill="#cbd5e1" stroke="#475569"/><rect x="138.8" y="100.1" width="22.3" height="6.7" rx="3" fill="#cbd5e1" stroke="#475569"/><rect x="138.8" y="106.8" width="22.3" height="33.5" rx="3" fill="#cbd5e1" stroke="#475569"/><rect x="138.8" y="140.3" width="22.3" height="5.4" rx="3" fill="#cbd5e1" stroke="#475569"/><rect x="138.8" y="145.6" width="22.3" height="5.4" rx="3" fill="#cbd5e1" stroke="#475569"/><rect x="138.8" y="151.0" width="22.3" height="5.4" rx="3" fill="#cbd5e1" stroke="#475569"/><path d="M 138.8 163.8 L 138.8 76.0 Q 138.8 72.0 150.0 58.0 Q 161.2 72.0 161.2 76.0 L 161.2 163.8 Z" fill="#fde68a" stroke="#d97706" stroke-width="1.4" opacity="0.55"/><rect x="138.8" y="163.8" width="22.3" height="1.8" rx="3" fill="#cbd5e1" stroke="#475569"/><rect x="127.7" y="165.6" width="44.6" height="66.4" rx="3" fill="#cbd5e1" stroke="#475569"/><polygon points="144.5,232.1 155.5,232.1 158.0,261.2 142.0,261.2" fill="#f87171" stroke="#991b1b"/><rect x="138.8" y="261.2" width="22.3" height="1.8" rx="3" fill="#cbd5e1" stroke="#475569"/><rect x="127.7" y="262.9" width="44.6" height="66.4" rx="3" fill="#cbd5e1" stroke="#475569"/><rect x="127.7" y="329.4" width="44.6" height="66.4" rx="3" fill="#cbd5e1" stroke="#475569"/><rect x="127.7" y="395.8" width="44.6" height="66.4" rx="3" fill="#cbd5e1" stroke="#475569"/><polygon points="139.1,462.2 160.9,462.2 166.1,515.3 133.9,515.3" fill="#f87171" stroke="#991b1b"/><rect x="151.8" y="82.2" width="22.3" height="6.2" rx="3" fill="#cbd5e1" stroke="#475569"/><rect x="125.8" y="82.2" width="22.3" height="6.2" rx="3" fill="#cbd5e1" stroke="#475569"/><rect x="154.6" y="80.9" width="22.3" height="10.7" rx="3" fill="#cbd5e1" stroke="#475569"/><rect x="123.1" y="82.7" width="22.3" height="7.1" rx="3" fill="#cbd5e1" stroke="#475569"/><rect x="138.8" y="83.6" width="22.3" height="5.4" rx="3" fill="#cbd5e1" stroke="#475569"/><rect x="138.8" y="83.6" width="22.3" height="5.4" rx="3" fill="#cbd5e1" stroke="#475569"/><rect x="149.8" y="85.0" width="22.3" height="8.9" rx="3" fill="#cbd5e1" stroke="#475569"/><line x1="212.4" y1="260.3" x2="212.4" y2="283.2" stroke="#64748b" stroke-width="3" stroke-linecap="round"/><line x1="181.2" y1="260.3" x2="181.2" y2="283.2" stroke="#64748b" stroke-width="3" stroke-linecap="round"/><line x1="118.8" y1="260.3" x2="118.8" y2="283.2" stroke="#64748b" stroke-width="3" stroke-linecap="round"/><line x1="87.6" y1="260.3" x2="87.6" y2="283.2" stroke="#64748b" stroke-width="3" stroke-linecap="round"/><line x1="118.8" y1="260.3" x2="118.8" y2="283.2" stroke="#64748b" stroke-width="3" stroke-linecap="round"/><line x1="181.2" y1="260.3" x2="181.2" y2="283.2" stroke="#64748b" stroke-width="3" stroke-linecap="round"/><rect x="180.4" y="334.7" width="44.6" height="66.4" rx="3" fill="#cbd5e1" stroke="#475569"/><rect x="127.7" y="334.7" width="44.6" height="66.4" rx="3" fill="#cbd5e1" stroke="#475569"/><rect x="75.0" y="334.7" width="44.6" height="66.4" rx="3" fill="#cbd5e1" stroke="#475569"/><rect x="127.7" y="334.7" width="44.6" height="66.4" rx="3" fill="#cbd5e1" stroke="#475569"/><rect x="172.3" y="406.4" width="10.7" height="10.7" rx="3" fill="#cbd5e1" stroke="#475569"/><rect x="144.6" y="406.4" width="10.7" height="10.7" rx="3" fill="#cbd5e1" stroke="#475569"/><rect x="117.0" y="406.4" width="10.7" height="10.7" rx="3" fill="#cbd5e1" stroke="#475569"/><rect x="144.6" y="406.4" width="10.7" height="10.7" rx="3" fill="#cbd5e1" stroke="#475569"/><rect x="180.4" y="401.1" width="44.6" height="66.4" rx="3" fill="#cbd5e1" stroke="#475569"/><rect x="127.7" y="401.1" width="44.6" height="66.4" rx="3" fill="#cbd5e1" stroke="#475569"/><rect x="75.0" y="401.1" width="44.6" height="66.4" rx="3" fill="#cbd5e1" stroke="#475569"/><rect x="127.7" y="401.1" width="44.6" height="66.4" rx="3" fill="#cbd5e1" stroke="#475569"/><polygon points="179.5,441.2 171.5,468.1 187.5,468.1" fill="#94a3b8" stroke="#475569" opacity="0.88"/><polygon points="170.8,441.2 162.8,468.1 178.8,468.1" fill="#94a3b8" stroke="#475569" opacity="0.88"/><polygon points="150.0,441.2 142.0,468.1 158.0,468.1" fill="#94a3b8" stroke="#475569" opacity="0.88"/><polygon points="129.2,441.2 121.2,468.1 137.2,468.1" fill="#94a3b8" stroke="#475569" opacity="0.88"/><polygon points="120.5,441.2 112.5,468.1 128.5,468.1" fill="#94a3b8" stroke="#475569" opacity="0.88"/><polygon points="129.2,441.2 121.2,468.1 137.2,468.1" fill="#94a3b8" stroke="#475569" opacity="0.88"/><polygon points="150.0,441.2 142.0,468.1 158.0,468.1" fill="#94a3b8" stroke="#475569" opacity="0.88"/><polygon points="170.8,441.2 162.8,468.1 178.8,468.1" fill="#94a3b8" stroke="#475569" opacity="0.88"/><polygon points="191.8,467.5 213.6,467.5 218.8,510.0 186.6,510.0" fill="#f87171" stroke="#991b1b"/><polygon points="139.1,467.5 160.9,467.5 166.1,510.0 133.9,510.0" fill="#f87171" stroke="#991b1b"/><polygon points="86.4,467.5 108.3,467.5 113.4,510.0 81.3,510.0" fill="#f87171" stroke="#991b1b"/><polygon points="139.1,467.5 160.9,467.5 166.1,510.0 133.9,510.0" fill="#f87171" stroke="#991b1b"/>
  <rect x="378.8" y="76.0" width="22.3" height="18.8" rx="3" fill="#e2e8f0" stroke="#475569"/><rect x="378.8" y="94.8" width="22.3" height="3.6" rx="3" fill="#cbd5e1" stroke="#475569"/><rect x="378.8" y="98.3" width="22.3" height="1.8" rx="3" fill="#cbd5e1" stroke="#475569"/><rect x="378.8" y="100.1" width="22.3" height="6.7" rx="3" fill="#cbd5e1" stroke="#475569"/><rect x="378.8" y="106.8" width="22.3" height="33.5" rx="3" fill="#cbd5e1" stroke="#475569"/><rect x="378.8" y="140.3" width="22.3" height="5.4" rx="3" fill="#cbd5e1" stroke="#475569"/><rect x="378.8" y="145.6" width="22.3" height="5.4" rx="3" fill="#cbd5e1" stroke="#475569"/><rect x="378.8" y="151.0" width="22.3" height="5.4" rx="3" fill="#cbd5e1" stroke="#475569"/><path d="M 378.8 163.8 L 378.8 76.0 Q 378.8 72.0 390.0 58.0 Q 401.2 72.0 401.2 76.0 L 401.2 163.8 Z" fill="#fde68a" stroke="#d97706" stroke-width="1.4" opacity="0.55"/><rect x="378.8" y="163.8" width="22.3" height="1.8" rx="3" fill="#cbd5e1" stroke="#475569"/><rect x="367.7" y="165.6" width="44.6" height="66.4" rx="3" fill="#cbd5e1" stroke="#475569"/><polygon points="384.5,232.1 395.5,232.1 398.0,261.2 382.0,261.2" fill="#f87171" stroke="#991b1b"/><rect x="378.8" y="261.2" width="22.3" height="1.8" rx="3" fill="#cbd5e1" stroke="#475569"/><rect x="367.7" y="262.9" width="44.6" height="66.4" rx="3" fill="#cbd5e1" stroke="#475569"/><rect x="367.7" y="329.4" width="44.6" height="66.4" rx="3" fill="#cbd5e1" stroke="#475569"/><rect x="367.7" y="395.8" width="44.6" height="66.4" rx="3" fill="#cbd5e1" stroke="#475569"/><polygon points="379.1,462.2 400.9,462.2 406.1,515.3 373.9,515.3" fill="#f87171" stroke="#991b1b"/><rect x="378.8" y="82.2" width="22.3" height="6.2" rx="3" fill="#cbd5e1" stroke="#475569"/><rect x="378.8" y="82.2" width="22.3" height="6.2" rx="3" fill="#cbd5e1" stroke="#475569"/><rect x="378.8" y="80.9" width="22.3" height="10.7" rx="3" fill="#cbd5e1" stroke="#475569"/><rect x="378.8" y="82.7" width="22.3" height="7.1" rx="3" fill="#cbd5e1" stroke="#475569"/><rect x="394.6" y="83.6" width="22.3" height="5.4" rx="3" fill="#cbd5e1" stroke="#475569"/><rect x="363.1" y="83.6" width="22.3" height="5.4" rx="3" fill="#cbd5e1" stroke="#475569"/><rect x="389.8" y="85.0" width="22.3" height="8.9" rx="3" fill="#cbd5e1" stroke="#475569"/><line x1="390.0" y1="260.3" x2="390.0" y2="283.2" stroke="#64748b" stroke-width="3" stroke-linecap="round"/><line x1="444.1" y1="260.3" x2="444.1" y2="283.2" stroke="#64748b" stroke-width="3" stroke-linecap="round"/><line x1="444.1" y1="260.3" x2="444.1" y2="283.2" stroke="#64748b" stroke-width="3" stroke-linecap="round"/><line x1="390.0" y1="260.3" x2="390.0" y2="283.2" stroke="#64748b" stroke-width="3" stroke-linecap="round"/><line x1="335.9" y1="260.3" x2="335.9" y2="283.2" stroke="#64748b" stroke-width="3" stroke-linecap="round"/><line x1="335.9" y1="260.3" x2="335.9" y2="283.2" stroke="#64748b" stroke-width="3" stroke-linecap="round"/><rect x="367.7" y="334.7" width="44.6" height="66.4" rx="3" fill="#cbd5e1" stroke="#475569"/><rect x="420.4" y="334.7" width="44.6" height="66.4" rx="3" fill="#cbd5e1" stroke="#475569"/><rect x="367.7" y="334.7" width="44.6" height="66.4" rx="3" fill="#cbd5e1" stroke="#475569"/><rect x="315.0" y="334.7" width="44.6" height="66.4" rx="3" fill="#cbd5e1" stroke="#475569"/><rect x="384.6" y="406.4" width="10.7" height="10.7" rx="3" fill="#cbd5e1" stroke="#475569"/><rect x="412.3" y="406.4" width="10.7" height="10.7" rx="3" fill="#cbd5e1" stroke="#475569"/><rect x="384.6" y="406.4" width="10.7" height="10.7" rx="3" fill="#cbd5e1" stroke="#475569"/><rect x="357.0" y="406.4" width="10.7" height="10.7" rx="3" fill="#cbd5e1" stroke="#475569"/><rect x="367.7" y="401.1" width="44.6" height="66.4" rx="3" fill="#cbd5e1" stroke="#475569"/><rect x="420.4" y="401.1" width="44.6" height="66.4" rx="3" fill="#cbd5e1" stroke="#475569"/><rect x="367.7" y="401.1" width="44.6" height="66.4" rx="3" fill="#cbd5e1" stroke="#475569"/><rect x="315.0" y="401.1" width="44.6" height="66.4" rx="3" fill="#cbd5e1" stroke="#475569"/><polygon points="390.0,441.2 382.0,468.1 398.0,468.1" fill="#94a3b8" stroke="#475569" opacity="0.88"/><polygon points="410.8,441.2 402.8,468.1 418.8,468.1" fill="#94a3b8" stroke="#475569" opacity="0.88"/><polygon points="419.5,441.2 411.5,468.1 427.5,468.1" fill="#94a3b8" stroke="#475569" opacity="0.88"/><polygon points="410.8,441.2 402.8,468.1 418.8,468.1" fill="#94a3b8" stroke="#475569" opacity="0.88"/><polygon points="390.0,441.2 382.0,468.1 398.0,468.1" fill="#94a3b8" stroke="#475569" opacity="0.88"/><polygon points="369.2,441.2 361.2,468.1 377.2,468.1" fill="#94a3b8" stroke="#475569" opacity="0.88"/><polygon points="360.5,441.2 352.5,468.1 368.5,468.1" fill="#94a3b8" stroke="#475569" opacity="0.88"/><polygon points="369.2,441.2 361.2,468.1 377.2,468.1" fill="#94a3b8" stroke="#475569" opacity="0.88"/><polygon points="379.1,467.5 400.9,467.5 406.1,510.0 373.9,510.0" fill="#f87171" stroke="#991b1b"/><polygon points="431.8,467.5 453.6,467.5 458.8,510.0 426.6,510.0" fill="#f87171" stroke="#991b1b"/><polygon points="379.1,467.5 400.9,467.5 406.1,510.0 373.9,510.0" fill="#f87171" stroke="#991b1b"/><polygon points="326.4,467.5 348.2,467.5 353.4,510.0 321.2,510.0" fill="#f87171" stroke="#991b1b"/>
  <circle cx="625.0" cy="380.0" r="22.3" fill="#cbd5e1" stroke="#475569" opacity="0.30"/><circle cx="625.0" cy="380.0" r="22.3" fill="#cbd5e1" stroke="#475569" opacity="0.30"/><circle cx="625.0" cy="380.0" r="22.3" fill="#cbd5e1" stroke="#475569" opacity="0.30"/><circle cx="625.0" cy="380.0" r="22.3" fill="#cbd5e1" stroke="#475569" opacity="0.30"/><circle cx="625.0" cy="380.0" r="22.3" fill="#f87171" stroke="#475569" opacity="0.30"/><circle cx="625.0" cy="380.0" r="11.2" fill="#e2e8f0" stroke="#475569" opacity="0.30"/><circle cx="625.0" cy="380.0" r="11.2" fill="#cbd5e1" stroke="#475569" opacity="0.30"/><circle cx="625.0" cy="380.0" r="11.2" fill="#cbd5e1" stroke="#475569" opacity="0.30"/><circle cx="638.0" cy="380.0" r="11.2" fill="#cbd5e1" stroke="#334155" opacity="0.80"/><circle cx="612.0" cy="380.0" r="11.2" fill="#cbd5e1" stroke="#334155" opacity="0.80"/><circle cx="677.7" cy="380.0" r="16.1" fill="#f87171" stroke="#334155" opacity="0.80"/><circle cx="677.7" cy="380.0" r="22.3" fill="#cbd5e1" stroke="#334155" opacity="0.80"/><circle cx="677.7" cy="380.0" r="22.3" fill="#cbd5e1" stroke="#334155" opacity="0.80"/><circle cx="652.7" cy="380.0" r="5.4" fill="#cbd5e1" stroke="#334155" opacity="0.80"/><circle cx="625.0" cy="432.7" r="16.1" fill="#f87171" stroke="#334155" opacity="0.80"/><circle cx="625.0" cy="432.7" r="22.3" fill="#cbd5e1" stroke="#334155" opacity="0.80"/><circle cx="625.0" cy="432.7" r="22.3" fill="#cbd5e1" stroke="#334155" opacity="0.80"/><circle cx="625.0" cy="407.7" r="5.4" fill="#cbd5e1" stroke="#334155" opacity="0.80"/><circle cx="572.3" cy="380.0" r="16.1" fill="#f87171" stroke="#334155" opacity="0.80"/><circle cx="572.3" cy="380.0" r="22.3" fill="#cbd5e1" stroke="#334155" opacity="0.80"/><circle cx="572.3" cy="380.0" r="22.3" fill="#cbd5e1" stroke="#334155" opacity="0.80"/><circle cx="597.3" cy="380.0" r="5.4" fill="#cbd5e1" stroke="#334155" opacity="0.80"/><circle cx="625.0" cy="327.3" r="16.1" fill="#f87171" stroke="#334155" opacity="0.80"/><circle cx="625.0" cy="327.3" r="22.3" fill="#cbd5e1" stroke="#334155" opacity="0.80"/><circle cx="625.0" cy="327.3" r="22.3" fill="#cbd5e1" stroke="#334155" opacity="0.80"/><circle cx="625.0" cy="352.3" r="5.4" fill="#cbd5e1" stroke="#334155" opacity="0.80"/><circle cx="640.7" cy="380.0" r="11.2" fill="#cbd5e1" stroke="#334155" opacity="0.80"/><circle cx="609.3" cy="380.0" r="11.2" fill="#cbd5e1" stroke="#334155" opacity="0.80"/><circle cx="625.0" cy="395.7" r="11.2" fill="#cbd5e1" stroke="#334155" opacity="0.80"/><circle cx="625.0" cy="364.3" r="11.2" fill="#cbd5e1" stroke="#334155" opacity="0.80"/><circle cx="636.0" cy="391.0" r="11.2" fill="#cbd5e1" stroke="#334155" opacity="0.80"/><circle cx="654.5" cy="380.0" r="3.1" fill="#94a3b8" stroke="#334155" opacity="0.80"/><circle cx="645.8" cy="400.8" r="3.1" fill="#94a3b8" stroke="#334155" opacity="0.80"/><circle cx="625.0" cy="409.5" r="3.1" fill="#94a3b8" stroke="#334155" opacity="0.80"/><circle cx="604.2" cy="400.8" r="3.1" fill="#94a3b8" stroke="#334155" opacity="0.80"/><circle cx="595.5" cy="380.0" r="3.1" fill="#94a3b8" stroke="#334155" opacity="0.80"/><circle cx="604.2" cy="359.2" r="3.1" fill="#94a3b8" stroke="#334155" opacity="0.80"/><circle cx="625.0" cy="350.5" r="3.1" fill="#94a3b8" stroke="#334155" opacity="0.80"/><circle cx="645.8" cy="359.2" r="3.1" fill="#94a3b8" stroke="#334155" opacity="0.80"/><circle cx="687.4" cy="380.0" r="3.1" fill="#64748b" stroke="#334155" opacity="0.80"/><circle cx="656.2" cy="434.1" r="3.1" fill="#64748b" stroke="#334155" opacity="0.80"/><circle cx="593.8" cy="434.1" r="3.1" fill="#64748b" stroke="#334155" opacity="0.80"/><circle cx="562.6" cy="380.0" r="3.1" fill="#64748b" stroke="#334155" opacity="0.80"/><circle cx="593.8" cy="325.9" r="3.1" fill="#64748b" stroke="#334155" opacity="0.80"/><circle cx="656.2" cy="325.9" r="3.1" fill="#64748b" stroke="#334155" opacity="0.80"/>
  <text x="805" y="94" font-size="12" fill="#16a34a">PASS - slender body (4 &lt;= L/D &lt;= 19)</text><text x="805" y="116" font-size="12" fill="#16a34a">PASS - monotonic taper (widest toward base)</text><text x="805" y="138" font-size="12" fill="#16a34a">PASS - payload housed (fairing or capsule top)</text><text x="805" y="160" font-size="12" fill="#16a34a">PASS - engine at the base</text><text x="805" y="182" font-size="12" fill="#16a34a">PASS - controlled ascent margin</text><text x="805" y="204" font-size="12" fill="#16a34a">PASS - radial protrusions within ascent envelope</text><text x="805" y="226" font-size="12" fill="#16a34a">PASS - landing gear tip-over stable</text><text x="805" y="248" font-size="12" fill="#16a34a">PASS - symmetric strap-on boosters</text>
  <text x="805" y="280" font-size="12" fill="#0f172a">L/D 9.8:1</text><text x="805" y="298" font-size="12" fill="#0f172a">length 24.6 m</text><text x="805" y="316" font-size="12" fill="#0f172a">body dia 2.5 m</text><text x="805" y="334" font-size="12" fill="#0f172a">core span 3.65 m</text><text x="805" y="352" font-size="12" fill="#0f172a">4x radial boosters (span 8.4 m)</text><text x="805" y="370" font-size="12" fill="#0f172a">full span 8.4 m</text><text x="805" y="388" font-size="12" fill="#0f172a">static 0.48 cal</text><text x="805" y="406" font-size="12" fill="#0f172a">Cd 0.232</text><text x="805" y="424" font-size="12" fill="#0f172a">drag loss 66.0 m/s</text><text x="805" y="442" font-size="12" fill="#0f172a">max-Q 88.4 kPa</text>
</svg>