<svg xmlns="http://www.w3.org/2000/svg" width="1080" height="700" viewBox="0 0 1080 700" font-family="system-ui,Segoe UI,sans-serif">
  <rect width="1080" height="700" fill="#f8fafc"/>
  <text x="30" y="32" font-size="19" font-weight="700" fill="#0f172a">Three-view design chart - AI-Eve-Relay</text>
  <text x="805" y="56" font-size="15" font-weight="700" fill="#16a34a">LOOKS LIKE A ROCKET</text>
  <text x="118" y="58" font-size="12" font-weight="700" fill="#334155">SIDE</text>
  <text x="355" y="58" font-size="12" font-weight="700" fill="#334155">FRONT</text>
  <text x="594" y="220" font-size="12" font-weight="700" fill="#334155">TOP</text>
  <line x1="150.0" y1="60" x2="150.0" y2="650" stroke="#e2e8f0" stroke-dasharray="4 4"/>
  <line x1="390.0" y1="60" x2="390.0" y2="650" stroke="#e2e8f0" stroke-dasharray="4 4"/>
  <circle cx="625.0" cy="380.0" r="22.3" fill="none" stroke="#94a3b8" stroke-dasharray="4 4"/>
  <rect x="138.8" y="76.0" width="22.3" height="6.7" rx="3" fill="#cbd5e1" stroke="#475569"/><rect x="138.8" y="82.7" width="22.3" height="10.7" rx="3" fill="#cbd5e1" stroke="#475569"/><rect x="138.8" y="93.4" width="22.3" height="10.7" rx="3" fill="#cbd5e1" stroke="#475569"/><rect x="138.8" y="104.1" width="22.3" height="10.7" rx="3" fill="#cbd5e1" stroke="#475569"/><rect x="138.8" y="114.8" width="22.3" height="5.4" rx="3" fill="#cbd5e1" stroke="#475569"/><rect x="138.8" y="120.2" width="22.3" height="5.4" rx="3" fill="#cbd5e1" stroke="#475569"/><rect x="138.8" y="125.5" width="22.3" height="5.4" rx="3" fill="#cbd5e1" stroke="#475569"/><path d="M 138.8 138.4 L 138.8 76.0 Q 138.8 72.0 150.0 58.0 Q 161.2 72.0 161.2 76.0 L 161.2 138.4 Z" fill="#fde68a" stroke="#d97706" stroke-width="1.4" opacity="0.55"/><rect x="138.8" y="138.4" width="22.3" height="1.8" rx="3" fill="#cbd5e1" stroke="#475569"/><rect x="127.7" y="140.2" width="44.6" height="32.9" rx="3" fill="#cbd5e1" stroke="#475569"/><polygon points="144.5,173.0 155.5,173.0 158.0,202.1 142.0,202.1" fill="#f87171" stroke="#991b1b"/><rect x="138.8" y="202.1" width="22.3" height="1.8" rx="3" fill="#cbd5e1" stroke="#475569"/><rect x="127.7" y="203.9" width="44.6" height="32.9" rx="3" fill="#cbd5e1" stroke="#475569"/><rect x="127.7" y="236.8" width="44.6" height="32.9" rx="3" fill="#cbd5e1" stroke="#475569"/><rect x="127.7" y="269.6" width="44.6" height="32.9" rx="3" fill="#cbd5e1" stroke="#475569"/><polygon points="139.1,302.5 160.9,302.5 166.1,344.9 133.9,344.9" fill="#f87171" stroke="#991b1b"/><rect x="147.3" y="74.9" width="22.3" height="10.7" rx="3" fill="#cbd5e1" stroke="#475569"/><rect x="130.4" y="76.7" width="22.3" height="7.1" rx="3" fill="#cbd5e1" stroke="#475569"/><rect x="138.8" y="77.6" width="22.3" height="5.4" rx="3" fill="#cbd5e1" stroke="#475569"/><rect x="138.8" y="77.6" width="22.3" height="5.4" rx="3" fill="#cbd5e1" stroke="#475569"/><rect x="144.8" y="79.0" width="22.3" height="8.9" rx="3" fill="#cbd5e1" stroke="#475569"/><rect x="180.4" y="169.6" width="44.6" height="66.4" rx="3" fill="#cbd5e1" stroke="#475569"/><rect x="127.7" y="169.6" width="44.6" height="66.4" rx="3" fill="#cbd5e1" stroke="#475569"/><rect x="75.0" y="169.6" width="44.6" height="66.4" rx="3" fill="#cbd5e1" stroke="#475569"/><rect x="127.7" y="169.6" width="44.6" height="66.4" rx="3" fill="#cbd5e1" stroke="#475569"/><rect x="172.3" y="241.3" width="10.7" height="10.7" rx="3" fill="#cbd5e1" stroke="#475569"/><rect x="144.6" y="241.3" width="10.7" height="10.7" rx="3" fill="#cbd5e1" stroke="#475569"/><rect x="117.0" y="241.3" width="10.7" height="10.7" rx="3" fill="#cbd5e1" stroke="#475569"/><rect x="144.6" y="241.3" width="10.7" height="10.7" rx="3" fill="#cbd5e1" stroke="#475569"/><rect x="180.4" y="236.1" width="44.6" height="66.4" rx="3" fill="#cbd5e1" stroke="#475569"/><rect x="127.7" y="236.1" width="44.6" height="66.4" rx="3" fill="#cbd5e1" stroke="#475569"/><rect x="75.0" y="236.1" width="44.6" height="66.4" rx="3" fill="#cbd5e1" stroke="#475569"/><rect x="127.7" y="236.1" width="44.6" height="66.4" rx="3" fill="#cbd5e1" stroke="#475569"/><polygon points="179.5,289.8 171.5,316.8 187.5,316.8" fill="#94a3b8" stroke="#475569" opacity="0.88"/><polygon points="170.8,289.8 162.8,316.8 178.8,316.8" fill="#94a3b8" stroke="#475569" opacity="0.88"/><polygon points="150.0,289.8 142.0,316.8 158.0,316.8" fill="#94a3b8" stroke="#475569" opacity="0.88"/><polygon points="129.2,289.8 121.2,316.8 137.2,316.8" fill="#94a3b8" stroke="#475569" opacity="0.88"/><polygon points="120.5,289.8 112.5,316.8 128.5,316.8" fill="#94a3b8" stroke="#475569" opacity="0.88"/><polygon points="129.2,289.8 121.2,316.8 137.2,316.8" fill="#94a3b8" stroke="#475569" opacity="0.88"/><polygon points="150.0,289.8 142.0,316.8 158.0,316.8" fill="#94a3b8" stroke="#475569" opacity="0.88"/><polygon points="170.8,289.8 162.8,316.8 178.8,316.8" fill="#94a3b8" stroke="#475569" opacity="0.88"/><polygon points="191.8,302.5 213.6,302.5 218.8,344.9 186.6,344.9" fill="#f87171" stroke="#991b1b"/><polygon points="139.1,302.5 160.9,302.5 166.1,344.9 133.9,344.9" fill="#f87171" stroke="#991b1b"/><polygon points="86.4,302.5 108.3,302.5 113.4,344.9 81.3,344.9" fill="#f87171" stroke="#991b1b"/><polygon points="139.1,302.5 160.9,302.5 166.1,344.9 133.9,344.9" fill="#f87171" stroke="#991b1b"/>
  <rect x="378.8" y="76.0" width="22.3" height="6.7" rx="3" fill="#cbd5e1" stroke="#475569"/><rect x="378.8" y="82.7" width="22.3" height="10.7" rx="3" fill="#cbd5e1" stroke="#475569"/><rect x="378.8" y="93.4" width="22.3" height="10.7" rx="3" fill="#cbd5e1" stroke="#475569"/><rect x="378.8" y="104.1" width="22.3" height="10.7" rx="3" fill="#cbd5e1" stroke="#475569"/><rect x="378.8" y="114.8" width="22.3" height="5.4" rx="3" fill="#cbd5e1" stroke="#475569"/><rect x="378.8" y="120.2" width="22.3" height="5.4" rx="3" fill="#cbd5e1" stroke="#475569"/><rect x="378.8" y="125.5" width="22.3" height="5.4" rx="3" fill="#cbd5e1" stroke="#475569"/><path d="M 378.8 138.4 L 378.8 76.0 Q 378.8 72.0 390.0 58.0 Q 401.2 72.0 401.2 76.0 L 401.2 138.4 Z" fill="#fde68a" stroke="#d97706" stroke-width="1.4" opacity="0.55"/><rect x="378.8" y="138.4" width="22.3" height="1.8" rx="3" fill="#cbd5e1" stroke="#475569"/><rect x="367.7" y="140.2" width="44.6" height="32.9" rx="3" fill="#cbd5e1" stroke="#475569"/><polygon points="384.5,173.0 395.5,173.0 398.0,202.1 382.0,202.1" fill="#f87171" stroke="#991b1b"/><rect x="378.8" y="202.1" width="22.3" height="1.8" rx="3" fill="#cbd5e1" stroke="#475569"/><rect x="367.7" y="203.9" width="44.6" height="32.9" rx="3" fill="#cbd5e1" stroke="#475569"/><rect x="367.7" y="236.8" width="44.6" height="32.9" rx="3" fill="#cbd5e1" stroke="#475569"/><rect x="367.7" y="269.6" width="44.6" height="32.9" rx="3" fill="#cbd5e1" stroke="#475569"/><polygon points="379.1,302.5 400.9,302.5 406.1,344.9 373.9,344.9" fill="#f87171" stroke="#991b1b"/><rect x="378.8" y="74.9" width="22.3" height="10.7" rx="3" fill="#cbd5e1" stroke="#475569"/><rect x="378.8" y="76.7" width="22.3" height="7.1" rx="3" fill="#cbd5e1" stroke="#475569"/><rect x="387.3" y="77.6" width="22.3" height="5.4" rx="3" fill="#cbd5e1" stroke="#475569"/><rect x="370.4" y="77.6" width="22.3" height="5.4" rx="3" fill="#cbd5e1" stroke="#475569"/><rect x="384.8" y="79.0" width="22.3" height="8.9" rx="3" fill="#cbd5e1" stroke="#475569"/><rect x="367.7" y="169.6" width="44.6" height="66.4" rx="3" fill="#cbd5e1" stroke="#475569"/><rect x="420.4" y="169.6" width="44.6" height="66.4" rx="3" fill="#cbd5e1" stroke="#475569"/><rect x="367.7" y="169.6" width="44.6" height="66.4" rx="3" fill="#cbd5e1" stroke="#475569"/><rect x="315.0" y="169.6" width="44.6" height="66.4" rx="3" fill="#cbd5e1" stroke="#475569"/><rect x="384.6" y="241.3" width="10.7" height="10.7" rx="3" fill="#cbd5e1" stroke="#475569"/><rect x="412.3" y="241.3" width="10.7" height="10.7" rx="3" fill="#cbd5e1" stroke="#475569"/><rect x="384.6" y="241.3" width="10.7" height="10.7" rx="3" fill="#cbd5e1" stroke="#475569"/><rect x="357.0" y="241.3" width="10.7" height="10.7" rx="3" fill="#cbd5e1" stroke="#475569"/><rect x="367.7" y="236.1" width="44.6" height="66.4" rx="3" fill="#cbd5e1" stroke="#475569"/><rect x="420.4" y="236.1" width="44.6" height="66.4" rx="3" fill="#cbd5e1" stroke="#475569"/><rect x="367.7" y="236.1" width="44.6" height="66.4" rx="3" fill="#cbd5e1" stroke="#475569"/><rect x="315.0" y="236.1" width="44.6" height="66.4" rx="3" fill="#cbd5e1" stroke="#475569"/><polygon points="390.0,289.8 382.0,316.8 398.0,316.8" fill="#94a3b8" stroke="#475569" opacity="0.88"/><polygon points="410.8,289.8 402.8,316.8 418.8,316.8" fill="#94a3b8" stroke="#475569" opacity="0.88"/><polygon points="419.5,289.8 411.5,316.8 427.5,316.8" fill="#94a3b8" stroke="#475569" opacity="0.88"/><polygon points="410.8,289.8 402.8,316.8 418.8,316.8" fill="#94a3b8" stroke="#475569" opacity="0.88"/><polygon points="390.0,289.8 382.0,316.8 398.0,316.8" fill="#94a3b8" stroke="#475569" opacity="0.88"/><polygon points="369.2,289.8 361.2,316.8 377.2,316.8" fill="#94a3b8" stroke="#475569" opacity="0.88"/><polygon points="360.5,289.8 352.5,316.8 368.5,316.8" fill="#94a3b8" stroke="#475569" opacity="0.88"/><polygon points="369.2,289.8 361.2,316.8 377.2,316.8" fill="#94a3b8" stroke="#475569" opacity="0.88"/><polygon points="379.1,302.5 400.9,302.5 406.1,344.9 373.9,344.9" fill="#f87171" stroke="#991b1b"/><polygon points="431.8,302.5 453.6,302.5 458.8,344.9 426.6,344.9" fill="#f87171" stroke="#991b1b"/><polygon points="379.1,302.5 400.9,302.5 406.1,344.9 373.9,344.9" fill="#f87171" stroke="#991b1b"/><polygon points="326.4,302.5 348.2,302.5 353.4,344.9 321.2,344.9" fill="#f87171" stroke="#991b1b"/>
  <circle cx="625.0" cy="380.0" r="22.3" fill="#cbd5e1" stroke="#475569" opacity="0.30"/><circle cx="625.0" cy="380.0" r="22.3" fill="#cbd5e1" stroke="#475569" opacity="0.30"/><circle cx="625.0" cy="380.0" r="22.3" fill="#cbd5e1" stroke="#475569" opacity="0.30"/><circle cx="625.0" cy="380.0" r="22.3" fill="#cbd5e1" stroke="#475569" opacity="0.30"/><circle cx="625.0" cy="380.0" r="22.3" fill="#f87171" stroke="#475569" opacity="0.30"/><circle cx="625.0" cy="380.0" r="11.2" fill="#cbd5e1" stroke="#475569" opacity="0.30"/><circle cx="625.0" cy="380.0" r="11.2" fill="#cbd5e1" stroke="#475569" opacity="0.30"/><circle cx="625.0" cy="380.0" r="11.2" fill="#cbd5e1" stroke="#475569" opacity="0.30"/><circle cx="677.7" cy="380.0" r="16.1" fill="#f87171" stroke="#334155" opacity="0.80"/><circle cx="677.7" cy="380.0" r="22.3" fill="#cbd5e1" stroke="#334155" opacity="0.80"/><circle cx="677.7" cy="380.0" r="22.3" fill="#cbd5e1" stroke="#334155" opacity="0.80"/><circle cx="652.7" cy="380.0" r="5.4" fill="#cbd5e1" stroke="#334155" opacity="0.80"/><circle cx="625.0" cy="432.7" r="16.1" fill="#f87171" stroke="#334155" opacity="0.80"/><circle cx="625.0" cy="432.7" r="22.3" fill="#cbd5e1" stroke="#334155" opacity="0.80"/><circle cx="625.0" cy="432.7" r="22.3" fill="#cbd5e1" stroke="#334155" opacity="0.80"/><circle cx="625.0" cy="407.7" r="5.4" fill="#cbd5e1" stroke="#334155" opacity="0.80"/><circle cx="572.3" cy="380.0" r="16.1" fill="#f87171" stroke="#334155" opacity="0.80"/><circle cx="572.3" cy="380.0" r="22.3" fill="#cbd5e1" stroke="#334155" opacity="0.80"/><circle cx="572.3" cy="380.0" r="22.3" fill="#cbd5e1" stroke="#334155" opacity="0.80"/><circle cx="597.3" cy="380.0" r="5.4" fill="#cbd5e1" stroke="#334155" opacity="0.80"/><circle cx="625.0" cy="327.3" r="16.1" fill="#f87171" stroke="#334155" opacity="0.80"/><circle cx="625.0" cy="327.3" r="22.3" fill="#cbd5e1" stroke="#334155" opacity="0.80"/><circle cx="625.0" cy="327.3" r="22.3" fill="#cbd5e1" stroke="#334155" opacity="0.80"/><circle cx="625.0" cy="352.3" r="5.4" fill="#cbd5e1" stroke="#334155" opacity="0.80"/><circle cx="633.5" cy="380.0" r="11.2" fill="#cbd5e1" stroke="#334155" opacity="0.80"/><circle cx="616.5" cy="380.0" r="11.2" fill="#cbd5e1" stroke="#334155" opacity="0.80"/><circle cx="625.0" cy="388.5" r="11.2" fill="#cbd5e1" stroke="#334155" opacity="0.80"/><circle cx="625.0" cy="371.5" r="11.2" fill="#cbd5e1" stroke="#334155" opacity="0.80"/><circle cx="630.9" cy="385.9" r="11.2" fill="#cbd5e1" stroke="#334155" opacity="0.80"/><circle cx="654.5" cy="380.0" r="3.1" fill="#94a3b8" stroke="#334155" opacity="0.80"/><circle cx="645.8" cy="400.8" r="3.1" fill="#94a3b8" stroke="#334155" opacity="0.80"/><circle cx="625.0" cy="409.5" r="3.1" fill="#94a3b8" stroke="#334155" opacity="0.80"/><circle cx="604.2" cy="400.8" r="3.1" fill="#94a3b8" stroke="#334155" opacity="0.80"/><circle cx="595.5" cy="380.0" r="3.1" fill="#94a3b8" stroke="#334155" opacity="0.80"/><circle cx="604.2" cy="359.2" r="3.1" fill="#94a3b8" stroke="#334155" opacity="0.80"/><circle cx="625.0" cy="350.5" r="3.1" fill="#94a3b8" stroke="#334155" opacity="0.80"/><circle cx="645.8" cy="359.2" r="3.1" fill="#94a3b8" stroke="#334155" opacity="0.80"/>
  <text x="805" y="94" font-size="12" fill="#16a34a">PASS - slender body (4 &lt;= L/D &lt;= 19)</text><text x="805" y="116" font-size="12" fill="#16a34a">PASS - monotonic taper (widest toward base)</text><text x="805" y="138" font-size="12" fill="#16a34a">PASS - payload housed (fairing or capsule top)</text><text x="805" y="160" font-size="12" fill="#16a34a">PASS - engine at the base</text><text x="805" y="182" font-size="12" fill="#16a34a">PASS - controlled ascent margin</text><text x="805" y="204" font-size="12" fill="#16a34a">PASS - radial protrusions within ascent envelope</text><text x="805" y="226" font-size="12" fill="#16a34a">PASS - landing gear tip-over stable</text><text x="805" y="248" font-size="12" fill="#16a34a">PASS - symmetric strap-on boosters</text>
  <text x="805" y="280" font-size="12" fill="#0f172a">L/D 6.0:1</text><text x="805" y="298" font-size="12" fill="#0f172a">length 15.06 m</text><text x="805" y="316" font-size="12" fill="#0f172a">body dia 2.5 m</text><text x="805" y="334" font-size="12" fill="#0f172a">core span 3.65 m</text><text x="805" y="352" font-size="12" fill="#0f172a">4x radial boosters (span 8.4 m)</text><text x="805" y="370" font-size="12" fill="#0f172a">full span 8.4 m</text><text x="805" y="388" font-size="12" fill="#0f172a">static 0.38 cal</text><text x="805" y="406" font-size="12" fill="#0f172a">Cd 0.232</text><text x="805" y="424" font-size="12" fill="#0f172a">drag loss 79.0 m/s</text><text x="805" y="442" font-size="12" fill="#0f172a">max-Q 88.4 kPa</text>
</svg>