<svg viewBox="0 0 900 760" xmlns="http://www.w3.org/2000/svg" font-family="Segoe UI, Helvetica, Arial, sans-serif">
  <defs>
    <marker id="cyc" viewBox="0 0 10 10" refX="9" refY="5" markerWidth="7.5" markerHeight="7.5" orient="auto-start-reverse">
      <path d="M0,0 L10,5 L0,10 z" fill="#7c3aed"/>
    </marker>
    <marker id="retry" viewBox="0 0 10 10" refX="9" refY="5" markerWidth="7.5" markerHeight="7.5" orient="auto-start-reverse">
      <path d="M0,0 L10,5 L0,10 z" fill="#b45309"/>
    </marker>
  </defs>
  <style>
    .node  { rx: 14; stroke-width: 2; }
    .ntitle{ font-size: 16px; font-weight: 700; fill: #ffffff; }
    .nsub  { font-size: 12px; fill: #ede9fe; }
    .neqn  { font-size: 12px; fill: #d9f99d; font-style: italic; }
    .ring  { stroke: #7c3aed; stroke-width: 2.4; fill: none; }
    .hub   { font-size: 16px; font-weight: 700; fill: #ffffff; }
    .hub2  { font-size: 12px; fill: #e2e8f0; }
    .rlab  { font-size: 12px; fill: #b45309; font-weight: 700; }
  </style>

  <!-- center hub -->
  <circle cx="450" cy="380" r="96" fill="#4c1d95" stroke="#6d28d9" stroke-width="2"/>
  <text x="450" y="360" text-anchor="middle" class="hub">Calculated loop</text>
  <text x="450" y="383" text-anchor="middle" class="hub2">one mission step,</text>
  <text x="450" y="400" text-anchor="middle" class="hub2">every number solved</text>
  <text x="450" y="417" text-anchor="middle" class="hub2">from physics (Claude Code)</text>

  <!-- 6 steps clockwise from top -->

  <!-- 1 Divide (top) -->
  <rect x="335" y="22" width="230" height="76" class="node" fill="#6d28d9" stroke="#4c1d95"/>
  <text x="450" y="50" text-anchor="middle" class="ntitle">1 · Divide</text>
  <text x="450" y="70" text-anchor="middle" class="nsub">one-line goal &#8594; ordered steps</text>
  <text x="450" y="88" text-anchor="middle" class="nsub">launch · transfer · land · refuel · return</text>

  <!-- 2 Design ship (top right) -->
  <rect x="630" y="150" width="252" height="92" class="node" fill="#0f766e" stroke="#115e59"/>
  <text x="756" y="178" text-anchor="middle" class="ntitle">2 · Design ship  (CALCULATED)</text>
  <text x="756" y="198" text-anchor="middle" class="neqn">&#916;v &#8594; tank count (rocket eqn)</text>
  <text x="756" y="214" text-anchor="middle" class="neqn">TWR &#8594; engine clusters</text>
  <text x="756" y="230" text-anchor="middle" class="neqn">atmosphere &#961; &#8594; chutes / propulsive</text>

  <!-- 3 Plan maneuver (lower right) -->
  <rect x="630" y="520" width="252" height="92" class="node" fill="#0f766e" stroke="#115e59"/>
  <text x="756" y="548" text-anchor="middle" class="ntitle">3 · Plan maneuver  (CALCULATED)</text>
  <text x="756" y="568" text-anchor="middle" class="neqn">vis-viva &#183; Oberth</text>
  <text x="756" y="584" text-anchor="middle" class="neqn">rocket eqn &#183; hoverslam law</text>
  <text x="756" y="600" text-anchor="middle" class="neqn">node = (dv_prograde, dv_normal, ut)</text>

  <!-- 4 Fly (bottom) -->
  <rect x="335" y="662" width="230" height="76" class="node" fill="#b45309" stroke="#92400e"/>
  <text x="450" y="690" text-anchor="middle" class="ntitle">4 · Fly</text>
  <text x="450" y="710" text-anchor="middle" class="nsub">delegate to MechJeb / kRPC</text>
  <text x="450" y="728" text-anchor="middle" class="nsub">finite-burn lead · warp&#8594;ut · hoverslam</text>

  <!-- 5 Verify (lower left) -->
  <rect x="18" y="520" width="252" height="92" class="node" fill="#6d28d9" stroke="#4c1d95"/>
  <text x="144" y="548" text-anchor="middle" class="ntitle">5 · Verify</text>
  <text x="144" y="568" text-anchor="middle" class="nsub">measure(vessel) live state</text>
  <text x="144" y="584" text-anchor="middle" class="nsub">orbit / altitude / velocity hit target?</text>
  <text x="144" y="600" text-anchor="middle" class="nsub">within tolerance &#8594; pass</text>

  <!-- 6 Record (top left) -->
  <rect x="18" y="150" width="252" height="92" class="node" fill="#5b21b6" stroke="#4c1d95"/>
  <text x="144" y="178" text-anchor="middle" class="ntitle">6 · Record</text>
  <text x="144" y="198" text-anchor="middle" class="nsub">log the calculated values</text>
  <text x="144" y="214" text-anchor="middle" class="nsub">+ the achieved result</text>
  <text x="144" y="230" text-anchor="middle" class="nsub">advance to next step</text>

  <!-- cycle arrows (clockwise) -->
  <path d="M567,72  C645,92  690,118 705,148"  class="ring" marker-end="url(#cyc)"/>   <!-- 1 -> 2 -->
  <path d="M756,242 C756,330 756,430 756,516"  class="ring" marker-end="url(#cyc)"/>   <!-- 2 -> 3 -->
  <path d="M700,612 C680,640 630,660 567,672"  class="ring" marker-end="url(#cyc)"/>   <!-- 3 -> 4 -->
  <path d="M333,672 C270,660 220,640 200,612"  class="ring" marker-end="url(#cyc)"/>   <!-- 4 -> 5 -->
  <path d="M144,516 C144,430 144,330 144,244"  class="ring" marker-end="url(#cyc)"/>   <!-- 5 -> 6 -->
  <path d="M200,148 C220,118 270,92  333,72"   class="ring" marker-end="url(#cyc)"/>   <!-- 6 -> 1 -->

  <!-- retry arrow: Verify fails -> back to Plan (re-solve the step) -->
  <path d="M270,560 C400,520 520,540 626,556" class="ring" stroke="#b45309" stroke-dasharray="7 5" marker-end="url(#retry)"/>
  <text x="450" y="525" text-anchor="middle" class="rlab">on miss: re-solve &#8594; retry</text>
</svg>
