<svg viewBox="0 0 660 770" xmlns="http://www.w3.org/2000/svg" role="img" font-family="ui-sans-serif,system-ui,sans-serif">
<title>Rebuilt relay launcher (side view) and its classic comsat payload</title>
<desc>A slender two-stage rocket: fairing nose, payload bus, vacuum upper stage, sea-level booster, base fins, engine; and the comsat deployed in orbit.</desc>
<rect x="0" y="0" width="660" height="770" fill="#0f1115"/>
<rect x="140" y="175" width="50" height="488" rx="4" fill="#b9c0cb" stroke="#5a616d"/>
<line x1="140" y1="175" x2="190" y2="175" stroke="#9aa1ad" stroke-width="0.6"/>
<line x1="140" y1="273" x2="190" y2="273" stroke="#9aa1ad" stroke-width="0.6"/>
<line x1="140" y1="370" x2="190" y2="370" stroke="#9aa1ad" stroke-width="0.6"/>
<line x1="140" y1="468" x2="190" y2="468" stroke="#9aa1ad" stroke-width="0.6"/>
<line x1="140" y1="565" x2="190" y2="565" stroke="#9aa1ad" stroke-width="0.6"/>
<path d="M140,663 L190,663 L198,699 L132,699 Z" fill="#7b8290" stroke="#454b55"/>
<path d="M140,593 L114,651 L140,633 Z" fill="#9aa3b0" stroke="#5a616d"/>
<path d="M190,593 L216,651 L190,633 Z" fill="#9aa3b0" stroke="#5a616d"/>
<rect x="152" y="113" width="25" height="48" rx="3" fill="#cdd3dc" stroke="#5a616d"/>
<path d="M152,161 L178,161 L182,172 L148,172 Z" fill="#7b8290" stroke="#454b55"/>
<rect x="152" y="75" width="25" height="38" rx="3" fill="#e0cf9e" stroke="#7a6f45"/>
<path d="M152,75 Q152,66 165,46 Q178,66 178,75 Z" fill="#d8c79a" stroke="#7a6f45"/>
<line x1="135" y1="111" x2="195" y2="111" stroke="#ff7a7a" stroke-width="1.4" stroke-dasharray="4 3"/>
<line x1="135" y1="174" x2="195" y2="174" stroke="#ff7a7a" stroke-width="1.4" stroke-dasharray="4 3"/>
<text x="300" y="55" fill="#e8ecf2" font-size="12">(1) PAYLOAD FAIRING (ogive nose)</text>
<line x1="194" y1="51" x2="296" y2="51" stroke="#48505c" stroke-width="0.7"/>
<text x="300" y="94" fill="#e8ecf2" font-size="12">(2) COMSAT BUS - RA-100 + solar, STOWED inside</text>
<line x1="194" y1="90" x2="296" y2="90" stroke="#48505c" stroke-width="0.7"/>
<text x="300" y="115" fill="#ff9a9a" font-size="11">(3) payload / interstage separation</text>
<line x1="194" y1="111" x2="296" y2="111" stroke="#48505c" stroke-width="0.7"/>
<text x="300" y="141" fill="#e8ecf2" font-size="12">(4) UPPER STAGE - Terrier (vacuum, high-Isp)</text>
<line x1="194" y1="137" x2="296" y2="137" stroke="#48505c" stroke-width="0.7"/>
<text x="300" y="178" fill="#ff9a9a" font-size="11">(5) stage-1 separation (interstage)</text>
<line x1="194" y1="174" x2="296" y2="174" stroke="#48505c" stroke-width="0.7"/>
<text x="300" y="419" fill="#e8ecf2" font-size="12">(6) BOOSTER - Mainsail (sea-level), 5 tanks</text>
<line x1="194" y1="415" x2="296" y2="415" stroke="#48505c" stroke-width="0.7"/>
<text x="300" y="640" fill="#e8ecf2" font-size="12">(7) base FINS x7</text>
<line x1="194" y1="636" x2="296" y2="636" stroke="#48505c" stroke-width="0.7"/>
<text x="300" y="692" fill="#e8ecf2" font-size="12">(8) engine - TWR 1.38, fineness 19.6:1</text>
<line x1="194" y1="688" x2="296" y2="688" stroke="#48505c" stroke-width="0.7"/>
<text x="300" y="194" fill="#ffcf8a" font-size="10">2.5m booster -&gt; 1.25m upper: add a conical adapter (todo)</text>
<text x="500" y="60" fill="#e8ecf2" font-size="13" text-anchor="middle" font-weight="600">Comsat (deployed in orbit)</text>
<rect x="474" y="326" width="52" height="68" rx="4" fill="#e0cf9e" stroke="#7a6f45"/>
<rect x="382" y="344" width="90" height="32" fill="#3b6ea5" stroke="#27486b"/>
<rect x="528" y="344" width="90" height="32" fill="#3b6ea5" stroke="#27486b"/>
<line x1="397" y1="344" x2="397" y2="376" stroke="#27486b" stroke-width="0.6"/>
<line x1="543" y1="344" x2="543" y2="376" stroke="#27486b" stroke-width="0.6"/>
<line x1="412" y1="344" x2="412" y2="376" stroke="#27486b" stroke-width="0.6"/>
<line x1="558" y1="344" x2="558" y2="376" stroke="#27486b" stroke-width="0.6"/>
<line x1="427" y1="344" x2="427" y2="376" stroke="#27486b" stroke-width="0.6"/>
<line x1="573" y1="344" x2="573" y2="376" stroke="#27486b" stroke-width="0.6"/>
<line x1="442" y1="344" x2="442" y2="376" stroke="#27486b" stroke-width="0.6"/>
<line x1="588" y1="344" x2="588" y2="376" stroke="#27486b" stroke-width="0.6"/>
<line x1="457" y1="344" x2="457" y2="376" stroke="#27486b" stroke-width="0.6"/>
<line x1="603" y1="344" x2="603" y2="376" stroke="#27486b" stroke-width="0.6"/>
<ellipse cx="500" cy="302" rx="22" ry="11" fill="#cdd3dc" stroke="#5a616d"/>
<line x1="500" y1="313" x2="500" y2="326" stroke="#5a616d" stroke-width="2"/>
<text x="500" y="286" fill="#9aa3b0" font-size="10" text-anchor="middle">RA-100 dish</text>
<text x="427" y="390" fill="#9aa3b0" font-size="10" text-anchor="middle">solar wing</text>
<text x="573" y="390" fill="#9aa3b0" font-size="10" text-anchor="middle">solar wing</text>
<text x="500" y="362" fill="#2a2e35" font-size="9" text-anchor="middle">bus</text>
<text x="500" y="470" fill="#7e8794" font-size="10" text-anchor="middle">stowed in the fairing for launch;</text>
<text x="500" y="484" fill="#7e8794" font-size="10" text-anchor="middle">deploys ONLY after fairing jettison</text>
</svg>